<svg xmlns="http://www.w3.org/2000/svg" xmlns:xlink="http://www.w3.org/1999/xlink" width="205.459" height="199.724" viewBox="0 0 205.459 199.724"><defs><filter id="a" x="30.518" y="21.103" width="125.754" height="158.465" filterUnits="userSpaceOnUse"><feOffset dy="10" input="SourceAlpha"/><feGaussianBlur stdDeviation="5" result="b"/><feFlood flood-opacity="0.161"/><feComposite operator="in" in2="b"/><feComposite in="SourceGraphic"/></filter><linearGradient id="c" y1="1.241" x2="1.394" y2="0.592" gradientUnits="objectBoundingBox"><stop offset="0" stop-color="#00fccc"/><stop offset="0.195" stop-color="#00caf9"/><stop offset="1" stop-color="#6945ff"/></linearGradient><filter id="e" x="59.416" y="4.298" width="113.159" height="146.87" filterUnits="userSpaceOnUse"><feOffset dy="10" input="SourceAlpha"/><feGaussianBlur stdDeviation="3" result="f"/><feFlood flood-opacity="0.161"/><feComposite operator="in" in2="f"/><feComposite in="SourceGraphic"/></filter><filter id="g" x="121.801" y="0" width="51.379" height="51.408" filterUnits="userSpaceOnUse"><feOffset dy="5" input="SourceAlpha"/><feGaussianBlur stdDeviation="3" result="h"/><feFlood flood-opacity="0.161"/><feComposite operator="in" in2="h"/><feComposite in="SourceGraphic"/></filter><linearGradient id="i" x1="0.523" y1="1.208" x2="0.524" y2="0.009" gradientUnits="objectBoundingBox"><stop offset="0" stop-color="#befff3"/><stop offset="1" stop-color="#76e5ff"/></linearGradient></defs><g transform="translate(-930.353 -342.732)"><g transform="translate(99.836 65.732)"><g transform="translate(876.035 281)"><g transform="matrix(1, 0, 0, 1, -45.52, -4)" filter="url(#a)"><rect width="95.754" height="128.465" rx="25" transform="translate(45.52 26.1)" fill="#3f65c4"/></g><g transform="translate(22.6 0.001)"><path d="M269.806,374.585V454.75a14.571,14.571,0,0,1-14.571,14.571H189.219a14.571,14.571,0,0,1-14.571-14.571V356.023a14.571,14.571,0,0,1,14.571-14.571h47.737l0-.3h-47.74a14.869,14.869,0,0,0-14.869,14.869V454.75a14.869,14.869,0,0,0,14.869,14.869h66.017A14.869,14.869,0,0,0,270.1,454.75V374.585Z" transform="translate(-174.35 -341.154)" fill="url(#c)"/><g transform="matrix(1, 0, 0, 1, -68.12, -4)" filter="url(#e)"><path d="M237.257,365.439c-.2-6.52-.128-19.529-.1-23.785H189.421a14.571,14.571,0,0,0-14.571,14.571v98.728a14.571,14.571,0,0,0,14.571,14.571h66.017a14.571,14.571,0,0,0,14.571-14.571V374.787H247.873S237.5,373.3,237.257,365.439Z" transform="translate(-106.43 -337.36)" fill="url(#c)"/></g></g><circle cx="24.979" cy="24.979" r="24.979" transform="translate(45.795 30.43)" fill="#3f65c4"/><path d="M0,12.22a21.122,21.122,0,0,1,38.094-.448,24.926,24.926,0,0,1-19.237,9.044A24.92,24.92,0,0,1,0,12.22Z" transform="translate(51.918 59.572)" fill="#eaeaea"/><circle cx="9.813" cy="9.813" r="9.813" transform="translate(60.664 37.566)" fill="#eaeaea"/><line x2="48.174" transform="translate(46.687 91.986)" fill="none" stroke="#fff" stroke-linecap="round" stroke-width="3"/><g transform="translate(46.39 103.88)"><line x2="22.6" transform="translate(0)" fill="none" stroke="#fff" stroke-linecap="round" stroke-width="3"/><line x2="6.542" transform="translate(28.548)" fill="none" stroke="#fff" stroke-linecap="round" stroke-width="3"/><line x2="6.542" transform="translate(41.632)" fill="none" stroke="#fff" stroke-linecap="round" stroke-width="3"/></g><g transform="matrix(1, 0, 0, 1, -45.52, -4)" filter="url(#g)"><path d="M1346.441-17345.645l33.333,33.408H1356.8s-10.038-1.439-10.272-9.049S1346.441-17345.645,1346.441-17345.645Z" transform="translate(-1215.59 17349.64)" fill="#00caf9"/></g></g><path d="M10.8,20.366a16.478,16.478,0,0,0,1.7-1.886l3.105-3.91H6.152c-1.012,0-1.977.046-3.058.138V11.143c1.012.092,1.977.138,3.082.138H16.916a9.444,9.444,0,0,0,2.209-.138L21.1,13.4a13.606,13.606,0,0,0-1.082,1.288L15.743,20.32c-.529.689-.8,1.081-1.4,2Zm55.016-.184a23.621,23.621,0,0,1-7.384,1.771A9.678,9.678,0,0,0,57.4,18.871a13.913,13.913,0,0,1-1.38,3.059A15.344,15.344,0,0,0,53.371,18.8c1.518-2.944,1.863-5.543,1.863-13.938,0-1.541-.023-2.369-.092-3.289a27.069,27.069,0,0,0,2.852.115h5.4V1.345A5.691,5.691,0,0,0,63.284.2h3.773a5.7,5.7,0,0,0-.093,1.2v.3h5.129a24.463,24.463,0,0,0,3.013-.139V4.8c-.782-.046-1.288-.069-2.392-.069H71.587c-.023.391-.023.483-.023.943h1.588a16.851,16.851,0,0,0,2-.092V8.613A13.441,13.441,0,0,0,73.2,8.521H71.563v1.748a13.944,13.944,0,0,0,.069,1.541h-.3c-.185-.023-.483-.023-1.173-.023H62.479c-.575,0-1.081,0-1.518.023a14.246,14.246,0,0,0,.069-1.541V8.521H58.684c-.092,4.853-.414,7.452-1.219,10.12a24.592,24.592,0,0,0,4.784-.482c-.6-.461-.6-.461-2.208-1.795l2.415-1.012H61.444c-.989,0-1.771.023-2.392.068V12.546a24.183,24.183,0,0,0,2.623.092h7.773c1.128,0,1.633-.023,2.231-.068l1.656,1.748c-.207.229-.391.436-.851,1.012a14.9,14.9,0,0,1-2.76,2.623,26.473,26.473,0,0,0,5.727.414,17.49,17.49,0,0,0-1.219,3.611A25.418,25.418,0,0,1,65.814,20.182Zm.253-3.38a8.217,8.217,0,0,0,1.977-1.449H63.721A8.932,8.932,0,0,0,66.067,16.8Zm-1.61-7.475h3.68V8.337h-3.68Zm0-3.657h3.68c0-.437,0-.575-.023-.943H64.48C64.457,5.347,64.457,5.347,64.457,5.669Zm-5.75,0H61.03c0-.414,0-.552-.023-.943h-2.3Zm-21.3,16.284a21.348,21.348,0,0,0,.139-2.852V17.238H30.394a22.839,22.839,0,0,0-2.737.139V13.811a22.786,22.786,0,0,0,2.737.138h.529V8.59c-.553.575-.76.782-1.4,1.381a10.444,10.444,0,0,0-2.3-3.037A14.039,14.039,0,0,0,31.59,1.6a6.79,6.79,0,0,0,.575-1.656l3.818.644c-.207.414-.23.46-.483,1.058-.114.253-.184.414-.345.735h10.1A20.413,20.413,0,0,0,47.9,2.242v3.5A21.229,21.229,0,0,0,45.252,5.6h-4.14V7.808h3.22c1.219,0,1.909-.023,2.668-.093v3.335c-.759-.069-1.426-.092-2.553-.092H41.112v2.99h4.83a21.594,21.594,0,0,0,2.713-.138v3.565a22.97,22.97,0,0,0-2.713-.139h-4.83V19.17a17.989,17.989,0,0,0,.138,2.783Zm-3.058-8h3.2v-2.99h-3.2ZM31.613,7.785c.346.023.483.023.851.023h5.083V5.6H33.315A21.182,21.182,0,0,1,31.613,7.785Zm81.558,14.03a13.5,13.5,0,0,0-1.012-3.381c1.265.115,2.139.185,2.783.185.92,0,1.081-.069,1.081-.483V15.95h-5.612a28.662,28.662,0,0,0-3.174.139v-3.5a25.479,25.479,0,0,0,3.128.161h5.657a7.122,7.122,0,0,0-.068-1.081h1.265a8.378,8.378,0,0,0,1.564-1.173h-4.761a23.306,23.306,0,0,0-2.438.092v-3.1c.759.068,1.357.092,2.462.092h6.877a11.465,11.465,0,0,0,1.817-.092L124.418,9.4c-.253.207-.345.3-.69.621a38.039,38.039,0,0,1-3.219,2.737h4.254a29.725,29.725,0,0,0,3.244-.161v3.5a29.849,29.849,0,0,0-3.289-.139h-5.106v3.2c0,2.231-.782,2.738-4.347,2.738C114.873,21.884,114.252,21.861,113.171,21.815Zm37.7-.483H137.459c-1.311,0-2.461.046-3.8.161V17.928a36.568,36.568,0,0,0,3.658.161h5.036V14.34h-2.851c-1.219,0-2.163.046-3.152.139V11.028a28.037,28.037,0,0,0,3.082.115h2.921V7.693h-4.071a20.9,20.9,0,0,1-3.151,4.761,12.23,12.23,0,0,0-2.3-2.99A14.712,14.712,0,0,0,136.861.931l3.587.851c-.275.782-.275.782-.46,1.4-.115.46-.23.8-.391,1.311h2.759V3.438A25.975,25.975,0,0,0,142.22.356h3.933a21.166,21.166,0,0,0-.138,3.082V4.5h4c1.357,0,2.484-.047,3.588-.139V7.831c-1.15-.092-2.231-.138-3.473-.138h-4.117v3.45h3.38a31.682,31.682,0,0,0,3.22-.138v3.473c-1.035-.093-1.978-.139-3.2-.139h-3.4v3.749h4.738a33.881,33.881,0,0,0,3.658-.161v3.565C153.1,21.378,152.133,21.332,150.868,21.332Zm40.089-.9a16.341,16.341,0,0,0-.391-3.98,20.881,20.881,0,0,0,6.187,1.058c3.082,0,5.014-.943,5.014-2.438,0-1.081-1.149-1.679-3.243-1.679a10.068,10.068,0,0,0-4.692,1.058,3.415,3.415,0,0,0-1.472,1.2l-3.887-1.242a33.693,33.693,0,0,0,2.944-6.877c-.229,0-.229,0-.85-.023-.46,0-.483,0-2.277-.138-.322-.023-.575-.023-.759-.023a1.221,1.221,0,0,0-.254.023l.047-3.749a23.365,23.365,0,0,0,4.968.391A17.661,17.661,0,0,0,192.82.54L197.1.885c-.253.828-.253.828-.805,3.083,4.531-.184,7.177-.483,8.556-.943l.161,3.933c-.6.023-.828.023-1.633.115-3.219.322-5.336.46-8,.529a24.406,24.406,0,0,1-1.334,3.45,11.092,11.092,0,0,1,5.036-1.035,8.578,8.578,0,0,1,4.968,1.219,4.659,4.659,0,0,1,1.932,3.887c0,3.726-3.519,6.049-9.177,6.049A24.093,24.093,0,0,1,190.957,20.435Zm-30.889-.806a49.127,49.127,0,0,0,3.865-11.776h-.368c-.736,0-1.219-.023-2.209-.069h-.23a4.554,4.554,0,0,0-.529.023l.069-3.749a23.963,23.963,0,0,0,3.5.23h.437A22.2,22.2,0,0,0,164.99.839V.494l4.3.322a7.268,7.268,0,0,0-.3,1.334c-.023.138-.161.8-.368,1.978a26.037,26.037,0,0,0,3.772-.6l.092,3.335a39.057,39.057,0,0,1,6.095-.346c.161,0,.644,0,1.128.023l.068,3.887a20.758,20.758,0,0,0-3.012-.161,30.847,30.847,0,0,0-6.464.575l-.23-3.266c-1.1.115-1.38.138-2.093.184-.391,2.163-.8,3.865-1.449,6.257-.575,2.023-.713,2.53-1.7,5.5-.368,1.1-.368,1.1-.529,1.656ZM89.78,17.4a11.971,11.971,0,0,0,4.83-1.173c1.771-.943,2.76-2.876,2.76-5.336a5.412,5.412,0,0,0-2.024-4.531,3.848,3.848,0,0,0-1.932-.806,32.216,32.216,0,0,1-2.53,9.637c-1.334,2.944-2.875,4.232-4.968,4.232-3.082,0-5.244-2.944-5.244-7.153a10.226,10.226,0,0,1,2.645-7.015,11,11,0,0,1,8.326-3.381,10.257,10.257,0,0,1,7.5,2.83,9.145,9.145,0,0,1,2.254,6.394,9.9,9.9,0,0,1-3.059,7.429c-1.564,1.4-3.381,2.139-6.6,2.645A11.3,11.3,0,0,0,89.78,17.4ZM86.928,6.773a7.439,7.439,0,0,0-2.507,5.474c0,1.633.621,2.921,1.426,2.921.575,0,1.174-.8,1.863-2.552A29.8,29.8,0,0,0,89.435,5.6,4.6,4.6,0,0,0,86.928,6.773Zm81.236,9.775c0-1.335.529-2.623,1.794-4.462l3.335,1.1a4.069,4.069,0,0,0-1.242,2.507c0,1.058.942,1.564,2.875,1.564a17.3,17.3,0,0,0,5.428-.9l.276,4.025c-.46.047-.667.069-1.219.139a28.192,28.192,0,0,1-4.485.368Q168.164,20.9,168.164,16.548ZM17.33,8.176v1.61c-.759-.068-1.587-.114-2.484-.114H8.429a18.7,18.7,0,0,0-2.415.114V8.153a23.635,23.635,0,0,1-3.749,1.863A11.209,11.209,0,0,0,.517,6.635,19.891,19.891,0,0,0,5.9,3.99,24.657,24.657,0,0,0,8.889,1.322,6.026,6.026,0,0,0,9.67.287h3.819A10.477,10.477,0,0,0,15.7,2.61,19.851,19.851,0,0,0,22.85,6.474a13.662,13.662,0,0,0-1.679,3.634A28.637,28.637,0,0,1,17.33,8.176Zm-8.9-1.633h6.486a17.2,17.2,0,0,1-3.289-3.105A17.183,17.183,0,0,1,8.429,6.543ZM124.487,9.878V6.635H110.733V9.878h-3.5a10.842,10.842,0,0,0,.115-1.91V5.439a15.155,15.155,0,0,0-.092-1.931c.828.068,1.426.092,2.829.092h.575a16.508,16.508,0,0,0-1.38-2.369l3.38-.69A24.182,24.182,0,0,1,114.413,3.6h1.542a14.093,14.093,0,0,0-1.2-2.669l3.5-.621a19.239,19.239,0,0,1,1.357,3.29h1.357A16.425,16.425,0,0,0,122.394.4l3.519.759A25.9,25.9,0,0,1,124.625,3.6h.46c1.426,0,2.093-.023,2.876-.092a14.3,14.3,0,0,0-.093,1.931V7.992a15.5,15.5,0,0,0,.115,1.886Z" transform="translate(830 454.404)" fill="url(#i)"/></g></g></svg>