<svg xmlns="http://www.w3.org/2000/svg" xmlns:xlink="http://www.w3.org/1999/xlink" width="51.282" height="67.543" viewBox="0 0 51.282 67.543"><defs><linearGradient id="a" y1="1.241" x2="1.394" y2="0.592" gradientUnits="objectBoundingBox"><stop offset="0" stop-color="#00fccc"/><stop offset="0.195" stop-color="#00caf9"/><stop offset="1" stop-color="#6945ff"/></linearGradient><filter id="c" x="0" y="4.104" width="51.071" height="63.439" filterUnits="userSpaceOnUse"><feOffset dy="10" input="SourceAlpha"/><feGaussianBlur stdDeviation="3" result="d"/><feFlood flood-opacity="0.161"/><feComposite operator="in" in2="d"/><feComposite in="SourceGraphic"/></filter><filter id="e" x="21.681" y="0" width="29.601" height="29.609" filterUnits="userSpaceOnUse"><feOffset dy="5" input="SourceAlpha"/><feGaussianBlur stdDeviation="3" result="f"/><feFlood flood-opacity="0.161"/><feComposite operator="in" in2="f"/><feComposite in="SourceGraphic"/></filter></defs><g transform="translate(-6198.958 22870.164)"><rect width="33" height="45" rx="6" transform="translate(6200 -22858.836)" fill="#3f65c4"/><g transform="translate(6207.854 -22866.164)"><path d="M207.525,352.772v27.861a5.064,5.064,0,0,1-5.064,5.064H179.517a5.064,5.064,0,0,1-5.064-5.064V346.321a5.064,5.064,0,0,1,5.064-5.064h16.59v-.1H179.517a5.167,5.167,0,0,0-5.167,5.167v34.312a5.167,5.167,0,0,0,5.167,5.167h22.943a5.167,5.167,0,0,0,5.167-5.167V352.772Z" transform="translate(-174.35 -341.154)" fill="url(#a)"/><g transform="matrix(1, 0, 0, 1, -8.9, -4)" filter="url(#c)"><path d="M196.539,349.92c-.07-2.266-.045-6.787-.034-8.266h-16.59a5.064,5.064,0,0,0-5.064,5.064V381.03a5.064,5.064,0,0,0,5.064,5.064h22.943a5.064,5.064,0,0,0,5.064-5.064V353.169h-7.693S196.623,352.652,196.539,349.92Z" transform="translate(-165.85 -337.55)" fill="url(#a)"/></g></g><g transform="matrix(1, 0, 0, 1, 6198.96, -22870.16)" filter="url(#e)"><path d="M1346.411-17345.645l11.584,11.609h-7.985s-3.489-.5-3.57-3.143S1346.411-17345.645,1346.411-17345.645Z" transform="translate(-1315.71 17349.64)" fill="#00caf9"/></g><circle cx="9" cy="9" r="9" transform="translate(6215 -22856.836)" fill="#3f65c4"/><line x2="16.46" transform="translate(6215.446 -22834.57)" fill="none" stroke="#fff" stroke-linecap="round" stroke-width="1"/><g transform="translate(6215.345 -22830.506)"><line x2="7.722" transform="translate(0)" fill="none" stroke="#fff" stroke-linecap="round" stroke-width="1"/><line x2="2.235" transform="translate(9.754)" fill="none" stroke="#fff" stroke-linecap="round" stroke-width="1"/><line x2="2.235" transform="translate(14.225)" fill="none" stroke="#fff" stroke-linecap="round" stroke-width="1"/></g><path d="M3880.06,22408.762c.426-2.689,3.146-4.764,6.439-4.764a6.452,6.452,0,0,1,6.244,3.963,9,9,0,0,1-12.683.8Z" transform="translate(2337.939 -45249.836)" fill="#fff"/><circle cx="3" cy="3" r="3" transform="translate(6221 -22852.836)" fill="#fff"/></g></svg>