<svg xmlns="http://www.w3.org/2000/svg" width="18.503" height="14.86" viewBox="0 0 18.503 14.86"><path d="M11,14.965,4.69,21.279a1.11,1.11,0,0,1-1.574,0L2.068,20.23a1.11,1.11,0,0,1,0-1.574l4.475-4.475L2.068,9.706a1.11,1.11,0,0,1,0-1.574L3.112,7.074a1.11,1.11,0,0,1,1.574,0L11,13.387A1.111,1.111,0,0,1,11,14.965Zm8.913-1.578L13.6,7.074a1.11,1.11,0,0,0-1.574,0L10.98,8.123a1.11,1.11,0,0,0,0,1.574l4.475,4.475L10.98,18.647a1.11,1.11,0,0,0,0,1.574l1.049,1.049a1.11,1.11,0,0,0,1.574,0l6.313-6.313a1.1,1.1,0,0,0,0-1.569Z" transform="translate(-1.74 -6.746)" fill="#624df6"/></svg>