<svg xmlns="http://www.w3.org/2000/svg" viewBox="0 0 217.27 249.6"><g id="レイヤー_2" data-name="レイヤー 2"><g id="圖層_1" data-name="圖層 1"><g id="グループ_1011" data-name="グループ 1011"><g id="グループ_904" data-name="グループ 904"><path id="パス_1683" data-name="パス 1683" d="M52.52,39.68q-.83,9.89-7.4,15.46-6.75,5.45-17.76,5.44-12.82,0-19.57-7.74Q1.05,45.44,1.05,31,1.07,16.18,8,8.78,15,1.05,28.34,1.05q10.86,0,17.27,5.43,6.07,5.25,6.9,14.8H45.45a5.69,5.69,0,0,1-5.59-3.46A16.73,16.73,0,0,0,37.07,14a14.16,14.16,0,0,0-8.72-2.46c-5,0-8.94,1.64-11.67,4.93S12.73,24.62,12.73,31q0,9.22,3.95,14.15C19.19,48.51,23,50.21,28,50.21a14,14,0,0,0,8.72-2.63q3.12-2.46,4.43-7.9Z"/><path id="パス_1684" data-name="パス 1684" d="M27.36,61.63c-8.83,0-15.68-2.72-20.35-8.1C2.36,48.45,0,40.85,0,31,0,20.88,2.42,13.18,7.2,8.06,12.08,2.72,19.21,0,28.35,0c7.46,0,13.49,1.92,17.94,5.67,4.26,3.69,6.7,8.9,7.28,15.52l.1,1.13H45.45a6.82,6.82,0,0,1-6.54-4.05,15.51,15.51,0,0,0-2.59-3.49,13.31,13.31,0,0,0-8-2.16c-4.76,0-8.31,1.5-10.87,4.56S13.78,24.9,13.78,31c0,5.87,1.26,10.4,3.72,13.49s5.79,4.7,10.52,4.7a13.09,13.09,0,0,0,8.08-2.41c1.87-1.48,3.24-3.94,4.06-7.3l.19-.81H53.67l-.1,1.14C53,46.61,50.39,52.05,45.8,56S34.92,61.63,27.36,61.63Zm1-59.52c-8.53,0-15.13,2.48-19.61,7.38-4.4,4.72-6.63,12-6.63,21.48,0,9.34,2.18,16.45,6.47,21.17,4.28,4.9,10.59,7.38,18.78,7.38,7.07,0,12.82-1.74,17.1-5.2a20.33,20.33,0,0,0,6.89-13.57H42a14.39,14.39,0,0,1-4.6,7.66A15,15,0,0,1,28,51.26c-5.38,0-9.48-1.85-12.2-5.52-2.74-3.43-4.15-8.41-4.15-14.77,0-6.57,1.41-11.66,4.18-15.12,2.95-3.54,7.14-5.33,12.5-5.33a15.34,15.34,0,0,1,9.35,2.67,17.68,17.68,0,0,1,3.09,4.14,4.67,4.67,0,0,0,4.66,2.89h5.9c-.69-5.5-2.85-9.86-6.43-12.95C40.88,3.85,35.3,2.11,28.35,2.11Z"/></g><g id="グループ_905" data-name="グループ 905"><path id="パス_1685" data-name="パス 1685" d="M73.7,55.32a16.33,16.33,0,0,1-4.94-8,36.91,36.91,0,0,1-1.48-10.45A33.18,33.18,0,0,1,68.51,28a18.43,18.43,0,0,1,3.87-7.42,17.15,17.15,0,0,1,11-5.83,25.24,25.24,0,0,1,12.16,1.08,16.68,16.68,0,0,1,9.21,8.55,27.29,27.29,0,0,1,2.79,12.65,31,31,0,0,1-1.15,9,23.12,23.12,0,0,1-3,6.42,16.4,16.4,0,0,1-10,6.74,22.22,22.22,0,0,1-10.93.24A18.8,18.8,0,0,1,73.7,55.32Zm7.89-28.95q-3.45,3.79-3.12,11.27c.21,5,1.15,8.46,2.79,10.44a7.44,7.44,0,0,0,3.45,2.22,7.85,7.85,0,0,0,5,.16,8.38,8.38,0,0,0,4.52-3.7c1.32-2,2-5.15,2.14-9.53,0-3.95-.63-6.9-1.89-8.88a8.49,8.49,0,0,0-4.36-3.78,8,8,0,0,0-4.94-.09A8.66,8.66,0,0,0,81.59,26.37Z"/><path id="パス_1686" data-name="パス 1686" d="M87.49,61.11a23.62,23.62,0,0,1-5.23-.58A20.19,20.19,0,0,1,73,56.11a17.46,17.46,0,0,1-5.25-8.47,37.94,37.94,0,0,1-1.52-10.75,34.54,34.54,0,0,1,1.27-9.15,19.53,19.53,0,0,1,4.09-7.82,18.1,18.1,0,0,1,11.67-6.17,26.29,26.29,0,0,1,12.66,1.12,17.81,17.81,0,0,1,9.8,9.08,28.4,28.4,0,0,1,2.9,13.12,32.42,32.42,0,0,1-1.2,9.34,24,24,0,0,1-3.1,6.7,17.56,17.56,0,0,1-10.68,7.18A22.79,22.79,0,0,1,87.49,61.11Zm0-45.56a32.93,32.93,0,0,0-4,.27,16.17,16.17,0,0,0-10.35,5.49,17.27,17.27,0,0,0-3.65,7,32,32,0,0,0-1.2,8.59A35.62,35.62,0,0,0,69.77,47a15.18,15.18,0,0,0,4.61,7.47l0,0a18.15,18.15,0,0,0,8.32,3.95,21.29,21.29,0,0,0,10.43-.23,15.58,15.58,0,0,0,9.45-6.35,22.17,22.17,0,0,0,2.81-6.09,30.41,30.41,0,0,0,1.1-8.75,26.49,26.49,0,0,0-2.68-12.18,15.87,15.87,0,0,0-8.66-8.06A22.84,22.84,0,0,0,87.49,15.55Zm0,36.3a8.86,8.86,0,0,1-3.1-.56,8.27,8.27,0,0,1-3.93-2.58c-1.78-2.14-2.78-5.76-3-11s.92-9.3,3.4-12l0,0a9.4,9.4,0,0,1,4.07-2.16,9.1,9.1,0,0,1,5.56.09,9.66,9.66,0,0,1,4.92,4.21c1.35,2.14,2,5.32,2,9.45-.12,4.66-.87,8-2.32,10.12A9.43,9.43,0,0,1,90,51.48a9.28,9.28,0,0,1-2.57.37ZM82.35,27.1c-2.09,2.31-3,5.83-2.83,10.49s1.06,8,2.55,9.81a6.48,6.48,0,0,0,3,1.92,6.88,6.88,0,0,0,4.37.14,7.4,7.4,0,0,0,3.93-3.29c1.2-1.78,1.86-4.8,2-9,0-3.69-.59-6.49-1.73-8.28a7.58,7.58,0,0,0-3.8-3.35,7,7,0,0,0-4.3-.08,7.55,7.55,0,0,0-3.16,1.61Z"/></g><g id="グループ_906" data-name="グループ 906"><path id="パス_1687" data-name="パス 1687" d="M120.6,42V37.23q0-4.45,4.44-4.44h18.25V42Z"/><path id="パス_1688" data-name="パス 1688" d="M144.34,43.05h-24.8V37.23c0-3.55,2-5.49,5.5-5.49h19.3Zm-22.69-2.11h20.59v-7.1H125.05c-2.38,0-3.4,1-3.4,3.39Z"/></g><g id="グループ_907" data-name="グループ 907"><path id="パス_1689" data-name="パス 1689" d="M44,135a18,18,0,0,1-7.07,6.24A23.74,23.74,0,0,1,27.52,143Q15.37,143,8.29,135T1.06,113.23q0-13.64,7.06-21.54,7.41-8.2,19.57-8.22,10.53,0,17.43,5.1a21.72,21.72,0,0,1,8.06,14.15h-7.9a5.39,5.39,0,0,1-5.09-3.14A13,13,0,0,0,36.9,96a15,15,0,0,0-8.72-2.3A13.58,13.58,0,0,0,17,98.77c-2.75,3.62-4.12,8.46-4.12,14.47s1.43,11,4.28,14.48,6.63,5.1,11.67,5.09a13.6,13.6,0,0,0,9.21-3.12,15.29,15.29,0,0,0,4.6-9h-6.9a5.91,5.91,0,0,1-5.92-5.9h0v-3.79H53.34V141.7H50.22q-4.61,0-5.76-4.62Z"/><path id="パス_1690" data-name="パス 1690" d="M27.53,144.05c-8.4,0-15.13-2.83-20-8.41-5-5.42-7.5-13-7.5-22.41S2.47,96.43,7.34,91c5.12-5.68,12-8.57,20.35-8.57,7.21,0,13.28,1.79,18.06,5.31a22.84,22.84,0,0,1,8.47,14.83l.18,1.21H45.28a6.46,6.46,0,0,1-6-3.69,11.7,11.7,0,0,0-3-3.27,14,14,0,0,0-8.07-2.09,12.48,12.48,0,0,0-10.36,4.71c-2.57,3.38-3.88,8-3.88,13.81s1.36,10.51,4,13.81,6.11,4.71,10.86,4.71a12.62,12.62,0,0,0,8.52-2.87,13.68,13.68,0,0,0,4-7.2H35.75a7,7,0,0,1-7-7v-4.82H54.39v32.85H50.21c-3.54,0-5.88-1.87-6.77-5.39a18.2,18.2,0,0,1-6.09,4.78A24.88,24.88,0,0,1,27.53,144.05Zm.16-59.52c-7.76,0-14.07,2.65-18.78,7.88-4.51,5-6.8,12-6.8,20.82s2.35,16,7,21S19.77,142,27.54,142a23,23,0,0,0,9-1.73,17.11,17.11,0,0,0,6.61-5.88l1.36-2,1,4.46c.64,2.58,2.14,3.8,4.72,3.8h2.07V112H30.88v2.71a4.85,4.85,0,0,0,4.8,4.88H43.9l-.2,1.23a16.28,16.28,0,0,1-4.94,9.63,14.63,14.63,0,0,1-9.92,3.41c-5.35,0-9.56-1.85-12.5-5.49s-4.5-8.77-4.5-15.14,1.46-11.31,4.33-15.09a14.65,14.65,0,0,1,12-5.52,16,16,0,0,1,9.32,2.49,13.71,13.71,0,0,1,3.6,4,4.35,4.35,0,0,0,4.18,2.6h6.64a20.64,20.64,0,0,0-7.46-12.27c-4.37-3.21-10-4.86-16.77-4.86Z"/></g><g id="グループ_908" data-name="グループ 908"><path id="パス_1691" data-name="パス 1691" d="M69.19,141.68V120.47a27,27,0,0,1,1.89-10.77,17.71,17.71,0,0,1,5.18-7,20.35,20.35,0,0,1,7.32-3.63A32.62,32.62,0,0,1,92.21,98h1.64v11.67H90.07c-3.18,0-5.54.76-7.07,2.3s-2.3,3.94-2.3,7.24v22.52Z"/><path id="パス_1692" data-name="パス 1692" d="M81.75,142.73H68.14V120.46a28.32,28.32,0,0,1,2-11.18,18.85,18.85,0,0,1,5.49-7.39,21.58,21.58,0,0,1,7.69-3.81,34,34,0,0,1,8.92-1.19H94.9v13.78H90.07c-2.88,0-5,.67-6.33,2s-2,3.5-2,6.5Zm-11.51-2.1h9.4V119.16c0-3.56.88-6.25,2.61-8s4.37-2.62,7.82-2.62H92.8V99h-.59a31,31,0,0,0-8.36,1.12,19.26,19.26,0,0,0-6.94,3.42,16.75,16.75,0,0,0-4.86,6.58,26,26,0,0,0-1.81,10.35Z"/></g><g id="グループ_909" data-name="グループ 909"><path id="パス_1693" data-name="パス 1693" d="M112.6,137.73a16.25,16.25,0,0,1-4.93-8,36.19,36.19,0,0,1-1.48-10.44,32.93,32.93,0,0,1,1.23-8.88,18.33,18.33,0,0,1,3.86-7.4,17.15,17.15,0,0,1,11-5.84,25.4,25.4,0,0,1,12.17,1.07,16.78,16.78,0,0,1,9.21,8.55,27.33,27.33,0,0,1,2.79,12.66,31.45,31.45,0,0,1-1.15,9,23.06,23.06,0,0,1-3,6.41,16.43,16.43,0,0,1-10,6.74,22.23,22.23,0,0,1-10.93.24A19.1,19.1,0,0,1,112.6,137.73Zm7.89-28.93q-3.45,3.78-3.12,11.25t2.79,10.44a7.37,7.37,0,0,0,3.46,2.23,7.82,7.82,0,0,0,5,.16,8.33,8.33,0,0,0,4.52-3.71q2-3,2.14-9.52c0-4-.63-6.9-1.89-8.89A8.64,8.64,0,0,0,129,107a7.91,7.91,0,0,0-4.93-.08,8.41,8.41,0,0,0-3.62,1.89Z"/><path id="パス_1694" data-name="パス 1694" d="M126.4,143.54a23.55,23.55,0,0,1-5.23-.58,20.21,20.21,0,0,1-9.26-4.43,17.35,17.35,0,0,1-5.25-8.47,37.94,37.94,0,0,1-1.52-10.75,34.13,34.13,0,0,1,1.27-9.15,19.56,19.56,0,0,1,4.09-7.81,18.19,18.19,0,0,1,11.66-6.19,26.72,26.72,0,0,1,12.67,1.12,18,18,0,0,1,9.8,9.08,28.6,28.6,0,0,1,2.9,13.14,32.7,32.7,0,0,1-1.2,9.33,24.31,24.31,0,0,1-3.1,6.7,17.51,17.51,0,0,1-10.68,7.17A22.81,22.81,0,0,1,126.4,143.54Zm0-45.56a29.06,29.06,0,0,0-4,.27,16.07,16.07,0,0,0-10.36,5.49,17.1,17.1,0,0,0-3.64,7,31.44,31.44,0,0,0-1.2,8.57,35.52,35.52,0,0,0,1.44,10.15,15.25,15.25,0,0,0,4.61,7.48h0a18,18,0,0,0,8.31,4,21.29,21.29,0,0,0,10.43-.23,15.51,15.51,0,0,0,9.46-6.35,21.65,21.65,0,0,0,2.8-6.1,30.25,30.25,0,0,0,1.1-8.72,26.37,26.37,0,0,0-2.67-12.19,15.87,15.87,0,0,0-8.66-8.06A22.35,22.35,0,0,0,126.4,98Zm-.05,36.3a9.19,9.19,0,0,1-3.1-.57,8.17,8.17,0,0,1-3.92-2.58c-1.79-2.12-2.78-5.75-3-11s.91-9.29,3.4-12l0,0a9.51,9.51,0,0,1,4.06-2.15,9.06,9.06,0,0,1,5.57.08,9.66,9.66,0,0,1,4.91,4.22c1.36,2.14,2.05,5.32,2.05,9.44-.11,4.67-.87,8-2.31,10.12a9.39,9.39,0,0,1-5.1,4.13,9.76,9.76,0,0,1-2.58.38Zm-5.1-24.75c-2.08,2.3-3,5.83-2.83,10.48s1.06,8,2.55,9.82a6.46,6.46,0,0,0,3,1.91,6.85,6.85,0,0,0,4.36.14,7.43,7.43,0,0,0,3.94-3.27c1.2-1.8,1.86-4.82,2-9,0-3.69-.58-6.49-1.73-8.29a7.54,7.54,0,0,0-3.8-3.35,6.87,6.87,0,0,0-4.3-.07,7.67,7.67,0,0,0-3.16,1.61Z"/></g><g id="グループ_910" data-name="グループ 910"><path id="パス_1695" data-name="パス 1695" d="M203.89,141.68H192.38l-6.75-31.24-6.73,31.24H167.38L155.38,98h11.18l6.9,30.25L179.71,98h11.68l5.92,30.25,6.08-26.31q1-3.94,5.26-3.94h7.24Z"/><path id="パス_1696" data-name="パス 1696" d="M204.69,142.73H191.53l-5.89-27.31-5.9,27.31H166.58L154,96.89h13.4l6,26.36,5.45-26.36h13.4l5.13,26.27,5-21.5c.79-3.12,3-4.76,6.29-4.76h8.61Zm-11.46-2.1h9.86L214.51,99h-5.86c-2.35,0-3.7,1-4.24,3.16l-7.19,31.1L190.52,99h-10l-7,34.16L165.73,99h-9l11.43,41.63h9.86l7.59-35.17Z"/></g><g id="グループ_923" data-name="グループ 923"><g id="グループ_922" data-name="グループ 922"><g id="グループ_911" data-name="グループ 911"><path id="パス_1697" data-name="パス 1697" d="M5.88,186.39H11.8A5.61,5.61,0,0,1,17.39,192v38.14H5.88Z"/><path id="パス_1698" data-name="パス 1698" d="M18.44,231.19H4.83V185.34h7A6.66,6.66,0,0,1,18.44,192ZM6.93,229.07h9.4V192a4.55,4.55,0,0,0-4.53-4.54H6.93Z"/></g><g id="グループ_912" data-name="グループ 912"><path id="パス_1699" data-name="パス 1699" d="M71.37,230.12H65.61A5.33,5.33,0,0,1,60,225a4.34,4.34,0,0,1,0-.51V202.18c0-2.63-.8-4.56-2.39-5.77a8.67,8.67,0,0,0-5.34-1.8,8.39,8.39,0,0,0-5.27,1.8c-1.53,1.21-2.3,3.14-2.3,5.77v27.94H33.23V204.47q0-11.17,5.83-15A25.46,25.46,0,0,1,52,185.4a24.79,24.79,0,0,1,13.32,3.78q6.08,3.78,6.08,15.3Z"/><path id="パス_1700" data-name="パス 1700" d="M72.43,231.18h-6.8A6.4,6.4,0,0,1,59,225a4.17,4.17,0,0,1,0-.5V202.18c0-2.3-.64-3.91-2-4.91a7.44,7.44,0,0,0-4.71-1.6,7.12,7.12,0,0,0-4.61,1.59c-1.28,1-1.9,2.6-1.9,4.92v29H32.18v-26.7c0-7.79,2.12-13.13,6.31-15.86a26.74,26.74,0,0,1,13.43-4.27h0a26,26,0,0,1,13.91,3.93c4.37,2.73,6.58,8.18,6.58,16.2ZM52.3,193.56a9.61,9.61,0,0,1,6,2c1.86,1.41,2.8,3.63,2.8,6.59v22.35a4.32,4.32,0,0,0,4.06,4.55h5.18v-24.6c0-7.25-1.87-12.09-5.58-14.4A23.78,23.78,0,0,0,52,186.45a24.53,24.53,0,0,0-12.34,3.94c-3.56,2.3-5.36,7-5.36,14.08v24.6h9.41v-26.9c0-3,.91-5.17,2.7-6.59a9.38,9.38,0,0,1,5.91-2Z"/></g><g id="グループ_913" data-name="グループ 913"><path id="パス_1701" data-name="パス 1701" d="M115.4,227.49V224.7a12.57,12.57,0,0,1-8,5.76,16.31,16.31,0,0,1-10-.83A18.38,18.38,0,0,1,89,222.31q-3.54-5.34-3.54-14.05,0-10.2,4.69-16.53t15-6.33a26.86,26.86,0,0,1,14.63,4.28q6.74,4.27,6.74,15.78v23.18c0,7.67-2.25,12.92-6.74,15.7a27.18,27.18,0,0,1-14.63,4.2q-15.14,0-18.75-14.14h12a9.18,9.18,0,0,0,9.46,4.19,8.88,8.88,0,0,0,4.93-3.21C114.34,233.63,115.18,231,115.4,227.49Zm-18.74-18.9q0,11.34,6.58,12.57t9.7-3a12.36,12.36,0,0,0,2.14-5.66,24.24,24.24,0,0,0,.08-7.65,15.59,15.59,0,0,0-2.71-6.74,7.23,7.23,0,0,0-6.26-3c-3.72,0-6.25,1.37-7.56,4.11a21.3,21.3,0,0,0-2,9.37Z"/><path id="パス_1702" data-name="パス 1702" d="M105.21,249.6c-10.59,0-17.24-5-19.77-14.93l-.33-1.32h14l.3.53a8.07,8.07,0,0,0,8.31,3.68,7.92,7.92,0,0,0,4.35-2.85c1.28-1.52,2-3.85,2.28-7a13.27,13.27,0,0,1-6.67,3.74,17.48,17.48,0,0,1-10.57-.88,19.53,19.53,0,0,1-9-7.71c-2.46-3.71-3.71-8.65-3.71-14.64,0-7,1.65-12.76,4.89-17.15s8.67-6.76,15.9-6.76a28,28,0,0,1,15.19,4.44c4.8,3.05,7.23,8.66,7.23,16.67v23.19c0,8-2.43,13.6-7.24,16.59A28.39,28.39,0,0,1,105.21,249.6ZM87.85,235.45c2.52,8.1,8.2,12.05,17.36,12.05a26.37,26.37,0,0,0,14.08-4c4.14-2.58,6.24-7.56,6.24-14.81V205.46c0-7.24-2.1-12.26-6.25-14.89a26,26,0,0,0-14.07-4.11c-6.52,0-11.3,2-14.2,5.9s-4.48,9.37-4.48,15.9c0,5.58,1.13,10.11,3.35,13.47a17.6,17.6,0,0,0,8,6.93,15.49,15.49,0,0,0,9.32.77,11.47,11.47,0,0,0,7.32-5.29l1.94-3v6.45c-.23,3.72-1.18,6.59-2.8,8.5a10,10,0,0,1-5.51,3.56,10.24,10.24,0,0,1-10.26-4.17Zm18.17-13a16.53,16.53,0,0,1-3-.28c-4.94-.93-7.43-5.52-7.43-13.62a22.6,22.6,0,0,1,2.07-9.84c1.5-3.12,4.37-4.7,8.51-4.7a8.31,8.31,0,0,1,7.11,3.39,16.62,16.62,0,0,1,2.9,7.2,25.49,25.49,0,0,1-.09,8,13.15,13.15,0,0,1-2.36,6.15A9,9,0,0,1,106,222.5Zm.17-26.33c-3.31,0-5.48,1.15-6.61,3.52a20.27,20.27,0,0,0-1.87,8.91c0,7,1.87,10.82,5.72,11.54s6.81-.1,8.65-2.63a11.35,11.35,0,0,0,2-5.22,23.28,23.28,0,0,0,.07-7.31,14.25,14.25,0,0,0-2.52-6.29,6.22,6.22,0,0,0-5.4-2.52Z"/></g><path id="パス_1703" data-name="パス 1703" d="M148.76,200.46h-5.1v-11.6h-9.49v-7.47h9.49V170.22h7.58v11.17h9.49v5.06a2.39,2.39,0,0,1-2.39,2.41h-7V198a2.42,2.42,0,0,1-2.42,2.43Z"/></g><circle id="楕円形_240" data-name="楕円形 240" cx="11.49" cy="173.01" r="8.13"/></g></g></g></g></svg>