<svg xmlns="http://www.w3.org/2000/svg" xmlns:xlink="http://www.w3.org/1999/xlink" width="188.004" height="118.591" viewBox="0 0 188.004 118.591"><defs><linearGradient id="a" y1="0.5" x2="1" y2="0.5" gradientUnits="objectBoundingBox"><stop offset="0" stop-color="#00fccc"/><stop offset="1" stop-color="#00caf9"/></linearGradient><linearGradient id="d" y1="0.5" x2="1" y2="0.5" gradientUnits="objectBoundingBox"><stop offset="0" stop-color="#4f1bb2"/><stop offset="0.296" stop-color="#5220b3"/><stop offset="0.657" stop-color="#5b2fb9"/><stop offset="0.999" stop-color="#6844c1"/></linearGradient></defs><g transform="translate(-1207 -389.414)"><g transform="translate(1207 389.414)"><path d="M481.811,6375.366l-18.737-18.738a20.3,20.3,0,0,0-14.424-5.986,32.646,32.646,0,1,0,.1,65.292A20.114,20.114,0,0,0,463,6410.017l18.807-18.81A11.2,11.2,0,0,0,481.811,6375.366Zm-11.4,10.845-13.643,13.657a10.631,10.631,0,0,1-7.588,3.117,19.7,19.7,0,1,1-.036-39.4h.036a10.686,10.686,0,0,1,7.644,3.174l13.6,13.6a4.177,4.177,0,0,1,0,5.847Zm-.613-6.726-8.006-7.989,8.006-8,8.006,8Z" transform="translate(-415.962 -6330.135)" fill="url(#a)"/><path d="M502.93,6373.861a32.657,32.657,0,0,0-31.268-23.22,20.289,20.289,0,0,0-14.41,5.986l-18.739,18.738a11.222,11.222,0,0,0,0,15.841l3.9,3.9,8.2-8.184,8.213,8.227-8.185,8.187,6.682,6.682a20.187,20.187,0,0,0,14.354,5.916,32.67,32.67,0,0,0,31.254-42.071Zm-12.918,15.12a19.686,19.686,0,0,1-18.921,14,10.574,10.574,0,0,1-7.53-3.117l-13.643-13.657a4.176,4.176,0,0,1,0-5.85l13.6-13.6a10.689,10.689,0,0,1,7.628-3.174,19.717,19.717,0,0,1,18.865,25.394Z" transform="translate(-396.833 -6330.135)" fill="url(#a)"/><ellipse cx="11.207" cy="11.207" rx="11.207" ry="11.207" transform="translate(42.559)" fill="url(#a)"/><path d="M442.932,6369.157l.626.627,8.464-7.671-1.016-1.031Z" transform="translate(-389.166 -6319.722)" opacity="0.2"/><path d="M442.939,6380.976l.627.627,8.437-7.67-1.016-1.031Z" transform="translate(-389.16 -6307.943)" opacity="0.2"/><path d="M439.271,6365.615l-.71-.71,7.713-8.367,1.016,1.016Z" transform="translate(-393.524 -6324.254)" opacity="0.2"/><path d="M439.222,6377.44l-.7-.71,7.783-8.381,1.016,1.016Z" transform="translate(-393.559 -6312.481)" opacity="0.2"/><path d="M429.438,6372.677a17.094,17.094,0,0,1,2.9-9.536,11.388,11.388,0,1,0,.781,20.13A17.063,17.063,0,0,1,429.438,6372.677Z" transform="translate(-415.99 -6318.788)" opacity="0.2"/><path d="M465.013,6372.677a17.111,17.111,0,0,0-2.9-9.536,11.388,11.388,0,1,1-.779,20.13A17.075,17.075,0,0,0,465.013,6372.677Z" transform="translate(-370.818 -6318.788)" opacity="0.2"/><ellipse cx="11.207" cy="11.207" rx="11.207" ry="11.207" transform="translate(85.118 42.141)" fill="url(#d)"/><ellipse cx="11.207" cy="11.207" rx="11.207" ry="11.207" transform="translate(0 42.141)" fill="url(#d)"/></g><g transform="translate(1330.532 433.939)"><path d="M493.3,6374.291a6.441,6.441,0,0,1-2.195,4.587,8.155,8.155,0,0,1-5.27,1.612,7.288,7.288,0,0,1-5.807-2.3q-2-2.2-2-6.49,0-4.39,2.049-6.585a7.784,7.784,0,0,1,6.051-2.3,7.66,7.66,0,0,1,5.122,1.612,6.234,6.234,0,0,1,2.049,4.392h-2.1a1.7,1.7,0,0,1-1.659-1.025,4.844,4.844,0,0,0-.829-1.124,4.213,4.213,0,0,0-2.586-.731,4.257,4.257,0,0,0-3.465,1.463,6.757,6.757,0,0,0-1.172,4.293,6.581,6.581,0,0,0,1.172,4.2,3.919,3.919,0,0,0,3.367,1.511,4.142,4.142,0,0,0,2.586-.78,4.091,4.091,0,0,0,1.316-2.342Z" transform="translate(-477.713 -6362.513)"/><path d="M485.989,6380.955a7.611,7.611,0,0,1-6.041-2.4c-1.378-1.509-2.079-3.765-2.079-6.7,0-2.993.719-5.281,2.135-6.8a8.12,8.12,0,0,1,6.278-2.392,8.014,8.014,0,0,1,5.324,1.684,6.584,6.584,0,0,1,2.159,4.6l.03.338h-2.438a2.017,2.017,0,0,1-1.941-1.2,4.557,4.557,0,0,0-.769-1.036,4.592,4.592,0,0,0-5.589.711,6.5,6.5,0,0,0-1.1,4.093,6.32,6.32,0,0,0,1.1,4,3.6,3.6,0,0,0,3.123,1.4,3.307,3.307,0,0,0,3.6-2.885l.058-.239h3.952l-.03.339a6.773,6.773,0,0,1-2.3,4.8A8.491,8.491,0,0,1,485.989,6380.955Zm.294-17.663a7.524,7.524,0,0,0-5.821,2.192c-1.306,1.4-1.967,3.543-1.967,6.374,0,2.77.647,4.882,1.919,6.281a7.027,7.027,0,0,0,5.575,2.191,7.874,7.874,0,0,0,5.074-1.544,6.048,6.048,0,0,0,2.045-4.028H490.33a4.265,4.265,0,0,1-1.366,2.274,4.475,4.475,0,0,1-2.78.849,4.233,4.233,0,0,1-3.618-1.641,6.9,6.9,0,0,1-1.232-4.383,7.067,7.067,0,0,1,1.24-4.486,5.18,5.18,0,0,1,6.482-.789,5.2,5.2,0,0,1,.917,1.225,1.386,1.386,0,0,0,1.384.858h1.751a5.856,5.856,0,0,0-1.907-3.841A7.413,7.413,0,0,0,486.282,6363.292Z" transform="translate(-477.869 -6362.666)"/></g><g transform="translate(1350.186 437.93)"><path d="M489.77,6376.934a4.829,4.829,0,0,1-1.464-2.366,10.87,10.87,0,0,1-.439-3.1,9.8,9.8,0,0,1,.365-2.634,5.453,5.453,0,0,1,1.146-2.2,5.065,5.065,0,0,1,3.271-1.732,7.529,7.529,0,0,1,3.611.318,4.979,4.979,0,0,1,2.732,2.536,8.1,8.1,0,0,1,.829,3.758,9.273,9.273,0,0,1-.341,2.683,6.878,6.878,0,0,1-.879,1.9,4.876,4.876,0,0,1-2.975,2,6.63,6.63,0,0,1-3.245.073A5.66,5.66,0,0,1,489.77,6376.934Zm2.342-8.59a4.5,4.5,0,0,0-.927,3.344,5.321,5.321,0,0,0,.829,3.1,2.205,2.205,0,0,0,1.024.657,2.333,2.333,0,0,0,1.488.049,2.479,2.479,0,0,0,1.342-1.1,5.511,5.511,0,0,0,.635-2.83,4.967,4.967,0,0,0-.561-2.635,2.521,2.521,0,0,0-1.294-1.122,2.366,2.366,0,0,0-1.464-.025A2.574,2.574,0,0,0,492.113,6368.344Z" transform="translate(-487.556 -6364.51)"/><path d="M494.019,6378.813a7.161,7.161,0,0,1-1.552-.173,5.99,5.99,0,0,1-2.748-1.314,5.154,5.154,0,0,1-1.558-2.512,11.271,11.271,0,0,1-.451-3.188,10.1,10.1,0,0,1,.377-2.718,5.765,5.765,0,0,1,1.214-2.32,5.375,5.375,0,0,1,3.461-1.833,7.843,7.843,0,0,1,3.758.334,5.29,5.29,0,0,1,2.908,2.693,8.444,8.444,0,0,1,.861,3.894,9.67,9.67,0,0,1-.356,2.775,7.206,7.206,0,0,1-.919,1.988,5.213,5.213,0,0,1-3.169,2.128A6.909,6.909,0,0,1,494.019,6378.813Zm0-13.521a8.981,8.981,0,0,0-1.174.081,4.779,4.779,0,0,0-3.073,1.626,5.16,5.16,0,0,0-1.082,2.075,9.523,9.523,0,0,0-.355,2.55,10.585,10.585,0,0,0,.427,3.009,4.523,4.523,0,0,0,1.368,2.219l.006.005a5.388,5.388,0,0,0,2.468,1.171,6.337,6.337,0,0,0,3.1-.071,4.6,4.6,0,0,0,2.806-1.883,6.568,6.568,0,0,0,.833-1.809,9.043,9.043,0,0,0,.327-2.592,7.837,7.837,0,0,0-.795-3.614,4.7,4.7,0,0,0-2.57-2.39A6.658,6.658,0,0,0,494.019,6365.292Zm-.012,10.771a2.651,2.651,0,0,1-.921-.168,2.437,2.437,0,0,1-1.166-.765,5.527,5.527,0,0,1-.892-3.271,4.822,4.822,0,0,1,1.008-3.567l.01-.009a2.83,2.83,0,0,1,1.206-.641,2.692,2.692,0,0,1,1.651.025,2.876,2.876,0,0,1,1.458,1.251,5.3,5.3,0,0,1,.609,2.8,5.721,5.721,0,0,1-.687,3,2.8,2.8,0,0,1-1.514,1.223A2.7,2.7,0,0,1,494.007,6376.063Zm-1.514-7.345a4.238,4.238,0,0,0-.841,3.114,5.073,5.073,0,0,0,.757,2.911,1.923,1.923,0,0,0,.893.568,2.03,2.03,0,0,0,1.294.042,2.2,2.2,0,0,0,1.168-.973,5.247,5.247,0,0,0,.583-2.665,4.681,4.681,0,0,0-.513-2.457,2.262,2.262,0,0,0-1.128-1,2.058,2.058,0,0,0-1.276-.022A2.288,2.288,0,0,0,492.494,6368.718Z" transform="translate(-487.711 -6364.668)"/></g><g transform="translate(1366.005 443.356)"><path d="M495.79,6370.274v-1.416a1.164,1.164,0,0,1,1.316-1.319h5.418v2.735Z" transform="translate(-495.476 -6367.227)"/><path d="M502.992,6370.74h-7.359v-1.727a1.471,1.471,0,0,1,1.632-1.63h5.727Zm-6.734-.625h6.109v-2.107h-5.1c-.705,0-1.007.3-1.007,1.005Z" transform="translate(-495.633 -6367.383)"/></g><g transform="translate(1330.532 458.397)"><path d="M490.761,6390.346a5.386,5.386,0,0,1-2.1,1.853,7.07,7.07,0,0,1-2.782.538,7.2,7.2,0,0,1-5.707-2.39,10.766,10.766,0,0,1-.05-12.834,7.435,7.435,0,0,1,5.807-2.439,8.491,8.491,0,0,1,5.172,1.513,6.434,6.434,0,0,1,2.39,4.2H491.15a1.6,1.6,0,0,1-1.512-.929,3.761,3.761,0,0,0-.977-1.072,4.425,4.425,0,0,0-2.586-.684,4.036,4.036,0,0,0-3.317,1.511,6.934,6.934,0,0,0-1.22,4.294,6.623,6.623,0,0,0,1.268,4.3,4.192,4.192,0,0,0,3.465,1.512,4.035,4.035,0,0,0,2.732-.927,4.527,4.527,0,0,0,1.366-2.685H488.32a1.748,1.748,0,0,1-1.755-1.757v-1.122h6.977v9.125h-.928a1.612,1.612,0,0,1-1.707-1.367Z" transform="translate(-477.713 -6374.76)"/><path d="M486.038,6393.2a7.539,7.539,0,0,1-5.945-2.5,11.067,11.067,0,0,1-.046-13.249,7.771,7.771,0,0,1,6.039-2.543,8.822,8.822,0,0,1,5.358,1.574,6.772,6.772,0,0,1,2.514,4.4l.054.36h-2.706a1.918,1.918,0,0,1-1.787-1.094,3.529,3.529,0,0,0-.891-.973,4.17,4.17,0,0,0-2.4-.616,3.705,3.705,0,0,0-3.073,1.4,6.654,6.654,0,0,0-1.152,4.1,6.353,6.353,0,0,0,1.2,4.1,3.868,3.868,0,0,0,3.223,1.4,3.747,3.747,0,0,0,2.528-.852,4.068,4.068,0,0,0,1.188-2.136h-1.667a2.062,2.062,0,0,1-2.069-2.069v-1.435h7.6v9.75h-1.24a1.922,1.922,0,0,1-2.009-1.6,5.465,5.465,0,0,1-1.807,1.42A7.421,7.421,0,0,1,486.038,6393.2Zm.048-17.662a7.169,7.169,0,0,0-5.574,2.335,10.455,10.455,0,0,0,.046,12.414,6.937,6.937,0,0,0,5.479,2.291,6.814,6.814,0,0,0,2.66-.514,5.1,5.1,0,0,0,1.961-1.743l.4-.583.305,1.324a1.3,1.3,0,0,0,1.4,1.124h.615v-8.5h-6.352v.809a1.434,1.434,0,0,0,1.444,1.443h2.42l-.062.366a4.841,4.841,0,0,1-1.464,2.86,4.354,4.354,0,0,1-2.943,1.009,4.51,4.51,0,0,1-3.708-1.627,6.958,6.958,0,0,1-1.336-4.491,7.26,7.26,0,0,1,1.282-4.481,4.356,4.356,0,0,1,3.567-1.637,4.769,4.769,0,0,1,2.766.739,4.118,4.118,0,0,1,1.066,1.171,1.293,1.293,0,0,0,1.242.773h1.971a6.128,6.128,0,0,0-2.215-3.641A8.22,8.22,0,0,0,486.087,6375.542Z" transform="translate(-477.869 -6374.917)"/></g><g transform="translate(1350.75 462.692)"><path d="M488.15,6390.2v-6.295a8.006,8.006,0,0,1,.561-3.195,5.26,5.26,0,0,1,1.538-2.073,6.013,6.013,0,0,1,2.171-1.075,9.654,9.654,0,0,1,2.562-.34h.487v3.464h-1.122a2.86,2.86,0,0,0-2.1.682,2.935,2.935,0,0,0-.683,2.148v6.684Z" transform="translate(-487.839 -6376.913)"/><path d="M492.034,6390.669h-4.04v-6.608a8.4,8.4,0,0,1,.585-3.319,5.626,5.626,0,0,1,1.629-2.195,6.373,6.373,0,0,1,2.283-1.129,10.049,10.049,0,0,1,2.646-.353h.8v4.089H494.5a2.581,2.581,0,0,0-1.877.591,2.656,2.656,0,0,0-.591,1.927Zm-3.417-.626h2.792v-6.371a3.24,3.24,0,0,1,.775-2.369,3.164,3.164,0,0,1,2.318-.774h.811v-2.839h-.176a9.406,9.406,0,0,0-2.48.332,5.77,5.77,0,0,0-2.059,1.016,4.991,4.991,0,0,0-1.444,1.952,7.73,7.73,0,0,0-.537,3.072Z" transform="translate(-487.994 -6377.065)"/></g><g transform="translate(1361.73 462.389)"><path d="M495.551,6389.183a4.831,4.831,0,0,1-1.464-2.366,10.863,10.863,0,0,1-.439-3.1,9.818,9.818,0,0,1,.366-2.634,5.445,5.445,0,0,1,1.146-2.2,5.079,5.079,0,0,1,3.271-1.732,7.529,7.529,0,0,1,3.611.318,4.978,4.978,0,0,1,2.732,2.536,8.1,8.1,0,0,1,.829,3.759,9.288,9.288,0,0,1-.342,2.684,6.9,6.9,0,0,1-.879,1.9,4.878,4.878,0,0,1-2.975,2,6.63,6.63,0,0,1-3.245.073A5.685,5.685,0,0,1,495.551,6389.183Zm2.342-8.586a4.493,4.493,0,0,0-.927,3.34,5.318,5.318,0,0,0,.829,3.1,2.185,2.185,0,0,0,1.025.66,2.332,2.332,0,0,0,1.488.047,2.475,2.475,0,0,0,1.342-1.1,5.5,5.5,0,0,0,.635-2.83,4.958,4.958,0,0,0-.561-2.633,2.548,2.548,0,0,0-1.294-1.123,2.362,2.362,0,0,0-1.464-.023A2.524,2.524,0,0,0,497.893,6380.6Z" transform="translate(-493.336 -6376.76)"/><path d="M499.8,6391.06a7.072,7.072,0,0,1-1.552-.174,6.029,6.029,0,0,1-2.748-1.313,5.165,5.165,0,0,1-1.557-2.514,11.264,11.264,0,0,1-.451-3.187,10.1,10.1,0,0,1,.377-2.717,5.74,5.74,0,0,1,1.214-2.319,5.384,5.384,0,0,1,3.461-1.834,7.861,7.861,0,0,1,3.758.333,5.311,5.311,0,0,1,2.908,2.7,8.451,8.451,0,0,1,.861,3.895,9.642,9.642,0,0,1-.355,2.772,7.2,7.2,0,0,1-.919,1.99,5.21,5.21,0,0,1-3.169,2.127A6.893,6.893,0,0,1,499.8,6391.06Zm0-13.521a8.651,8.651,0,0,0-1.174.08,4.769,4.769,0,0,0-3.073,1.627,5.134,5.134,0,0,0-1.082,2.075,9.517,9.517,0,0,0-.355,2.549,10.6,10.6,0,0,0,.427,3.01,4.529,4.529,0,0,0,1.368,2.219l.006,0a5.382,5.382,0,0,0,2.468,1.17,6.314,6.314,0,0,0,3.1-.068,4.614,4.614,0,0,0,2.806-1.882,6.606,6.606,0,0,0,.833-1.812,9.036,9.036,0,0,0,.328-2.591,7.836,7.836,0,0,0-.795-3.616,4.7,4.7,0,0,0-2.57-2.391A6.694,6.694,0,0,0,499.8,6377.539Zm-.012,10.77a2.7,2.7,0,0,1-.921-.166,2.451,2.451,0,0,1-1.166-.766,5.533,5.533,0,0,1-.893-3.272,4.825,4.825,0,0,1,1.008-3.567l.01-.009a2.824,2.824,0,0,1,1.206-.64,2.689,2.689,0,0,1,1.651.025,2.878,2.878,0,0,1,1.458,1.253,5.29,5.29,0,0,1,.609,2.8,5.712,5.712,0,0,1-.687,3,2.8,2.8,0,0,1-1.514,1.224A2.735,2.735,0,0,1,499.788,6388.309Zm-1.514-7.344a4.232,4.232,0,0,0-.841,3.112,5.079,5.079,0,0,0,.757,2.913,1.906,1.906,0,0,0,.893.566,2.019,2.019,0,0,0,1.294.041,2.192,2.192,0,0,0,1.168-.971,5.26,5.26,0,0,0,.583-2.666,4.69,4.69,0,0,0-.513-2.458,2.271,2.271,0,0,0-1.128-1,2.051,2.051,0,0,0-1.276-.021A2.283,2.283,0,0,0,498.275,6380.964Z" transform="translate(-493.492 -6376.913)"/></g><g transform="translate(1376.231 462.692)"><path d="M515.353,6390.2h-3.417l-2-9.27-2,9.27H504.52l-3.56-12.978h3.317l2.049,8.977,1.855-8.977h3.465l1.755,8.977,1.805-7.807a1.44,1.44,0,0,1,1.562-1.169h2.147Z" transform="translate(-500.55 -6376.913)"/><path d="M515.795,6390.669h-3.906l-1.747-8.1-1.749,8.1h-3.906l-3.732-13.6h3.976l1.785,7.82,1.615-7.82h3.976l1.524,7.794,1.476-6.381a1.75,1.75,0,0,1,1.865-1.414h2.556Zm-3.4-.626h2.925l3.391-12.354h-1.739a1.138,1.138,0,0,0-1.258.935l-2.133,9.227-1.989-10.162h-2.953l-2.093,10.135-2.312-10.135h-2.66l3.391,12.354h2.925l2.253-10.437Z" transform="translate(-500.754 -6377.065)"/></g><g transform="translate(1331.528 482.866)"><g transform="translate(0.436 1.583)"><g transform="translate(0 4.489)"><path d="M478.742,6389.589H480.5a1.669,1.669,0,0,1,1.659,1.66v11.319h-3.417Z" transform="translate(-478.431 -6389.278)"/><path d="M482.626,6403.037h-4.04v-13.6h2.069a1.976,1.976,0,0,1,1.971,1.971Zm-3.415-.625H482V6391.4a1.352,1.352,0,0,0-1.346-1.347h-1.444Z" transform="translate(-478.586 -6389.434)"/></g><g transform="translate(8.115 4.196)"><path d="M494.127,6402.713h-1.709a1.586,1.586,0,0,1-1.657-1.659v-6.634a2.013,2.013,0,0,0-.709-1.71,2.554,2.554,0,0,0-1.585-.534,2.46,2.46,0,0,0-1.562.534,2.046,2.046,0,0,0-.683,1.71v8.292h-3.415v-7.61q0-3.319,1.731-4.441a7.585,7.585,0,0,1,3.83-1.22,7.358,7.358,0,0,1,3.954,1.123q1.8,1.123,1.805,4.539Z" transform="translate(-482.495 -6389.131)"/><path d="M494.594,6403.182h-2.019a1.9,1.9,0,0,1-1.973-1.971v-6.635a1.7,1.7,0,0,0-.583-1.46,2.239,2.239,0,0,0-1.4-.474,2.133,2.133,0,0,0-1.368.472,1.73,1.73,0,0,0-.563,1.462v8.606h-4.04v-7.923c0-2.313.629-3.9,1.873-4.7a7.907,7.907,0,0,1,3.986-1.27h0a7.7,7.7,0,0,1,4.13,1.168c1.3.809,1.953,2.424,1.953,4.8Zm-5.973-11.165a2.872,2.872,0,0,1,1.775.6,2.311,2.311,0,0,1,.831,1.957v6.635a1.277,1.277,0,0,0,1.348,1.346h1.394v-7.3c0-2.151-.557-3.589-1.657-4.272a7.069,7.069,0,0,0-3.786-1.075,7.272,7.272,0,0,0-3.662,1.17c-1.054.682-1.59,2.089-1.59,4.177v7.3h2.792v-7.981a2.344,2.344,0,0,1,.8-1.955A2.78,2.78,0,0,1,488.621,6392.017Z" transform="translate(-482.65 -6389.286)"/></g><g transform="translate(23.619 4.196)"><path d="M499.45,6401.933v-.829a3.728,3.728,0,0,1-2.366,1.708,4.851,4.851,0,0,1-2.951-.244,5.464,5.464,0,0,1-2.512-2.171,7.426,7.426,0,0,1-1.05-4.171,8.043,8.043,0,0,1,1.392-4.9,5.186,5.186,0,0,1,4.465-1.879,7.95,7.95,0,0,1,4.341,1.27q2,1.269,2,4.684v6.88q0,3.413-2,4.66a8.07,8.07,0,0,1-4.341,1.245q-4.49,0-5.563-4.2h3.562a2.726,2.726,0,0,0,2.806,1.244,2.655,2.655,0,0,0,1.464-.953A3.966,3.966,0,0,0,499.45,6401.933Zm-5.561-5.609q0,3.368,1.951,3.731a2.659,2.659,0,0,0,2.88-.9,3.647,3.647,0,0,0,.635-1.684,7.149,7.149,0,0,0,.024-2.268,4.567,4.567,0,0,0-.8-2,2.146,2.146,0,0,0-1.855-.879,2.252,2.252,0,0,0-2.244,1.222A6.358,6.358,0,0,0,493.889,6396.323Z" transform="translate(-490.259 -6389.131)"/><path d="M496.583,6408.646c-3.141,0-5.114-1.49-5.865-4.429l-.1-.393h4.146l.09.158a2.4,2.4,0,0,0,2.468,1.094,2.363,2.363,0,0,0,1.29-.846,3.612,3.612,0,0,0,.677-2.067,3.938,3.938,0,0,1-1.979,1.107,5.186,5.186,0,0,1-3.137-.258,5.8,5.8,0,0,1-2.656-2.288,7.771,7.771,0,0,1-1.1-4.343,8.382,8.382,0,0,1,1.452-5.09,5.507,5.507,0,0,1,4.717-2.005,8.325,8.325,0,0,1,4.509,1.315c1.424.906,2.147,2.57,2.147,4.949v6.881c0,2.381-.723,4.038-2.149,4.924A8.416,8.416,0,0,1,496.583,6408.646Zm-5.15-4.2c.747,2.4,2.434,3.572,5.15,3.572a7.8,7.8,0,0,0,4.178-1.2c1.23-.764,1.853-2.242,1.853-4.393v-6.881c0-2.15-.625-3.638-1.855-4.419a7.7,7.7,0,0,0-4.176-1.22,4.917,4.917,0,0,0-4.213,1.751,7.773,7.773,0,0,0-1.33,4.72,7.164,7.164,0,0,0,1,4,5.216,5.216,0,0,0,2.368,2.056,4.589,4.589,0,0,0,2.768.229,3.4,3.4,0,0,0,2.173-1.571l.575-.9v1.913a4.277,4.277,0,0,1-.831,2.524,2.972,2.972,0,0,1-1.636,1.056,2.864,2.864,0,0,1-1.805-.217,2.893,2.893,0,0,1-1.24-1.021Zm5.392-3.846a4.676,4.676,0,0,1-.885-.088c-1.466-.273-2.207-1.634-2.207-4.039a6.718,6.718,0,0,1,.615-2.918,2.548,2.548,0,0,1,2.526-1.395,2.454,2.454,0,0,1,2.109,1.005,4.905,4.905,0,0,1,.861,2.137,7.54,7.54,0,0,1-.026,2.369,3.906,3.906,0,0,1-.7,1.829A2.677,2.677,0,0,1,496.824,6400.605Zm.05-7.816a1.947,1.947,0,0,0-1.963,1.045,6.066,6.066,0,0,0-.555,2.645c0,2.091.555,3.212,1.7,3.426a2.354,2.354,0,0,0,2.57-.782,3.381,3.381,0,0,0,.579-1.551,6.873,6.873,0,0,0,.022-2.168,4.242,4.242,0,0,0-.749-1.866A1.836,1.836,0,0,0,496.874,6392.789Z" transform="translate(-490.414 -6389.286)"/></g><path d="M502.135,6396.162h-1.514v-3.442h-2.816V6390.5h2.816v-3.315h2.25v3.315h2.816v1.5a.713.713,0,0,1-.715.714H502.89v2.721a.721.721,0,0,1-.721.722Z" transform="translate(-459.426 -6387.187)"/></g><circle cx="2.414" cy="2.414" r="2.414" transform="translate(0 0)"/></g></g></svg>