<svg xmlns="http://www.w3.org/2000/svg" width="169.153" height="125.379" viewBox="0 0 169.153 125.379"><g transform="translate(-214.185 -903.245)"><g transform="translate(214.185 903.244)"><path d="M387.177,957.252a21.484,21.484,0,1,0-.312-21.484l-23.02.357a42.984,42.984,0,1,1,.327,21.477Z" transform="translate(-279.454 -903.245)" fill="#f29600"/><path d="M275.882,958.947a21.47,21.47,0,1,1-.309-21.5l23-.329A42.961,42.961,0,1,0,298.9,958.6Z" transform="translate(-214.185 -904.24)" fill="#009fe8"/></g><g transform="translate(227.664 1005.485)"><path d="M231.568,1089.465c0-7.433,4.975-11.688,10.639-11.688a9.5,9.5,0,0,1,6.773,2.907l-2.819,3.416a5.527,5.527,0,0,0-3.866-1.738c-2.876,0-5.244,2.578-5.244,6.923,0,4.435,2.038,7.013,5.184,7.013a5.794,5.794,0,0,0,4.256-2.038l2.819,3.357a9.279,9.279,0,0,1-7.283,3.3C236.363,1100.913,231.568,1097.018,231.568,1089.465Z" transform="translate(-231.568 -1077.777)" fill="#533128"/><path d="M266.175,1089.226c0-7.313,4.136-11.447,10.22-11.447s10.219,4.165,10.219,11.447c0,7.312-4.135,11.688-10.219,11.688S266.175,1096.538,266.175,1089.226Zm14.984,0c0-4.316-1.828-6.863-4.765-6.863s-4.737,2.548-4.737,6.863c0,4.346,1.8,7.073,4.737,7.073S281.159,1093.572,281.159,1089.226Z" transform="translate(-247.473 -1077.778)" fill="#533128"/><path d="M311.654,1078.553h5.454l5.545,10.669,2.187,4.945h.149a70.35,70.35,0,0,1-.719-8.241v-7.373h5.094v22.3H323.91l-5.514-10.759-2.187-4.885h-.149c.24,2.486.689,5.544.689,8.241v7.4h-5.094Z" transform="translate(-268.375 -1078.133)" fill="#533128"/><path d="M354.026,1078.553h5.455l5.544,10.669,2.188,4.945h.149a70.232,70.232,0,0,1-.72-8.241v-7.373h5.094v22.3h-5.454l-5.514-10.759-2.187-4.885h-.149c.24,2.486.689,5.544.689,8.241v7.4h-5.094Z" transform="translate(-287.849 -1078.133)" fill="#533128"/><path d="M396.4,1078.553h14.145v4.436h-8.782v4.135h7.462v4.5h-7.462v4.737h9.111v4.5H396.4Z" transform="translate(-307.324 -1078.133)" fill="#533128"/><path d="M429.452,1089.465c0-7.433,4.974-11.688,10.638-11.688a9.5,9.5,0,0,1,6.773,2.907l-2.819,3.416a5.529,5.529,0,0,0-3.866-1.738c-2.876,0-5.244,2.578-5.244,6.923,0,4.435,2.038,7.013,5.184,7.013a5.8,5.8,0,0,0,4.256-2.038l2.816,3.357a9.278,9.278,0,0,1-7.28,3.3C434.247,1100.913,429.452,1097.018,429.452,1089.465Z" transform="translate(-322.515 -1077.777)" fill="#533128"/><path d="M470.472,1082.989h-6.024v-4.436H481.89v4.436h-6.054v17.861h-5.364Z" transform="translate(-338.6 -1078.133)" fill="#533128"/></g></g></svg>