<svg
  xmlns="http://www.w3.org/2000/svg"
  xmlns:xlink="http://www.w3.org/1999/xlink"
  version="1.1"
  width="217.266"
  height="249.597"
  viewBox="0 0 217.266 249.597"
>
  <g transform="translate(-127.443 -94.903)">
    <g transform="translate(127.443 94.903)">
      <path
        d="M529.486,6401.46q-.817,9.873-7.4,15.459-6.743,5.436-17.758,5.434-12.83,0-19.569-7.734-6.742-7.4-6.736-21.87,0-14.791,6.9-22.191,7.067-7.729,20.39-7.734,10.851,0,17.261,5.43,6.088,5.257,6.905,14.8H522.42a5.7,5.7,0,0,1-5.592-3.46,16.445,16.445,0,0,0-2.792-3.779,14.2,14.2,0,0,0-8.715-2.465q-7.57,0-11.675,4.936c-2.631,3.281-3.951,8.114-3.951,14.463q0,9.218,3.951,14.151,3.775,5.08,11.346,5.085a13.936,13.936,0,0,0,8.714-2.627q3.12-2.457,4.434-7.9Z"
        transform="translate(-476.97 -6361.776)"
      />
      <path
        d="M505.231,6424.29c-8.829,0-15.679-2.718-20.357-8.094-4.643-5.085-7.005-12.681-7.005-22.564,0-10.084,2.423-17.792,7.194-22.91,4.885-5.339,12.011-8.058,21.156-8.058,7.457,0,13.493,1.915,17.941,5.671,4.26,3.688,6.7,8.9,7.275,15.515l.1,1.135H523.32a6.8,6.8,0,0,1-6.541-4.047,15.493,15.493,0,0,0-2.591-3.494,13.273,13.273,0,0,0-7.968-2.156c-4.764,0-8.317,1.5-10.868,4.553-2.449,3.07-3.7,7.718-3.7,13.792,0,5.867,1.252,10.405,3.715,13.493,2.355,3.173,5.788,4.7,10.525,4.7a13.014,13.014,0,0,0,8.075-2.417c1.871-1.472,3.236-3.938,4.058-7.3l.195-.807h13.317l-.1,1.143c-.573,6.83-3.183,12.273-7.766,16.165C518.979,6422.381,512.788,6424.29,505.231,6424.29Zm.989-59.521c-8.532,0-15.134,2.484-19.615,7.389-4.4,4.712-6.629,11.941-6.629,21.474,0,9.338,2.18,16.456,6.467,21.171,4.28,4.905,10.592,7.379,18.788,7.379,7.066,0,12.812-1.738,17.1-5.2a20.392,20.392,0,0,0,6.891-13.571H519.86a14.4,14.4,0,0,1-4.6,7.66,15.082,15.082,0,0,1-9.367,2.857c-5.377,0-9.475-1.857-12.194-5.528-2.746-3.427-4.152-8.409-4.152-14.771,0-6.565,1.406-11.653,4.179-15.111,2.947-3.542,7.146-5.335,12.5-5.335a15.344,15.344,0,0,1,9.348,2.671,17.553,17.553,0,0,1,3.089,4.136,4.674,4.674,0,0,0,4.664,2.888h5.9c-.693-5.494-2.854-9.851-6.426-12.944C518.743,6366.518,513.165,6364.769,506.22,6364.769Z"
        transform="translate(-477.869 -6362.664)"
      />
    </g>
    <g transform="translate(193.674 108.352)">
      <path
        d="M494.28,6405.639a16.284,16.284,0,0,1-4.933-7.976,36.608,36.608,0,0,1-1.48-10.45,32.959,32.959,0,0,1,1.23-8.867,18.377,18.377,0,0,1,3.863-7.413,17.155,17.155,0,0,1,11.022-5.833,25.4,25.4,0,0,1,12.167,1.074,16.759,16.759,0,0,1,9.205,8.552,27.279,27.279,0,0,1,2.793,12.653,31.171,31.171,0,0,1-1.151,9.04,23.063,23.063,0,0,1-2.961,6.417,16.419,16.419,0,0,1-10.027,6.745,22.273,22.273,0,0,1-10.935.24A18.953,18.953,0,0,1,494.28,6405.639Zm7.893-28.953q-3.453,3.8-3.122,11.27c.215,4.993,1.151,8.464,2.793,10.447a7.45,7.45,0,0,0,3.452,2.213,7.831,7.831,0,0,0,5.014.166,8.371,8.371,0,0,0,4.522-3.7c1.319-1.977,2.026-5.149,2.14-9.535q0-5.914-1.891-8.878a8.492,8.492,0,0,0-4.36-3.782,7.991,7.991,0,0,0-4.933-.092A8.732,8.732,0,0,0,502.173,6376.686Z"
        transform="translate(-486.817 -6363.768)"
      />
      <path
        d="M508.968,6412.33a24.176,24.176,0,0,1-5.228-.579,20.209,20.209,0,0,1-9.259-4.427,17.39,17.39,0,0,1-5.25-8.464,38.016,38.016,0,0,1-1.52-10.752,34.071,34.071,0,0,1,1.271-9.155,19.39,19.39,0,0,1,4.091-7.816,18.09,18.09,0,0,1,11.662-6.176,26.361,26.361,0,0,1,12.665,1.125,17.8,17.8,0,0,1,9.8,9.081,28.412,28.412,0,0,1,2.9,13.114,32.552,32.552,0,0,1-1.2,9.349,24.13,24.13,0,0,1-3.1,6.7,17.561,17.561,0,0,1-10.679,7.172A23.176,23.176,0,0,1,508.968,6412.33Zm0-45.559a31.415,31.415,0,0,0-3.956.268,16.116,16.116,0,0,0-10.356,5.487,17.32,17.32,0,0,0-3.648,6.989,32.163,32.163,0,0,0-1.2,8.593,35.676,35.676,0,0,0,1.441,10.145,15.245,15.245,0,0,0,4.609,7.478l.02.021a18.129,18.129,0,0,0,8.318,3.945,21.293,21.293,0,0,0,10.43-.233,15.547,15.547,0,0,0,9.455-6.349,22.054,22.054,0,0,0,2.806-6.092,30.537,30.537,0,0,0,1.1-8.741,26.431,26.431,0,0,0-2.677-12.183,15.861,15.861,0,0,0-8.662-8.057A22.6,22.6,0,0,0,508.968,6366.771Zm-.04,36.3a9.144,9.144,0,0,1-3.1-.563,8.3,8.3,0,0,1-3.93-2.582c-1.784-2.14-2.779-5.756-3.009-11.023-.228-5.247.915-9.294,3.4-12.022l.033-.027a9.453,9.453,0,0,1,4.064-2.159,9.077,9.077,0,0,1,5.565.092,9.635,9.635,0,0,1,4.913,4.213c1.359,2.139,2.052,5.318,2.052,9.45-.114,4.654-.868,7.955-2.315,10.121a9.451,9.451,0,0,1-5.1,4.125A9.29,9.29,0,0,1,508.928,6403.07Zm-5.1-24.755c-2.086,2.313-3.042,5.834-2.833,10.494.209,4.735,1.063,8.023,2.55,9.81a6.448,6.448,0,0,0,3.008,1.912,6.8,6.8,0,0,0,4.361.143,7.4,7.4,0,0,0,3.937-3.285c1.2-1.786,1.857-4.806,1.965-8.976,0-3.687-.585-6.49-1.729-8.273a7.577,7.577,0,0,0-3.8-3.355,6.884,6.884,0,0,0-4.3-.075A7.56,7.56,0,0,0,503.828,6378.315Z"
        transform="translate(-487.711 -6364.666)"
      />
    </g>
    <g transform="translate(246.989 126.636)">
      <path
        d="M495.79,6376.755v-4.775q0-4.444,4.434-4.44H518.48v9.216Z"
        transform="translate(-494.733 -6366.488)"
      />
      <path
        d="M520.43,6378.7h-24.8v-5.823c0-3.546,1.952-5.491,5.5-5.491h19.3Zm-22.691-2.108h20.586v-7.1H501.131c-2.376,0-3.392,1-3.392,3.386Z"
        transform="translate(-495.633 -6367.383)"
      />
    </g>
    <g transform="translate(127.443 177.324)">
      <path
        d="M520.939,6426.542a18.069,18.069,0,0,1-7.072,6.243,23.688,23.688,0,0,1-9.374,1.813q-12.164,0-19.232-8.057-7.238-7.891-7.234-21.711,0-13.641,7.065-21.54,7.4-8.216,19.569-8.22,10.519,0,17.429,5.1a21.682,21.682,0,0,1,8.055,14.142h-7.894a5.393,5.393,0,0,1-5.094-3.132,12.892,12.892,0,0,0-3.29-3.613,14.951,14.951,0,0,0-8.715-2.3,13.592,13.592,0,0,0-11.178,5.1c-2.746,3.62-4.112,8.454-4.112,14.467q0,9.214,4.273,14.478,4.108,5.1,11.675,5.094a13.612,13.612,0,0,0,9.206-3.121,15.294,15.294,0,0,0,4.6-9.047h-6.9a5.91,5.91,0,0,1-5.915-5.918v-3.783h23.512v30.754h-3.128q-4.6,0-5.755-4.613Z"
        transform="translate(-476.97 -6374.017)"
      />
      <path
        d="M505.4,6436.543c-8.4,0-15.134-2.833-20.033-8.409-4.967-5.42-7.5-12.969-7.5-22.408,0-9.318,2.47-16.8,7.341-22.243,5.122-5.681,11.966-8.568,20.35-8.568,7.207,0,13.283,1.79,18.055,5.308a22.811,22.811,0,0,1,8.473,14.826l.182,1.214h-9.118a6.458,6.458,0,0,1-6.023-3.688,11.847,11.847,0,0,0-3-3.273,14.02,14.02,0,0,0-8.075-2.089,12.486,12.486,0,0,0-10.356,4.709c-2.571,3.379-3.883,8.04-3.883,13.806,0,5.87,1.359,10.518,4.037,13.813,2.557,3.169,6.11,4.711,10.861,4.711a12.587,12.587,0,0,0,8.52-2.871,13.7,13.7,0,0,0,4-7.2h-5.619a6.679,6.679,0,0,1-4.932-2.037,6.747,6.747,0,0,1-2.039-4.942v-4.82h25.619v32.852h-4.179c-3.546,0-5.889-1.867-6.77-5.389a18.288,18.288,0,0,1-6.09,4.782A24.954,24.954,0,0,1,505.4,6436.543Zm.161-59.521c-7.759,0-14.078,2.65-18.781,7.877-4.515,5.034-6.8,12.037-6.8,20.826,0,8.9,2.342,15.968,6.958,21,4.5,5.132,10.7,7.715,18.465,7.715a22.9,22.9,0,0,0,8.963-1.729,17.154,17.154,0,0,0,6.608-5.874l1.36-1.967,1.03,4.465c.639,2.579,2.146,3.793,4.724,3.793h2.073v-28.639H508.751v2.715a4.836,4.836,0,0,0,4.864,4.874h8.156l-.209,1.23a16.319,16.319,0,0,1-4.932,9.637,14.638,14.638,0,0,1-9.919,3.406c-5.357,0-9.562-1.847-12.5-5.484-2.988-3.691-4.5-8.778-4.5-15.141,0-6.237,1.454-11.314,4.321-15.094a14.669,14.669,0,0,1,12.019-5.519,16.045,16.045,0,0,1,9.32,2.491,13.75,13.75,0,0,1,3.594,3.949,4.356,4.356,0,0,0,4.186,2.6h6.641a20.668,20.668,0,0,0-7.463-12.267C517.962,6378.67,512.31,6377.022,505.56,6377.022Z"
        transform="translate(-477.869 -6374.914)"
      />
    </g>
    <g transform="translate(195.58 191.799)">
      <path
        d="M488.15,6420.958v-21.216a26.94,26.94,0,0,1,1.891-10.765,17.667,17.667,0,0,1,5.181-6.982,20.332,20.332,0,0,1,7.316-3.627,32.634,32.634,0,0,1,8.633-1.146h1.642v11.67h-3.782q-4.774,0-7.072,2.3t-2.3,7.24v22.527Z"
        transform="translate(-487.1 -6376.172)"
      />
      <path
        d="M501.607,6422.9H487.994v-22.27a28.338,28.338,0,0,1,1.971-11.183,18.912,18.912,0,0,1,5.491-7.389,21.511,21.511,0,0,1,7.692-3.813,34.071,34.071,0,0,1,8.916-1.187h2.693v13.778h-4.833c-2.874,0-5,.672-6.325,1.993s-1.993,3.5-1.993,6.5Zm-11.513-2.108H499.5v-21.463c0-3.562.875-6.25,2.61-7.986s4.361-2.613,7.813-2.613h2.732v-9.568h-.592a31.415,31.415,0,0,0-8.358,1.122,19.319,19.319,0,0,0-6.938,3.417,16.828,16.828,0,0,0-4.865,6.582,26.066,26.066,0,0,0-1.81,10.349Z"
        transform="translate(-487.994 -6377.063)"
      />
    </g>
    <g transform="translate(232.579 190.777)">
      <path
        d="M500.061,6417.882a16.29,16.29,0,0,1-4.933-7.976,36.552,36.552,0,0,1-1.48-10.439,33.066,33.066,0,0,1,1.231-8.874,18.387,18.387,0,0,1,3.863-7.406,17.124,17.124,0,0,1,11.022-5.834,25.407,25.407,0,0,1,12.167,1.071,16.762,16.762,0,0,1,9.206,8.545,27.291,27.291,0,0,1,2.793,12.664,31.277,31.277,0,0,1-1.152,9.043,23.129,23.129,0,0,1-2.96,6.417,16.467,16.467,0,0,1-10.027,6.741,22.4,22.4,0,0,1-10.935.241A19.169,19.169,0,0,1,500.061,6417.882Zm7.893-28.934q-3.452,3.784-3.122,11.257.322,7.49,2.792,10.44a7.33,7.33,0,0,0,3.453,2.224,7.784,7.784,0,0,0,5.013.162,8.346,8.346,0,0,0,4.523-3.708c1.319-1.969,2.025-5.142,2.139-9.524,0-3.949-.633-6.9-1.891-8.884a8.616,8.616,0,0,0-4.361-3.779,7.917,7.917,0,0,0-4.933-.075A8.4,8.4,0,0,0,507.954,6388.949Z"
        transform="translate(-492.598 -6376.025)"
      />
      <path
        d="M514.75,6424.583a24.179,24.179,0,0,1-5.228-.583,20.257,20.257,0,0,1-9.26-4.434,17.361,17.361,0,0,1-5.248-8.471,37.934,37.934,0,0,1-1.521-10.745,34.056,34.056,0,0,1,1.272-9.148,19.349,19.349,0,0,1,4.092-7.812,18.116,18.116,0,0,1,11.662-6.187,26.563,26.563,0,0,1,12.664,1.119,17.943,17.943,0,0,1,9.8,9.08,28.506,28.506,0,0,1,2.9,13.132,32.436,32.436,0,0,1-1.2,9.335,24.162,24.162,0,0,1-3.1,6.7,17.542,17.542,0,0,1-10.679,7.172A23.14,23.14,0,0,1,514.75,6424.583Zm0-45.566a28.624,28.624,0,0,0-3.957.274,16.073,16.073,0,0,0-10.356,5.484,17.253,17.253,0,0,0-3.647,7,31.89,31.89,0,0,0-1.2,8.575,35.746,35.746,0,0,0,1.44,10.152,15.256,15.256,0,0,0,4.61,7.477l.021.014a18.062,18.062,0,0,0,8.317,3.945,21.181,21.181,0,0,0,10.431-.23,15.525,15.525,0,0,0,9.454-6.345,22.129,22.129,0,0,0,2.806-6.1,30.486,30.486,0,0,0,1.1-8.728,26.351,26.351,0,0,0-2.678-12.183,15.814,15.814,0,0,0-8.661-8.061A22.362,22.362,0,0,0,514.75,6379.016Zm-.041,36.3a9.075,9.075,0,0,1-3.1-.565,8.228,8.228,0,0,1-3.929-2.58c-1.784-2.128-2.779-5.755-3.008-11.022s.915-9.287,3.4-12.023l.033-.03a9.566,9.566,0,0,1,4.064-2.152,9.034,9.034,0,0,1,5.565.088,9.663,9.663,0,0,1,4.912,4.217c1.36,2.143,2.052,5.322,2.052,9.437-.114,4.668-.869,7.963-2.315,10.125a9.4,9.4,0,0,1-5.1,4.122A9.092,9.092,0,0,1,514.709,6415.315Zm-5.1-24.747c-2.086,2.3-3.041,5.83-2.833,10.478.208,4.731,1.063,8.04,2.55,9.822a6.439,6.439,0,0,0,3.009,1.909,6.852,6.852,0,0,0,4.361.142,7.416,7.416,0,0,0,3.936-3.277c1.2-1.793,1.858-4.816,1.965-8.979,0-3.69-.585-6.487-1.729-8.287a7.616,7.616,0,0,0-3.8-3.353,6.911,6.911,0,0,0-4.3-.067A7.651,7.651,0,0,0,509.609,6390.568Z"
        transform="translate(-493.492 -6376.913)"
      />
    </g>
    <g transform="translate(281.446 191.799)">
      <path
        d="M549.464,6420.958H537.951l-6.743-31.245-6.736,31.245H512.958l-12-43.735h11.178l6.9,30.255,6.252-30.255h11.675l5.916,30.255,6.083-26.313q.99-3.94,5.263-3.941h7.234Z"
        transform="translate(-499.579 -6376.172)"
      />
      <path
        d="M551.44,6422.9H538.277l-5.888-27.31-5.895,27.31H513.331l-12.577-45.841h13.4l6.017,26.354,5.444-26.354h13.4l5.135,26.27,4.973-21.5c.781-3.125,2.954-4.766,6.286-4.766h8.614Zm-11.461-2.108h9.858l11.427-41.631H555.4c-2.355,0-3.7,1-4.24,3.152l-7.187,31.1-6.7-34.248h-9.953l-7.052,34.163-7.793-34.163h-8.963l11.427,41.631H524.8l7.591-35.17Z"
        transform="translate(-500.754 -6377.063)"
      />
    </g>
    <g transform="translate(130.8 259.783)">
      <g transform="translate(1.469 5.336)">
        <g transform="translate(0 15.128)">
          <path
            d="M478.742,6389.588h5.922a5.609,5.609,0,0,1,5.592,5.59v38.143H478.742Z"
            transform="translate(-477.692 -6388.542)"
          />
          <path
            d="M492.2,6435.277H478.586v-45.844h6.971a6.659,6.659,0,0,1,6.642,6.637Zm-11.508-2.118h9.4V6396.07a4.565,4.565,0,0,0-4.535-4.542h-4.866Z"
            transform="translate(-478.586 -6389.434)"
          />
        </g>
        <g transform="translate(27.348 14.139)">
          <path
            d="M520.954,6434.157h-5.76a5.336,5.336,0,0,1-5.586-5.586v-22.354c0-2.63-.8-4.556-2.389-5.762a8.62,8.62,0,0,0-5.343-1.8,8.3,8.3,0,0,0-5.263,1.8c-1.533,1.206-2.3,3.132-2.3,5.762v27.94H482.806v-25.642q0-11.186,5.834-14.966a25.5,25.5,0,0,1,12.907-4.107,24.838,24.838,0,0,1,13.324,3.775q6.077,3.788,6.083,15.3Z"
            transform="translate(-481.756 -6388.396)"
          />
          <path
            d="M522.9,6436.112h-6.8a6.4,6.4,0,0,1-6.649-6.647v-22.354c0-2.306-.639-3.912-1.964-4.915a7.5,7.5,0,0,0-4.711-1.6,7.162,7.162,0,0,0-4.609,1.59c-1.279,1-1.9,2.6-1.9,4.922v29H482.65v-26.7c0-7.789,2.12-13.125,6.312-15.854a26.751,26.751,0,0,1,13.432-4.271h.007a25.955,25.955,0,0,1,13.916,3.932c4.367,2.722,6.582,8.173,6.582,16.192Zm-20.128-37.624a9.657,9.657,0,0,1,5.982,2.03c1.857,1.41,2.8,3.633,2.8,6.593v22.354a4.306,4.306,0,0,0,4.543,4.542h4.7v-24.6c0-7.247-1.877-12.087-5.585-14.4a23.77,23.77,0,0,0-12.759-3.624,24.489,24.489,0,0,0-12.342,3.942c-3.554,2.3-5.357,7.037-5.357,14.077v24.6h9.408v-26.9c0-2.96.908-5.176,2.705-6.593A9.38,9.38,0,0,1,502.771,6398.488Z"
            transform="translate(-482.65 -6389.285)"
          />
        </g>
        <g transform="translate(79.595 14.139)">
          <path
            d="M520.5,6431.53v-2.789a12.56,12.56,0,0,1-7.975,5.755,16.313,16.313,0,0,1-9.946-.823,18.406,18.406,0,0,1-8.465-7.318q-3.543-5.344-3.539-14.057,0-10.189,4.69-16.527t15.047-6.328a26.832,26.832,0,0,1,14.63,4.274q6.742,4.28,6.742,15.781v23.188c0,7.663-2.247,12.917-6.742,15.7a27.209,27.209,0,0,1-14.63,4.193q-15.131,0-18.748-14.138h12.005a9.183,9.183,0,0,0,9.455,4.192,8.922,8.922,0,0,0,4.933-3.213C519.432,6437.668,520.273,6435.048,520.5,6431.53Zm-18.742-18.9q0,11.348,6.575,12.575t9.7-3.041a12.265,12.265,0,0,0,2.141-5.667,24.167,24.167,0,0,0,.08-7.646,15.406,15.406,0,0,0-2.712-6.745,7.236,7.236,0,0,0-6.252-2.96q-5.592,0-7.564,4.115A21.417,21.417,0,0,0,501.754,6412.626Z"
            transform="translate(-489.52 -6388.396)"
          />
          <path
            d="M511.2,6454.527c-10.585,0-17.234-5.023-19.764-14.928l-.337-1.318h13.971l.3.529a8.09,8.09,0,0,0,8.316,3.685,7.969,7.969,0,0,0,4.348-2.852c1.278-1.518,2.046-3.856,2.281-6.965a13.255,13.255,0,0,1-6.669,3.738,17.476,17.476,0,0,1-10.572-.878,19.5,19.5,0,0,1-8.95-7.708c-2.462-3.715-3.714-8.646-3.714-14.636,0-7,1.649-12.766,4.892-17.154,3.324-4.481,8.667-6.756,15.894-6.756a28.088,28.088,0,0,1,15.195,4.431c4.8,3.054,7.234,8.66,7.234,16.673v23.194c0,8.023-2.435,13.6-7.241,16.593A28.36,28.36,0,0,1,511.2,6454.527Zm-17.355-14.145c2.516,8.1,8.2,12.043,17.355,12.043a26.315,26.315,0,0,0,14.078-4.037c4.145-2.579,6.245-7.559,6.245-14.806v-23.194c0-7.24-2.107-12.257-6.252-14.884a25.917,25.917,0,0,0-14.071-4.115c-6.52,0-11.3,1.983-14.2,5.905-2.975,4.013-4.482,9.365-4.482,15.9,0,5.572,1.13,10.111,3.358,13.47a17.588,17.588,0,0,0,7.981,6.925,15.432,15.432,0,0,0,9.327.767,11.461,11.461,0,0,0,7.321-5.288l1.938-3.023v6.447c-.236,3.722-1.178,6.586-2.8,8.5a10.013,10.013,0,0,1-5.511,3.56,10.261,10.261,0,0,1-10.262-4.173Zm18.169-12.958a16.238,16.238,0,0,1-2.981-.288c-4.939-.929-7.435-5.512-7.435-13.619a22.681,22.681,0,0,1,2.072-9.833c1.5-3.119,4.367-4.7,8.513-4.7a8.273,8.273,0,0,1,7.106,3.39,16.534,16.534,0,0,1,2.9,7.2,25.456,25.456,0,0,1-.088,7.986,13.165,13.165,0,0,1-2.362,6.155A9.016,9.016,0,0,1,512.015,6427.425Zm.168-26.334c-3.31,0-5.478,1.149-6.615,3.516a20.476,20.476,0,0,0-1.871,8.911c0,7.05,1.871,10.826,5.72,11.545,3.99.752,6.817-.1,8.66-2.634a11.336,11.336,0,0,0,1.952-5.221,23.146,23.146,0,0,0,.074-7.308,14.285,14.285,0,0,0-2.524-6.294A6.208,6.208,0,0,0,512.183,6401.091Z"
            transform="translate(-490.414 -6389.285)"
          />
        </g>
        <path
          d="M512.4,6417.431h-5.1v-11.6h-9.488v-7.474h9.488v-11.172h7.583v11.172h9.489v5.063a2.4,2.4,0,0,1-2.409,2.41h-7.019V6415a2.434,2.434,0,0,1-2.429,2.431Z"
          transform="translate(-368.468 -6387.186)"
        />
      </g>
      <circle
        cx="8.134"
        cy="8.134"
        r="8.134"
        transform="translate(0 0)"
      />
    </g>
  </g>
</svg>