<svg xmlns="http://www.w3.org/2000/svg" viewBox="0 0 232.38 172.24"><defs><style>.cls-1{fill:#f29600;}.cls-2{fill:#009fe8;}.cls-3{fill:#533128;}</style></defs><g id="レイヤー_2" data-name="レイヤー 2"><g id="圖層_1" data-name="圖層 1"><g id="logo_concept" data-name="logo concept"><g id="グループ化_380" data-name="グループ化 380"><path id="パス_998" data-name="パス 998" class="cls-1" d="M148,74.2a29.52,29.52,0,1,0-.43-29.51l-31.62.49a59,59,0,1,1,.45,29.5Z"/><path id="パス_999" data-name="パス 999" class="cls-2" d="M84.76,75.16a29.49,29.49,0,1,1-.42-29.53l31.6-.46a59,59,0,1,0,.45,29.5Z"/></g><g id="グループ化_381" data-name="グループ化 381"><path id="パス_1000" data-name="パス 1000" class="cls-3" d="M18.53,156.51c0-10.21,6.83-16.06,14.61-16.06a13.07,13.07,0,0,1,9.3,4l-3.87,4.69a7.63,7.63,0,0,0-5.31-2.39c-3.95,0-7.2,3.54-7.2,9.51s2.8,9.63,7.12,9.63a8,8,0,0,0,5.84-2.8l3.88,4.61a12.72,12.72,0,0,1-10,4.53C25.11,172.23,18.53,166.88,18.53,156.51Z"/><path id="パス_1001" data-name="パス 1001" class="cls-3" d="M44.22,156.17c0-10,5.68-15.72,14-15.72s14,5.72,14,15.72-5.68,16.06-14,16.06S44.22,166.22,44.22,156.17Zm20.58,0c0-5.92-2.51-9.42-6.55-9.42s-6.5,3.5-6.5,9.42,2.47,9.72,6.5,9.72S64.8,162.15,64.8,156.17Z"/><path id="パス_1002" data-name="パス 1002" class="cls-3" d="M78,141h7.5l7.61,14.65,3,6.8h.21a97.5,97.5,0,0,1-1-11.32V141h7v30.63H94.81l-7.58-14.78-3-6.71H84c.33,3.41.94,7.61.94,11.32v10.17H78Z"/><path id="パス_1003" data-name="パス 1003" class="cls-3" d="M109.43,141h7.49l7.62,14.65,3,6.8h.21a97.5,97.5,0,0,1-1-11.32V141h7v30.63h-7.49l-7.58-14.78-3-6.71h-.2c.33,3.41.94,7.61.94,11.32v10.17h-7Z"/><path id="パス_1004" data-name="パス 1004" class="cls-3" d="M140.88,141h19.43v6.09H148.25v5.68H158.5V159H148.25v6.5h12.52v6.18H140.88Z"/><path id="パス_1005" data-name="パス 1005" class="cls-3" d="M165.42,156.51c0-10.21,6.83-16.06,14.61-16.06a13.07,13.07,0,0,1,9.3,4l-3.87,4.69a7.59,7.59,0,0,0-5.31-2.39c-4,0-7.2,3.54-7.2,9.51s2.8,9.63,7.12,9.63a8,8,0,0,0,5.85-2.8l3.86,4.61a12.7,12.7,0,0,1-10,4.53C172,172.23,165.42,166.88,165.42,156.51Z"/><path id="パス_1006" data-name="パス 1006" class="cls-3" d="M199.67,147.12H191.4V141h24v6.09H207v24.54h-7.37Z"/></g></g></g></g></svg>