<svg xmlns="http://www.w3.org/2000/svg" xmlns:xlink="http://www.w3.org/1999/xlink" viewBox="0 0 398.01 251.05"><defs><style>.cls-1{fill:url(#未命名漸層_3);}.cls-2{fill:url(#未命名漸層_3-2);}.cls-3{fill:url(#未命名漸層_3-3);}.cls-4{opacity:0.2;isolation:isolate;}.cls-5{fill:url(#未命名漸層_5);}.cls-6{fill:url(#未命名漸層_5-2);}</style><linearGradient id="未命名漸層_3" x1="192.06" y1="-876.56" x2="193.06" y2="-876.56" gradientTransform="matrix(146.35, 0, 0, -138.22, -28108.89, -121047.72)" gradientUnits="userSpaceOnUse"><stop offset="0" stop-color="#00fccc"/><stop offset="1" stop-color="#00caf9"/></linearGradient><linearGradient id="未命名漸層_3-2" x1="192.06" y1="-876.56" x2="193.06" y2="-876.56" gradientTransform="matrix(146.22, 0, 0, -138.22, -28001.83, -121046.03)" xlink:href="#未命名漸層_3"/><linearGradient id="未命名漸層_3-3" x1="189.31" y1="-896.78" x2="190.31" y2="-896.78" gradientTransform="matrix(47.45, 0, 0, -47.45, -8892.54, -42528.34)" xlink:href="#未命名漸層_3"/><linearGradient id="未命名漸層_5" x1="189.31" y1="-896.78" x2="190.31" y2="-896.78" gradientTransform="matrix(47.45, 0, 0, -47.45, -8802.44, -42439.13)" gradientUnits="userSpaceOnUse"><stop offset="0" stop-color="#4f1bb2"/><stop offset="0.3" stop-color="#5220b3"/><stop offset="0.66" stop-color="#5b2fb9"/><stop offset="1" stop-color="#6844c1"/></linearGradient><linearGradient id="未命名漸層_5-2" x1="189.31" y1="-896.78" x2="190.31" y2="-896.78" gradientTransform="matrix(47.45, 0, 0, -47.45, -8982.64, -42439.13)" xlink:href="#未命名漸層_5"/></defs><g id="レイヤー_2" data-name="レイヤー 2"><g id="圖層_1" data-name="圖層 1"><g id="logo"><g id="グループ_903" data-name="グループ 903"><path id="パス_1675" data-name="パス 1675" class="cls-1" d="M139.4,95.75,99.74,56.08A43,43,0,0,0,69.21,43.41,69.11,69.11,0,0,0,69,181.63h.4a42.55,42.55,0,0,0,30.18-12.52l39.82-39.82a23.72,23.72,0,0,0,0-33.54Zm-24.13,23L86.39,147.62a22.52,22.52,0,0,1-16.07,6.61,41.7,41.7,0,0,1-.07-83.4h.07a22.63,22.63,0,0,1,16.19,6.71l28.79,28.8a8.84,8.84,0,0,1,0,12.38ZM114,104.48,97,87.56l17-16.94,16.95,16.94Z"/><path id="パス_1676" data-name="パス 1676" class="cls-2" d="M224.61,92.57a69.15,69.15,0,0,0-66.2-49.16,43,43,0,0,0-30.5,12.68L88.24,95.75a23.77,23.77,0,0,0,0,33.54l8.26,8.25,17.36-17.32,17.39,17.41L113.92,155l14.14,14.15a42.72,42.72,0,0,0,30.39,12.52,69.14,69.14,0,0,0,66.16-89.06Zm-27.35,32a41.67,41.67,0,0,1-40,29.64,22.35,22.35,0,0,1-16-6.6l-28.88-28.91a8.84,8.84,0,0,1,0-12.38l28.8-28.79a22.61,22.61,0,0,1,16.14-6.72,41.73,41.73,0,0,1,39.94,53.76Z"/><circle id="楕円形_237" data-name="楕円形 237" class="cls-3" cx="113.82" cy="23.73" r="23.73"/><path id="パス_1677" data-name="パス 1677" class="cls-4" d="M113.82,104.65l1.33,1.33,17.92-16.24-2.15-2.18Z"/><path id="パス_1678" data-name="パス 1678" class="cls-4" d="M113.85,154.61l1.33,1.33L133,139.7l-2.15-2.19Z"/><path id="パス_1679" data-name="パス 1679" class="cls-4" d="M96.85,87.56l-1.5-1.5,16.32-17.71,2.16,2.15Z"/><path id="パス_1680" data-name="パス 1680" class="cls-4" d="M96.67,137.52,95.2,136l16.47-17.75,2.15,2.15Z"/><path id="パス_1681" data-name="パス 1681" class="cls-4" d="M28.47,114.08A36.22,36.22,0,0,1,34.6,93.89a24.11,24.11,0,1,0,1.65,42.62A36.22,36.22,0,0,1,28.47,114.08Z"/><path id="パス_1682" data-name="パス 1682" class="cls-4" d="M199.41,114.08a36.22,36.22,0,0,0-6.13-20.19,24.11,24.11,0,1,1-1.65,42.62A36.15,36.15,0,0,0,199.41,114.08Z"/><circle id="楕円形_238" data-name="楕円形 238" class="cls-5" cx="203.92" cy="112.94" r="23.73"/><circle id="楕円形_239" data-name="楕円形 239" class="cls-6" cx="23.73" cy="112.94" r="23.73"/></g><g id="グループ_904" data-name="グループ 904"><path id="パス_1683" data-name="パス 1683" d="M294.51,119.19a13.6,13.6,0,0,1-4.65,9.71q-4.23,3.4-11.15,3.42-8.07,0-12.3-4.86-4.23-4.65-4.23-13.74,0-9.3,4.34-13.94,4.44-4.86,12.81-4.86,6.81,0,10.84,3.41a13.24,13.24,0,0,1,4.34,9.3h-4.44a3.61,3.61,0,0,1-3.52-2.17,10.15,10.15,0,0,0-1.75-2.38,8.88,8.88,0,0,0-5.47-1.54,9,9,0,0,0-7.34,3.1q-2.48,3.09-2.48,9.08c0,3.86.83,6.83,2.48,8.89s4,3.2,7.13,3.2a7.63,7.63,0,0,0,8.26-6.61Z"/><path id="パス_1684" data-name="パス 1684" d="M278.71,133c-5.55,0-9.85-1.71-12.79-5.09-2.92-3.19-4.4-8-4.4-14.17S263,102.54,266,99.32s7.54-5.07,13.29-5.07c4.68,0,8.47,1.2,11.27,3.57a14,14,0,0,1,4.57,9.74l.06.72h-5.16a4.27,4.27,0,0,1-4.11-2.54,9.52,9.52,0,0,0-1.63-2.2,9.72,9.72,0,0,0-11.83,1.51c-1.54,1.92-2.33,4.84-2.33,8.66s.79,6.54,2.34,8.48,3.63,3,6.61,3a7,7,0,0,0,7.62-6.1l.12-.51h8.37l-.06.72a14.37,14.37,0,0,1-4.88,10.15C287.34,131.78,283.45,133,278.71,133Zm.62-37.4c-5.36,0-9.51,1.56-12.33,4.64s-4.16,7.5-4.16,13.5,1.37,10.33,4.06,13.3,6.66,4.64,11.8,4.64c4.44,0,8.05-1.1,10.74-3.27a12.78,12.78,0,0,0,4.33-8.53h-5.88a9,9,0,0,1-2.89,4.81,9.42,9.42,0,0,1-5.88,1.8c-3.38,0-5.95-1.16-7.66-3.47-1.73-2.15-2.61-5.28-2.61-9.28s.88-7.32,2.62-9.5a11,11,0,0,1,13.73-1.67,11.23,11.23,0,0,1,1.94,2.6,2.92,2.92,0,0,0,2.93,1.81h3.7a12.42,12.42,0,0,0-4-8.13c-2.55-2.15-6.05-3.25-10.41-3.25Z"/></g><g id="グループ_905" data-name="グループ 905"><path id="パス_1685" data-name="パス 1685" d="M307.81,129a10.24,10.24,0,0,1-3.1-5,23.47,23.47,0,0,1-.93-6.56,21.05,21.05,0,0,1,.78-5.58,11.59,11.59,0,0,1,2.42-4.65,10.78,10.78,0,0,1,6.93-3.67,15.86,15.86,0,0,1,7.64.68,10.53,10.53,0,0,1,5.78,5.37,17.11,17.11,0,0,1,1.76,8,19.81,19.81,0,0,1-.72,5.68,14.91,14.91,0,0,1-1.86,4,10.35,10.35,0,0,1-6.3,4.24,14,14,0,0,1-6.87.15A12,12,0,0,1,307.81,129Zm5-18.19c-1.44,1.59-2.1,4-2,7.08s.73,5.32,1.76,6.56a4.7,4.7,0,0,0,2.17,1.4,5,5,0,0,0,3.14.1,5.29,5.29,0,0,0,2.85-2.33c.82-1.24,1.27-3.23,1.34-6a10.62,10.62,0,0,0-1.19-5.58,5.39,5.39,0,0,0-2.74-2.37,5,5,0,0,0-3.1-.06,5.46,5.46,0,0,0-2.27,1.19Z"/><path id="パス_1686" data-name="パス 1686" d="M316.48,132.65a14.56,14.56,0,0,1-3.29-.37,12.67,12.67,0,0,1-5.81-2.78,10.81,10.81,0,0,1-3.3-5.32,23.69,23.69,0,0,1-1-6.75,21.11,21.11,0,0,1,.8-5.75,12.27,12.27,0,0,1,2.57-4.91,11.39,11.39,0,0,1,7.33-3.88,16.51,16.51,0,0,1,7.95.71,11.21,11.21,0,0,1,6.16,5.7,17.94,17.94,0,0,1,1.82,8.24,20.79,20.79,0,0,1-.75,5.87,15.09,15.09,0,0,1-1.95,4.21,11,11,0,0,1-6.71,4.5A14.43,14.43,0,0,1,316.48,132.65Zm0-28.62a18.94,18.94,0,0,0-2.49.17,10.1,10.1,0,0,0-6.5,3.44,10.82,10.82,0,0,0-2.3,4.4,20.46,20.46,0,0,0-.75,5.4,22.54,22.54,0,0,0,.9,6.37,9.64,9.64,0,0,0,2.9,4.7h0a11.48,11.48,0,0,0,5.23,2.48,13.45,13.45,0,0,0,6.55-.15,9.74,9.74,0,0,0,5.94-4,13.87,13.87,0,0,0,1.76-3.83,19.13,19.13,0,0,0,.7-5.48,16.65,16.65,0,0,0-1.69-7.66,9.94,9.94,0,0,0-5.44-5A13.91,13.91,0,0,0,316.48,104Zm0,22.8a5.47,5.47,0,0,1-1.95-.36,5.13,5.13,0,0,1-2.47-1.62c-1.12-1.34-1.74-3.61-1.88-6.92s.57-5.84,2.13-7.55l0,0a6.13,6.13,0,0,1,2.55-1.36,5.66,5.66,0,0,1,3.5.06,6,6,0,0,1,3.09,2.65,11.21,11.21,0,0,1,1.29,5.93c-.07,2.93-.55,5-1.45,6.36a5.94,5.94,0,0,1-3.2,2.59,5.64,5.64,0,0,1-1.63.24Zm-3.2-15.55c-1.31,1.45-1.91,3.66-1.78,6.59s.67,5,1.6,6.16a4,4,0,0,0,1.89,1.2,4.29,4.29,0,0,0,2.74.09,4.64,4.64,0,0,0,2.47-2.06c.76-1.12,1.17-3,1.24-5.64a9.87,9.87,0,0,0-1.09-5.2,4.72,4.72,0,0,0-2.39-2.1,4.3,4.3,0,0,0-2.7,0,4.79,4.79,0,0,0-2,1Z"/></g><g id="グループ_906" data-name="グループ 906"><path id="パス_1687" data-name="パス 1687" d="M337.28,120.65v-3a2.47,2.47,0,0,1,2.08-2.8,2.73,2.73,0,0,1,.7,0h11.47v5.79Z"/><path id="パス_1688" data-name="パス 1688" d="M352.19,121.3H336.61v-3.65a3.12,3.12,0,0,1,2.74-3.46,4.33,4.33,0,0,1,.72,0h12.12ZM337.93,120h12.94v-4.46h-10.8c-1.5,0-2.13.63-2.13,2.13Z"/></g><g id="グループ_907" data-name="グループ 907"><path id="パス_1689" data-name="パス 1689" d="M289.14,179A11.34,11.34,0,0,1,284.7,183a14.89,14.89,0,0,1-5.89,1.14q-7.65,0-12.09-5.06t-4.54-13.64q0-8.56,4.44-13.53a15.71,15.71,0,0,1,12.29-5.16,18,18,0,0,1,10.95,3.2,13.61,13.61,0,0,1,5.06,8.88h-5a3.4,3.4,0,0,1-3.2-2,7.71,7.71,0,0,0-2.06-2.27,9.4,9.4,0,0,0-5.48-1.45,8.56,8.56,0,0,0-7,3.2c-1.72,2.27-2.59,5.3-2.58,9.09s.89,6.89,2.68,9.09a8.88,8.88,0,0,0,7.34,3.2,8.51,8.51,0,0,0,5.78-2,9.61,9.61,0,0,0,2.89-5.68H284a3.7,3.7,0,0,1-3.71-3.69v-2.41H295v19.32h-2a3.42,3.42,0,0,1-3.61-2.89Z"/><path id="パス_1690" data-name="パス 1690" d="M278.81,184.75c-5.28,0-9.51-1.78-12.58-5.28s-4.71-8.15-4.71-14.08,1.55-10.55,4.61-14A16.45,16.45,0,0,1,278.91,146a18.65,18.65,0,0,1,11.34,3.33,14.36,14.36,0,0,1,5.33,9.31l.11.76H290a4,4,0,0,1-3.78-2.31,7.28,7.28,0,0,0-1.89-2.06,8.8,8.8,0,0,0-5.07-1.31,7.86,7.86,0,0,0-6.51,3c-1.61,2.12-2.43,5.05-2.43,8.67s.85,6.61,2.53,8.68a8.21,8.21,0,0,0,6.82,3,8,8,0,0,0,5.36-1.8,8.6,8.6,0,0,0,2.51-4.52H284a4.38,4.38,0,0,1-4.38-4.36v-3.06h16.1v20.64h-2.63a4.06,4.06,0,0,1-4.25-3.38,11.56,11.56,0,0,1-3.83,3A15.7,15.7,0,0,1,278.81,184.75Zm.1-37.39a15.2,15.2,0,0,0-11.8,4.94c-2.84,3.17-4.27,7.57-4.27,13.09s1.47,10,4.37,13.19,6.72,4.85,11.6,4.85a14.33,14.33,0,0,0,5.63-1.09,10.77,10.77,0,0,0,4.15-3.69l.85-1.23.65,2.8a2.76,2.76,0,0,0,3,2.38h1.3v-18H280.92v1.71a3,3,0,0,0,3,3.06h5.17l-.13.77a10.33,10.33,0,0,1-3.1,6.06,9.27,9.27,0,0,1-6.24,2.13,9.56,9.56,0,0,1-7.85-3.44c-1.87-2.32-2.82-5.51-2.82-9.51s.91-7.11,2.71-9.48a9.21,9.21,0,0,1,7.55-3.47,10.1,10.1,0,0,1,5.86,1.56,8.87,8.87,0,0,1,2.25,2.48,2.74,2.74,0,0,0,2.63,1.64h4.18a13.06,13.06,0,0,0-4.69-7.71,17.42,17.42,0,0,0-10.54-3Z"/></g><g id="グループ_908" data-name="グループ 908"><path id="パス_1691" data-name="パス 1691" d="M305,183.26V169.94a16.87,16.87,0,0,1,1.19-6.77,11.09,11.09,0,0,1,3.25-4.38,12.65,12.65,0,0,1,4.6-2.28,20.69,20.69,0,0,1,5.42-.72h1v7.33H318.1a6,6,0,0,0-4.44,1.45,6.22,6.22,0,0,0-1.45,4.55v14.14Z"/><path id="パス_1692" data-name="パス 1692" d="M312.87,183.93h-8.55v-14a17.57,17.57,0,0,1,1.24-7,11.92,11.92,0,0,1,3.45-4.65,13.58,13.58,0,0,1,4.83-2.39,21.58,21.58,0,0,1,5.6-.74h1.69v8.65h-3a5.51,5.51,0,0,0-4,1.25,5.6,5.6,0,0,0-1.25,4.08Zm-7.23-1.33h5.91V169.11a6.79,6.79,0,0,1,1.64-5,6.68,6.68,0,0,1,4.91-1.64h1.71v-6h-.37a19.42,19.42,0,0,0-5.25.7,12,12,0,0,0-4.36,2.15,10.62,10.62,0,0,0-3.06,4.13,16.42,16.42,0,0,0-1.13,6.5Z"/></g><g id="グループ_909" data-name="グループ 909"><path id="パス_1693" data-name="パス 1693" d="M332.25,180.78a10.24,10.24,0,0,1-3.1-5,22.76,22.76,0,0,1-.93-6.56,20.57,20.57,0,0,1,.77-5.57,11.67,11.67,0,0,1,2.43-4.65,10.78,10.78,0,0,1,6.93-3.67A16,16,0,0,1,346,156a10.56,10.56,0,0,1,5.78,5.37,17.13,17.13,0,0,1,1.76,8,19.82,19.82,0,0,1-.73,5.68,14.62,14.62,0,0,1-1.86,4,10.31,10.31,0,0,1-6.3,4.23,14,14,0,0,1-6.87.15A12,12,0,0,1,332.25,180.78Zm5-18.17q-2.18,2.37-2,7.07t1.75,6.56a4.67,4.67,0,0,0,2.17,1.4,5,5,0,0,0,3.15.1,5.24,5.24,0,0,0,2.84-2.33c.83-1.24,1.27-3.23,1.35-6a10.56,10.56,0,0,0-1.19-5.57,5.42,5.42,0,0,0-2.75-2.38,5,5,0,0,0-3.1-.05,5.31,5.31,0,0,0-2.26,1.19Z"/><path id="パス_1694" data-name="パス 1694" d="M340.92,184.43a14.56,14.56,0,0,1-3.29-.37,12.76,12.76,0,0,1-5.82-2.78,11,11,0,0,1-3.3-5.32,23.66,23.66,0,0,1-.95-6.74,21.19,21.19,0,0,1,.8-5.76,12.27,12.27,0,0,1,2.57-4.91,11.39,11.39,0,0,1,7.33-3.88,16.52,16.52,0,0,1,7.95.7,11.25,11.25,0,0,1,6.16,5.7,18,18,0,0,1,1.82,8.25,20.79,20.79,0,0,1-.75,5.87,15.35,15.35,0,0,1-1.95,4.21,11.06,11.06,0,0,1-6.71,4.5A14.43,14.43,0,0,1,340.92,184.43Zm0-28.62a18.71,18.71,0,0,0-2.49.17,10.15,10.15,0,0,0-6.51,3.44,10.93,10.93,0,0,0-2.29,4.4,20.46,20.46,0,0,0-.75,5.4,22.54,22.54,0,0,0,.9,6.37,9.64,9.64,0,0,0,2.9,4.7h0a11.48,11.48,0,0,0,5.23,2.48,13.45,13.45,0,0,0,6.55-.15,9.76,9.76,0,0,0,5.94-4,13.93,13.93,0,0,0,1.76-3.84,19.13,19.13,0,0,0,.7-5.48,16.64,16.64,0,0,0-1.68-7.66,10,10,0,0,0-5.45-5.06,14.38,14.38,0,0,0-4.82-.8Zm0,22.8a5.65,5.65,0,0,1-1.95-.35,5.27,5.27,0,0,1-2.47-1.62c-1.12-1.34-1.74-3.62-1.89-6.93s.58-5.84,2.14-7.55l0,0a6.07,6.07,0,0,1,2.55-1.36,5.66,5.66,0,0,1,3.5.06,6.12,6.12,0,0,1,3.09,2.65,11.3,11.3,0,0,1,1.29,5.93c-.08,2.93-.55,5-1.46,6.36a5.9,5.9,0,0,1-3.2,2.59,5.53,5.53,0,0,1-1.62.24Zm-3.2-15.55c-1.31,1.45-1.91,3.67-1.78,6.59s.67,5,1.6,6.17a4.07,4.07,0,0,0,1.89,1.2,4.22,4.22,0,0,0,2.74.08,4.62,4.62,0,0,0,2.47-2c.76-1.13,1.17-3,1.24-5.65a10,10,0,0,0-1.09-5.2,4.81,4.81,0,0,0-2.39-2.1,4.3,4.3,0,0,0-2.7,0,4.77,4.77,0,0,0-2,1Z"/></g><g id="グループ_910" data-name="グループ 910"><path id="パス_1695" data-name="パス 1695" d="M389.6,183.26h-7.23l-4.24-19.62-4.23,19.62h-7.23l-7.54-27.47h7l4.34,19,3.93-19h7.33l3.72,19,3.82-16.53a3,3,0,0,1,3.31-2.47h4.54Z"/><path id="パス_1696" data-name="パス 1696" d="M390.1,183.93h-8.27l-3.7-17.16-3.7,17.16h-8.27l-7.9-28.8h8.42l3.78,16.55,3.42-16.55h8.42l3.22,16.5,3.13-13.51a3.68,3.68,0,0,1,3.94-3H398Zm-7.2-1.33h6.19l7.18-26.15h-3.68a2.4,2.4,0,0,0-2.66,2L385.41,178l-4.21-21.51H375l-4.43,21.45-4.9-21.45H360l7.18,26.15h6.19l4.77-22.1Z"/></g><g id="グループ_923" data-name="グループ 923"><g id="グループ_922" data-name="グループ 922"><g id="グループ_911" data-name="グループ 911"><path id="パス_1697" data-name="パス 1697" d="M265.21,211.35h3.72a3.53,3.53,0,0,1,3.51,3.51v24h-7.23Z"/><path id="パス_1698" data-name="パス 1698" d="M273.1,239.49h-8.55v-28.8h4.38a4.19,4.19,0,0,1,4.17,4.17Zm-7.23-1.32h5.91v-23.3a2.86,2.86,0,0,0-2.85-2.85h-3.06Z"/></g><g id="グループ_912" data-name="グループ 912"><path id="パス_1699" data-name="パス 1699" d="M306.35,238.82h-3.62a3.35,3.35,0,0,1-3.51-3.19V221.27a4.25,4.25,0,0,0-1.5-3.62,5.36,5.36,0,0,0-3.35-1.13,5.17,5.17,0,0,0-3.31,1.13,4.32,4.32,0,0,0-1.44,3.62v17.55h-7.23V222.71q0-7,3.66-9.4a16.12,16.12,0,0,1,8.11-2.58,15.5,15.5,0,0,1,8.37,2.38q3.81,2.37,3.82,9.6Z"/><path id="パス_1700" data-name="パス 1700" d="M307,239.48h-4.27a4,4,0,0,1-4.18-3.86V221.27a3.62,3.62,0,0,0-1.23-3.1,4.81,4.81,0,0,0-3-1,4.54,4.54,0,0,0-2.9,1,3.68,3.68,0,0,0-1.19,3.1v18.21h-8.55V222.71c0-4.9,1.33-8.24,4-10a16.71,16.71,0,0,1,8.44-2.69h0a16.35,16.35,0,0,1,8.74,2.47c2.75,1.71,4.14,5.13,4.14,10.17Zm-12.64-23.63a6.1,6.1,0,0,1,3.76,1.27,4.87,4.87,0,0,1,1.75,4.14v14.05a2.7,2.7,0,0,0,2.54,2.85h3.27V222.71c0-4.55-1.18-7.6-3.51-9a15,15,0,0,0-8-2.28,15.45,15.45,0,0,0-7.76,2.48c-2.23,1.45-3.36,4.42-3.36,8.84v15.46H289v-16.9a4.91,4.91,0,0,1,1.7-4.14,5.86,5.86,0,0,1,3.71-1.28Z"/></g><g id="グループ_913" data-name="グループ 913"><path id="パス_1701" data-name="パス 1701" d="M334,237.17v-1.75a7.9,7.9,0,0,1-5,3.61,10.29,10.29,0,0,1-6.25-.52,11.51,11.51,0,0,1-5.32-4.6,15.63,15.63,0,0,1-2.22-8.83q0-6.39,2.94-10.38t9.46-4a16.94,16.94,0,0,1,9.19,2.69q4.23,2.68,4.23,9.92v14.56q0,7.23-4.23,9.87a17.1,17.1,0,0,1-9.19,2.63q-9.51,0-11.78-8.88h7.54a5.76,5.76,0,0,0,5.94,2.63,5.62,5.62,0,0,0,3.1-2A8.5,8.5,0,0,0,334,237.17Zm-11.77-11.88q0,7.14,4.13,7.9c2.75.52,4.78-.12,6.1-1.9a7.7,7.7,0,0,0,1.34-3.57,15.16,15.16,0,0,0,.05-4.8,9.56,9.56,0,0,0-1.7-4.23,4.57,4.57,0,0,0-3.93-1.87c-2.34,0-3.92.87-4.75,2.59A13.4,13.4,0,0,0,322.24,225.29Z"/><path id="パス_1702" data-name="パス 1702" d="M327.61,251.05c-6.65,0-10.83-3.15-12.42-9.37l-.21-.83h8.78l.19.33a5.08,5.08,0,0,0,5.22,2.32,5,5,0,0,0,2.73-1.79,7.59,7.59,0,0,0,1.43-4.38,8.24,8.24,0,0,1-4.18,2.34,11,11,0,0,1-6.65-.54,12.28,12.28,0,0,1-5.62-4.85,16.51,16.51,0,0,1-2.33-9.2c0-4.4,1-8,3.07-10.77s5.45-4.25,10-4.25a17.64,17.64,0,0,1,9.54,2.79c3,1.92,4.55,5.44,4.55,10.47v14.57c0,5-1.53,8.55-4.55,10.43A17.89,17.89,0,0,1,327.61,251.05Zm-10.9-8.88c1.58,5.09,5.15,7.56,10.9,7.56a16.54,16.54,0,0,0,8.84-2.53c2.6-1.62,3.92-4.75,3.92-9.3V223.33c0-4.55-1.32-7.7-3.92-9.36a16.39,16.39,0,0,0-8.84-2.58c-4.1,0-7.1,1.25-8.92,3.71s-2.82,5.88-2.82,10a15.12,15.12,0,0,0,2.11,8.46,11.09,11.09,0,0,0,5,4.35,9.65,9.65,0,0,0,5.86.49,7.18,7.18,0,0,0,4.6-3.33l1.22-1.9v4.05a9,9,0,0,1-1.76,5.35,6.27,6.27,0,0,1-3.46,2.23,6,6,0,0,1-3.82-.46,6.22,6.22,0,0,1-2.63-2.16ZM328.12,234a9.06,9.06,0,0,1-1.87-.19c-3.1-.58-4.67-3.46-4.67-8.55a14.11,14.11,0,0,1,1.3-6.17c.94-2,2.74-3,5.34-3a5.2,5.2,0,0,1,4.47,2.13,10.33,10.33,0,0,1,1.82,4.53,15.89,15.89,0,0,1-.05,5A8.21,8.21,0,0,1,333,231.7a5.64,5.64,0,0,1-4.85,2.33Zm.11-16.55c-2.08,0-3.44.73-4.16,2.21a12.76,12.76,0,0,0-1.17,5.61c0,4.42,1.17,6.79,3.59,7.25s4.28-.07,5.44-1.66a7.17,7.17,0,0,0,1.23-3.28,14.72,14.72,0,0,0,0-4.59,9,9,0,0,0-1.58-4,3.9,3.9,0,0,0-3.39-1.59Z"/></g><path id="パス_1703" data-name="パス 1703" d="M355,220.19h-3.2V212.9h-6v-4.7h6v-7h4.77v7h6v3.18A1.52,1.52,0,0,1,361,212.9h-4.41v5.75a1.53,1.53,0,0,1-1.53,1.53Z"/></g><circle id="楕円形_240" data-name="楕円形 240" cx="268.73" cy="202.95" r="5.11"/></g></g></g></g></svg>