<svg xmlns="http://www.w3.org/2000/svg" xmlns:xlink="http://www.w3.org/1999/xlink" width="1098.935" height="273.001" viewBox="0 0 1098.935 273.001"><defs><linearGradient id="a" y1="0.5" x2="1" y2="0.5" gradientUnits="objectBoundingBox"><stop offset="0" stop-color="#00fccc"/><stop offset="0" stop-color="#00caf9"/><stop offset="0.143" stop-color="#1ba7fb"/><stop offset="1" stop-color="#6945ff"/></linearGradient></defs><g transform="translate(-461 -1484.002)"><path d="M110.179,11787.989a19.5,19.5,0,1,1,19.5,19.5A19.5,19.5,0,0,1,110.179,11787.989Zm-168,0a19.5,19.5,0,0,1,19.5-19.5,19.5,19.5,0,0,1,19.5,19.5,19.5,19.5,0,0,1-19.5,19.5A19.5,19.5,0,0,1-57.82,11787.989Zm-158,0a19.5,19.5,0,0,1,19.5-19.5,19.5,19.5,0,0,1,19.5,19.5,19.5,19.5,0,0,1-19.5,19.5A19.5,19.5,0,0,1-215.818,11787.989Zm-163.779,14.105a15.378,15.378,0,0,0,3.894-6.4c1.231-3.649,1.638-8.446,1.638-19.641a57.548,57.548,0,0,0-.244-6.354,49.856,49.856,0,0,0,5.37.205h18.492a40.025,40.025,0,0,0,5.167-.205,34.757,34.757,0,0,0-.205,5.041v26.16c0,2.664-.534,4.1-1.8,4.959-1.149.781-2.706,1.068-6.027,1.068-1.231,0-2.706-.042-4.676-.124a24,24,0,0,0-1.719-6.4,48.748,48.748,0,0,0,6.4.531c1.146,0,1.394-.163,1.394-.9v-5.412h-16.483a24.782,24.782,0,0,1-5.985,12.793A20.849,20.849,0,0,0-379.6,11802.095Zm11.765-13.08h15.91v-3.976h-15.662C-367.666,11786.719-367.708,11787.458-367.832,11789.015Zm.29-9.593h15.62v-3.568h-15.62Zm-75.376,27.922a38.48,38.48,0,0,0,.247-5.086v-3.321h-12.751a41.187,41.187,0,0,0-4.881.247v-6.355a40.318,40.318,0,0,0,4.881.247h.941v-9.554c-.983,1.025-1.354,1.394-2.5,2.458a18.584,18.584,0,0,0-4.1-5.411,24.99,24.99,0,0,0,7.789-9.512,11.956,11.956,0,0,0,1.026-2.95l6.806,1.146c-.368.739-.41.82-.86,1.886-.205.452-.329.738-.615,1.312h18a36.525,36.525,0,0,0,4.715-.244v6.232a37.721,37.721,0,0,0-4.715-.247h-7.382v3.937h5.741c2.172,0,3.4-.042,4.754-.166v5.945c-1.351-.123-2.54-.162-4.549-.162h-5.946v5.33h8.609a38.183,38.183,0,0,0,4.839-.247v6.355a41.4,41.4,0,0,0-4.839-.247h-8.609v3.445a32.084,32.084,0,0,0,.247,4.962Zm-5.454-14.269h5.7v-5.33h-5.7Zm-4.878-10.989c.615.042.86.042,1.517.042h9.062v-3.937h-7.545A37.726,37.726,0,0,1-453.251,11782.086Zm683.718,22.968,1.255-2.546c2.546.567,3.5.8,5.074,1.234a22.91,22.91,0,0,0-4.866-2.643l1.351-1.841a15.949,15.949,0,0,1-2.775,1.252,7.424,7.424,0,0,0-.38-.874l-1.309.458c-.078-.4-.1-.5-.154-.781l-.836.1v5.72a11.867,11.867,0,0,0,.115,2.108h-2.7a13.479,13.479,0,0,0,.115-2.108v-5.512c-.284.019-.513.039-.646.039-.474.036-.474.036-1.216.075a3.885,3.885,0,0,0-.778.076l-.229-2.622c.606.039.875.058,1.176.058h.437c.287-.362.362-.477.685-.893a19.958,19.958,0,0,0-2.374-2.833l1.309-2.335.477.531a10.028,10.028,0,0,0,1.083-2.622l2.528.854a4.413,4.413,0,0,0-.323.627,30.324,30.324,0,0,1-1.674,3.135c.172.229.229.3.38.533a16.4,16.4,0,0,0,1.71-3.1l2.166,1.177c0,.021-.226.344-.627,1.007a8.449,8.449,0,0,0,2.148-2.241,5.439,5.439,0,0,0,.875-1.861l3.041.4a6.184,6.184,0,0,0-.3.628c-.1.208-.133.286-.229.474h2.072a8.561,8.561,0,0,0,1.538-.094l1.309,1.538c-.094.172-.133.229-.244.456a17.423,17.423,0,0,1-2.661,3.707,12.9,12.9,0,0,0,3.723,1.291,11.729,11.729,0,0,0-1.291,3.059,19.14,19.14,0,0,1-4.73-2.338c-.477.323-.649.438-1.047.686a30.109,30.109,0,0,1,4.733,2.3l-1.5,2.432a26,26,0,0,1,2.51.836l-1.1,2.718A35.745,35.745,0,0,0,230.467,11805.054Zm-.226-7.5a11.177,11.177,0,0,0,2.317-1.086,8.4,8.4,0,0,1-.95-1.216c-.284.25-.434.38-.932.763a7.166,7.166,0,0,0-1.575-2.129c-.323.494-.646.95-1.273,1.825l1.6-.57C229.9,11796.444,230.051,11796.846,230.241,11797.549Zm-3.5-.38c.456-.021.552-.021.968-.039.151-.019.3-.019.456-.037a13.286,13.286,0,0,0-.416-1.275C227.333,11796.388,227.085,11796.731,226.744,11797.169Zm6.67-3.9a7.243,7.243,0,0,0,1.291,1.5,10.579,10.579,0,0,0,1.33-1.635h-2.528Zm-20.881,12.217a15.157,15.157,0,0,1-2.869,1.653,8.232,8.232,0,0,0-.836-1.671,14.678,14.678,0,0,0,.094,1.749h-2.908a14.852,14.852,0,0,0,.1-1.768c-1.578.3-2.072.38-5.017.8a5.751,5.751,0,0,0-.818.172l-.57-2.775a2.744,2.744,0,0,0,.38.021c.208,0,.534-.021,1.406-.075v-5.4c-.739.018-1.14.036-1.671.094v-2.338a15.355,15.355,0,0,0,2.205.1h13.222a14.886,14.886,0,0,0,2.166-.1v2.338a16.743,16.743,0,0,0-2.223-.094h-6.362v6.286a9.967,9.967,0,0,0,1.65-.777,10.433,10.433,0,0,1-1.327-1.861l1.955-.8h-.341a10.837,10.837,0,0,0-1.52.078v-2.435a10.9,10.9,0,0,0,1.6.079h3.288a8.474,8.474,0,0,0,1.406-.079l1.348,1.464a6.232,6.232,0,0,0-.456.856,13.872,13.872,0,0,1-1.882,2.679,12.72,12.72,0,0,0,3.1.856,10.635,10.635,0,0,0-1.237,2.7A15.334,15.334,0,0,1,212.533,11805.488Zm-8.362-2.127c.362-.036,1.008-.114,1.94-.229v-.589h-1.94Zm8.247-1.064a6.056,6.056,0,0,0,1.044-1.255H211.45A5.8,5.8,0,0,0,212.419,11802.3Zm-8.247-1.291h1.94v-.664h-1.94Zm0-2.205h1.94v-.606h-1.94Zm94.128,5.87a9.322,9.322,0,0,0,2.793-1.783,7.232,7.232,0,0,0,1.653-2.413,14.142,14.142,0,0,0-3.345-1.086,24.32,24.32,0,0,1-1.958,4.694,3.394,3.394,0,0,1-2.905,1.825,3.519,3.519,0,0,1-2.471-1.083,4.356,4.356,0,0,1-1.158-3.116,5.23,5.23,0,0,1,2.449-4.483,7.187,7.187,0,0,1,3.762-1.028c.344-1.119.627-2.088.893-3.171-.836.076-1.879.133-3.152.188a11.158,11.158,0,0,0-1.463.114l-.133-3.059a10.664,10.664,0,0,0,1.955.1,38.818,38.818,0,0,0,3.934-.19,1.758,1.758,0,0,0,.781-.229l2.051,1.749a3.281,3.281,0,0,0-.456.911c-.172.419-.953,2.83-1.255,3.855a15.883,15.883,0,0,1,3.249.932,18.565,18.565,0,0,0,.151-3.116,6.59,6.59,0,0,0-.075-1.083l3.306.115a6.2,6.2,0,0,0-.133,1.388,32.943,32.943,0,0,1-.341,3.934c1.309.663,1.309.663,1.976,1.025a3.083,3.083,0,0,0,.646.3l-1.1,3.551a13.457,13.457,0,0,0-2.356-1.6,10.378,10.378,0,0,1-4.92,5.225A11.907,11.907,0,0,0,298.3,11804.671Zm-3.916-4.521a2.173,2.173,0,0,0-.531,1.444c0,.589.284,1.026.646,1.026.437,0,.932-.987,1.786-3.515A2.728,2.728,0,0,0,294.383,11800.149Zm-36.269,6.917v-.95h-7.907v.95h-3.134c.075-.778.115-1.653.115-2.6v-12.311c0-.7-.039-1.388-.1-2.166.627.057,1.312.093,2.187.093h9.9a16.682,16.682,0,0,0,2.112-.093c-.06.817-.1,1.517-.1,2.147v12.329a24.5,24.5,0,0,0,.115,2.6Zm-7.907-3.8h7.907v-3.971h-7.907Zm0-6.688h7.907v-3.683h-7.907Zm-162.515,10.314v-2.049H70.637v2.049H63.871c.163-1.681.247-3.566.247-5.617v-26.567c0-1.518-.084-2.992-.205-4.673,1.351.12,2.827.2,4.715.2H89.989a35.6,35.6,0,0,0,4.549-.2c-.124,1.762-.205,3.279-.205,4.631v26.609a53.766,53.766,0,0,0,.247,5.617Zm-17.056-8.2H87.693v-8.57H70.637Zm0-14.435H87.693v-7.952H70.637Zm-150.632,22.634v-2.049H-97.051v2.049h-6.766c.163-1.681.247-3.566.247-5.617v-26.567c0-1.518-.084-2.992-.205-4.673,1.351.12,2.83.2,4.715.2H-77.7a35.68,35.68,0,0,0,4.552-.2c-.124,1.762-.205,3.279-.205,4.631v26.609a54.706,54.706,0,0,0,.244,5.617Zm-17.056-8.2h17.056v-8.57H-97.051Zm0-14.435h17.056v-7.952H-97.051Zm-140.6,22.634v-2.049H-254.7v2.049h-6.763c.163-1.681.244-3.566.244-5.617v-26.567c0-1.518-.081-2.992-.205-4.673,1.354.12,2.83.2,4.715.2h21.361a35.651,35.651,0,0,0,4.552-.2c-.124,1.762-.205,3.279-.205,4.631v26.609a53.766,53.766,0,0,0,.247,5.617Zm-17.056-8.2h17.056v-8.57H-254.7Zm0-14.435h17.056v-7.952H-254.7Zm732.8,22.208a3.379,3.379,0,0,1-1.569-1.074,4.545,4.545,0,0,1-.833-1.532,9.579,9.579,0,0,1-.247-2.558v-5.795a11.152,11.152,0,0,1,.4-3.424,3.4,3.4,0,0,1,1.569-1.825,5.57,5.57,0,0,1,2.848-.685,5.98,5.98,0,0,1,2.44.474,4.055,4.055,0,0,1,1.608,1.167,3.807,3.807,0,0,1,.724,1.548,14.1,14.1,0,0,1,.19,2.745v5.538a13.167,13.167,0,0,1-.205,2.748,3.784,3.784,0,0,1-.851,1.611,3.7,3.7,0,0,1-1.56,1.076,6.01,6.01,0,0,1-2.039.329A7.642,7.642,0,0,1,478.1,11806.466Zm1.644-13.988a5.406,5.406,0,0,0-.148,1.636v8.1a5.946,5.946,0,0,0,.139,1.743.721.721,0,0,0,1.2-.052,5.136,5.136,0,0,0,.145-1.565v-8.226a6.1,6.1,0,0,0-.13-1.656.566.566,0,0,0-.6-.332A.592.592,0,0,0,479.743,11792.478Zm-16.607,13.988a3.394,3.394,0,0,1-1.569-1.074,4.537,4.537,0,0,1-.83-1.532,9.453,9.453,0,0,1-.247-2.558v-5.795a11.153,11.153,0,0,1,.4-3.424,3.385,3.385,0,0,1,1.569-1.825,5.566,5.566,0,0,1,2.845-.685,6,6,0,0,1,2.443.474,4.1,4.1,0,0,1,1.608,1.167,3.807,3.807,0,0,1,.724,1.548,14.1,14.1,0,0,1,.19,2.745v5.538a12.91,12.91,0,0,1-.208,2.748,3.811,3.811,0,0,1-.848,1.611,3.714,3.714,0,0,1-1.56,1.076,6.028,6.028,0,0,1-2.042.329A7.668,7.668,0,0,1,463.136,11806.466Zm1.647-13.988a5.37,5.37,0,0,0-.151,1.636v8.1a6.061,6.061,0,0,0,.139,1.743.593.593,0,0,0,.6.3.584.584,0,0,0,.606-.351,5.276,5.276,0,0,0,.142-1.565v-8.226a6.282,6.282,0,0,0-.127-1.656.571.571,0,0,0-.6-.332A.592.592,0,0,0,464.783,11792.478Zm-34.377,13.771a3.351,3.351,0,0,1-1.732-1.666,8.611,8.611,0,0,1-.513-3.424v-.9H432.3v1.037a15.889,15.889,0,0,0,.112,2.287.72.72,0,0,0,.781.676.652.652,0,0,0,.495-.193.645.645,0,0,0,.205-.422c.012-.151.024-.8.036-1.958v-3.291a2.849,2.849,0,0,0-.193-1.273.685.685,0,0,0-.646-.338.7.7,0,0,0-.483.175.785.785,0,0,0-.25.374,4.385,4.385,0,0,0-.057.93h-4.1l.175-8.368h8.89v2.657h-5.137v2.817a3.107,3.107,0,0,1,2.483-1.137,3.333,3.333,0,0,1,2.588.959q.878.959.878,3.684v2.371a14.282,14.282,0,0,1-.169,2.588,3.662,3.662,0,0,1-.724,1.529,3.474,3.474,0,0,1-1.544,1.077,6.893,6.893,0,0,1-2.413.374A6.687,6.687,0,0,1,430.406,11806.249Zm-40.924.217a3.394,3.394,0,0,1-1.569-1.074,4.537,4.537,0,0,1-.83-1.532,9.453,9.453,0,0,1-.247-2.558v-5.795a11.152,11.152,0,0,1,.4-3.424,3.385,3.385,0,0,1,1.569-1.825,5.566,5.566,0,0,1,2.845-.685,5.96,5.96,0,0,1,2.44.474,4.089,4.089,0,0,1,1.611,1.167,3.807,3.807,0,0,1,.724,1.548,14.1,14.1,0,0,1,.19,2.745v5.538a13.167,13.167,0,0,1-.205,2.748,3.825,3.825,0,0,1-.854,1.611,3.686,3.686,0,0,1-1.557,1.076,6.028,6.028,0,0,1-2.042.329A7.668,7.668,0,0,1,389.482,11806.466Zm1.647-13.988a5.406,5.406,0,0,0-.148,1.636v8.1a6.113,6.113,0,0,0,.136,1.743.593.593,0,0,0,.6.3.584.584,0,0,0,.606-.351,5.171,5.171,0,0,0,.142-1.565v-8.226a6.282,6.282,0,0,0-.127-1.656.569.569,0,0,0-.6-.332A.592.592,0,0,0,391.129,11792.478Zm-16.607,13.988a3.379,3.379,0,0,1-1.569-1.074,4.537,4.537,0,0,1-.83-1.532,9.453,9.453,0,0,1-.247-2.558v-5.795a11.152,11.152,0,0,1,.4-3.424,3.373,3.373,0,0,1,1.569-1.825,5.558,5.558,0,0,1,2.845-.685,5.97,5.97,0,0,1,2.44.474,4.089,4.089,0,0,1,1.611,1.167,3.763,3.763,0,0,1,.721,1.548,14.1,14.1,0,0,1,.19,2.745v5.538a12.96,12.96,0,0,1-.205,2.748,3.785,3.785,0,0,1-.851,1.611,3.7,3.7,0,0,1-1.557,1.076,6.04,6.04,0,0,1-2.042.329A7.642,7.642,0,0,1,374.523,11806.466Zm1.644-13.988a5.512,5.512,0,0,0-.148,1.636v8.1a5.945,5.945,0,0,0,.139,1.743.593.593,0,0,0,.6.3.584.584,0,0,0,.606-.351,5.275,5.275,0,0,0,.142-1.565v-8.226a6.282,6.282,0,0,0-.127-1.656.571.571,0,0,0-.6-.332A.6.6,0,0,0,376.167,11792.478Zm-33.9,13.988a3.379,3.379,0,0,1-1.569-1.074,4.537,4.537,0,0,1-.83-1.532,9.453,9.453,0,0,1-.247-2.558v-5.795a11.153,11.153,0,0,1,.4-3.424,3.385,3.385,0,0,1,1.569-1.825,5.57,5.57,0,0,1,2.848-.685,5.956,5.956,0,0,1,2.437.474,4.089,4.089,0,0,1,1.611,1.167,3.807,3.807,0,0,1,.724,1.548,14.1,14.1,0,0,1,.19,2.745v5.538a13.165,13.165,0,0,1-.205,2.748,3.825,3.825,0,0,1-.854,1.611,3.667,3.667,0,0,1-1.557,1.076,6.028,6.028,0,0,1-2.042.329A7.668,7.668,0,0,1,342.263,11806.466Zm1.647-13.988a5.371,5.371,0,0,0-.151,1.636v8.1a6.061,6.061,0,0,0,.139,1.743.593.593,0,0,0,.6.3.584.584,0,0,0,.606-.351,5.171,5.171,0,0,0,.142-1.565v-8.226a6.282,6.282,0,0,0-.127-1.656.569.569,0,0,0-.6-.332A.592.592,0,0,0,343.91,11792.478Zm-67.955,11.035a9.909,9.909,0,0,0,3.991-.969,4.714,4.714,0,0,0,2.278-4.407,4.47,4.47,0,0,0-1.671-3.743,3.16,3.16,0,0,0-1.6-.664,26.686,26.686,0,0,1-2.091,7.961c-1.1,2.432-2.374,3.5-4.1,3.5-2.546,0-4.332-2.435-4.332-5.909a8.447,8.447,0,0,1,2.184-5.795,9.079,9.079,0,0,1,6.878-2.794,8.465,8.465,0,0,1,6.193,2.338,7.555,7.555,0,0,1,1.861,5.282,8.174,8.174,0,0,1-2.525,6.136c-1.294,1.159-2.793,1.765-5.454,2.185A9.376,9.376,0,0,0,275.955,11803.513Zm-2.356-8.778a6.149,6.149,0,0,0-2.072,4.524c0,1.349.513,2.411,1.18,2.411.474,0,.968-.664,1.538-2.109a24.634,24.634,0,0,0,1.424-5.795A3.822,3.822,0,0,0,273.6,11794.734Zm145.169,11.756v-8.9a16,16,0,0,0-.091-2.319.876.876,0,0,0-.51-.589,5.276,5.276,0,0,0-1.849-.2h-.41v-1.937a7.547,7.547,0,0,0,4.561-2.657h2.44v16.6Zm-88.6,0v-8.9a16,16,0,0,0-.09-2.319.876.876,0,0,0-.51-.589,5.265,5.265,0,0,0-1.849-.2h-.41v-1.937a7.564,7.564,0,0,0,4.564-2.657h2.44v16.6Zm-107.79-1.21a16.345,16.345,0,0,0,.552-5.092l1.958.247a24.207,24.207,0,0,1-.57,6Zm-42.432-6.172-6.932,7.183-.721-.694,6.959-7.209-6.959-7.2.721-.693,6.932,7.179,6.935-7.179.721.693-6.959,7.2,6.959,7.209-.721.694Zm-1.65,4.881a1.5,1.5,0,1,1,1.5,1.5A1.5,1.5,0,0,1,178.291,11803.989Zm49.952-3.515,1.729-.325c.3,2.338.3,2.338.477,4.826l-1.958.344A45.325,45.325,0,0,0,228.244,11800.475Zm218.889,4.44v-4.241h4.241v4.241Zm-88.616,0v-4.241h4.244v4.241Zm-655.15-1.523a12.934,12.934,0,0,1-5.976-4.084,17.485,17.485,0,0,1-3.164-5.837,36.48,36.48,0,0,1-.938-9.747v-22.069q0-8.711,1.505-13.05a12.868,12.868,0,0,1,5.976-6.951,21.116,21.116,0,0,1,10.842-2.618,22.76,22.76,0,0,1,9.3,1.816,15.521,15.521,0,0,1,6.13,4.435,14.584,14.584,0,0,1,2.754,5.9,53.787,53.787,0,0,1,.724,10.471v21.092a49.831,49.831,0,0,1-.781,10.468,14.46,14.46,0,0,1-3.243,6.133,13.97,13.97,0,0,1-5.937,4.1,22.855,22.855,0,0,1-7.774,1.249A28.954,28.954,0,0,1-296.634,11803.392Zm6.272-53.282q-.566,1.348-.567,6.229v30.859q0,5.508.528,6.643a2.252,2.252,0,0,0,2.284,1.132,2.224,2.224,0,0,0,2.3-1.327q.548-1.33.546-5.977v-31.33q0-5.036-.486-6.308a2.163,2.163,0,0,0-2.287-1.268A2.256,2.256,0,0,0-290.362,11750.109Zm-272.41,53.282a12.918,12.918,0,0,1-5.976-4.084,17.485,17.485,0,0,1-3.164-5.837,36.479,36.479,0,0,1-.938-9.747v-22.069q0-8.711,1.505-13.05a12.856,12.856,0,0,1,5.976-6.951,21.1,21.1,0,0,1,10.839-2.618,22.76,22.76,0,0,1,9.3,1.816,15.555,15.555,0,0,1,6.133,4.435,14.624,14.624,0,0,1,2.754,5.9,53.841,53.841,0,0,1,.721,10.471v21.092a49.834,49.834,0,0,1-.781,10.468,14.42,14.42,0,0,1-3.24,6.133,13.979,13.979,0,0,1-5.94,4.1,22.855,22.855,0,0,1-7.774,1.249A28.922,28.922,0,0,1-562.772,11803.392Zm6.269-53.282q-.566,1.348-.567,6.229v30.859q0,5.508.528,6.643a2.257,2.257,0,0,0,2.287,1.132,2.229,2.229,0,0,0,2.3-1.327q.543-1.33.546-5.977v-31.33q0-5.036-.489-6.308a2.159,2.159,0,0,0-2.284-1.268A2.258,2.258,0,0,0-556.5,11750.109Zm577.161,53.379v-9.022q15.43-25.236,18.341-31.231t2.908-9.354a6.816,6.816,0,0,0-.878-3.849,3.036,3.036,0,0,0-2.676-1.268,2.941,2.941,0,0,0-2.676,1.4q-.878,1.406-.878,5.586v6.016H20.658v-2.3a50.4,50.4,0,0,1,.546-8.377,14.7,14.7,0,0,1,2.7-6.036,13.53,13.53,0,0,1,5.587-4.492,20.271,20.271,0,0,1,8.241-1.523q9.412,0,14.238,4.667a15.749,15.749,0,0,1,4.824,11.816A28.085,28.085,0,0,1,54.076,11767q-2.715,6.06-16,25.705H55.385v10.781Zm-21.21,0v-33.906a59.318,59.318,0,0,0-.353-8.827,3.291,3.291,0,0,0-1.934-2.247q-1.579-.76-7.05-.761h-1.563v-7.385q11.444-2.461,17.382-10.117h9.3v63.243Zm-127.531,0v-33.906a59.32,59.32,0,0,0-.353-8.827,3.3,3.3,0,0,0-1.934-2.247q-1.584-.76-7.05-.761h-1.563v-7.385q11.444-2.461,17.382-10.117h9.3v63.243Zm-30.471,0v-33.906a59.518,59.518,0,0,0-.35-8.827,3.306,3.306,0,0,0-1.934-2.247q-1.584-.76-7.05-.761h-1.563v-7.385q11.444-2.461,17.382-10.117h9.3v63.243Zm-170.071,0v-33.906a59.982,59.982,0,0,0-.35-8.827,3.306,3.306,0,0,0-1.934-2.247q-1.584-.76-7.053-.761h-1.563v-7.385q11.448-2.461,17.385-10.117h9.3v63.243Zm-90.414,0v-9.022q15.43-25.236,18.341-31.231t2.908-9.354a6.816,6.816,0,0,0-.878-3.849,3.036,3.036,0,0,0-2.676-1.268,2.941,2.941,0,0,0-2.676,1.4q-.878,1.406-.878,5.586v6.016h-14.142v-2.3a50.4,50.4,0,0,1,.546-8.377,14.7,14.7,0,0,1,2.7-6.036,13.53,13.53,0,0,1,5.587-4.492,20.271,20.271,0,0,1,8.241-1.523q9.416,0,14.238,4.667a15.749,15.749,0,0,1,4.824,11.816,28.085,28.085,0,0,1-2.715,11.483q-2.715,6.06-16,25.705h17.306v10.781Zm-62.212,0v-33.906a59.519,59.519,0,0,0-.35-8.827,3.3,3.3,0,0,0-1.934-2.247q-1.584-.76-7.05-.761h-1.563v-7.385q11.444-2.461,17.382-10.117h9.3v63.243Zm-49.412,0v-9.022q15.43-25.236,18.338-31.231t2.911-9.354a6.816,6.816,0,0,0-.878-3.849,3.036,3.036,0,0,0-2.676-1.268,2.941,2.941,0,0,0-2.676,1.4q-.878,1.406-.881,5.586v6.016h-14.139v-2.3a50.079,50.079,0,0,1,.546-8.377,14.7,14.7,0,0,1,2.7-6.036,13.51,13.51,0,0,1,5.587-4.492,20.271,20.271,0,0,1,8.241-1.523q9.412,0,14.238,4.667a15.749,15.749,0,0,1,4.824,11.816,28.085,28.085,0,0,1-2.715,11.483q-2.715,6.06-16,25.705h17.306v10.781Zm-83.048,0v-9.022q15.43-25.236,18.341-31.231t2.908-9.354a6.816,6.816,0,0,0-.878-3.849,3.036,3.036,0,0,0-2.676-1.268,2.941,2.941,0,0,0-2.676,1.4q-.878,1.406-.878,5.586v6.016h-14.142v-2.3a50.4,50.4,0,0,1,.546-8.377,14.7,14.7,0,0,1,2.7-6.036,13.53,13.53,0,0,1,5.587-4.492,20.271,20.271,0,0,1,8.241-1.523q9.412,0,14.238,4.667a15.749,15.749,0,0,1,4.824,11.816,28.084,28.084,0,0,1-2.715,11.483q-2.715,6.06-16,25.705h17.306v10.781Zm1015.356-6.227a4.567,4.567,0,0,1,2.962-1.312,6.027,6.027,0,0,1,2.38.718,4.882,4.882,0,0,0,1.732.585,2.237,2.237,0,0,0,1-.274,10.459,10.459,0,0,0,1.774-1.379v2.821a4.8,4.8,0,0,1-2.911,1.342,6.88,6.88,0,0,1-2.624-.839,3.9,3.9,0,0,0-1.457-.482q-1.118,0-2.86,1.659Zm-217.357.728a1.5,1.5,0,1,1,1.5,1.5A1.5,1.5,0,0,1,184.289,11797.989Zm-12,0a1.5,1.5,0,1,1,1.5,1.5A1.5,1.5,0,0,1,172.291,11797.989Zm274.842-1.642v-4.241h4.241v4.241Zm-88.616,0v-4.241h4.244v4.241Zm-156.8-2.543v-2.262a14.779,14.779,0,0,0-.075-1.786,19.088,19.088,0,0,0,1.994.078h10.033a19.126,19.126,0,0,0,1.994-.078,14,14,0,0,0-.075,1.786v2.262a13.485,13.485,0,0,0,.075,1.747c-.19,0-.7-.019-1.557-.036H203.526c-.872,0-1.33.018-1.879.055A14.364,14.364,0,0,0,201.722,11793.8Zm2.772.172h8.287v-.552h-8.287Zm0-1.9h8.287v-.573h-8.287Zm-26.2-.087a1.5,1.5,0,1,1,1.5,1.5A1.5,1.5,0,0,1,178.291,11791.989Zm262.2-19.152a6.262,6.262,0,0,1-2.881-3.162,21.024,21.024,0,0,1-.691-6.5v-2.562h8.088v5.264a8.55,8.55,0,0,0,.25,2.673,1.079,1.079,0,0,0,1.11.57,1.207,1.207,0,0,0,1.243-.718,13.54,13.54,0,0,0,.3-3.765v-2.244a6.559,6.559,0,0,0-.419-2.722,2.085,2.085,0,0,0-1.243-1.131,12.747,12.747,0,0,0-3.183-.311v-4.706a16.493,16.493,0,0,0,3.566-.218,1.562,1.562,0,0,0,.98-.962,6.654,6.654,0,0,0,.3-2.323v-1.8a4.664,4.664,0,0,0-.35-2.241,1.409,1.409,0,0,0-2.241.03,6.01,6.01,0,0,0-.311,2.432v2.663h-8.088v-2.763q0-4.642,2.121-6.277t6.748-1.629q5.783,0,7.846,2.259a8.99,8.99,0,0,1,2.063,6.287,7.84,7.84,0,0,1-.742,3.934,6.623,6.623,0,0,1-2.6,2.214,5,5,0,0,1,2.742,2.03q.9,1.412.9,6.618a16.191,16.191,0,0,1-.881,5.994,6.241,6.241,0,0,1-3.041,3.243,12.1,12.1,0,0,1-5.548,1.11A11.9,11.9,0,0,1,440.49,11772.837Zm-240.693,0a6.268,6.268,0,0,1-2.884-3.162,21.12,21.12,0,0,1-.691-6.5v-2.562h8.088v5.264a8.421,8.421,0,0,0,.253,2.673,1.076,1.076,0,0,0,1.11.57,1.2,1.2,0,0,0,1.24-.718,13.369,13.369,0,0,0,.3-3.765v-2.244a6.61,6.61,0,0,0-.419-2.722,2.093,2.093,0,0,0-1.243-1.131,12.747,12.747,0,0,0-3.183-.311v-4.706a16.438,16.438,0,0,0,3.563-.218,1.549,1.549,0,0,0,.98-.962,6.569,6.569,0,0,0,.3-2.323v-1.8a4.7,4.7,0,0,0-.35-2.241,1.205,1.205,0,0,0-1.092-.54,1.19,1.19,0,0,0-1.152.57,6.065,6.065,0,0,0-.311,2.432v2.663h-8.088v-2.763q0-4.642,2.124-6.277t6.745-1.629q5.787,0,7.849,2.259a8.989,8.989,0,0,1,2.06,6.287,7.878,7.878,0,0,1-.739,3.934,6.635,6.635,0,0,1-2.6,2.214,5,5,0,0,1,2.742,2.03q.9,1.412.9,6.618a16.191,16.191,0,0,1-.881,5.994,6.258,6.258,0,0,1-3.044,3.243,12.086,12.086,0,0,1-5.545,1.11A11.9,11.9,0,0,1,199.8,11772.837Zm271.5.6a6.633,6.633,0,0,1-3.065-2.093,8.956,8.956,0,0,1-1.62-2.993,18.574,18.574,0,0,1-.48-5v-11.312a21.763,21.763,0,0,1,.769-6.685,6.607,6.607,0,0,1,3.062-3.565,10.837,10.837,0,0,1,5.557-1.34,11.684,11.684,0,0,1,4.763.929,7.939,7.939,0,0,1,3.143,2.275,7.489,7.489,0,0,1,1.412,3.022,27.551,27.551,0,0,1,.371,5.363v10.812a25.5,25.5,0,0,1-.4,5.367,7.4,7.4,0,0,1-1.662,3.143,7.111,7.111,0,0,1-3.041,2.1,11.678,11.678,0,0,1-3.985.643A14.81,14.81,0,0,1,471.293,11773.439Zm3.213-27.309a10.576,10.576,0,0,0-.29,3.194v15.816a11.739,11.739,0,0,0,.268,3.4,1.157,1.157,0,0,0,1.17.579,1.144,1.144,0,0,0,1.182-.679,10.161,10.161,0,0,0,.281-3.064v-16.055a12.16,12.16,0,0,0-.25-3.234,1.105,1.105,0,0,0-1.17-.648A1.159,1.159,0,0,0,474.506,11746.131Zm-95.162,27.309a6.633,6.633,0,0,1-3.065-2.093,8.956,8.956,0,0,1-1.62-2.993,18.545,18.545,0,0,1-.483-5v-11.312a21.746,21.746,0,0,1,.772-6.685,6.607,6.607,0,0,1,3.062-3.565,10.837,10.837,0,0,1,5.557-1.34,11.708,11.708,0,0,1,4.766.929,7.949,7.949,0,0,1,3.14,2.275,7.489,7.489,0,0,1,1.412,3.022,27.554,27.554,0,0,1,.371,5.363v10.812a25.5,25.5,0,0,1-.4,5.367,7.425,7.425,0,0,1-1.659,3.143,7.156,7.156,0,0,1-3.044,2.1,11.677,11.677,0,0,1-3.985.643A14.81,14.81,0,0,1,379.343,11773.439Zm3.213-27.309a10.576,10.576,0,0,0-.29,3.194v15.816a11.739,11.739,0,0,0,.268,3.4,1.157,1.157,0,0,0,1.17.579,1.142,1.142,0,0,0,1.183-.679,10.161,10.161,0,0,0,.281-3.064v-16.055a12.16,12.16,0,0,0-.25-3.234,1.105,1.105,0,0,0-1.17-.648A1.157,1.157,0,0,0,382.556,11746.131Zm-88.978,27.309a6.639,6.639,0,0,1-3.062-2.093,9.02,9.02,0,0,1-1.623-2.993,18.7,18.7,0,0,1-.48-5v-11.312a21.651,21.651,0,0,1,.772-6.685,6.6,6.6,0,0,1,3.062-3.565,10.83,10.83,0,0,1,5.557-1.34,11.684,11.684,0,0,1,4.763.929,7.938,7.938,0,0,1,3.143,2.275,7.489,7.489,0,0,1,1.412,3.022,27.552,27.552,0,0,1,.371,5.363v10.812a25.712,25.712,0,0,1-.4,5.367,7.432,7.432,0,0,1-1.662,3.143,7.138,7.138,0,0,1-3.044,2.1,11.66,11.66,0,0,1-3.982.643A14.83,14.83,0,0,1,293.578,11773.439Zm3.213-27.309a10.576,10.576,0,0,0-.29,3.194v15.816a11.691,11.691,0,0,0,.271,3.4,1.417,1.417,0,0,0,2.353-.1,10.3,10.3,0,0,0,.278-3.064v-16.055a12.026,12.026,0,0,0-.25-3.234,1.1,1.1,0,0,0-1.17-.648A1.159,1.159,0,0,0,296.79,11746.131Zm-32.42,27.309a6.633,6.633,0,0,1-3.065-2.093,8.956,8.956,0,0,1-1.62-2.993,18.672,18.672,0,0,1-.483-5v-11.312a21.744,21.744,0,0,1,.772-6.685,6.619,6.619,0,0,1,3.062-3.565,10.837,10.837,0,0,1,5.557-1.34,11.708,11.708,0,0,1,4.766.929,7.948,7.948,0,0,1,3.14,2.275,7.489,7.489,0,0,1,1.412,3.022,27.552,27.552,0,0,1,.371,5.363v10.812a25.5,25.5,0,0,1-.4,5.367,7.425,7.425,0,0,1-1.659,3.143,7.156,7.156,0,0,1-3.044,2.1,11.677,11.677,0,0,1-3.985.643A14.823,14.823,0,0,1,264.371,11773.439Zm3.213-27.309a10.576,10.576,0,0,0-.29,3.194v15.816a11.857,11.857,0,0,0,.268,3.4,1.157,1.157,0,0,0,1.17.579,1.142,1.142,0,0,0,1.183-.679,10.161,10.161,0,0,0,.281-3.064v-16.055a12.161,12.161,0,0,0-.25-3.234,1.105,1.105,0,0,0-1.17-.648A1.159,1.159,0,0,0,267.584,11746.131Zm78.426,27.357v-4.625q7.905-12.932,9.4-16.006a12.119,12.119,0,0,0,1.49-4.793,3.51,3.51,0,0,0-.449-1.974,1.552,1.552,0,0,0-1.373-.648,1.5,1.5,0,0,0-1.37.721,6.03,6.03,0,0,0-.453,2.863v3.08H346.01v-1.18a25.707,25.707,0,0,1,.281-4.3,7.548,7.548,0,0,1,1.382-3.092,6.932,6.932,0,0,1,2.863-2.3,10.356,10.356,0,0,1,4.223-.781q4.828,0,7.3,2.393a8.064,8.064,0,0,1,2.474,6.057,14.43,14.43,0,0,1-1.391,5.886q-1.394,3.1-8.2,13.171h8.869v5.526Zm-168,0v-17.376a31.054,31.054,0,0,0-.178-4.524,1.7,1.7,0,0,0-.992-1.152,10.289,10.289,0,0,0-3.614-.39h-.8v-3.783a14.7,14.7,0,0,0,8.908-5.186H186.1v32.411Zm233.07-3.074v-8.283h8.284v8.283Zm-177.954,0v-8.283h8.284v8.283Zm84.2-14.944a8.921,8.921,0,0,1,5.786-2.561,11.808,11.808,0,0,1,4.646,1.4,9.474,9.474,0,0,0,3.382,1.144,4.367,4.367,0,0,0,1.964-.531,20.819,20.819,0,0,0,3.463-2.69v5.5q-3.163,2.625-5.686,2.624a13.434,13.434,0,0,1-5.125-1.641,7.612,7.612,0,0,0-2.845-.941q-2.181,0-5.584,3.243Zm93.754-1.782v-8.284h8.284v8.284Zm-177.954,0v-8.284h8.284v8.284Zm148.9-66.394a52.743,52.743,0,0,0,6.9-18.54c1.855-9.578,2.679-24.513,2.679-47.171,0-9.786-.1-11.949-.721-16.585a134.738,134.738,0,0,0,14.625.618h58.3a113.291,113.291,0,0,0,12.978-.516,93.369,93.369,0,0,0-.41,10.4v8.856a90.747,90.747,0,0,0,.41,10.507c-2.986-.205-7.517-.308-12.359-.308h-3.4v4.323h3.4c6.591,0,7.931,0,10.4-.308v12.874q-4.941-.308-10.815-.308h-2.986v4.634h6.181a108.154,108.154,0,0,0,12.154-.41v13.493c-3.4-.311-6.9-.413-11.744-.413h-3.192l10.094,4.121c-1.134,1.028-1.134,1.028-5.665,5.354-1.852,1.854-2.679,2.576-3.707,3.5a73.137,73.137,0,0,0,16.582,3.81,67.472,67.472,0,0,0-7.623,15.144c-13.8-3.812-21.834-7.726-30.073-14.627v7.726c-9.994,1.957-13.391,2.573-27.916,4.636-8.033,1.234-10.094,1.545-12.875,2.163l-1.75-14.422a70.822,70.822,0,0,1-6.489,14.832A61.636,61.636,0,0,0,382.025,11687.294Zm19.88-2.781c.926.105,2.471.105,3.294.105,1.134,0,4.121-.105,7-.311v-15.861H405.1A96.084,96.084,0,0,1,401.9,11684.513Zm25.644-1.749c4.842-.514,7.828-.927,11.744-1.545a42.041,42.041,0,0,1-8.036-12.772h-3.707Zm25.237-8.137a31.191,31.191,0,0,0,6.075-6.181H447.121A21.937,21.937,0,0,0,452.786,11674.627Zm-18.851-18.851h12.051v-4.634H433.935Zm-27.7,0H418.9v-4.634h-1.544c-3.81,0-5.87.1-8.344.308v-12.874c2.371.205,4.739.308,8.447.308H418.9v-4.323H406.952C406.846,11644.859,406.641,11648.775,406.231,11655.776Zm27.7-16.893h12.051v-4.323H433.935Zm-26.984-15.861h54.281v-4.531H406.952Zm-418.285,66.229a42.162,42.162,0,0,0,6.591-9.373l-4.941,1.34a119.258,119.258,0,0,0-1.958-18.024l8.652-1.958c.824,4.531,1.339,8.033,1.647,11.122a101.481,101.481,0,0,0,4.018-16.066l-9.27,3.708c-.208-1.545-.208-1.545-.516-3.089-3.913.308-3.913.308-6.386.513v31.107a64.388,64.388,0,0,0,.618,11.433h-15.14a66.49,66.49,0,0,0,.618-11.433v-30.076c-5.873.413-6.9.413-9.27.618a19.094,19.094,0,0,0-4.637.517l-1.442-14.628a45.653,45.653,0,0,0,6.078.311h3.5c1.131-1.548,1.234-1.753,2.471-3.5a117.778,117.778,0,0,0-12.978-15.349l6.591-12.978,3.195,3.4A75.233,75.233,0,0,0-27.4,11601.7l13.493,4.944c-1.237,1.955-1.237,1.955-4.842,8.96a113.54,113.54,0,0,1-6.489,11.022c1.339,1.541,1.647,2.058,2.368,2.986,6.386-10.609,7.931-13.493,9.475-17.409l9.581,5.357v-12.153a103.485,103.485,0,0,0,13.285.618H37.9a84.4,84.4,0,0,0,9.888-.413c-.721,2.986-.721,2.986-2.06,10.094-1.032,5.149-2.573,12.051-3.6,15.656h1.855a35.085,35.085,0,0,0,5.252-.308l5.355,5.665c-.513,2.368-.513,2.368-1.131,5.457-.926,5.252-3.5,15.759-4.739,19.88a75.007,75.007,0,0,1-5.665,12.875,73.553,73.553,0,0,0,12.567,9.27,76.541,76.541,0,0,0-8.033,15.861,72.3,72.3,0,0,1-14.214-12.257c-5.047,5.047-9.373,8.239-16.893,12.567-2.986-5.665-4.739-8.446-8.238-12.361a64.463,64.463,0,0,1-7.52,12.566C-2.989,11695.844-5.566,11693.476-11.333,11689.252Zm20.806-4.118a52.619,52.619,0,0,0,14.214-9.993,69.237,69.237,0,0,1-7.21-14.728A102.731,102.731,0,0,1,9.472,11685.134Zm14.935-39.451a74.672,74.672,0,0,0,8.139,16.788c2.573-5.354,3.6-9.062,5.047-16.891H28.012A31.437,31.437,0,0,0,24.407,11645.683Zm-21.219,7.107c1.445-10.4,1.958-18.437,2.06-32.648H3.7a57.907,57.907,0,0,0-6.178.308c-1.237,1.854-1.237,1.854-4.842,7.517-3.089,4.739-3.5,5.358-5.563,8.447l9.27-3.811A132.806,132.806,0,0,1,3.189,11652.79Zm-22.248-7.828c4.428-.205,5.665-.308,8.655-.516a48.982,48.982,0,0,0-2.887-7.518C-16.38,11641.357-17.2,11642.491-19.059,11644.962Zm42.954-.721a213.578,213.578,0,0,0,5.87-24.1H19.053C20.7,11632.5,21.626,11636.826,23.895,11644.241Zm-454.436,56.033a60.259,60.259,0,0,0,.721-10.2v-3.089c0-2.576,0-2.884.1-5.768a59.66,59.66,0,0,1-13.907,10.4,92.979,92.979,0,0,1-19.156,7.931,52.086,52.086,0,0,0-8.344-14.006c13.7-2.368,23.174-5.974,30.486-11.536h-14.419a127.679,127.679,0,0,0-13.285.618v-12.978a114.318,114.318,0,0,0,13.183.616h25.132v-3.192h-20.6a89.7,89.7,0,0,0-9.991.411v-10.918a87.735,87.735,0,0,0,9.991.414h20.6v-3.2h-24.926a92.308,92.308,0,0,0-9.991.413v-11.846a85.757,85.757,0,0,0,9.991.413h10.3a44.451,44.451,0,0,0-2.576-4.944h-9.062c-4.944,0-9.27.205-12.772.516v-13.7a81.658,81.658,0,0,0,11.536.618,37.411,37.411,0,0,0-5.563-8.238l14.625-4.944a95.507,95.507,0,0,1,6.8,13.183h2.986v-6.693a49.883,49.883,0,0,0-.516-7.415h15.451a56.16,56.16,0,0,0-.308,6.693v7.415h4.223v-7.415a40.454,40.454,0,0,0-.413-6.693h15.451a47.013,47.013,0,0,0-.413,7.415v6.693h3.089a63.577,63.577,0,0,0,6.594-13.285l14.625,5.047c-2.06,3.605-3.3,5.563-5.149,8.238a81.649,81.649,0,0,0,11.843-.618v13.7c-3.5-.311-7.931-.516-12.875-.516h-8.549c-1.234,2.679-1.545,3.092-2.471,4.944h9.683a90.021,90.021,0,0,0,10.094-.413v11.846a94.359,94.359,0,0,0-10.094-.413H-414.68v3.2h21.937a93.241,93.241,0,0,0,10.094-.414v10.918a92.84,92.84,0,0,0-10.094-.411H-414.68v3.192H-387.9a102.664,102.664,0,0,0,13.186-.616v12.978a127.9,127.9,0,0,0-13.083-.618H-403.66c7,5.252,17,8.755,31.313,10.917a59.018,59.018,0,0,0-7.726,14.625c-15.448-4.323-26.16-9.988-34.917-18.54a58.518,58.518,0,0,1,.311,5.873v3.3a68.5,68.5,0,0,0,.516,10.094Zm1.647-65.509h14.214c1.029-2.163,1.339-2.884,2.163-4.944h-18.335A46.783,46.783,0,0,1-428.894,11634.766Zm551.05,65.3a65.477,65.477,0,0,0,.516-10.814v-21.939h-5.149v17.306c0,3.913.1,6.489.308,9.165H102.894a56.438,56.438,0,0,0,.516-9.578v-21.526A85.55,85.55,0,0,0,103,11653a90.86,90.86,0,0,0,10.2.413h9.478v-5.149H111.959a112.711,112.711,0,0,0-11.433.413v-15.04a72.031,72.031,0,0,0,9.062.413h1.65c-5.047-2.679-7.931-4.121-12.67-6.284a59.778,59.778,0,0,0,6.489-18.745,30.115,30.115,0,0,0,.516-4.739l14.009,2.371c-.106.517-.106.615-.208,1.337l-.516,2.887c-.1.41-.1.513-.615,3.6h4.428v-1.752a56.907,56.907,0,0,0-.516-9.476H137.5a51.7,51.7,0,0,0-.516,9.271v1.957h7.623a66.42,66.42,0,0,0,10.094-.516v15.141a93.63,93.63,0,0,0-10.094-.413h-7.623v5.357h9.991a80.525,80.525,0,0,0,9.475-.413v15.04a79.178,79.178,0,0,0-9.991-.413h-9.475v5.149h9.27c5.047,0,6.8-.1,9.578-.308a78.186,78.186,0,0,0-.308,8.857v20.806c0,8.136-2.265,10.2-11.33,10.2-.618,0-2.163-.106-4.121-.209-.308-6.181-.926-9.27-2.781-13.391.926.105,2.576.208,3.089.208,1.237,0,1.65-.413,1.65-1.547v-10.712h-5.047v22.147a63.767,63.767,0,0,0,.516,10.606Zm-9.475-66.021h9.991v-5.357h-8.036C113.914,11630.953,113.709,11631.366,112.68,11634.045Zm179.426,65.919a108.035,108.035,0,0,0,.618-13.9v-51.192a106.58,106.58,0,0,1-15.038,21.014,69.862,69.862,0,0,0-9.065-13.906v44.5a126.318,126.318,0,0,0,.618,13.08H252.552a111.131,111.131,0,0,0,.618-12.978v-28.118c.1-3.4.1-3.4.208-7a74.887,74.887,0,0,1-7.107,7.932,70.372,70.372,0,0,0-6.386-18.746c6.9-5.665,12.978-14.624,17.819-26.16a51.816,51.816,0,0,0,4.015-13.186l16.07,4.944c-.929,2.266-1.134,2.781-2.163,5.87a123.254,123.254,0,0,1-7,16.583v12.156a66.586,66.586,0,0,0,13.7-19.469c3.81-7.828,6.284-14.936,7-19.569l16.48,3.708c-1.029,2.679-1.442,3.707-2.163,5.665-1.032,2.986-1.339,3.707-2.06,5.457h23.382a99.946,99.946,0,0,0,13.08-.615v15.346a113.646,113.646,0,0,0-12.978-.618H308.38v9.58H322.9a86.286,86.286,0,0,0,11.228-.516v15.038c-3.813-.311-7.418-.516-11.433-.516H308.38v9.58H322.8a92.738,92.738,0,0,0,11.433-.516v15.141a106.667,106.667,0,0,0-11.433-.516H308.38v7.934a101.859,101.859,0,0,0,.618,14.006Zm-865.3,0a70.7,70.7,0,0,0,.824-12.67v-8.549H-597.2a115.153,115.153,0,0,0-14.522.724v-16.274a125.747,125.747,0,0,0,14.522.618h24.824v-.618a71.271,71.271,0,0,0-.41-7.418c-.721,1.032-1.134,1.647-2.163,3.3a82.717,82.717,0,0,1-10.4-10.917c-4.121,5.56-7.107,8.652-14.625,15.346a58.835,58.835,0,0,0-11.125-12.257,51.5,51.5,0,0,0,15.346-14.832,35.836,35.836,0,0,0,5.255-10.507h-6.8a112.647,112.647,0,0,0-13.08.516v-15.759a127.722,127.722,0,0,0,13.493.618h24.411v-2.061a40.623,40.623,0,0,0-.516-6.283h17.306a29.36,29.36,0,0,0-.516,6.181v2.163h26.368a117.566,117.566,0,0,0,12.978-.618v15.759a103.329,103.329,0,0,0-12.465-.516h-18.435l12.462,2.989a67.426,67.426,0,0,1-2.986,6.386,51.77,51.77,0,0,0,22.453,12.462,73.684,73.684,0,0,0-8.341,14.728c-9.27-4.118-15.759-8.547-21.427-14.83a103.86,103.86,0,0,1-8.549,10.4c-.823-1.131-1.029-1.438-1.75-2.368a70.665,70.665,0,0,0-.308,7.418v.721h26.16a129.1,129.1,0,0,0,14.628-.618v16.274a118.066,118.066,0,0,0-14.628-.724H-556.2v8.344a83.253,83.253,0,0,0,.721,12.875Zm.926-44.806H-556.3a43.869,43.869,0,0,0-9.065-7.726A49.948,49.948,0,0,0-572.272,11655.158Zm-2.368-26.368a59.511,59.511,0,0,1-2.884,6.386,48.84,48.84,0,0,0,12.772,10.92,44.623,44.623,0,0,0,13.6-20.189h-36.462Zm387.69,54.387c2.989-1.032,6.386-2.99,12.981-7.828v-19.467H-178.3a36.753,36.753,0,0,0-6.489.513v-15.551a51.5,51.5,0,0,0,8.549.514h9.991a59.612,59.612,0,0,0,7.931-.411,106.791,106.791,0,0,0-.41,11.639v22.866c2.679,3.912,4.637,5.457,8.549,6.693,3.6,1.135,10.3,1.647,20.085,1.647,18.335,0,32.549-.721,43.569-2.368a77.755,77.755,0,0,0-3.81,16.79c-8.241.309-25.855.514-38.625.514-22.869,0-29.46-1.75-36.875-9.991a104.672,104.672,0,0,1-12.772,9.889c-.618.413-.926.721-1.647,1.236Zm351.334,15.861c-.516-6.489-1.339-9.786-3.913-15.038,5.662.513,9.991.823,12.769.823,4.121,0,4.739-.413,4.739-3.089v-64.891a103.569,103.569,0,0,0-.516-13.08h16.377c-.513,2.884-.618,5.768-.618,12.462v68.287c0,6.489-1.029,9.581-3.913,11.642-2.679,2.06-8.241,3.089-15.964,3.089C171.492,11699.243,171.389,11699.243,164.385,11699.038Zm-208.162-9.786c2.265-7.312,3.294-15.243,3.6-27.5l10.3,1.34c-.205,12.978-1.339,22.248-3.5,31.518Zm-56.96-10.2h-41.714a92.99,92.99,0,0,0-10.4.308,91.9,91.9,0,0,0,.308-10.4v-24.618c0-.722,0-2.368.106-4.326a23.159,23.159,0,0,1-3.195,3.913c-2.573-5.561-4.326-8.649-7.107-12.151l-3.5,3.5c-5.662-8.036-10.3-12.875-19.156-20.4l11.638-11.122c8.447,6.8,14.214,12.462,18.438,18.127,5.973-7.312,9.68-13.7,11.433-19.674l16.685,2.781c-2.368,4.325-4.018,7-5.87,9.785h8.341a65.751,65.751,0,0,0,6.386-12.259l16.172,2.166c-.516.823-.516.823-1.237,2.06-1.647,2.986-3.707,6.384-4.842,8.033h7.107a75.418,75.418,0,0,0,10.609-.516v14.112a55.7,55.7,0,0,0-8.136-.414h-11.741v4.534h6.075a84.56,84.56,0,0,0,10.609-.311v12.465a84.559,84.559,0,0,0-10.609-.311h-6.075v4.534h6.075a87.127,87.127,0,0,0,10.609-.312v12.465a85.5,85.5,0,0,0-10.609-.311h-6.075v4.944h9.475a91.752,91.752,0,0,0,10.712-.413v14.217A93.424,93.424,0,0,0-100.737,11679.056Zm-36.667-13.391h11.946v-4.944H-137.4Zm0-16.787h11.946v-4.534H-137.4Zm0-16.378h11.946v-4.534H-137.4Zm296.329,42.229c.413-2.679.516-4.223.516-10.4V11622.1a69.4,69.4,0,0,0-.516-10.609h15.038a89.039,89.039,0,0,0-.41,10.3v42.537a79.136,79.136,0,0,0,.41,10.4ZM-295,11651.348a15.694,15.694,0,0,1,15.759-15.759,15.65,15.65,0,0,1,15.656,15.656A15.672,15.672,0,0,1-279.237,11667,15.672,15.672,0,0,1-295,11651.348Zm35.261-82.622c4.51-1.518,6.682-2.706,9.511-5.291a32.265,32.265,0,0,1-3.4-6.187c-.615.655-.86.941-1.68,1.72a17.947,17.947,0,0,0-2.3-3.36,28.772,28.772,0,0,0-1.6,4.51,16.037,16.037,0,0,1-2.051-3.568c.081,2.3.124,3.484.124,4.3v8.241a39.481,39.481,0,0,0,.244,5.291H-267.4a44.036,44.036,0,0,0,.287-5.291v-5.372c0-1.476.042-2.827.084-4.016a20.574,20.574,0,0,1-3.2,6.6,35.173,35.173,0,0,0-2.54-6.891,26,26,0,0,0,5.164-11.149h-.818a20.479,20.479,0,0,0-3.282.206v-6.07a19,19,0,0,0,3.282.205h1.27v-2.663a29.549,29.549,0,0,0-.247-4.266h6.48a30.115,30.115,0,0,0-.205,4.266v2.663h1.023a12.97,12.97,0,0,0,2.256-.162v5.984a12.43,12.43,0,0,0-2.133-.163h-1.107a14.434,14.434,0,0,0,2.953,4.878,19.492,19.492,0,0,0,5.207-7.46,36.637,36.637,0,0,0-4.223.244v-6.313a37.2,37.2,0,0,0,4.839.247h2.95v-1.188a14.554,14.554,0,0,0-.205-2.871h6.685a16.9,16.9,0,0,0-.163,2.745v1.314h4.1a38.807,38.807,0,0,0,4.878-.247v6.313a43.224,43.224,0,0,0-4.92-.244h-.941a17.691,17.691,0,0,0,1.68,2.664,24.7,24.7,0,0,0,4.959,4.962,24.315,24.315,0,0,0-3.361,5.451c-1.026-.859-1.478-1.27-2.091-1.8a33.139,33.139,0,0,1-3.569,6.356,24.153,24.153,0,0,0,9.186,4.591,26.86,26.86,0,0,0-3.035,6.438,29.942,29.942,0,0,1-10.169-6.356,29.074,29.074,0,0,1-9.879,6.438A21.432,21.432,0,0,0-259.734,11568.726Zm13.406-9.882a19.729,19.729,0,0,0,2.338-5.123l3.976,1.967a29.745,29.745,0,0,1-5.207-8l3.445-2.006h-9.43l3.976,2.049a38.646,38.646,0,0,1-4.959,7.873l3.361-1.723A20.868,20.868,0,0,0-246.328,11558.844Zm376.9,15.5a33.378,33.378,0,0,0,.247-5.249v-3.895l-7.463,1.518c-2.253.491-3.116.7-4.018.944l-.492-6.44a25.064,25.064,0,0,0,3.976-.531l8-1.641v-14.432l-3.24,4.018a46.379,46.379,0,0,0-7.584-6.519l3.81-4.468a45.6,45.6,0,0,1,7.014,5.412v-2.133a32.208,32.208,0,0,0-.247-5.168h6.766a33.154,33.154,0,0,0-.247,5.168v16.851a25.574,25.574,0,0,0,3.487-.941l.2,6.435a35.779,35.779,0,0,0-3.689.615v5.249a33.414,33.414,0,0,0,.247,5.207Zm-22.3-.124a47.8,47.8,0,0,0,.244-5.33v-4.715c0-.7.042-1.518.124-3.36a21.033,21.033,0,0,1-4.184,6.968,37.338,37.338,0,0,0-2.621-6.353,22.722,22.722,0,0,0,5.985-9.349h-1.6a23.536,23.536,0,0,0-3.608.205v-6.027a24.393,24.393,0,0,0,3.689.205h2.214v-2.872c-.9.166-1.762.287-4.06.576a26.1,26.1,0,0,0-2.048-5.453c6.848-.616,11.931-1.8,14.432-3.279l3.526,5.083a40.278,40.278,0,0,1-5.783,1.846v4.1H116.1a16.883,16.883,0,0,0,3.2-.205v4.96l2.953-3.442a49.73,49.73,0,0,1,7.587,6.19l-3.732,4.838a47.738,47.738,0,0,0-7.587-6.643c-.9-.042-1.557-.081-2.5-.081h-1.231a23.47,23.47,0,0,0,5.454,5.167,32.192,32.192,0,0,0-2.706,6.229,25.838,25.838,0,0,1-3.074-4.223c.039.657.081,1.8.121,3.4v6.232a37.2,37.2,0,0,0,.247,5.33Zm-417.781-.123a24.16,24.16,0,0,0-1.8-6.027c2.253.205,3.813.329,4.962.329,1.638,0,1.925-.124,1.925-.86v-3.895h-10a51.3,51.3,0,0,0-5.659.244v-6.231a45.488,45.488,0,0,0,5.578.286h10.085a12.319,12.319,0,0,0-.124-1.925h2.256a14.839,14.839,0,0,0,2.787-2.094h-8.486a41.57,41.57,0,0,0-4.347.166v-5.535c1.354.12,2.419.163,4.386.163h12.26a20.668,20.668,0,0,0,3.24-.163l2.992,3.4c-.449.368-.615.534-1.231,1.107a67.357,67.357,0,0,1-5.741,4.878h7.587a52.584,52.584,0,0,0,5.78-.286v6.231a53.3,53.3,0,0,0-5.861-.244h-9.1v5.7c0,3.977-1.4,4.878-7.75,4.878C-306.474,11574.219-307.581,11574.18-309.509,11574.1Zm-88.806.042a18.747,18.747,0,0,0-1.723-5.659,39.953,39.953,0,0,0,4.634.289c1.354,0,1.6-.123,1.6-.862v-2.214h-12.012a36.114,36.114,0,0,1,5,4.633l-5.083,3.855a37.466,37.466,0,0,0-6.069-5.945l3.65-2.543h-5.535c-1.517,0-2.953.081-4.51.205v-5.7a28.436,28.436,0,0,0,4.673.244h19.886v-1.352h-17.18c-2.253,0-3.155.039-4.3.124a33.975,33.975,0,0,0,.166-3.65v-7.5a34.45,34.45,0,0,0-.166-3.649c1.149.084,1.928.123,4.3.123h7.955v-1.23h-10.824a36.44,36.44,0,0,0-4.51.205v-5.656a28.436,28.436,0,0,0,4.673.244h10.661a16.007,16.007,0,0,0-.247-2.458h6.6a15.024,15.024,0,0,0-.247,2.458h11.11a29.008,29.008,0,0,0,4.715-.244v5.656a35.555,35.555,0,0,0-4.549-.205h-11.276v1.23h8.4c2.38,0,3.2-.039,4.347-.123a33.03,33.03,0,0,0-.163,3.649v7.5a32.091,32.091,0,0,0,.163,3.65,34.655,34.655,0,0,0-3.566-.124v1.352h1.967a29.008,29.008,0,0,0,4.715-.244v5.7c-1.475-.124-2.992-.205-4.552-.205h-2.13v4.06c0,3.445-1.723,4.468-7.424,4.468C-395.853,11574.219-396.921,11574.18-398.315,11574.138Zm1.394-19.026h6.519v-1.514h-6.519Zm-12.175,0h6.066v-1.514H-409.1Zm12.175-5.122h6.519v-1.436h-6.519Zm-12.175,0h6.066v-1.436H-409.1Zm-141.081,24.19c.163-1.641.287-3.487.287-5.5v-2.172h-2.667a39.644,39.644,0,0,0-4.057.205v-3.773a35.877,35.877,0,0,1-6.232,5.209,23.491,23.491,0,0,0-3.24-6.108,34.132,34.132,0,0,0,8.775-7.545,30.029,30.029,0,0,0,4.386-6.561h-6.643a41.275,41.275,0,0,0-5.246.286v-6.477a40.819,40.819,0,0,0,5.246.287h9.677v-2.5a18.634,18.634,0,0,0-.287-3.855h7.011a18.936,18.936,0,0,0-.247,3.855v2.5h10.088a40.06,40.06,0,0,0,5.327-.287v6.477a42.613,42.613,0,0,0-5.327-.286h-7.258a27.616,27.616,0,0,0,4.715,6.724,33.067,33.067,0,0,0,9.225,7.092,26.836,26.836,0,0,0-3.321,6.314,38.789,38.789,0,0,1-6.4-5.041v3.689c-1.312-.124-2.543-.205-4.1-.205h-2.953v2.172a44.7,44.7,0,0,0,.287,5.5Zm6.763-17.18v3.895h5a42.15,42.15,0,0,1-5.207-7.379C-543.454,11555.851-543.414,11556.3-543.414,11557Zm-11.315,3.895h4.839v-3.812a35.226,35.226,0,0,1,.163-3.526A36.854,36.854,0,0,1-554.73,11560.895Zm53.955,9.554v-2.543h-6.232v1.8h-6.232a39.619,39.619,0,0,0,.247-4.634v-6.929a32.4,32.4,0,0,0-.205-4.263,37.975,37.975,0,0,0,4.223.163h22.715a37.3,37.3,0,0,0,4.3-.163,37.67,37.67,0,0,0-.166,4.3v7.011a22.822,22.822,0,0,0,4.06,1.107c-.287,3.813-.658,5.206-1.723,6.189-1.312,1.231-3.608,1.561-11.276,1.561C-499.42,11574.057-500.775,11573.564-500.775,11570.448Zm6.027-1.886c0,.407.163.573.658.736a32.2,32.2,0,0,0,4.51.205,15.686,15.686,0,0,0,4.549-.41c.41-.163.573-.491.7-1.188h-10.413Zm0-4.633h6.561v-1.354h-6.561Zm-12.175,0h6.148v-1.354h-6.148Zm12.175-4.8h6.561v-1.31h-6.561Zm-12.175,0h6.148v-1.31h-6.148Zm138.128,14.845a48.346,48.346,0,0,0,.244-5.535v-27.1a45.974,45.974,0,0,0-.163-4.715,36.121,36.121,0,0,0,4.142.163H-356a33.45,33.45,0,0,0,4.184-.163c-.081,1.23-.124,2.133-.124,3.731v9.635c0,2.212,0,2.622.081,3.566-1.231-.04-2.214-.082-3.361-.082h-7.134v15a44.245,44.245,0,0,0,.244,5.5Zm6.437-25.174h4.754v-1.641h-4.754Zm0-5.454h4.754v-1.641h-4.754Zm-224.476,30.544v-2.049h-17.056v2.049h-6.766c.166-1.681.247-3.566.247-5.617v-26.567c0-1.518-.081-2.992-.205-4.673,1.351.121,2.83.205,4.715.205h21.361a35.6,35.6,0,0,0,4.552-.205c-.124,1.762-.205,3.279-.205,4.631v26.609a54.7,54.7,0,0,0,.244,5.617Zm-17.056-8.2h17.056v-8.567h-17.056Zm0-14.432h17.056v-7.955h-17.056Zm515.113,16.114c7.382-2.133,10.7-5.864,11.071-12.425h-8.4a49.849,49.849,0,0,0-6.19.205v-6.888a36.171,36.171,0,0,0,6.314.326H-63.15a39.608,39.608,0,0,0,6.519-.286v6.848a54.38,54.38,0,0,0-6.4-.205h-7.011c-.287,4.676-1.107,7.544-2.953,10.579-2.133,3.565-5.493,6.15-10.987,8.322A20.058,20.058,0,0,0-88.776,11567.374Zm54.737.121c6.109-1.681,9.349-3.937,11.071-7.626.941-2.214,1.228-4.3,1.27-8.857h-8.691v4.634a30.776,30.776,0,0,0,.163,4.224H-37.69a29.616,29.616,0,0,0,.247-4.3v-4.553H-39a48.338,48.338,0,0,0-5.78.206v-6.969a34.828,34.828,0,0,0,5.9.286h1.436v-3.034a25.575,25.575,0,0,0-.247-4.3h7.463a30.607,30.607,0,0,0-.163,4.181v3.158h8.772c0-.9.042-1.722.042-2.009v-.862a27.563,27.563,0,0,0-.205-4.182H-15.1c-.124-.244-.244-.449-.534-.941l3.116-.9a29.608,29.608,0,0,1,2.748,6.519l-3.24,1.107a43.934,43.934,0,0,0-1.6-4.718c-.042.615-.042.738-.042,1.314,0,.86,0,2.417-.039,4.673h1.641a37.165,37.165,0,0,0,5.9-.286v6.969a55.941,55.941,0,0,0-5.78-.206h-1.846c-.081,6.356-.615,9.678-2.009,12.5-2.38,4.882-6.275,7.958-12.793,10.251A20.769,20.769,0,0,0-34.04,11567.5Zm-423.437,6.232a22.905,22.905,0,0,0-1.765-6.806,37.82,37.82,0,0,0,6.109.41c1.641,0,1.885-.124,1.885-.9v-8.651h-9.879a59.863,59.863,0,0,0-6.151.247v-6.643a58.714,58.714,0,0,0,6.317.245h9.714v-1.188a27.73,27.73,0,0,0-.163-3.527h3.321a21.816,21.816,0,0,0,4.51-3.894h-13.774a51.013,51.013,0,0,0-5.741.247v-6.437a43.7,43.7,0,0,0,5.617.244h17.711a19.73,19.73,0,0,0,3.979-.205l3.608,4.019c-.739.657-1.068.983-1.6,1.517a65.059,65.059,0,0,1-10.781,8.9v.326h8.609a57.407,57.407,0,0,0,6.232-.245v6.643a60.148,60.148,0,0,0-6.19-.247h-8.652v10.661c0,4.263-1.762,5.327-8.857,5.327C-453.42,11573.767-454.771,11573.767-457.477,11573.728Zm112.873-.042a19.335,19.335,0,0,0-1.478-6.19,52.409,52.409,0,0,0,5.578.286c1.065,0,1.312-.162,1.312-.9v-13.364h-7.463c-1.231,0-2.459.04-3.361.082.039-.739.081-1.723.081-3.608v-9.635c0-1.436-.042-2.585-.124-3.731a35.1,35.1,0,0,0,4.181.163h8.9a36.062,36.062,0,0,0,4.139-.163c-.121,1.394-.163,2.377-.163,4.634v26.729c0,4.8-1.354,5.741-8.2,5.741C-342.022,11573.728-343.21,11573.728-344.6,11573.686Zm.449-24.846h4.962v-1.68h-4.962Zm0-5.493h4.962v-1.641h-4.962Zm365.711,29.766a55.726,55.726,0,0,0,.244-6.6V11555.2a69.774,69.774,0,0,1-13.406,6.066,22.039,22.039,0,0,0-3.937-6.6A59.354,59.354,0,0,0,26.23,11544c3.526-2.664,6.275-5.454,7.463-7.5l6.64,4.429a14.671,14.671,0,0,0-1.6,1.518,68.874,68.874,0,0,1-9.472,8.241v15.783a58.518,58.518,0,0,0,.247,6.643Zm34.48-8.9a41.114,41.114,0,0,0,12.341-2.953,24.644,24.644,0,0,0,12.012-10.127,37.677,37.677,0,0,0,4.018-8.036,26.447,26.447,0,0,0,6.027,5.493c-3.729,8.078-7.626,12.917-13.367,16.606-4.425,2.869-8.323,4.387-15.949,6.151-1.6.368-1.843.41-2.95.738Zm260.341,5.611a6.53,6.53,0,0,1-3.186-3.714,24.448,24.448,0,0,1-.778-7.138v-9.469a42.278,42.278,0,0,1,.238-5.255,7.363,7.363,0,0,1,1.433-3.373,7.99,7.99,0,0,1,3.3-2.552,13.5,13.5,0,0,1,11,.51,6.92,6.92,0,0,1,3.186,3.593,21.664,21.664,0,0,1,.76,6.7v3.083H323.9v-5.645a10.1,10.1,0,0,0-.271-3.073,1.155,1.155,0,0,0-1.189-.609,1.243,1.243,0,0,0-1.321.741,11.083,11.083,0,0,0-.284,3.2v15.056a10.361,10.361,0,0,0,.284,3.083,1.437,1.437,0,0,0,2.492,0,11.769,11.769,0,0,0,.29-3.385v-4.063h8.428v1.262a24.846,24.846,0,0,1-.712,7.128,7.29,7.29,0,0,1-3.143,3.684,10.779,10.779,0,0,1-5.994,1.58A12.394,12.394,0,0,1,316.377,11569.827Zm-114.384.491a7.792,7.792,0,0,1-4.836-6.256,68.665,68.665,0,0,1-.238-7.008v-5.545q0-4.887.229-6.917a7.746,7.746,0,0,1,4.715-6.3,11.94,11.94,0,0,1,4.805-.9,12.2,12.2,0,0,1,4.673.851,7.792,7.792,0,0,1,4.836,6.256,68.489,68.489,0,0,1,.241,7.008v5.545q0,4.887-.232,6.917a7.75,7.75,0,0,1-4.712,6.3,11.874,11.874,0,0,1-4.805.9A12.215,12.215,0,0,1,201.993,11570.318Zm3.7-26.926a7.265,7.265,0,0,0-.35,3.014v15.134a14.838,14.838,0,0,0,.229,3.481,1,1,0,0,0,1.071.663,1.034,1.034,0,0,0,1.1-.763,16.015,16.015,0,0,0,.241-3.623v-14.893a10.077,10.077,0,0,0-.25-2.894.993.993,0,0,0-1.032-.63A1.147,1.147,0,0,0,205.7,11543.393Zm-35.43,26.435a6.514,6.514,0,0,1-3.183-3.714,24.323,24.323,0,0,1-.781-7.138v-9.469a41.562,41.562,0,0,1,.241-5.255,7.357,7.357,0,0,1,1.43-3.373,8.01,8.01,0,0,1,3.3-2.552,13.507,13.507,0,0,1,11,.51,6.926,6.926,0,0,1,3.183,3.593,21.663,21.663,0,0,1,.76,6.7v3.083h-8.428v-5.645a10.239,10.239,0,0,0-.268-3.073,1.162,1.162,0,0,0-1.192-.609,1.245,1.245,0,0,0-1.321.741,11.236,11.236,0,0,0-.281,3.2v15.056a10.5,10.5,0,0,0,.281,3.083,1.2,1.2,0,0,0,1.261.721,1.185,1.185,0,0,0,1.231-.721,11.768,11.768,0,0,0,.29-3.385v-4.063h8.428v1.262a24.874,24.874,0,0,1-.709,7.128,7.305,7.305,0,0,1-3.143,3.684,10.79,10.79,0,0,1-6,1.58A12.41,12.41,0,0,1,170.267,11569.827Zm291.617.612a6.6,6.6,0,0,1-3.062-2.094,8.962,8.962,0,0,1-1.623-2.992,18.693,18.693,0,0,1-.48-4.993v-11.312a21.778,21.778,0,0,1,.769-6.688,6.6,6.6,0,0,1,3.065-3.562,10.807,10.807,0,0,1,5.554-1.34,11.65,11.65,0,0,1,4.766.93,7.961,7.961,0,0,1,3.143,2.271,7.525,7.525,0,0,1,1.412,3.022,27.837,27.837,0,0,1,.371,5.367v10.808a25.706,25.706,0,0,1-.4,5.367,7.424,7.424,0,0,1-1.662,3.144,7.188,7.188,0,0,1-3.044,2.1,11.769,11.769,0,0,1-3.982.64A14.856,14.856,0,0,1,461.884,11570.439Zm3.213-27.307a10.538,10.538,0,0,0-.29,3.191v15.816a11.672,11.672,0,0,0,.271,3.4,1.414,1.414,0,0,0,2.353-.1,10.287,10.287,0,0,0,.278-3.062v-16.058a12.032,12.032,0,0,0-.25-3.233,1.106,1.106,0,0,0-1.17-.648A1.157,1.157,0,0,0,465.1,11543.133Zm-61.6,27.307a6.6,6.6,0,0,1-3.062-2.094,8.907,8.907,0,0,1-1.623-2.992,18.693,18.693,0,0,1-.48-4.993v-11.312a21.779,21.779,0,0,1,.769-6.688,6.585,6.585,0,0,1,3.065-3.562,10.8,10.8,0,0,1,5.554-1.34,11.65,11.65,0,0,1,4.766.93,7.984,7.984,0,0,1,3.143,2.271,7.479,7.479,0,0,1,1.409,3.022,27.591,27.591,0,0,1,.371,5.367v10.808a25.754,25.754,0,0,1-.4,5.367,7.424,7.424,0,0,1-1.662,3.144,7.188,7.188,0,0,1-3.044,2.1,11.774,11.774,0,0,1-3.985.64A14.849,14.849,0,0,1,403.5,11570.439Zm3.213-27.307a10.538,10.538,0,0,0-.29,3.191v15.816a11.836,11.836,0,0,0,.268,3.4,1.161,1.161,0,0,0,1.173.582,1.141,1.141,0,0,0,1.179-.682,10.146,10.146,0,0,0,.281-3.062v-16.058a12.166,12.166,0,0,0-.25-3.233,1.106,1.106,0,0,0-1.17-.648A1.157,1.157,0,0,0,406.71,11543.133Zm-518.986,27.216a7.01,7.01,0,0,1-2.25-1.861l-.522,2h-7.569v-32.41h8.091v7.668a6.6,6.6,0,0,1,2.229-1.731,6.306,6.306,0,0,1,2.676-.573,7.315,7.315,0,0,1,2.881.521,4.135,4.135,0,0,1,1.861,1.464,4.406,4.406,0,0,1,.772,1.84,35.2,35.2,0,0,1,.13,3.843v11.974a17.905,17.905,0,0,1-.389,4.353,4.561,4.561,0,0,1-1.834,2.482,5.627,5.627,0,0,1-3.421,1.053A5.819,5.819,0,0,1-112.276,11570.349Zm-2.03-21.65a10.026,10.026,0,0,0-.22,2.772v11.451a9,9,0,0,0,.25,2.742.964.964,0,0,0,.989.6.939.939,0,0,0,.989-.622,11.283,11.283,0,0,0,.232-2.98v-11.191a8.727,8.727,0,0,0-.259-2.693,1,1,0,0,0-1.023-.631A.915.915,0,0,0-114.306,11548.7Zm-32.438,21.53a7.232,7.232,0,0,1-3.053-2.033,7.346,7.346,0,0,1-1.511-2.842,18.325,18.325,0,0,1-.422-4.513v-7.75a13.2,13.2,0,0,1,.941-5.5,6.459,6.459,0,0,1,3.083-3.08,10.871,10.871,0,0,1,4.926-1.074,10.987,10.987,0,0,1,5.614,1.294,7.1,7.1,0,0,1,3.1,3.421,16.058,16.058,0,0,1,.89,6v3.523h-10.471v5.747a6.331,6.331,0,0,0,.262,2.322,1.01,1.01,0,0,0,1,.52,1.214,1.214,0,0,0,1.231-.691,7.6,7.6,0,0,0,.311-2.673v-3.5h7.665v1.961a17.54,17.54,0,0,1-.311,3.786,7.634,7.634,0,0,1-1.451,2.82,7.045,7.045,0,0,1-2.893,2.253,11.176,11.176,0,0,1-4.392.751A12.743,12.743,0,0,1-146.744,11570.229Zm3.3-21.572a10.637,10.637,0,0,0-.2,2.754v1.939h2.362v-1.939a9.922,9.922,0,0,0-.217-2.663.872.872,0,0,0-.9-.6C-142.961,11548.146-143.308,11548.318-143.44,11548.656Zm571.306,21.831v-4.624q7.91-12.933,9.4-16a12.088,12.088,0,0,0,1.49-4.8,3.506,3.506,0,0,0-.449-1.973,1.56,1.56,0,0,0-1.373-.648,1.5,1.5,0,0,0-1.37.721,6.04,6.04,0,0,0-.449,2.862v3.083h-7.249v-1.183a25.643,25.643,0,0,1,.281-4.292,7.563,7.563,0,0,1,1.382-3.1,6.927,6.927,0,0,1,2.863-2.3,10.407,10.407,0,0,1,4.223-.778q4.824,0,7.3,2.39a8.066,8.066,0,0,1,2.474,6.058,14.425,14.425,0,0,1-1.391,5.885q-1.394,3.105-8.2,13.174h8.869v5.523Zm-58.387,0v-4.624q7.905-12.933,9.4-16a12.139,12.139,0,0,0,1.49-4.8,3.481,3.481,0,0,0-.449-1.973,1.56,1.56,0,0,0-1.373-.648,1.508,1.508,0,0,0-1.373.721,6.079,6.079,0,0,0-.449,2.862v3.083h-7.246v-1.183a25.639,25.639,0,0,1,.281-4.292,7.523,7.523,0,0,1,1.382-3.1,6.909,6.909,0,0,1,2.863-2.3,10.407,10.407,0,0,1,4.223-.778q4.824,0,7.3,2.39a8.077,8.077,0,0,1,2.474,6.058,14.384,14.384,0,0,1-1.394,5.885q-1.389,3.105-8.2,13.174h8.869v5.523Zm-22.667,0v-25.925h-4.986v-6.485h18.419v6.485h-5v25.925Zm-59.108,0v-32.41h14.051v6.485h-5.623v6.145H301.4v6.17h-5.264V11564h6.184v6.485Zm-18.685,0-4.383-14.733v14.733h-7.047v-32.41h7.047l4.724,14.594v-14.594h7.047v32.41Zm-30.115,0-4.383-14.733v14.733h-7.047v-32.41h7.047l4.724,14.594v-14.594h7.047v32.41Zm-414.022,0q-1.439-7.466-2.543-16.975-.5,4.063-2.341,16.975h-10.471l-3.765-32.41h8.19l.86,11.309.881,10.911q.462-8.465,2.323-22.22h8.769q.181,1.421.92,10.69l.92,12.312q.7-11.752,2.344-23h8.187l-3.744,32.41Zm-325.943-17.261a34.8,34.8,0,0,0,.166-3.771v-3.445h-9.267v5.454h-5.864a19.96,19.96,0,0,0,.205-3.4v-2.787a27.946,27.946,0,0,0-.163-3.61c1.352.084,2.419.123,5.656.123h9.433v-1.064h-8.241c-1.928,0-3.077.042-4.552.123v-4.838a51.3,51.3,0,0,0,5.164.247h22.018a48.753,48.753,0,0,0,5.125-.247v4.838c-1.436-.081-2.543-.123-4.468-.123h-8.857v1.064h9.964c3.237,0,4.262-.039,5.656-.123a26.776,26.776,0,0,0-.163,3.61v2.787a19.4,19.4,0,0,0,.205,3.4h-5.864v-5.454h-9.8v3.445a27.929,27.929,0,0,0,.163,3.771Zm556.688-8.691,4.715-5.779a59.674,59.674,0,0,1,11.276,8.036l-4.839,6.4A43.841,43.841,0,0,0,55.627,11544.535Zm-559.436,8.486h-3.442c-.573,0-1.189.042-1.765.084v-2.706a9.277,9.277,0,0,0,1.765.082h3.442a9.526,9.526,0,0,0,1.765-.082v2.706A9.29,9.29,0,0,0-503.809,11553.021Zm16.033-.039h-3.937a11.463,11.463,0,0,0-1.765.081v-2.664a9.778,9.778,0,0,0,1.765.082h3.937a9.24,9.24,0,0,0,1.762-.082v2.664A9.367,9.367,0,0,0-487.776,11552.982Zm198.44-.163v-5.783h-24.519v5.783h-6.232a19.142,19.142,0,0,0,.205-3.406v-4.51a26.714,26.714,0,0,0-.163-3.441c1.475.12,2.543.162,5.044.162h1.023a29.16,29.16,0,0,0-2.459-4.223l6.027-1.231a43.269,43.269,0,0,1,3.116,5.454h2.745a25.232,25.232,0,0,0-2.13-4.757l6.232-1.107a34.716,34.716,0,0,1,2.419,5.864h2.416a29.138,29.138,0,0,0,2.543-5.7l6.275,1.352a47.132,47.132,0,0,1-2.3,4.347h.818c2.543,0,3.732-.042,5.125-.162a26.009,26.009,0,0,0-.163,3.441v4.553a27.33,27.33,0,0,0,.205,3.363Zm-197.046-3.282a12.656,12.656,0,0,0-1.394-.039h-3.937a12.56,12.56,0,0,0-1.765.081v-2.706a9.294,9.294,0,0,0,1.765.082h3.937a6.972,6.972,0,0,0,1.762-.082v2.706A.792.792,0,0,0-486.382,11549.537Zm-17.427-.039h-3.442a12.284,12.284,0,0,0-1.765.081v-2.706a10.034,10.034,0,0,0,1.765.082h3.442a17.085,17.085,0,0,0,1.765-.082v2.706A10.912,10.912,0,0,0-503.809,11549.5Zm432.991-5.044H-81.723a60.552,60.552,0,0,0-6.4.205v-6.929a33.817,33.817,0,0,0,6.519.328h10.661a53.34,53.34,0,0,0,6.066-.247c-.124-.247-.163-.287-.329-.573l3.321-1.068a26.892,26.892,0,0,1,3,6.562l-3.526,1.271a31.214,31.214,0,0,0-2.38-6.066v6.724C-66.019,11544.535-66.266,11544.535-70.818,11544.454Zm10.827-8.775,3.2-1.107a27.723,27.723,0,0,1,2.869,6.356l-3.2,1.272A29,29,0,0,0-59.992,11535.679Zm49.364-.244,2.992-.944a18.171,18.171,0,0,1,2.664,6.19l-3.035,1.106A30.375,30.375,0,0,0-10.628,11535.435Z" transform="translate(1074.71 -10050.488)" fill="url(#a)"/><g transform="translate(720.71 1815.295)"><text transform="translate(148.08 -70.294)" fill="#fff" font-size="19" font-family="HiraginoSans-W8, Hiragino Sans" letter-spacing="0.2em"><tspan x="0" y="0"></tspan></text></g><g transform="translate(878.71 1815.295)"><text transform="translate(148.08 -70.294)" fill="#fff" font-size="19" font-family="HiraginoSans-W8, Hiragino Sans" letter-spacing="0.2em"><tspan x="0" y="0"></tspan></text></g><g transform="translate(1046.71 1815.295)"><text transform="translate(148.08 -70.294)" fill="#fff" font-size="19" font-family="HiraginoSans-W8, Hiragino Sans" letter-spacing="0.2em"><tspan x="0" y="0"></tspan></text></g></g></svg>