<svg xmlns="http://www.w3.org/2000/svg" width="1229.824" height="58.661" viewBox="0 0 1229.824 58.661"><g transform="translate(-2770.276 -6935.001)"><path d="M-173.834-55.337v44.263h8.75V0h-23.14V-55.337Zm37.126,0V0H-151.1V-55.337Zm50.456,0L-93.567,0h-21.841l-8.306-55.337h15.176q2.632,22.866,3.76,38.657,1.128-15.962,2.358-28.369l.991-10.288Zm12.961,0H-49.3v11.074h-9.6V-33.77h8.989v10.527H-58.9v12.168H-48.34V0H-73.292Zm96.605,0L16,0H-5.841l-8.306-55.337H1.029Q3.661-32.471,4.789-16.68,5.917-32.642,7.147-45.049l.991-10.288Zm27.351,0V0H36.275V-55.337Zm16.276,0H77.708q10.425,0,14.1.957A10.81,10.81,0,0,1,97.4-51.235a9.956,9.956,0,0,1,2.393,4.871,73.6,73.6,0,0,1,.479,10.544v19.38q0,7.451-.7,9.963a7.494,7.494,0,0,1-2.444,3.931A10.165,10.165,0,0,1,92.815-.564,38.924,38.924,0,0,1,85.09,0H66.941Zm14.39,9.468v36.4q3.11,0,3.828-1.248t.718-6.785V-39a28.86,28.86,0,0,0-.239-4.819,2.286,2.286,0,0,0-1.094-1.555A7.1,7.1,0,0,0,81.331-45.869Zm34.8-9.468h23.994v11.074h-9.6V-33.77h8.989v10.527h-8.989v12.168h10.562V0H116.132Zm72.468,32.4q0,8.34-.393,11.809a13.232,13.232,0,0,1-2.461,6.34,13.255,13.255,0,0,1-5.588,4.409,20.343,20.343,0,0,1-8.2,1.538,20.844,20.844,0,0,1-7.981-1.453,13.124,13.124,0,0,1-5.691-4.358,13.1,13.1,0,0,1-2.563-6.323,116.843,116.843,0,0,1-.41-11.963V-32.4q0-8.34.393-11.809a13.232,13.232,0,0,1,2.461-6.34,13.255,13.255,0,0,1,5.588-4.409,20.343,20.343,0,0,1,8.2-1.538,20.844,20.844,0,0,1,7.981,1.453,13.124,13.124,0,0,1,5.691,4.358,13.1,13.1,0,0,1,2.563,6.323A116.843,116.843,0,0,1,188.6-32.4ZM174.21-41.118a17.146,17.146,0,0,0-.427-4.939,1.7,1.7,0,0,0-1.76-1.077,1.965,1.965,0,0,0-1.726.872q-.6.872-.6,5.144v25.84a25.409,25.409,0,0,0,.393,5.947A1.714,1.714,0,0,0,171.92-8.2a1.77,1.77,0,0,0,1.88-1.3,27.376,27.376,0,0,0,.41-6.187Z" transform="translate(2959 6992)" fill="none" stroke="#73f8ce" stroke-width="1"/><path d="M-173.834-55.337v44.263h8.75V0h-23.14V-55.337Zm37.126,0V0H-151.1V-55.337Zm50.456,0L-93.567,0h-21.841l-8.306-55.337h15.176q2.632,22.866,3.76,38.657,1.128-15.962,2.358-28.369l.991-10.288Zm12.961,0H-49.3v11.074h-9.6V-33.77h8.989v10.527H-58.9v12.168H-48.34V0H-73.292Zm96.605,0L16,0H-5.841l-8.306-55.337H1.029Q3.661-32.471,4.789-16.68,5.917-32.642,7.147-45.049l.991-10.288Zm27.351,0V0H36.275V-55.337Zm16.276,0H77.708q10.425,0,14.1.957A10.81,10.81,0,0,1,97.4-51.235a9.956,9.956,0,0,1,2.393,4.871,73.6,73.6,0,0,1,.479,10.544v19.38q0,7.451-.7,9.963a7.494,7.494,0,0,1-2.444,3.931A10.165,10.165,0,0,1,92.815-.564,38.924,38.924,0,0,1,85.09,0H66.941Zm14.39,9.468v36.4q3.11,0,3.828-1.248t.718-6.785V-39a28.86,28.86,0,0,0-.239-4.819,2.286,2.286,0,0,0-1.094-1.555A7.1,7.1,0,0,0,81.331-45.869Zm34.8-9.468h23.994v11.074h-9.6V-33.77h8.989v10.527h-8.989v12.168h10.562V0H116.132Zm72.468,32.4q0,8.34-.393,11.809a13.232,13.232,0,0,1-2.461,6.34,13.255,13.255,0,0,1-5.588,4.409,20.343,20.343,0,0,1-8.2,1.538,20.844,20.844,0,0,1-7.981-1.453,13.124,13.124,0,0,1-5.691-4.358,13.1,13.1,0,0,1-2.563-6.323,116.843,116.843,0,0,1-.41-11.963V-32.4q0-8.34.393-11.809a13.232,13.232,0,0,1,2.461-6.34,13.255,13.255,0,0,1,5.588-4.409,20.343,20.343,0,0,1,8.2-1.538,20.844,20.844,0,0,1,7.981,1.453,13.124,13.124,0,0,1,5.691,4.358,13.1,13.1,0,0,1,2.563,6.323A116.843,116.843,0,0,1,188.6-32.4ZM174.21-41.118a17.146,17.146,0,0,0-.427-4.939,1.7,1.7,0,0,0-1.76-1.077,1.965,1.965,0,0,0-1.726.872q-.6.872-.6,5.144v25.84a25.409,25.409,0,0,0,.393,5.947A1.714,1.714,0,0,0,171.92-8.2a1.77,1.77,0,0,0,1.88-1.3,27.376,27.376,0,0,0,.41-6.187Z" transform="translate(3385 6992)" fill="none" stroke="#73f8ce" stroke-width="1"/><path d="M-173.834-55.337v44.263h8.75V0h-23.14V-55.337Zm37.126,0V0H-151.1V-55.337Zm50.456,0L-93.567,0h-21.841l-8.306-55.337h15.176q2.632,22.866,3.76,38.657,1.128-15.962,2.358-28.369l.991-10.288Zm12.961,0H-49.3v11.074h-9.6V-33.77h8.989v10.527H-58.9v12.168H-48.34V0H-73.292Zm96.605,0L16,0H-5.841l-8.306-55.337H1.029Q3.661-32.471,4.789-16.68,5.917-32.642,7.147-45.049l.991-10.288Zm27.351,0V0H36.275V-55.337Zm16.276,0H77.708q10.425,0,14.1.957A10.81,10.81,0,0,1,97.4-51.235a9.956,9.956,0,0,1,2.393,4.871,73.6,73.6,0,0,1,.479,10.544v19.38q0,7.451-.7,9.963a7.494,7.494,0,0,1-2.444,3.931A10.165,10.165,0,0,1,92.815-.564,38.924,38.924,0,0,1,85.09,0H66.941Zm14.39,9.468v36.4q3.11,0,3.828-1.248t.718-6.785V-39a28.86,28.86,0,0,0-.239-4.819,2.286,2.286,0,0,0-1.094-1.555A7.1,7.1,0,0,0,81.331-45.869Zm34.8-9.468h23.994v11.074h-9.6V-33.77h8.989v10.527h-8.989v12.168h10.562V0H116.132Zm72.468,32.4q0,8.34-.393,11.809a13.232,13.232,0,0,1-2.461,6.34,13.255,13.255,0,0,1-5.588,4.409,20.343,20.343,0,0,1-8.2,1.538,20.844,20.844,0,0,1-7.981-1.453,13.124,13.124,0,0,1-5.691-4.358,13.1,13.1,0,0,1-2.563-6.323,116.843,116.843,0,0,1-.41-11.963V-32.4q0-8.34.393-11.809a13.232,13.232,0,0,1,2.461-6.34,13.255,13.255,0,0,1,5.588-4.409,20.343,20.343,0,0,1,8.2-1.538,20.844,20.844,0,0,1,7.981,1.453,13.124,13.124,0,0,1,5.691,4.358,13.1,13.1,0,0,1,2.563,6.323A116.843,116.843,0,0,1,188.6-32.4ZM174.21-41.118a17.146,17.146,0,0,0-.427-4.939,1.7,1.7,0,0,0-1.76-1.077,1.965,1.965,0,0,0-1.726.872q-.6.872-.6,5.144v25.84a25.409,25.409,0,0,0,.393,5.947A1.714,1.714,0,0,0,171.92-8.2a1.77,1.77,0,0,0,1.88-1.3,27.376,27.376,0,0,0,.41-6.187Z" transform="translate(3811 6992)" fill="none" stroke="#73f8ce" stroke-width="1"/></g></svg>