<svg xmlns="http://www.w3.org/2000/svg" width="56.014" height="651.375" viewBox="0 0 56.014 651.375"><path d="M-311.726-53.756V0H-325.7V-53.756Zm76.942,0V0h-12.252l-7.271-24.437V0h-11.687V-53.756h11.687l7.836,24.205V-53.756Zm78.934,0L-162.954,0h-21.217l-8.068-53.756H-177.5q2.557,22.213,3.652,37.553,1.1-15.506,2.291-27.559l.963-9.994Zm56.489,0V0h-13.979V-53.756Zm73.888,0V-43h-8.3V0H-47.751V-43h-8.268V-53.756Zm64.724,0L47.253,0H32.943l-.7-9.662H27.232L26.4,0H11.925l7.105-53.756Zm-7.4,34.564q-1.063-9.131-2.125-22.545Q27.6-26.33,27.066-19.191Zm82.321-34.564V-43h-8.3V0H91.889V-43H83.621V-53.756Zm57.286,0V0H157.476V-53.756Zm77.673,31.477q0,8.1-.382,11.472a12.854,12.854,0,0,1-2.391,6.159,12.876,12.876,0,0,1-5.429,4.283,19.762,19.762,0,0,1-7.969,1.494A20.249,20.249,0,0,1,225.2-.282a12.749,12.749,0,0,1-5.528-4.233,12.724,12.724,0,0,1-2.49-6.143,113.5,113.5,0,0,1-.4-11.621v-9.2q0-8.1.382-11.472a12.854,12.854,0,0,1,2.391-6.159,12.876,12.876,0,0,1,5.429-4.283,19.762,19.762,0,0,1,7.969-1.494,20.249,20.249,0,0,1,7.753,1.411,12.749,12.749,0,0,1,5.528,4.233,12.724,12.724,0,0,1,2.49,6.143,113.5,113.5,0,0,1,.4,11.621ZM235.148-39.943a16.657,16.657,0,0,0-.415-4.8,1.652,1.652,0,0,0-1.71-1.046,1.909,1.909,0,0,0-1.677.847q-.581.847-.581,5v25.1a24.682,24.682,0,0,0,.382,5.777,1.665,1.665,0,0,0,1.776,1.1A1.72,1.72,0,0,0,234.75-9.23a26.594,26.594,0,0,0,.4-6.01Zm90.522-13.812V0H313.419l-7.271-24.437V0H294.46V-53.756h11.688l7.836,24.205V-53.756Z" transform="translate(54.885 325.671) rotate(-90)" fill="#d8d8d8" opacity="0.502"/></svg>