<svg xmlns="http://www.w3.org/2000/svg" width="298.363" height="50.657" viewBox="0 0 298.363 50.657"><g transform="translate(1535.804 5119.178)"><path d="M14.248-6.474a14.248,14.248,0,0,1,.1-2.132h-3.12a12.086,12.086,0,0,1,.13,2.132H4.5A26.232,26.232,0,0,1,1.2-6.63v2.964a27.7,27.7,0,0,1,3.3-.156h6.864V-.546a17.1,17.1,0,0,1-.182,2.808h3.25a16.024,16.024,0,0,1-.182-2.834v-3.25h7.28a23.054,23.054,0,0,1,3.328.156V-6.63a26.7,26.7,0,0,1-3.328.156ZM11.336-19.422H4.706A22.062,22.062,0,0,1,1.56-19.6v2.938a22.765,22.765,0,0,1,3.094-.156H21.476a22.632,22.632,0,0,1,3.016.156V-19.6a21.056,21.056,0,0,1-3.094.182H14.222v-.6a10.784,10.784,0,0,1,.156-1.9h-3.2a10.784,10.784,0,0,1,.156,1.9ZM7.02-16.77a11.387,11.387,0,0,1-2.132,4.316A12.563,12.563,0,0,1,1.56-9.282,11.175,11.175,0,0,1,3.614-7.1a23.1,23.1,0,0,0,3.874-4.29,18.621,18.621,0,0,0,3.2,3.224,11.938,11.938,0,0,1,1.82-2.288A12.349,12.349,0,0,1,8.84-13.7a22.776,22.776,0,0,0,.988-2.236Zm9.776.026a10.5,10.5,0,0,1-1.3,3.172,11.5,11.5,0,0,1-2.574,3.094,8.708,8.708,0,0,1,2,2.028,16.472,16.472,0,0,0,2.47-3.042,15.6,15.6,0,0,0,5.564,4.03,11.928,11.928,0,0,1,1.508-2.652A12.392,12.392,0,0,1,18.642-13.7c.286-.65.416-.936.91-2.158Zm20.644,5.3v1.248H32.292a18.462,18.462,0,0,1-2.652-.13v2.34a18.684,18.684,0,0,1,2.652-.13H37.44v1.3H30.55a24.134,24.134,0,0,1-3.12-.156v2.6a28.58,28.58,0,0,1,3.146-.156h4.836c-2.08,1.742-4.706,2.886-8.5,3.692a10.642,10.642,0,0,1,1.586,2.5A25.155,25.155,0,0,0,33.8-.52a14.46,14.46,0,0,0,3.744-2.86,17.506,17.506,0,0,0-.078,1.768V-.364a19.406,19.406,0,0,1-.156,2.652h3.068A14.793,14.793,0,0,1,40.2-.338V-1.612a17.8,17.8,0,0,0-.078-1.846C42.458-1.092,45.4.494,49.764,1.69A10.3,10.3,0,0,1,51.246-.962a22.316,22.316,0,0,1-5.408-1.482A13.5,13.5,0,0,1,42.3-4.524h5.226a28.087,28.087,0,0,1,3.12.156v-2.6a22.965,22.965,0,0,1-3.146.156H40.248v-1.3h5.434a19.086,19.086,0,0,1,2.678.13v-2.34a18.862,18.862,0,0,1-2.678.13H40.248V-11.44h6.786a19.086,19.086,0,0,1,2.678.13v-2.47a23.91,23.91,0,0,1-2.678.1H44.018c.364-.65.468-.884.962-1.924h2.6c1.274,0,2.288.052,3.094.13v-2.6a21.083,21.083,0,0,1-2.938.156h-.728c.572-.806.988-1.456,1.612-2.5L45.942-21.4a13.873,13.873,0,0,1-1.872,3.484H42.432V-19.76a13.651,13.651,0,0,1,.13-2.028H39.728a18.518,18.518,0,0,1,.078,1.924v1.95H37.96v-1.95a17.509,17.509,0,0,1,.078-1.924H35.2a14.461,14.461,0,0,1,.13,2.028v1.846H33.852a18.382,18.382,0,0,0-2-3.406l-2.6.988a10.99,10.99,0,0,1,1.768,2.418h-.832a22.033,22.033,0,0,1-2.964-.156v2.6c.832-.078,1.82-.13,3.094-.13h2.808c.286.494.572,1.092.962,1.924H30.94a23.615,23.615,0,0,1-2.678-.1v2.47a19.313,19.313,0,0,1,2.678-.13Zm-.6-2.236a16.6,16.6,0,0,0-.78-1.924H41.99a15.163,15.163,0,0,1-.858,1.924Zm28.158.7A3.085,3.085,0,0,0,61.906-9.88,3.085,3.085,0,0,0,65-6.786,3.085,3.085,0,0,0,68.094-9.88,3.085,3.085,0,0,0,65-12.974ZM96.85-7.618h2.106c1.43,0,1.9.026,2.626.078V-9.958a19.885,19.885,0,0,1-2.626.1H96.85v-1.924h2.106c1.43,0,1.9.026,2.626.078v-2.418a19.885,19.885,0,0,1-2.626.1H96.85v-1.95h3.328a17.19,17.19,0,0,1,2.21.1v-2.626a17.505,17.505,0,0,1-2.574.13h-2.7A17.487,17.487,0,0,0,98.176-20.2c.364-.676.442-.832.624-1.144l-2.834-.494A15.637,15.637,0,0,1,94.3-18.356h-3.25c.494-.884.754-1.378.78-1.43.39-.858.39-.858.806-1.664l-2.964-.494a5.417,5.417,0,0,1-.39,1.144,18.052,18.052,0,0,1-4.914,6.76,8.49,8.49,0,0,1,1.638,2.288,10.784,10.784,0,0,0,1.586-1.9c-.052.624-.052.988-.052,1.534v6.6a23.173,23.173,0,0,1-.1,2.626,18.857,18.857,0,0,1,2.366-.1H100a17.894,17.894,0,0,1,2.6.13V-5.538a16.6,16.6,0,0,1-2.626.13H96.85Zm-2.652,0v2.21H90.246v-2.21Zm0-2.236H90.246v-1.924H94.2Zm0-4.16H90.246v-1.95H94.2ZM79.4-19.526a26.226,26.226,0,0,1,4.42,4.862l2.158-2.106a31.583,31.583,0,0,0-4.524-4.706ZM79.2-9.178a9.132,9.132,0,0,1,1.742-.13h1.43v5.59a15.541,15.541,0,0,1-3.744,2.574L79.9,1.82a9.74,9.74,0,0,1,.858-.676,24.2,24.2,0,0,0,3.016-2.522A6.09,6.09,0,0,0,87,1.014c1.3.416,3.094.572,6.968.572,3.068,0,6.448-.052,8.762-.156a13.642,13.642,0,0,1,.78-3.068,75.831,75.831,0,0,1-10.816.572c-2.964,0-4.55-.208-5.72-.754a3.6,3.6,0,0,1-1.872-1.9V-9.152a26.2,26.2,0,0,1,.1-2.834,11.45,11.45,0,0,1-1.976.13h-1.95a11.628,11.628,0,0,1-2.08-.13ZM117.364-18.3a52.2,52.2,0,0,1-.39,7.2,27.107,27.107,0,0,1-1.846,7.488,33.14,33.14,0,0,0-.728-3.952l-1.95.468a24.765,24.765,0,0,1,.728,4.68l1.638-.546A15.646,15.646,0,0,1,112.736.26a7.429,7.429,0,0,1,2.158,1.924,20.831,20.831,0,0,0,3.12-6.006,26.461,26.461,0,0,0,1.352-6.838,20.459,20.459,0,0,0,2.652,6.708,15.549,15.549,0,0,1-5.1,3.64,8.371,8.371,0,0,1,1.742,2.418,19.9,19.9,0,0,0,5.018-3.848,22.765,22.765,0,0,0,4.342,3.822,12.055,12.055,0,0,1,1.508-2.756,17.743,17.743,0,0,1-4.16-3.3,15.86,15.86,0,0,0,1.742-3.172c.39-1.04.936-2.7,1.066-3.25.442-1.846.442-1.846.52-2.132.13-.52.13-.52.182-.7l-1.04-1.118a9.135,9.135,0,0,1-1.69.1h-.936c.312-1.092.78-2.99,1.04-4.29.338-1.638.338-1.638.52-2.444a21.032,21.032,0,0,1-2.47.1h-6.422a22.1,22.1,0,0,1-3.016-.156v2.86a13.748,13.748,0,0,1,2.158-.13Zm6.11,0a51.771,51.771,0,0,1-1.69,6.6c.52-.026.65-.026,1.378-.026h2.626a16.568,16.568,0,0,1-2.132,5.564,17.817,17.817,0,0,1-2.5-5.538,30.2,30.2,0,0,1-1.118-6.6ZM105.508-8.294a6.437,6.437,0,0,1,1.248-.156c.234,0,.832-.052,1.742-.13l.832-.052V-.624a16.73,16.73,0,0,1-.156,2.782h2.834a16.185,16.185,0,0,1-.156-2.782V-8.84c.312-.052,1.014-.13,2.08-.26.1.364.13.52.26.988l2.028-1.014a28.425,28.425,0,0,0-2.054-5.07l-1.9.91a14.053,14.053,0,0,1,.91,2,25.553,25.553,0,0,1-3.068.234c.52-.65,1.716-2.262,2.21-3.016,1.768-2.652,2.444-3.666,2.6-3.874l-2.418-1.3c-.364,1.014-.494,1.248-2.47,4.42-.364-.468-.494-.624-.988-1.17a32.942,32.942,0,0,0,2.34-3.952c.312-.572.416-.728.65-1.092l-2.6-.988a17.613,17.613,0,0,1-2.054,4.264c-.338-.338-.494-.494-1.014-.962l-1.3,2.262a25.329,25.329,0,0,1,3.51,3.8c-.572.832-.78,1.118-1.274,1.742h-.416a16.217,16.217,0,0,1-1.716-.052Zm.728.962a23.63,23.63,0,0,1-1.17,6.916L107.328.6c.624-2.158.728-2.808,1.2-7.592Zm31.07-8.684v2.21h-3.64a14.437,14.437,0,0,1-2.314-.13v2.782a18.639,18.639,0,0,1,2.678-.13h3.276V-9.23h-2.678a18.05,18.05,0,0,1-2.522-.13,21.991,21.991,0,0,1,.1,2.444v4.784a14.728,14.728,0,0,1-.13,2.548h2.834a21.732,21.732,0,0,1-.1-2.522V-6.76h2.5V-.65a16.315,16.315,0,0,1-.156,2.834h2.938a18.677,18.677,0,0,1-.13-2.808V-6.76h2.34V-2.6c0,.338-.156.442-.65.442-.286,0-.962-.052-1.378-.1a7.2,7.2,0,0,1,.468,2.47c.728.052.962.052,1.2.052,2.236,0,2.886-.468,2.886-2.08v-5.2c0-1.17.026-1.69.078-2.314a20.066,20.066,0,0,1-2.418.1h-2.522v-2.054H142.9a14.969,14.969,0,0,1,2.5.13V-13.91a21,21,0,0,1-2.392.1h-3.042v-2.21h2.21a22.446,22.446,0,0,1,2.574.1v-2.756a16.056,16.056,0,0,1-2.574.13h-2.21v-.78a11.691,11.691,0,0,1,.156-2.47H137.15a12.878,12.878,0,0,1,.156,2.522v.728h-2c.13-.52.286-1.092.338-1.378a7.928,7.928,0,0,1,.286-1.04l-2.652-.494a4.023,4.023,0,0,1-.13,1.014,14.514,14.514,0,0,1-2.054,5.148,20.326,20.326,0,0,1,2.47,1.274,21.363,21.363,0,0,0,.91-2Zm8.97-3.952a14.99,14.99,0,0,1,.156,2.756v10.4a16.256,16.256,0,0,1-.13,2.782h2.912a16.276,16.276,0,0,1-.13-2.756V-17.264a17.953,17.953,0,0,1,.13-2.7Zm4.966-1.716a24.3,24.3,0,0,1,.156,3.224V-1.482c0,.624-.234.78-1.17.78a23.6,23.6,0,0,1-3.354-.26,7.864,7.864,0,0,1,.78,2.782c1.534.052,2.34.078,2.47.078,1.742,0,2.5-.156,3.146-.6.624-.442.858-1.092.858-2.47V-18.538a17.74,17.74,0,0,1,.182-3.146ZM170.248-15.6V-.936a18.27,18.27,0,0,1-.156,3.12h3.146a17.59,17.59,0,0,1-.182-3.12v-2.99h4.264a20.259,20.259,0,0,1,2.6.156V-6.6a14.968,14.968,0,0,1-2.6.156h-4.264V-9.776h4.212a19.969,19.969,0,0,1,2.6.156v-2.808a17.949,17.949,0,0,1-2.574.156h-4.238V-15.6H178a27.178,27.178,0,0,1,2.808.13v-2.808a19.276,19.276,0,0,1-2.808.156h-7.072c.234-.572.26-.65.65-1.742.182-.52.26-.754.52-1.378l-2.938-.858a16.776,16.776,0,0,1-1.17,3.77,20.294,20.294,0,0,1-4.368,6.63,10.542,10.542,0,0,1,1.872,2.444,28.275,28.275,0,0,0,4.264-6.344Zm-7.618-6.578a14.638,14.638,0,0,1-1.092,3.432,21.231,21.231,0,0,1-4.94,7.176,12.308,12.308,0,0,1,1.378,3.042,27.1,27.1,0,0,0,2.5-2.99c-.078,2.184-.078,2.314-.078,2.964v7.41a23,23,0,0,1-.182,3.224h3.12a24.006,24.006,0,0,1-.182-3.224v-14.4c1.352-3.042,1.352-3.042,1.768-4.16.234-.624.312-.806.6-1.456Zm39.806,16.12h1.17c1.092,0,2,.052,2.886.13V-8.58a20.049,20.049,0,0,1-2.938.13h-2.288v-2h1.456a25.642,25.642,0,0,1,2.626.1v-2.6a18.214,18.214,0,0,1-2.574.1h-1.508v-1.742h1.508c1.04,0,2,.026,2.86.078a18.393,18.393,0,0,1-.078-2.262V-18.8c0-.988.026-1.612.078-2.314a29.815,29.815,0,0,1-3.016.1H188.5a30.061,30.061,0,0,1-3.406-.13A30.4,30.4,0,0,1,185.25-17a66.2,66.2,0,0,1-.806,11.96,13.711,13.711,0,0,1-1.976,5.018,14.347,14.347,0,0,1,2.34,2.366,20.134,20.134,0,0,0,2.7-8.4h2.652v5.1c-1.248.13-2.028.208-2.626.208h-.468l.442,2.964c.442-.1.572-.13,1.014-.208,4.6-.806,7.15-1.3,9.23-1.794V-1.768A18.326,18.326,0,0,0,205.5,2.21a8.033,8.033,0,0,1,1.664-2.652A16.646,16.646,0,0,1,201.6-2.236a17.013,17.013,0,0,0,2.158-1.794c.39-.312.442-.364,1.118-.962Zm-.364,0a12.085,12.085,0,0,1-2.548,2.444A7.028,7.028,0,0,1,197.5-6.058Zm-7.41,0a11.053,11.053,0,0,0,2.652,3.9c-2.574.52-2.938.6-4.42.806V-6.058Zm-2.782-6.786h-.988a16.188,16.188,0,0,1-2.21-.1v2.6a16.933,16.933,0,0,1,2.21-.1h.988v2h-4.134c.156-1.742.208-3.276.234-6.136h3.9v1.742Zm2.678,4.394v-2h4.03v2Zm0-4.394v-1.742h4.03v1.742ZM188.006-16.8v-1.82h14.846v1.82Z" transform="translate(-1537 -5097)" fill="#1f356b"/><path d="M13.1.312c1.664,0,2.7.052,3.926.156V-2.964a27.318,27.318,0,0,1-3.8.208H5.954A6.268,6.268,0,0,1,7.436-5.1,22.746,22.746,0,0,1,10.53-7.7a32.55,32.55,0,0,0,4.368-3.2,5.278,5.278,0,0,0,1.846-4.16c0-3.562-2.808-5.746-7.358-5.746a7.56,7.56,0,0,0-5.954,2.314,7.8,7.8,0,0,0-1.794,4.16l3.718.442a4.941,4.941,0,0,1,.806-2.392,3.674,3.674,0,0,1,3.3-1.534c2.21,0,3.588,1.092,3.588,2.86,0,1.326-.728,2.184-3.12,3.822a35.805,35.805,0,0,0-4.29,3.146,12.832,12.832,0,0,0-3.562,5.1A13.285,13.285,0,0,0,1.4.442,23.961,23.961,0,0,1,4.758.312ZM27.742.728A7.38,7.38,0,0,0,34.06-2.34c1.222-1.69,1.924-4.5,1.924-7.7a17.485,17.485,0,0,0-1.014-6.032,7.284,7.284,0,0,0-1.716-2.626A7.552,7.552,0,0,0,27.768-20.8a7.393,7.393,0,0,0-6.63,3.614,15.309,15.309,0,0,0-1.586,7.2A17.4,17.4,0,0,0,20.566-4a7.284,7.284,0,0,0,1.716,2.626A7.491,7.491,0,0,0,27.742.728Zm.026-3.016a3.809,3.809,0,0,1-3.328-1.69c-.832-1.2-1.326-3.458-1.326-6.188,0-2.834.572-4.966,1.716-6.318a3.5,3.5,0,0,1,2.912-1.326,3.758,3.758,0,0,1,2.834,1.092c1.17,1.274,1.82,3.64,1.82,6.656,0,3.042-.65,5.46-1.82,6.682A3.778,3.778,0,0,1,27.768-2.288Zm22.36,2.6c1.664,0,2.7.052,3.926.156V-2.964a27.318,27.318,0,0,1-3.8.208h-7.28A6.268,6.268,0,0,1,44.46-5.1a22.746,22.746,0,0,1,3.094-2.6,32.55,32.55,0,0,0,4.368-3.2,5.278,5.278,0,0,0,1.846-4.16c0-3.562-2.808-5.746-7.358-5.746a7.56,7.56,0,0,0-5.954,2.314,7.8,7.8,0,0,0-1.794,4.16l3.718.442a4.941,4.941,0,0,1,.806-2.392,3.674,3.674,0,0,1,3.3-1.534c2.21,0,3.588,1.092,3.588,2.86,0,1.326-.728,2.184-3.12,3.822a35.805,35.805,0,0,0-4.29,3.146,12.832,12.832,0,0,0-3.562,5.1A13.285,13.285,0,0,0,38.428.442a23.962,23.962,0,0,1,3.354-.13ZM64.766.728A7.38,7.38,0,0,0,71.084-2.34c1.222-1.69,1.924-4.5,1.924-7.7a17.485,17.485,0,0,0-1.014-6.032,7.284,7.284,0,0,0-1.716-2.626A7.552,7.552,0,0,0,64.792-20.8a7.393,7.393,0,0,0-6.63,3.614,15.309,15.309,0,0,0-1.586,7.2A17.4,17.4,0,0,0,57.59-4a7.284,7.284,0,0,0,1.716,2.626A7.491,7.491,0,0,0,64.766.728Zm.026-3.016a3.809,3.809,0,0,1-3.328-1.69c-.832-1.2-1.326-3.458-1.326-6.188,0-2.834.572-4.966,1.716-6.318a3.5,3.5,0,0,1,2.912-1.326A3.758,3.758,0,0,1,67.6-16.718c1.17,1.274,1.82,3.64,1.82,6.656,0,3.042-.65,5.46-1.82,6.682A3.779,3.779,0,0,1,64.792-2.288Z" transform="translate(-1311 -5097)" fill="#1f356b"/><path d="M2.6-.833a17.831,17.831,0,0,1-.1,2.057H4.522V.2h7.905v1.02h2.057a17.222,17.222,0,0,1-.1-2.057V-11.815a15.361,15.361,0,0,1,.085-1.734,13.679,13.679,0,0,1-1.836.085H4.4a15.007,15.007,0,0,1-1.887-.085c.051.561.085,1.156.085,1.819ZM4.522-11.662h7.905v3.944H4.522Zm0,5.729h7.905v4.352H4.522ZM23.375-9.639a15.987,15.987,0,0,1-5.916,6.528,5.86,5.86,0,0,1,1.156,1.785,16.251,16.251,0,0,0,2.754-2.38v1.921a12.162,12.162,0,0,1,1.7-.1h1.343V-.731a15.7,15.7,0,0,1-.119,2.108h2.142a15.361,15.361,0,0,1-.119-2.108V-1.887h1.513a12.334,12.334,0,0,1,1.7.1V-3.723A18.952,18.952,0,0,0,32.385-1.36a6.937,6.937,0,0,1,1.156-1.853,14.546,14.546,0,0,1-3.706-2.856,16.857,16.857,0,0,1-2.55-3.57h3.638a20.079,20.079,0,0,1,2.057.1v-2.074a13.958,13.958,0,0,1-2.057.119H26.316v-1.224a8.487,8.487,0,0,1,.119-1.564H24.31a10.567,10.567,0,0,1,.1,1.581v1.207H20.043a14.728,14.728,0,0,1-2.023-.119v2.074a19.411,19.411,0,0,1,2.023-.1Zm2.941,5.916V-6.409A13.737,13.737,0,0,0,26.163-8.3a18.4,18.4,0,0,0,3.3,4.505,10.638,10.638,0,0,1-1.5.068Zm-1.9,0H22.967a10.762,10.762,0,0,1-1.513-.068A16.859,16.859,0,0,0,24.548-8.3a16.647,16.647,0,0,0-.136,1.9Zm17.017-8.721v.646H37.111a19,19,0,0,1-2.091-.068,10.886,10.886,0,0,1,.068,1.394V-9.4a7.855,7.855,0,0,1-.1,1.343h1.768v-2.4h4.675v1.683a13.71,13.71,0,0,1-.085,1.6H43.3a9.994,9.994,0,0,1-.068-1.6v-1.683h4.93v2.4h1.751A7.868,7.868,0,0,1,49.827-9.4v-1.071a8.154,8.154,0,0,1,.068-1.394,19.583,19.583,0,0,1-2.108.068H43.231v-.646h3.893a17.265,17.265,0,0,1,1.751.068v-1.649a15.785,15.785,0,0,1-1.921.1H37.978a16.815,16.815,0,0,1-1.921-.1v1.649c.561-.051,1.037-.068,1.785-.068Zm7.089,7.276a14.024,14.024,0,0,1,.068-1.649,14.676,14.676,0,0,1-1.683.068H37.927a13.752,13.752,0,0,1-1.615-.068A15.3,15.3,0,0,1,36.4-5.185v3.128a12.975,12.975,0,0,1-.1,1.683h1.887v-.867h3.247V-.085c0,1.139.493,1.309,3.825,1.309,2.907,0,3.876-.119,4.369-.544.442-.374.629-1.088.68-2.567a5.971,5.971,0,0,1-1.785-.68ZM43.2-1.241H48.45c-.051.578-.119.731-.323.833a8.043,8.043,0,0,1-2.414.221,8.115,8.115,0,0,1-2.4-.187c-.085-.034-.119-.119-.119-.255Zm-1.768-4.2v.782H38.182V-5.44Zm1.768,0h3.536v.782H43.2ZM41.429-3.451v.85H38.182v-.85Zm1.768,0h3.536v.85H43.2ZM37.468-8.874a6.184,6.184,0,0,1,.884-.051h1.5a5.925,5.925,0,0,1,.867.051v-1.139a5.767,5.767,0,0,1-.867.051h-1.5a4.063,4.063,0,0,1-.884-.051Zm0,1.6a6.184,6.184,0,0,1,.884-.051h1.5a5.464,5.464,0,0,1,.867.051V-8.415a5.613,5.613,0,0,1-.867.051h-1.5a4.063,4.063,0,0,1-.884-.051ZM44-8.874a6.021,6.021,0,0,1,.884-.051h1.734a6.088,6.088,0,0,1,.867.051v-1.139a5.766,5.766,0,0,1-.867.051H44.88A3.98,3.98,0,0,1,44-10.013Zm0,1.6a6.184,6.184,0,0,1,.884-.051h1.734a5.613,5.613,0,0,1,.867.051V-8.415a5.613,5.613,0,0,1-.867.051H44.88A3.98,3.98,0,0,1,44-8.415Zm14.722-.306H54.2a20.623,20.623,0,0,1-2.363-.1v2.057a21.731,21.731,0,0,1,2.312-.1h4.573v4.488c0,.374-.119.442-.816.442A14.994,14.994,0,0,1,55.437-1a6.843,6.843,0,0,1,.527,2.04c1.224.051,1.564.068,1.9.068,2.261,0,2.839-.374,2.839-1.87V-5.729h4.165a20.859,20.859,0,0,1,2.312.1V-7.684a19.038,19.038,0,0,1-2.312.1H60.707v-.731a23.122,23.122,0,0,0,3.621-2.618c1.156-1.105,1.156-1.105,1.6-1.513l-1.105-1.241a6.955,6.955,0,0,1-1.479.085h-7.7a16.718,16.718,0,0,1-2.04-.1V-11.7a16.83,16.83,0,0,1,2.057-.1h6.783a14.93,14.93,0,0,1-2.89,2.176h-.884c.034.391.051.748.051,1.292ZM75.48-11.526v.8H72A12.685,12.685,0,0,1,70.38-10.8a11.749,11.749,0,0,1,.068,1.36v3.349a11.944,11.944,0,0,1-.068,1.36A13.387,13.387,0,0,1,72-4.794h7.191v.8H70.805a12.6,12.6,0,0,1-1.836-.1v1.751a15.14,15.14,0,0,1,1.8-.1h8.415V-.731c0,.34-.1.391-.731.391a13.335,13.335,0,0,1-1.9-.136,6.843,6.843,0,0,1,.51,1.734c.561.017.935.034,1.173.034a4.177,4.177,0,0,0,2.21-.34,1.209,1.209,0,0,0,.527-1.19v-2.21h1.343a15.058,15.058,0,0,1,1.785.1V-4.1a10.466,10.466,0,0,1-1.819.1H80.971v-.8a14.26,14.26,0,0,1,1.7.068,11.372,11.372,0,0,1-.068-1.36V-9.435a11.372,11.372,0,0,1,.068-1.36,12.685,12.685,0,0,1-1.615.068H77.265v-.8H82.3a13.143,13.143,0,0,1,1.785.1v-1.734a10.466,10.466,0,0,1-1.819.1h-5a7.376,7.376,0,0,1,.1-1.292H75.378a6.978,6.978,0,0,1,.1,1.292H70.805a12.6,12.6,0,0,1-1.836-.1v1.734a13.239,13.239,0,0,1,1.8-.1Zm0,2.21v.884H72.216v-.884Zm1.785,0h3.553v.884H77.265ZM75.48-7.14V-6.2H72.216V-7.14Zm1.785,0h3.553V-6.2H77.265ZM75.8-.255a9.843,9.843,0,0,0-2.448-2.108L72-1.275A10.058,10.058,0,0,1,74.375.969ZM88.264-7.463h3.043c.6,0,1.156.017,1.564.034a15.128,15.128,0,0,1-.051-1.513v-3.332c0-.663.017-1.1.051-1.581a14.364,14.364,0,0,1-1.734.068H88.128a15.1,15.1,0,0,1-1.734-.068,19.006,19.006,0,0,1,.068,1.921V-.8a16.425,16.425,0,0,1-.1,2.108h2.006a14.912,14.912,0,0,1-.1-2.091Zm0-4.845h2.89v1.088h-2.89Zm0,2.414h2.89v1.071h-2.89Zm12.308-2.057a15.133,15.133,0,0,1,.085-1.9,15.78,15.78,0,0,1-1.768.068H95.727a14.73,14.73,0,0,1-1.734-.068c.034.527.051,1,.051,1.581v3.332c0,.731-.017,1.156-.051,1.547.357-.034.952-.051,1.564-.051h3.2V-1.02c0,.357-.119.425-.646.425a18.348,18.348,0,0,1-2.3-.153,6.275,6.275,0,0,1,.459,1.853c.7.017,1.088.034,1.394.034,2.448,0,2.907-.306,2.907-1.938Zm-4.828-.357h3.009v1.088H95.744Zm0,2.414h3.009v1.071H95.744Zm13.889,6.613V-.765c0,.34-.119.391-.867.391a15.474,15.474,0,0,1-2.108-.17,6.451,6.451,0,0,1,.561,1.8c.884.051,1.445.068,1.666.068,1.53,0,2.108-.136,2.4-.561A1.641,1.641,0,0,0,111.5-.306V-3.281h4.42a16.794,16.794,0,0,1,2.108.1V-5.066a14,14,0,0,1-2.091.119H111.5v-.017a23.8,23.8,0,0,0,3.4-2.482c.323-.272.323-.272.612-.51l-.935-1.037a7.683,7.683,0,0,1-1.292.068h-5.627a12.4,12.4,0,0,1-1.717-.085v1.7a16.842,16.842,0,0,1,1.7-.068h4.675A9,9,0,0,1,110.313-6h-.731a7.953,7.953,0,0,1,.051.935v.119h-4.624a14.425,14.425,0,0,1-2.057-.119v1.887a16.562,16.562,0,0,1,2.074-.1Zm-4.539-8.4a16.35,16.35,0,0,1-2.006-.068,11.173,11.173,0,0,1,.068,1.411v1.564a7.453,7.453,0,0,1-.085,1.309h1.853V-10.1h11.084v2.635h1.853a10.305,10.305,0,0,1-.085-1.292v-1.581a10.668,10.668,0,0,1,.068-1.411,20.462,20.462,0,0,1-2.091.068h-.765a17.811,17.811,0,0,0,1.275-2.04l-1.836-.51a11.263,11.263,0,0,1-1.394,2.55h-1.445a13.451,13.451,0,0,0-1.173-2.635l-1.768.493a9.943,9.943,0,0,1,1.037,2.142h-1.8a12.534,12.534,0,0,0-1.547-2.431l-1.717.51a9.848,9.848,0,0,1,1.275,1.921Zm26.35,4.709A10.235,10.235,0,0,1,130.1-4.233a10.79,10.79,0,0,1-1.343-2.652l-1.547.782a13.383,13.383,0,0,0,1.768,3.264A10.172,10.172,0,0,1,124.61-.187a5.964,5.964,0,0,1,1.054,1.649A12.422,12.422,0,0,0,130.1-1.479a12.1,12.1,0,0,0,4.539,2.907,6.8,6.8,0,0,1,.952-1.853,10.269,10.269,0,0,1-4.352-2.448,17.515,17.515,0,0,0,1.887-3.383Zm-3.672-3.366a9.158,9.158,0,0,1-2.329,3.349,7.644,7.644,0,0,1-1.6-2.516h.68a9.576,9.576,0,0,1,.986.051V-11.2a5.893,5.893,0,0,1-1.02.068h-.68v-1.411a14.59,14.59,0,0,1,.085-1.768h-1.9a11.464,11.464,0,0,1,.085,1.768v1.411h-.85a9.352,9.352,0,0,1-1.309-.068v1.768a10,10,0,0,1,1.309-.068h.663a15.28,15.28,0,0,1-2.448,5.236,11.263,11.263,0,0,1,.935,1.921,13.906,13.906,0,0,0,1.8-4.012c-.051.918-.068,1.394-.068,1.394l-.017.867V-.612a13.56,13.56,0,0,1-.119,2.091h1.938a16.866,16.866,0,0,1-.1-2.091V-4.726c0-.187-.017-1.054-.017-1.122-.034-.935-.034-.935-.051-1.241a15.339,15.339,0,0,0,1.105,2.006,9.765,9.765,0,0,1,.561-1.241,5.339,5.339,0,0,1,.833,1.122A13.476,13.476,0,0,0,129.4-9.6Zm1.445-1.853h-1.479a14.09,14.09,0,0,1-1.887-.1V-10.4a15.1,15.1,0,0,1,1.9-.1h5.61c.748,0,1.326.034,1.887.085v-1.87a13.987,13.987,0,0,1-1.87.1H131.07v-.731a6.232,6.232,0,0,1,.085-1.241h-2.023a6.718,6.718,0,0,1,.085,1.275Zm1.7,2.635a12.348,12.348,0,0,0,3.434,4.182A6.979,6.979,0,0,1,135.4-6.987a10.185,10.185,0,0,1-3.009-3.4Z" transform="translate(-1537 -5070)" fill="#1f356b"/><path d="M13.991.2a4.223,4.223,0,0,1,.187-.833c.034-.153.119-.459.238-.935l2.72-9.741a15.648,15.648,0,0,1,.663-2.023h-2.72a9.056,9.056,0,0,1-.289,1.819L13.209-5.1c-.034.153-.17.816-.221,1.088-.1.6-.1.6-.187.986-.272-1.275-.357-1.615-.476-2.057l-1.9-6.545a12.1,12.1,0,0,1-.391-1.7H7.939a10.812,10.812,0,0,1-.374,1.734L5.678-5.032c-.136.476-.255.952-.476,2.006-.1-.6-.289-1.462-.408-1.989L3.213-11.492a9.358,9.358,0,0,1-.306-1.836H.187a16.947,16.947,0,0,1,.68,2.023l2.7,9.758C3.944-.221,3.944-.221,4.029.2H6.29a14.407,14.407,0,0,1,.391-1.717l1.8-6.324c.153-.544.323-1.207.51-2.176a21.136,21.136,0,0,0,.493,2.176l1.819,6.324A17.221,17.221,0,0,1,11.713.2Zm14.2-4.318c-.034-.391-.034-.442-.034-.476a6.988,6.988,0,0,0-.493-2.584A4.319,4.319,0,0,0,23.426-9.86c-2.907,0-4.794,2.057-4.794,5.2,0,3.179,1.9,5.185,4.913,5.185a4.828,4.828,0,0,0,3.5-1.309,4.778,4.778,0,0,0,1.037-1.564l-2.006-.646a2.471,2.471,0,0,1-.493.884,2.688,2.688,0,0,1-2.04.85A2.672,2.672,0,0,1,21.42-2.21a3.16,3.16,0,0,1-.629-1.9ZM20.842-5.8a2.553,2.553,0,0,1,2.55-2.312,2.424,2.424,0,0,1,1.836.68A2.668,2.668,0,0,1,25.976-5.8ZM32.13.2V-.629c0-.2,0-.391-.017-.612A3.7,3.7,0,0,0,35.5.442,4.359,4.359,0,0,0,38.76-.782,5.557,5.557,0,0,0,40.154-4.76c0-3.162-1.683-5.015-4.539-5.015a3.963,3.963,0,0,0-3.5,1.717c.017-.578.034-1,.034-1.275v-1.7a17.327,17.327,0,0,1,.119-2.3h-2.4a19.825,19.825,0,0,1,.119,2.278v8.959A17.846,17.846,0,0,1,29.869.2ZM37.944-4.76c0,2.057-1.1,3.383-2.822,3.383a2.962,2.962,0,0,1-1.785-.629,3.546,3.546,0,0,1-1.122-2.686,3.661,3.661,0,0,1,.833-2.363A3.033,3.033,0,0,1,35.36-7.99C36.924-7.99,37.944-6.715,37.944-4.76Zm15.147-8.347a10.7,10.7,0,0,1-2.193.119h-5a10.9,10.9,0,0,1-2.193-.119v2.074a14.046,14.046,0,0,1,2.159-.085h5.066a13.9,13.9,0,0,1,2.159.085Zm1.071,6.239a14.934,14.934,0,0,1,2.159.085V-8.806a11.112,11.112,0,0,1-2.193.119H44.183a11.112,11.112,0,0,1-2.193-.119v2.023a14.934,14.934,0,0,1,2.159-.085H48.28c-.119,3.3-1.445,4.981-4.777,6.035A5.4,5.4,0,0,1,44.9,1.054c3.842-1.479,5.44-3.723,5.627-7.922Zm3.6-5.423a10.424,10.424,0,0,0-1.5-2.584l-1.224.442A12.348,12.348,0,0,1,56.508-11.8ZM52.819-13.77a12.533,12.533,0,0,1,1.5,2.72l1.275-.476a12,12,0,0,0-1.513-2.686Zm11.1,3.417v-1.768a8.6,8.6,0,0,1,.068-1.445H61.761a7.891,7.891,0,0,1,.085,1.513v1.7h-1a11.315,11.315,0,0,1-2.21-.119V-8.4a14.919,14.919,0,0,1,2.176-.085h1.037v2.5a10.932,10.932,0,0,1-.068,1.462h2.21A9.7,9.7,0,0,1,63.92-5.95V-8.483h4.4a10.728,10.728,0,0,1-.544,4.25c-.731,1.649-2.159,2.72-4.573,3.4a5.2,5.2,0,0,1,1.275,1.8A8.2,8.2,0,0,0,69.53-2.992c.629-1.343.8-2.431.833-5.491h1.122a15.055,15.055,0,0,1,2.193.085v-2.074a11.414,11.414,0,0,1-2.227.119H70.38c0-.68.017-1.343.017-1.972a6.979,6.979,0,0,1,.051-1.122H68.272a12.559,12.559,0,0,1,.068,1.683v1.411Zm6.511-3.757a10.244,10.244,0,0,1,1.156,2.669l1.173-.34a10.4,10.4,0,0,0-1.173-2.652Zm4.335,1.751a10.808,10.808,0,0,0-1.156-2.55l-1.088.34A10.761,10.761,0,0,1,73.678-12ZM87.125-13.8a13.6,13.6,0,0,1-3.162,3.179A24.827,24.827,0,0,1,75.038-6.2a6.394,6.394,0,0,1,1.139,1.938,27.544,27.544,0,0,0,6.069-2.754v5.984A9.561,9.561,0,0,1,82.144.8h2.38a12.86,12.86,0,0,1-.085-1.887V-8.347a30.062,30.062,0,0,0,4.012-3.5,7,7,0,0,1,.629-.595Zm6.086,2.89a17.848,17.848,0,0,1,4.335,3.451l1.462-1.853A24.077,24.077,0,0,0,94.622-12.6Zm.6,11.22A6.018,6.018,0,0,1,94.928.017a18.362,18.362,0,0,0,6.477-2.55A14.92,14.92,0,0,0,106.794-9.2a7.331,7.331,0,0,1-1.8-1.666,14.2,14.2,0,0,1-1.734,3.4A11.358,11.358,0,0,1,98.209-3.3,16.2,16.2,0,0,1,93.177-2.04Zm27.149-4.828-4.1.918a7.547,7.547,0,0,1-1.513.238h-.085l.221,1.972c.425-.119.986-.272,1.649-.425l3.825-.85V-.561a12.326,12.326,0,0,1-.1,2.023h2.057a12.466,12.466,0,0,1-.1-2.006V-3.077l.136-.034a13.79,13.79,0,0,1,1.615-.289l-.153-1.989a8.413,8.413,0,0,1-1.6.459v-7.327a12.015,12.015,0,0,1,.1-1.955h-2.057a11.634,11.634,0,0,1,.1,1.972Zm-9.248-5.3h-1.071a8.12,8.12,0,0,1-1.53-.1v1.853a8.059,8.059,0,0,1,1.5-.1h.884a12.875,12.875,0,0,1-.816,1.921A10.558,10.558,0,0,1,108.749-3.5a6.088,6.088,0,0,1,1,1.768,11.841,11.841,0,0,0,2.057-3.825c-.085,1.275-.1,1.768-.1,2.159V-.646a18.051,18.051,0,0,1-.1,2.091h2.006a14.347,14.347,0,0,1-.1-2.091V-3.978c-.034-1.037-.051-1.785-.085-2.21a7.522,7.522,0,0,0,1.6,2.329,5.922,5.922,0,0,1,.918-1.666,7.308,7.308,0,0,1-2.346-2.652h.816a7.251,7.251,0,0,1,1.292.085V-9.911a6.315,6.315,0,0,1-1.258.085h-.935v-2.091c.85-.238,1.683-.51,2.142-.7a1.062,1.062,0,0,1,.272-.119L114.869-14.3c-1.02.663-3.043,1.156-5.8,1.445a5.2,5.2,0,0,1,.646,1.632c1-.136,1.292-.17,1.989-.306Zm4.59-2.057a14.552,14.552,0,0,1,3.213,2.805l1.156-1.53a17.124,17.124,0,0,0-3.281-2.669Zm-.578,4.216a15.862,15.862,0,0,1,3.23,2.788l1.071-1.513a22.416,22.416,0,0,0-3.213-2.635Z" transform="translate(-1362 -5070)" fill="#1f356b"/></g></svg>