<svg xmlns="http://www.w3.org/2000/svg" xmlns:xlink="http://www.w3.org/1999/xlink" width="224.951" height="39.514" viewBox="0 0 224.951 39.514"><defs><linearGradient id="a" x1="0.523" y1="1.208" x2="0.524" y2="0.009" gradientUnits="objectBoundingBox"><stop offset="0" stop-color="#fff"/><stop offset="1" stop-color="#fff"/></linearGradient></defs><path d="M-232.705,5491.644q-2.456-1.375-2.54-5.407h8.23q0,1.848,1.344,1.848a1.331,1.331,0,0,0,1.28-.568,5.705,5.705,0,0,0,.315-2.372v-2.1a8.116,8.116,0,0,1-2.3,1.491,6.518,6.518,0,0,1-2.531.5,7.02,7.02,0,0,1-3.768-.923,4.737,4.737,0,0,1-2.027-2.425,13.071,13.071,0,0,1-.545-4.273V5467.3q0-3.969,1.427-5.711a5.29,5.29,0,0,1,4.346-1.744,6.45,6.45,0,0,1,2.909.651,6.907,6.907,0,0,1,2.341,1.953l.609-2.1h7.895v21.458a47.2,47.2,0,0,1-.2,5.618,5.59,5.59,0,0,1-1.417,2.687,7.6,7.6,0,0,1-3.39,2.162,17.1,17.1,0,0,1-5.471.745A13.3,13.3,0,0,1-232.705,5491.644Zm6.247-26.266a5.985,5.985,0,0,0-.305,2.361v9.365a7.847,7.847,0,0,0,.231,2.425.935.935,0,0,0,.966.555,1.04,1.04,0,0,0,1.091-.671,11.049,11.049,0,0,0,.253-3.044v-8.63a8.058,8.058,0,0,0-.221-2.435.94.94,0,0,0-.976-.524A1.07,1.07,0,0,0-226.458,5465.378Zm-128.2,22.466a7.987,7.987,0,0,1-2.95-2.678,8.5,8.5,0,0,1-1.26-3.35,40.141,40.141,0,0,1-.251-5.259v-10.1a33.833,33.833,0,0,1,.525-7.077,7.263,7.263,0,0,1,3.012-4.041,10.561,10.561,0,0,1,6.436-1.837,11.981,11.981,0,0,1,6.446,1.6,7.525,7.525,0,0,1,3.338,3.79,20.039,20.039,0,0,1,.777,6.372v1.47h-8.839v-3.086a15.254,15.254,0,0,0-.253-3.654,1.115,1.115,0,0,0-1.2-.734,1.111,1.111,0,0,0-1.113.629,10.252,10.252,0,0,0-.294,3.233v16.314a9.712,9.712,0,0,0,.294,3.014,1.146,1.146,0,0,0,1.176.724,1.3,1.3,0,0,0,1.312-.818,9.571,9.571,0,0,0,.347-3.191v-4.032h-1.786v-5.164h10.352v18.245h-5.564l-.82-2.436a6.173,6.173,0,0,1-2.277,2.363,6.419,6.419,0,0,1-3.245.788A8.433,8.433,0,0,1-354.661,5487.844Zm-58.758-.327a6.841,6.841,0,0,1-3.338-3.895,25.541,25.541,0,0,1-.818-7.485v-9.932a44.079,44.079,0,0,1,.251-5.512,7.7,7.7,0,0,1,1.5-3.537,8.377,8.377,0,0,1,3.464-2.678,12.537,12.537,0,0,1,5.092-.975,12.439,12.439,0,0,1,6.446,1.511,7.244,7.244,0,0,1,3.339,3.77,22.681,22.681,0,0,1,.8,7.022v3.233h-8.841v-5.921a10.633,10.633,0,0,0-.283-3.223,1.215,1.215,0,0,0-1.248-.639,1.307,1.307,0,0,0-1.386.776,11.826,11.826,0,0,0-.294,3.36v15.789a11.007,11.007,0,0,0,.294,3.233,1.257,1.257,0,0,0,1.322.756,1.243,1.243,0,0,0,1.292-.756,12.284,12.284,0,0,0,.3-3.548v-4.262h8.841v1.322a26.055,26.055,0,0,1-.745,7.475,7.637,7.637,0,0,1-3.3,3.864,11.3,11.3,0,0,1-6.287,1.659A13.021,13.021,0,0,1-413.419,5487.518Zm98.179.578a6.493,6.493,0,0,1-3.034-1.869,7.387,7.387,0,0,1-1.543-3.024,22.725,22.725,0,0,1-.462-5.323v-7.139a17.465,17.465,0,0,1,.84-6.067,6.97,6.97,0,0,1,3.024-3.506,10.638,10.638,0,0,1,5.584-1.324,12.762,12.762,0,0,1,4.9.85,7.894,7.894,0,0,1,3.16,2.216,7.84,7.84,0,0,1,1.521,2.813,17.475,17.475,0,0,1,.41,4.409v6.824a28.858,28.858,0,0,1-.378,5.513,7.743,7.743,0,0,1-1.617,3.275,7.3,7.3,0,0,1-3.181,2.245,12.692,12.692,0,0,1-4.461.725A15.926,15.926,0,0,1-315.24,5488.1Zm3.7-22.76a8.484,8.484,0,0,0-.253,2.7v12.578a8.122,8.122,0,0,0,.253,2.572.967.967,0,0,0,.987.6.974.974,0,0,0,1-.545,7.116,7.116,0,0,0,.241-2.353v-12.85a9.249,9.249,0,0,0-.231-2.7.951.951,0,0,0-.987-.556A.993.993,0,0,0-311.545,5465.336Zm-77.433,22.76a6.493,6.493,0,0,1-3.034-1.869,7.387,7.387,0,0,1-1.543-3.024,22.725,22.725,0,0,1-.462-5.323v-7.139a17.43,17.43,0,0,1,.84-6.067,6.974,6.974,0,0,1,3.022-3.506,10.644,10.644,0,0,1,5.586-1.324,12.762,12.762,0,0,1,4.9.85,7.879,7.879,0,0,1,3.159,2.216,7.823,7.823,0,0,1,1.523,2.813,17.475,17.475,0,0,1,.41,4.409v6.824a28.858,28.858,0,0,1-.378,5.513,7.76,7.76,0,0,1-1.617,3.275,7.3,7.3,0,0,1-3.181,2.245,12.7,12.7,0,0,1-4.461.725A15.92,15.92,0,0,1-388.978,5488.1Zm3.7-22.76a8.484,8.484,0,0,0-.253,2.7v12.578a8.122,8.122,0,0,0,.253,2.572.967.967,0,0,0,.987.6.976.976,0,0,0,1-.545,7.116,7.116,0,0,0,.241-2.353v-12.85a9.249,9.249,0,0,0-.231-2.7.952.952,0,0,0-.987-.556A.992.992,0,0,0-385.283,5465.336Zm138.888,22.875v-19.3a17.92,17.92,0,0,0-.189-3.506c-.126-.42-.475-.629-1.049-.629a1.05,1.05,0,0,0-1.135.724,18.2,18.2,0,0,0-.231,3.874v18.833h-8.482v-27.861h8.63l-.148,2.562a6.36,6.36,0,0,1,2.258-2.3,6.065,6.065,0,0,1,3.076-.766,5.836,5.836,0,0,1,3.569,1.029,4.575,4.575,0,0,1,1.784,2.594,23.688,23.688,0,0,1,.4,5.217v19.526Zm-22.864,0v-27.861h8.734v27.861Zm-13.983,0q-.756-5.1-1.744-13.437-.336,3.653-.944,7.39l-.945,6.046h-9.217l-3.591-27.861h7.306q.085,1.092,1.848,15.936.124-1.511,1.889-15.936h7.034l1.72,15.936a145.055,145.055,0,0,1,1.933-15.936h7.306l-3.38,27.861Zm-52.176,0v-27.861h8.482l-.336,3.653q1.848-3.925,5.355-4.157v9.806a7.1,7.1,0,0,0-3.422.63,2.641,2.641,0,0,0-1.344,1.752,31.329,31.329,0,0,0-.253,5.176v11Zm130.091-6.886v-7.517h-7.537v-5.124h7.537v-7.558h5.124v7.558h7.579v5.124H-200.2v7.517Zm-167.213-4.115v-5.858h11.15v5.858Zm103.281-18.56v-4.43h8.734v4.43Z" transform="translate(417.575 -5453.505)" fill="url(#a)"/></svg>