<svg xmlns="http://www.w3.org/2000/svg" width="1386.656" height="65.898" viewBox="0 0 1386.656 65.898"><g transform="translate(-2747.887 -7024.43)"><path d="M-198.668-63.242v50.586h10V0h-26.445V-63.242Zm42.43,0V0h-16.445V-63.242Zm57.664,0L-106.934,0h-24.961l-9.492-63.242h17.344q3.008,26.133,4.3,44.18,1.289-18.242,2.7-32.422l1.133-11.758Zm14.813,0H-56.34v12.656H-67.316v11.992h10.273v12.031H-67.316v13.906h12.07V0H-83.762Zm110.406,0L18.285,0H-6.676l-9.492-63.242H1.176q3.008,26.133,4.3,44.18Q6.762-37.3,8.168-51.484L9.3-63.242Zm31.258,0V0H41.457V-63.242Zm18.6,0h12.3q11.914,0,16.113,1.094a12.355,12.355,0,0,1,6.387,3.594,11.378,11.378,0,0,1,2.734,5.566,84.116,84.116,0,0,1,.547,12.051v22.148q0,8.516-.8,11.387A8.564,8.564,0,0,1,111-2.91a11.617,11.617,0,0,1-4.922,2.266A44.484,44.484,0,0,1,97.246,0H76.5Zm16.445,10.82v41.6q3.555,0,4.375-1.426T98.145-20V-44.57a32.984,32.984,0,0,0-.273-5.508,2.612,2.612,0,0,0-1.25-1.777A8.116,8.116,0,0,0,92.949-52.422Zm39.773-10.82h27.422v12.656H149.168v11.992h10.273v12.031H149.168v13.906h12.07V0H132.723Zm82.82,37.031q0,9.531-.449,13.5a15.122,15.122,0,0,1-2.812,7.246A15.148,15.148,0,0,1,205.895-.43a23.25,23.25,0,0,1-9.375,1.758A23.822,23.822,0,0,1,187.4-.332a15,15,0,0,1-6.5-4.98,14.969,14.969,0,0,1-2.93-7.227,133.535,133.535,0,0,1-.469-13.672v-10.82q0-9.531.449-13.5a15.122,15.122,0,0,1,2.813-7.246,15.148,15.148,0,0,1,6.387-5.039,23.25,23.25,0,0,1,9.375-1.758,23.822,23.822,0,0,1,9.121,1.66,15,15,0,0,1,6.5,4.98,14.969,14.969,0,0,1,2.93,7.227,133.535,133.535,0,0,1,.469,13.672ZM199.1-46.992a19.6,19.6,0,0,0-.488-5.645,1.944,1.944,0,0,0-2.012-1.23,2.246,2.246,0,0,0-1.973,1q-.684,1-.684,5.879v29.531q0,5.508.449,6.8a1.959,1.959,0,0,0,2.09,1.289,2.023,2.023,0,0,0,2.148-1.484,31.287,31.287,0,0,0,.469-7.07Z" transform="translate(2963 7089)" fill="#49d9bd"/><path d="M-198.668-63.242v50.586h10V0h-26.445V-63.242Zm42.43,0V0h-16.445V-63.242Zm57.664,0L-106.934,0h-24.961l-9.492-63.242h17.344q3.008,26.133,4.3,44.18,1.289-18.242,2.7-32.422l1.133-11.758Zm14.813,0H-56.34v12.656H-67.316v11.992h10.273v12.031H-67.316v13.906h12.07V0H-83.762Zm110.406,0L18.285,0H-6.676l-9.492-63.242H1.176q3.008,26.133,4.3,44.18Q6.762-37.3,8.168-51.484L9.3-63.242Zm31.258,0V0H41.457V-63.242Zm18.6,0h12.3q11.914,0,16.113,1.094a12.355,12.355,0,0,1,6.387,3.594,11.378,11.378,0,0,1,2.734,5.566,84.116,84.116,0,0,1,.547,12.051v22.148q0,8.516-.8,11.387A8.564,8.564,0,0,1,111-2.91a11.617,11.617,0,0,1-4.922,2.266A44.484,44.484,0,0,1,97.246,0H76.5Zm16.445,10.82v41.6q3.555,0,4.375-1.426T98.145-20V-44.57a32.984,32.984,0,0,0-.273-5.508,2.612,2.612,0,0,0-1.25-1.777A8.116,8.116,0,0,0,92.949-52.422Zm39.773-10.82h27.422v12.656H149.168v11.992h10.273v12.031H149.168v13.906h12.07V0H132.723Zm82.82,37.031q0,9.531-.449,13.5a15.122,15.122,0,0,1-2.812,7.246A15.148,15.148,0,0,1,205.895-.43a23.25,23.25,0,0,1-9.375,1.758A23.822,23.822,0,0,1,187.4-.332a15,15,0,0,1-6.5-4.98,14.969,14.969,0,0,1-2.93-7.227,133.535,133.535,0,0,1-.469-13.672v-10.82q0-9.531.449-13.5a15.122,15.122,0,0,1,2.813-7.246,15.148,15.148,0,0,1,6.387-5.039,23.25,23.25,0,0,1,9.375-1.758,23.822,23.822,0,0,1,9.121,1.66,15,15,0,0,1,6.5,4.98,14.969,14.969,0,0,1,2.93,7.227,133.535,133.535,0,0,1,.469,13.672ZM199.1-46.992a19.6,19.6,0,0,0-.488-5.645,1.944,1.944,0,0,0-2.012-1.23,2.246,2.246,0,0,0-1.973,1q-.684,1-.684,5.879v29.531q0,5.508.449,6.8a1.959,1.959,0,0,0,2.09,1.289,2.023,2.023,0,0,0,2.148-1.484,31.287,31.287,0,0,0,.469-7.07Z" transform="translate(3441 7089)" fill="#49d9bd"/><path d="M-198.668-63.242v50.586h10V0h-26.445V-63.242Zm42.43,0V0h-16.445V-63.242Zm57.664,0L-106.934,0h-24.961l-9.492-63.242h17.344q3.008,26.133,4.3,44.18,1.289-18.242,2.7-32.422l1.133-11.758Zm14.813,0H-56.34v12.656H-67.316v11.992h10.273v12.031H-67.316v13.906h12.07V0H-83.762Zm110.406,0L18.285,0H-6.676l-9.492-63.242H1.176q3.008,26.133,4.3,44.18Q6.762-37.3,8.168-51.484L9.3-63.242Zm31.258,0V0H41.457V-63.242Zm18.6,0h12.3q11.914,0,16.113,1.094a12.355,12.355,0,0,1,6.387,3.594,11.378,11.378,0,0,1,2.734,5.566,84.116,84.116,0,0,1,.547,12.051v22.148q0,8.516-.8,11.387A8.564,8.564,0,0,1,111-2.91a11.617,11.617,0,0,1-4.922,2.266A44.484,44.484,0,0,1,97.246,0H76.5Zm16.445,10.82v41.6q3.555,0,4.375-1.426T98.145-20V-44.57a32.984,32.984,0,0,0-.273-5.508,2.612,2.612,0,0,0-1.25-1.777A8.116,8.116,0,0,0,92.949-52.422Zm39.773-10.82h27.422v12.656H149.168v11.992h10.273v12.031H149.168v13.906h12.07V0H132.723Zm82.82,37.031q0,9.531-.449,13.5a15.122,15.122,0,0,1-2.812,7.246A15.148,15.148,0,0,1,205.895-.43a23.25,23.25,0,0,1-9.375,1.758A23.822,23.822,0,0,1,187.4-.332a15,15,0,0,1-6.5-4.98,14.969,14.969,0,0,1-2.93-7.227,133.535,133.535,0,0,1-.469-13.672v-10.82q0-9.531.449-13.5a15.122,15.122,0,0,1,2.813-7.246,15.148,15.148,0,0,1,6.387-5.039,23.25,23.25,0,0,1,9.375-1.758,23.822,23.822,0,0,1,9.121,1.66,15,15,0,0,1,6.5,4.98,14.969,14.969,0,0,1,2.93,7.227,133.535,133.535,0,0,1,.469,13.672ZM199.1-46.992a19.6,19.6,0,0,0-.488-5.645,1.944,1.944,0,0,0-2.012-1.23,2.246,2.246,0,0,0-1.973,1q-.684,1-.684,5.879v29.531q0,5.508.449,6.8a1.959,1.959,0,0,0,2.09,1.289,2.023,2.023,0,0,0,2.148-1.484,31.287,31.287,0,0,0,.469-7.07Z" transform="translate(3919 7089)" fill="#49d9bd"/></g></svg>