<svg xmlns="http://www.w3.org/2000/svg" viewBox="0 0 259.65 108.09"><defs><style>.cls-1{fill:#1f356b;}.cls-2,.cls-6{fill:none;stroke:#233667;stroke-linecap:round;}.cls-3{fill:#6945ff;}.cls-4,.cls-5{isolation:isolate;}.cls-5{font-size:12px;fill:#fff;font-family:HiraKakuPro-W6-83pv-RKSJ-H, Hiragino Kaku Gothic Pro;letter-spacing:0.15em;}.cls-6{stroke-width:2px;}</style></defs><g id="レイヤー_2" data-name="レイヤー 2"><g id="圖層_1" data-name="圖層 1"><g id="グループ_2019" data-name="グループ 2019"><path id="パス_1766" data-name="パス 1766" class="cls-1" d="M137.88,47a12.61,12.61,0,0,1-.12-2V37.45c0-.82,0-1.65.12-2.47a11.12,11.12,0,0,1-1.53.07H135a7.56,7.56,0,0,1-1.5-.09v1.91a13.43,13.43,0,0,1,1.55-.09h.72V45a12.61,12.61,0,0,1-.12,2Zm5.33-2.83a4,4,0,0,0,.84,1.68,4.67,4.67,0,0,0,3.81,1.42,5.17,5.17,0,0,0,3.69-1.21,3.2,3.2,0,0,0,.9-2.19,2.9,2.9,0,0,0-.72-2.07,3.21,3.21,0,0,0-2.15-1A3.56,3.56,0,0,0,151,40.2a2.73,2.73,0,0,0,1-2.2c0-2-1.62-3.21-4.12-3.21a4.84,4.84,0,0,0-2.94.82,3.75,3.75,0,0,0-1.43,2.14l2.15.36a2.22,2.22,0,0,1,.63-1.15,2.5,2.5,0,0,1,1.63-.47c1.28,0,2,.59,2,1.62S149.09,40,147.59,40a10.21,10.21,0,0,1-1.46-.08v1.86a14.45,14.45,0,0,1,1.61-.07,3.94,3.94,0,0,1,1.72.36,1.73,1.73,0,0,1,.84,1.57c0,1.19-.94,1.95-2.43,1.95a2.82,2.82,0,0,1-1.81-.58,2,2,0,0,1-.7-1.23ZM155,38.38v2.19h2.19V38.38Zm0,6.42V47h2.19V44.8Zm9.2,2.43a4.23,4.23,0,0,0,3.64-1.77A7.85,7.85,0,0,0,168.9,41a10.09,10.09,0,0,0-.58-3.48,4.26,4.26,0,0,0-4.16-2.73,4.29,4.29,0,0,0-3.82,2.09,8.81,8.81,0,0,0-.92,4.15A9.86,9.86,0,0,0,160,44.5,4,4,0,0,0,161,46,4.3,4.3,0,0,0,164.15,47.23Zm0-1.74a2.21,2.21,0,0,1-1.92-1,6.69,6.69,0,0,1-.76-3.57,5.61,5.61,0,0,1,1-3.64,2,2,0,0,1,1.68-.77,2.15,2.15,0,0,1,1.63.63A5.76,5.76,0,0,1,166.83,41a5.73,5.73,0,0,1-1.05,3.85A2.13,2.13,0,0,1,164.16,45.49Zm11.42,1.74a4.23,4.23,0,0,0,3.64-1.77A7.85,7.85,0,0,0,180.33,41a10.09,10.09,0,0,0-.58-3.48,4.26,4.26,0,0,0-4.16-2.73,4.26,4.26,0,0,0-3.83,2.09,8.92,8.92,0,0,0-.91,4.15,9.86,9.86,0,0,0,.59,3.45,4,4,0,0,0,1,1.51A4.3,4.3,0,0,0,175.58,47.23Zm0-1.74a2.21,2.21,0,0,1-1.92-1,6.69,6.69,0,0,1-.76-3.57,5.61,5.61,0,0,1,1-3.64,2,2,0,0,1,1.68-.77,2.15,2.15,0,0,1,1.63.63,5.76,5.76,0,0,1,1,3.85,5.73,5.73,0,0,1-1,3.85A2.13,2.13,0,0,1,175.59,45.49Z"/><path id="パス_1768" data-name="パス 1768" class="cls-1" d="M215.85,47c1,0,1.56,0,2.26.09v-2a14.62,14.62,0,0,1-2.19.12h-4.2a3.58,3.58,0,0,1,.86-1.35,13.46,13.46,0,0,1,1.78-1.5,19,19,0,0,0,2.53-1.84,3,3,0,0,0,1.06-2.4c0-2.06-1.62-3.32-4.25-3.32a4.36,4.36,0,0,0-3.43,1.34,4.45,4.45,0,0,0-1,2.4l2.15.25a2.87,2.87,0,0,1,.46-1.38,2.12,2.12,0,0,1,1.9-.88c1.28,0,2.07.63,2.07,1.65,0,.76-.42,1.26-1.8,2.2a19.88,19.88,0,0,0-2.47,1.82,7.46,7.46,0,0,0-2,2.94,7.05,7.05,0,0,0-.39,1.92A13.85,13.85,0,0,1,211,47Zm9.2.24a4.23,4.23,0,0,0,3.64-1.77A7.93,7.93,0,0,0,229.8,41a10.1,10.1,0,0,0-.59-3.48,4.09,4.09,0,0,0-1-1.51,4.38,4.38,0,0,0-3.16-1.22,4.3,4.3,0,0,0-3.83,2.09,8.8,8.8,0,0,0-.91,4.15,10.08,10.08,0,0,0,.58,3.45A4.26,4.26,0,0,0,225,47.23Zm0-1.74a2.17,2.17,0,0,1-1.92-1,6.7,6.7,0,0,1-.77-3.57,5.61,5.61,0,0,1,1-3.64,2,2,0,0,1,1.68-.77,2.19,2.19,0,0,1,1.64.63,5.87,5.87,0,0,1,1,3.85,5.84,5.84,0,0,1-1,3.85,2.15,2.15,0,0,1-1.62.63Zm7-7.11v2.19h2.19V38.38Zm0,6.42V47h2.19V44.8Zm4.49-.64a4,4,0,0,0,.84,1.68,4.65,4.65,0,0,0,3.8,1.42,5.16,5.16,0,0,0,3.69-1.21,3.2,3.2,0,0,0,.9-2.19,2.9,2.9,0,0,0-.72-2.07,3.2,3.2,0,0,0-2.14-1,3.66,3.66,0,0,0,1.45-.58,2.73,2.73,0,0,0,1-2.2c0-2-1.62-3.21-4.12-3.21a4.84,4.84,0,0,0-2.94.82,3.72,3.72,0,0,0-1.42,2.14l2.15.36a2.09,2.09,0,0,1,.63-1.15,2.5,2.5,0,0,1,1.63-.47c1.28,0,2,.59,2,1.62S242.45,40,241,40a10.13,10.13,0,0,1-1.46-.08v1.86a14.17,14.17,0,0,1,1.6-.07,3.94,3.94,0,0,1,1.72.36,1.73,1.73,0,0,1,.84,1.57c0,1.19-.94,1.95-2.43,1.95a2.82,2.82,0,0,1-1.81-.58,2,2,0,0,1-.7-1.23Zm16.13,3.07a4.24,4.24,0,0,0,3.65-1.77A7.93,7.93,0,0,0,257.46,41a10.1,10.1,0,0,0-.59-3.48,4.09,4.09,0,0,0-1-1.51,4.38,4.38,0,0,0-3.16-1.22,4.24,4.24,0,0,0-3.83,2.09,8.8,8.8,0,0,0-.91,4.15,10.08,10.08,0,0,0,.58,3.45,4.26,4.26,0,0,0,4.14,2.73Zm0-1.74a2.19,2.19,0,0,1-1.92-1,6.7,6.7,0,0,1-.77-3.57,5.61,5.61,0,0,1,1-3.64,2,2,0,0,1,1.68-.77,2.19,2.19,0,0,1,1.64.63,5.87,5.87,0,0,1,1,3.85,5.84,5.84,0,0,1-1,3.85A2.15,2.15,0,0,1,252.72,45.49Z"/><path id="パス_1767" data-name="パス 1767" class="cls-2" d="M186.09,41h17"/><g id="グループ_1125" data-name="グループ 1125"><rect id="長方形_244" data-name="長方形 244" class="cls-3" x="37.59" y="30.81" width="20.42" height="20.42" rx="3"/><g id="水" class="cls-4"><text class="cls-5" transform="translate(41.59 45.81)">水</text></g></g><g id="グループ_1140" data-name="グループ 1140"><rect id="長方形_244-2" data-name="長方形 244-2" class="cls-3" x="101.59" y="30.81" width="20.42" height="20.42" rx="3"/><g id="木" class="cls-4"><text class="cls-5" transform="translate(105.59 45.81)">木</text></g></g><path id="パス_1764" data-name="パス 1764" class="cls-1" d="M9.89,50.09a19.92,19.92,0,0,1-.18-3V35.46a34.23,34.23,0,0,1,.18-3.79,16.6,16.6,0,0,1-2.34.11H5.44a11.8,11.8,0,0,1-2.3-.14v2.93a18.62,18.62,0,0,1,2.37-.14h1.1V47.1a19.93,19.93,0,0,1-.19,3Zm14.25.37a6.53,6.53,0,0,0,5.58-2.72,12,12,0,0,0,1.7-6.8,15.17,15.17,0,0,0-.9-5.34A6.43,6.43,0,0,0,29,33.28a6.73,6.73,0,0,0-4.85-1.87,6.57,6.57,0,0,0-5.87,3.2A13.67,13.67,0,0,0,16.89,41a15.64,15.64,0,0,0,.9,5.29,6.51,6.51,0,0,0,6.35,4.18Zm0-2.67a3.38,3.38,0,0,1-2.95-1.5A10.4,10.4,0,0,1,20,40.82c0-2.51.51-4.4,1.52-5.59a3.11,3.11,0,0,1,2.58-1.18,3.34,3.34,0,0,1,2.5,1c1,1.13,1.61,3.22,1.61,5.89s-.57,4.83-1.61,5.91A3.34,3.34,0,0,1,24.16,47.79Z"/><path id="パス_1765" data-name="パス 1765" class="cls-1" d="M74.89,50.09a19.92,19.92,0,0,1-.18-3V35.46a34.23,34.23,0,0,1,.18-3.79,16.6,16.6,0,0,1-2.34.11H70.44a11.8,11.8,0,0,1-2.3-.14v2.93a18.62,18.62,0,0,1,2.37-.14h1.1V47.1a19.93,19.93,0,0,1-.19,3Zm16.38,0a18.69,18.69,0,0,1-.18-3V35.46a34.23,34.23,0,0,1,.18-3.79,16.74,16.74,0,0,1-2.35.11H86.81a11.8,11.8,0,0,1-2.3-.14v2.93a18.84,18.84,0,0,1,2.37-.14H88V47.1a18.69,18.69,0,0,1-.18,3Z"/><path id="パス_1771" data-name="パス 1771" class="cls-2" d="M120.09,68.31h17"/><g id="グループ_1526" data-name="グループ 1526"><rect id="長方形_244-3" data-name="長方形 244-3" class="cls-3" x="37.59" y="57.81" width="20.42" height="20.42" rx="3"/><g id="金" class="cls-4"><text class="cls-5" transform="translate(41.59 72.81)">金</text></g></g><path id="パス_1770" data-name="パス 1770" class="cls-1" d="M72.48,74A12.61,12.61,0,0,1,72.36,72V64.45A20.43,20.43,0,0,1,72.48,62a11.2,11.2,0,0,1-1.53.07H69.57a7.56,7.56,0,0,1-1.5-.09v1.91a13.3,13.3,0,0,1,1.55-.09h.72V72A12.61,12.61,0,0,1,70.22,74Zm10,.24a4.24,4.24,0,0,0,3.65-1.77A7.85,7.85,0,0,0,87.27,68a10.33,10.33,0,0,0-.58-3.48,4.26,4.26,0,0,0-4.16-2.73,4.28,4.28,0,0,0-3.82,2.09,8.81,8.81,0,0,0-.92,4.15,9.86,9.86,0,0,0,.59,3.45,4.11,4.11,0,0,0,1,1.51A4.32,4.32,0,0,0,82.51,74.23Zm0-1.74a2.2,2.2,0,0,1-1.92-1,6.69,6.69,0,0,1-.76-3.57,5.5,5.5,0,0,1,1-3.64,2,2,0,0,1,1.67-.77,2.18,2.18,0,0,1,1.64.63,5.87,5.87,0,0,1,1,3.85,5.73,5.73,0,0,1-1,3.85A2.15,2.15,0,0,1,82.53,72.49Zm7-7.11v2.19h2.19V65.38Zm0,6.42V74h2.19V71.8Zm9.2,2.43a4.23,4.23,0,0,0,3.64-1.77A7.85,7.85,0,0,0,103.5,68a10.33,10.33,0,0,0-.58-3.48,4.26,4.26,0,0,0-4.16-2.73,4.3,4.3,0,0,0-3.83,2.09A8.92,8.92,0,0,0,94,68.05a10.08,10.08,0,0,0,.58,3.45,4.26,4.26,0,0,0,1,1.51A4.32,4.32,0,0,0,98.75,74.23Zm0-1.74a2.2,2.2,0,0,1-1.92-1,6.69,6.69,0,0,1-.76-3.57,5.5,5.5,0,0,1,1-3.64,2,2,0,0,1,1.68-.77,2.17,2.17,0,0,1,1.63.63A5.87,5.87,0,0,1,101.43,68a5.73,5.73,0,0,1-1.05,3.85A2.15,2.15,0,0,1,98.76,72.49Zm11.42,1.74a4.23,4.23,0,0,0,3.64-1.77A7.85,7.85,0,0,0,114.93,68a10.33,10.33,0,0,0-.58-3.48,4.26,4.26,0,0,0-4.16-2.73,4.26,4.26,0,0,0-3.83,2.09,8.8,8.8,0,0,0-.91,4.15A10.08,10.08,0,0,0,106,71.5,4.26,4.26,0,0,0,107,73,4.32,4.32,0,0,0,110.18,74.23Zm0-1.74a2.2,2.2,0,0,1-1.92-1,6.79,6.79,0,0,1-.77-3.57,5.56,5.56,0,0,1,1-3.64,2,2,0,0,1,1.68-.77,2.17,2.17,0,0,1,1.63.63,5.87,5.87,0,0,1,1,3.85,5.73,5.73,0,0,1-1,3.85A2.15,2.15,0,0,1,110.19,72.49Z"/><path id="パス_1772" data-name="パス 1772" class="cls-1" d="M146.49,74a12.61,12.61,0,0,1-.12-1.95V64.45c0-.82,0-1.65.12-2.47a11.05,11.05,0,0,1-1.53.07h-1.38a7.56,7.56,0,0,1-1.5-.09v1.91a13.43,13.43,0,0,1,1.55-.09h.72V72a12.61,12.61,0,0,1-.12,1.95Zm5.6-2.67A4.62,4.62,0,0,0,153,73a4.39,4.39,0,0,0,3.43,1.3c2.79,0,4.51-1.63,4.51-4.27a3.66,3.66,0,0,0-1.07-2.82A3.88,3.88,0,0,0,157,66a3.71,3.71,0,0,0-2.57.92q.08-.45.09-.63l.24-2.63h3.52a14.21,14.21,0,0,1,2.07.12V61.93a10.29,10.29,0,0,1-2.08.12h-3.69c-.8,0-1.14,0-1.59,0,0,.75,0,1.26-.06,1.53l-.34,3.72a14.7,14.7,0,0,1-.19,1.56l1.88.18a1.62,1.62,0,0,1,.45-.68,2.64,2.64,0,0,1,1.86-.69,2.24,2.24,0,0,1,2.35,2.12c0,.1,0,.2,0,.3a2.31,2.31,0,0,1-2.16,2.47,1.4,1.4,0,0,1-.29,0,2.23,2.23,0,0,1-1.85-.76,2.07,2.07,0,0,1-.45-.87Zm11.48-5.94v2.19h2.19V65.38Zm0,6.42V74h2.19V71.8Zm9.19,2.43a4.24,4.24,0,0,0,3.65-1.77A7.93,7.93,0,0,0,177.52,68a10.1,10.1,0,0,0-.59-3.48,4.22,4.22,0,0,0-1-1.51,4.39,4.39,0,0,0-3.17-1.22A4.29,4.29,0,0,0,169,63.9a8.93,8.93,0,0,0-.92,4.15,10.09,10.09,0,0,0,.59,3.45,4.13,4.13,0,0,0,1,1.51A4.3,4.3,0,0,0,172.76,74.23Zm0-1.74a2.21,2.21,0,0,1-1.92-1,6.78,6.78,0,0,1-.76-3.57,5.61,5.61,0,0,1,1-3.64,2,2,0,0,1,1.68-.77,2.15,2.15,0,0,1,1.63.63A5.76,5.76,0,0,1,175.44,68a5.73,5.73,0,0,1-1.05,3.85A2.12,2.12,0,0,1,172.77,72.49Zm11.42,1.74a4.24,4.24,0,0,0,3.65-1.77A7.93,7.93,0,0,0,189,68a10.1,10.1,0,0,0-.59-3.48,4.22,4.22,0,0,0-1-1.51,4.38,4.38,0,0,0-3.16-1.22,4.27,4.27,0,0,0-3.84,2.09,9,9,0,0,0-.91,4.15,10.09,10.09,0,0,0,.59,3.45A4.13,4.13,0,0,0,181,73,4.3,4.3,0,0,0,184.19,74.23Zm0-1.74a2.22,2.22,0,0,1-1.93-1,6.78,6.78,0,0,1-.76-3.57,5.61,5.61,0,0,1,1-3.64,2,2,0,0,1,1.68-.77,2.15,2.15,0,0,1,1.63.63A5.76,5.76,0,0,1,186.87,68a5.73,5.73,0,0,1-1.05,3.85A2.11,2.11,0,0,1,184.21,72.49Z"/><path id="パス_1769" data-name="パス 1769" class="cls-1" d="M9.89,77.09a19.92,19.92,0,0,1-.18-3V62.46a34.23,34.23,0,0,1,.18-3.79,16.6,16.6,0,0,1-2.34.11H5.44a11.8,11.8,0,0,1-2.3-.14v2.93a18.62,18.62,0,0,1,2.37-.14h1.1V74.1a19.93,19.93,0,0,1-.19,3Zm17.67,0c1.47,0,2.39,0,3.47.14v-3a25,25,0,0,1-3.36.19H21.23a5.62,5.62,0,0,1,1.31-2.07A20,20,0,0,1,25.28,70a29.08,29.08,0,0,0,3.87-2.83,4.68,4.68,0,0,0,1.63-3.68c0-3.15-2.49-5.09-6.51-5.09A6.69,6.69,0,0,0,19,60.46a7,7,0,0,0-1.59,3.68l3.29.39a4.33,4.33,0,0,1,.72-2.11,3.22,3.22,0,0,1,2.92-1.36c1.95,0,3.17,1,3.17,2.53,0,1.17-.64,1.93-2.76,3.38A32.16,32.16,0,0,0,21,69.75a11.42,11.42,0,0,0-3.15,4.51,11.8,11.8,0,0,0-.6,2.95,21.16,21.16,0,0,1,3-.12Z"/><path id="パス_1759" data-name="パス 1759" class="cls-1" d="M10.18,17.07c1.34,0,2.18,0,3.17.12V14.42a22.48,22.48,0,0,1-3.07.17H4.4A5.21,5.21,0,0,1,5.6,12.7a18.54,18.54,0,0,1,2.5-2.1A25.61,25.61,0,0,0,11.63,8a4.27,4.27,0,0,0,1.49-3.36C13.12,1.78,10.85,0,7.18,0A6.12,6.12,0,0,0,2.37,1.88,6.25,6.25,0,0,0,.92,5.24l3,.36a3.9,3.9,0,0,1,.65-1.93A3,3,0,0,1,7.24,2.43c1.78,0,2.9.88,2.9,2.31,0,1.07-.59,1.76-2.53,3.09a29.56,29.56,0,0,0-3.46,2.54,10.41,10.41,0,0,0-2.88,4.11,10.8,10.8,0,0,0-.54,2.69,18.84,18.84,0,0,1,2.71-.1ZM22,17.4a5.93,5.93,0,0,0,5.1-2.48,11.09,11.09,0,0,0,1.56-6.21,14.4,14.4,0,0,0-.82-4.87,6,6,0,0,0-1.39-2.13A6.11,6.11,0,0,0,22,0a6,6,0,0,0-5.35,2.92,12.26,12.26,0,0,0-1.28,5.82,13.7,13.7,0,0,0,.82,4.83,5.85,5.85,0,0,0,1.38,2.12A6,6,0,0,0,22,17.4ZM22,15a3.11,3.11,0,0,1-2.69-1.37,9.45,9.45,0,0,1-1.07-5,7.85,7.85,0,0,1,1.39-5.1A2.84,2.84,0,0,1,22,2.43a3,3,0,0,1,2.29.88c.95,1,1.47,2.94,1.47,5.38s-.52,4.41-1.47,5.4A3.08,3.08,0,0,1,22,15Zm18.06,2.1c1.35,0,2.19,0,3.17.12V14.42a22.34,22.34,0,0,1-3.06.17H34.31a5,5,0,0,1,1.2-1.89A17.94,17.94,0,0,1,38,10.6,26.13,26.13,0,0,0,41.53,8,4.23,4.23,0,0,0,43,4.65C43,1.78,40.75,0,37.08,0a6.15,6.15,0,0,0-4.81,1.87,6.33,6.33,0,0,0-1.45,3.36l3,.36a4,4,0,0,1,.65-1.93,3,3,0,0,1,2.67-1.24c1.78,0,2.9.88,2.9,2.31,0,1.07-.59,1.76-2.52,3.09a27.8,27.8,0,0,0-3.47,2.54,10.29,10.29,0,0,0-2.87,4.11,10.81,10.81,0,0,0-.55,2.69,18.89,18.89,0,0,1,2.71-.1Zm13.78,0a17.87,17.87,0,0,1-.17-2.73V3.71A30.83,30.83,0,0,1,53.86.25a15.33,15.33,0,0,1-2.14.1H49.78a11.39,11.39,0,0,1-2.1-.12V2.9a17.44,17.44,0,0,1,2.17-.13h1V14.34a17.86,17.86,0,0,1-.16,2.73ZM67.38.35l-7.6,19.89h2.59L69.94.35ZM80.91,17.07c1.34,0,2.18,0,3.17.12V14.42a22.48,22.48,0,0,1-3.07.17H75.13a5,5,0,0,1,1.2-1.89,18.54,18.54,0,0,1,2.5-2.1A26.23,26.23,0,0,0,82.36,8a4.3,4.3,0,0,0,1.49-3.36C83.85,1.78,81.58,0,77.9,0a6.15,6.15,0,0,0-4.81,1.87,6.27,6.27,0,0,0-1.44,3.36l3,.36a3.9,3.9,0,0,1,.65-1.93A2.94,2.94,0,0,1,78,2.43c1.79,0,2.9.88,2.9,2.31,0,1.07-.58,1.76-2.52,3.09a29.56,29.56,0,0,0-3.46,2.54A10.41,10.41,0,0,0,72,14.48a10.8,10.8,0,0,0-.54,2.69,18.76,18.76,0,0,1,2.7-.1ZM93.25.35l-7.6,19.89h2.59L95.82.35ZM105.6,17.07a19.25,19.25,0,0,1-.17-2.73V3.71A33.4,33.4,0,0,1,105.6.25a15.26,15.26,0,0,1-2.14.1h-1.93a11.34,11.34,0,0,1-2.1-.12V2.9a17.39,17.39,0,0,1,2.16-.13h1V14.34a17.86,17.86,0,0,1-.16,2.73Zm13,.33a5.93,5.93,0,0,0,5.1-2.48,11.09,11.09,0,0,0,1.56-6.21,14.4,14.4,0,0,0-.82-4.87,5.92,5.92,0,0,0-1.39-2.12A6,6,0,0,0,118.62,0a6,6,0,0,0-5.36,2.91A12.5,12.5,0,0,0,112,8.75a14.17,14.17,0,0,0,.82,4.83,6,6,0,0,0,5.8,3.82Zm0-2.43a3.08,3.08,0,0,1-2.68-1.37,9.46,9.46,0,0,1-1.08-5,7.85,7.85,0,0,1,1.39-5.1,2.85,2.85,0,0,1,2.35-1.07,3,3,0,0,1,2.29.88c1,1,1.47,2.94,1.47,5.38s-.52,4.41-1.47,5.4a3.08,3.08,0,0,1-2.27.88Z"/><path id="パス_1761" data-name="パス 1761" class="cls-1" d="M175.71,17.07a17.86,17.86,0,0,1-.16-2.73V3.71a33.38,33.38,0,0,1,.16-3.46,15.26,15.26,0,0,1-2.14.1h-1.93a11.39,11.39,0,0,1-2.1-.12V2.9a17.44,17.44,0,0,1,2.17-.13h1V14.34a16.69,16.69,0,0,1-.17,2.73Zm15,0a16.69,16.69,0,0,1-.17-2.73V3.71a30.83,30.83,0,0,1,.17-3.46,15.41,15.41,0,0,1-2.15.1h-1.93a11.39,11.39,0,0,1-2.1-.12V2.9a17.44,17.44,0,0,1,2.17-.13h1V14.34a17.86,17.86,0,0,1-.16,2.73Z"/><path id="パス_1763" data-name="パス 1763" class="cls-1" d="M237.75,17.07a16.69,16.69,0,0,1-.17-2.73V3.71a30.83,30.83,0,0,1,.17-3.46,15.41,15.41,0,0,1-2.15.1h-1.93a11.39,11.39,0,0,1-2.1-.12V2.9a17.55,17.55,0,0,1,2.17-.13h1V14.34a17.86,17.86,0,0,1-.16,2.73Zm16.12,0c1.35,0,2.19,0,3.18.12V14.42a22.57,22.57,0,0,1-3.07.17H248.1a5,5,0,0,1,1.2-1.89,18.54,18.54,0,0,1,2.5-2.1A26.13,26.13,0,0,0,255.32,8a4.23,4.23,0,0,0,1.49-3.36c0-2.87-2.26-4.64-5.94-4.64a6.15,6.15,0,0,0-4.81,1.87,6.33,6.33,0,0,0-1.45,3.36l3,.36a4,4,0,0,1,.65-1.93,3,3,0,0,1,2.68-1.24c1.78,0,2.9.88,2.9,2.31,0,1.07-.59,1.76-2.52,3.09a28.85,28.85,0,0,0-3.47,2.54A10.29,10.29,0,0,0,245,14.48a10.83,10.83,0,0,0-.56,2.69,19,19,0,0,1,2.72-.1Z"/><path id="パス_1760" data-name="パス 1760" class="cls-6" d="M136.63,9.31h18.13"/><path id="パス_1762" data-name="パス 1762" class="cls-6" d="M201.89,9.31H220"/><path id="パス_1773" data-name="パス 1773" class="cls-1" d="M3.05,100.71c.4,0,.8,0,1.2,0H8.93a10.62,10.62,0,0,1,1.26,0v-1.1a14.54,14.54,0,0,0,2.4,1.28,6,6,0,0,1,.77-1.57,14.92,14.92,0,0,1-3.6-1.89,8.58,8.58,0,0,1-2.37-2.32H5.73a9.2,9.2,0,0,1-2.22,2.35,13.13,13.13,0,0,1-3.51,2,6.51,6.51,0,0,1,.81,1.43,13,13,0,0,0,2.24-1.2ZM4.27,99.2a5.24,5.24,0,0,1-.57,0,11.9,11.9,0,0,0,2.91-2.71,11.41,11.41,0,0,0,2.92,2.71c-.26,0-.39,0-.61,0Zm.14,4a14.48,14.48,0,0,1-1.5,2.8c-.71,0-1.13.06-1.23.06s-.44,0-.81,0l.22,1.71a15.73,15.73,0,0,1,1.8-.2c.57,0,3.34-.29,4.73-.42.51-.06,1.35-.15,2.52-.31l.84,1.22,1.34-.88a28.8,28.8,0,0,0-3.23-3.74l-1.39.62c.78.81,1,1.06,1.47,1.55-2,.21-2,.21-4.44.35a14.52,14.52,0,0,0,1.46-2.72H11a14.88,14.88,0,0,1,1.64.09V101.7a12.78,12.78,0,0,1-1.64.09H2.28a13,13,0,0,1-1.65-.09v1.63a15.2,15.2,0,0,1,1.65-.09Zm19.21.41a7.38,7.38,0,0,1-3.25,2,3.39,3.39,0,0,1,.9,1.06,8.33,8.33,0,0,0,3.87-3.06H26a6.11,6.11,0,0,1-1.45,1.86A8.56,8.56,0,0,1,22,107a4,4,0,0,1,1,1.07,10.17,10.17,0,0,0,2.3-1.54,3.44,3.44,0,0,1,.38,1.29c.55,0,.8,0,1.18,0,1.23,0,1.68-.18,2-.83a12.26,12.26,0,0,0,.57-3.81c0-.27,0-.55.06-.82-.41,0-.67,0-1.36,0H23.63a4.35,4.35,0,0,0,.38-.57h4.28a14,14,0,0,1,1.45,0v-1.4a9,9,0,0,1-1.46.09H22.16a8.16,8.16,0,0,1-1.31-.07V102a8,8,0,0,1,1.3-.07h.3a5.52,5.52,0,0,1-1.66,1.41v-1c-.44.26-.56.33-.93.52v-3h.26a7.93,7.93,0,0,1,1,.06V98.43a6.57,6.57,0,0,1-1,0h-.25V96.76a9.18,9.18,0,0,1,.08-1.57H18.31a11.66,11.66,0,0,1,.09,1.56v1.73H18a5.92,5.92,0,0,1-1.11-.07v1.5a8.13,8.13,0,0,1,1.1-.07h.4v3.71a9.89,9.89,0,0,1-1.58.56l.35,1.64.14-.07a.78.78,0,0,0,.18-.11,24.74,24.74,0,0,0,2.79-1.47,3.23,3.23,0,0,1,.53.74,7.88,7.88,0,0,0,1.72-1.19Zm4.32,0a16.4,16.4,0,0,1-.23,2.11c-.13.6-.28.75-.8.75a9.76,9.76,0,0,1-1.44-.12,7.88,7.88,0,0,0,2-2.74ZM27.37,100c.56,0,1,0,1.27,0a12.09,12.09,0,0,1-.05-1.34V96.8a13,13,0,0,1,.05-1.39,9.31,9.31,0,0,1-1.5.07H23.07a9.52,9.52,0,0,1-1.41-.07,11,11,0,0,1,.05,1.28v2a12.27,12.27,0,0,1-.05,1.36A11.14,11.14,0,0,1,23,100Zm-4.21-3.32h4v.59h-4Zm0,1.61h4v.57h-4ZM39,97.48v2h2v-2Zm0,6v2h2v-2Zm12.86,2.66a13.66,13.66,0,0,1-.08,1.69h1.66V107h6.51v.84h1.7a16,16,0,0,1-.09-1.69v-9a13.5,13.5,0,0,1,.07-1.42,12.62,12.62,0,0,1-1.51.07H53.33a13.57,13.57,0,0,1-1.56-.07c0,.46.07,1,.07,1.5Zm1.58-8.92h6.51v3.25H53.42Zm0,4.72h6.51v3.58H53.42Zm18.23-3.05a13.14,13.14,0,0,1-4.87,5.37,4.88,4.88,0,0,1,1,1.47,12.84,12.84,0,0,0,2.27-2v1.58a10.85,10.85,0,0,1,1.4-.08h1.11v.95a14.5,14.5,0,0,1-.1,1.74h1.76a14.5,14.5,0,0,1-.1-1.74v-.95h1.25a10.85,10.85,0,0,1,1.4.09v-1.6a16.15,16.15,0,0,0,2.35,1.94,6,6,0,0,1,1-1.52,12.23,12.23,0,0,1-3-2.36,13.92,13.92,0,0,1-2.1-2.94h3a16.13,16.13,0,0,1,1.7.09V97.25a10.78,10.78,0,0,1-1.7.1h-3.8v-1a7.8,7.8,0,0,1,.1-1.28H72.42a9.36,9.36,0,0,1,.09,1.3v1h-3.6a11.61,11.61,0,0,1-1.67-.1V99a15.57,15.57,0,0,1,1.67-.09Zm2.42,4.87v-2.21A10.25,10.25,0,0,0,74,100a15.25,15.25,0,0,0,2.71,3.71,8.38,8.38,0,0,1-1.23.06Zm-1.56,0H71.32a8.65,8.65,0,0,1-1.25-.06A13.7,13.7,0,0,0,72.62,100a11.84,11.84,0,0,0-.11,1.57Zm16.71-7.18v.53H85.67A16.67,16.67,0,0,1,83.94,97,7.39,7.39,0,0,1,84,98.19v.88a6.91,6.91,0,0,1-.08,1.11h1.45v-2h3.85v1.39a11.67,11.67,0,0,1-.07,1.32h1.61a8.33,8.33,0,0,1-.05-1.32V98.2h4.06v2h1.44a5.92,5.92,0,0,1-.07-1.11v-.88a6.33,6.33,0,0,1,0-1.15,16.57,16.57,0,0,1-1.73.06H90.71v-.53h3.2a13.86,13.86,0,0,1,1.44.05V95.26a13.82,13.82,0,0,1-1.58.09H86.38a14.12,14.12,0,0,1-1.59-.09v1.36c.47,0,.86-.05,1.47-.05Zm5.84,6a10.24,10.24,0,0,1,.06-1.36,12.93,12.93,0,0,1-1.39.06H86.34c-.45,0-.89,0-1.33-.06a12.16,12.16,0,0,1,.07,1.34v2.58a10.81,10.81,0,0,1-.09,1.39h1.56v-.72h2.67v.95c0,.94.41,1.08,3.15,1.08,2.4,0,3.19-.1,3.6-.45s.52-.9.56-2.11a5.25,5.25,0,0,1-1.47-.56Zm-4.38,3.23H95c0,.48-.1.6-.26.69a6.66,6.66,0,0,1-2,.18,6.51,6.51,0,0,1-2-.15c-.07,0-.1-.1-.1-.21Zm-1.46-3.46V103H86.55v-.65Zm1.46,0h2.91V103H90.68ZM89.22,104v.7H86.55V104Zm1.46,0h2.91v.7H90.68ZM86,99.51a4.4,4.4,0,0,1,.73-.05h1.23a4.17,4.17,0,0,1,.71.05v-.94a5.53,5.53,0,0,1-.71,0H86.69a3.54,3.54,0,0,1-.73,0Zm0,1.31a5.85,5.85,0,0,1,.73,0h1.23a5.53,5.53,0,0,1,.71,0v-.94a4.17,4.17,0,0,1-.71.05H86.69a3.54,3.54,0,0,1-.73-.05Zm5.38-1.31a4.36,4.36,0,0,1,.72-.05h1.43a5.81,5.81,0,0,1,.72.05v-.94a4.35,4.35,0,0,1-.72,0H92.06a2.9,2.9,0,0,1-.72,0Zm0,1.31a5.79,5.79,0,0,1,.72,0h1.43a5.79,5.79,0,0,1,.72,0v-.94a4.36,4.36,0,0,1-.72.05H92.06a2.91,2.91,0,0,1-.72-.05Zm14.82-.25h-3.72a18.17,18.17,0,0,1-2-.08v1.69a17.25,17.25,0,0,1,1.9-.08h3.77v3.7c0,.3-.1.36-.67.36a12.54,12.54,0,0,1-2-.17,5.4,5.4,0,0,1,.43,1.68l1.57,0c1.86,0,2.34-.3,2.34-1.54V102.1h3.43a17.25,17.25,0,0,1,1.9.08v-1.69a17.25,17.25,0,0,1-1.9.08H107.8V100a18.54,18.54,0,0,0,3-2.16c1-.91,1-.91,1.32-1.24l-.91-1a6.2,6.2,0,0,1-1.22.07h-6.34a15.76,15.76,0,0,1-1.68-.09v1.65a13.66,13.66,0,0,1,1.69-.08h5.59a12.57,12.57,0,0,1-2.38,1.79h-.73c0,.32,0,.62,0,1.07Zm16.51-3.25V98h-2.88a9.94,9.94,0,0,1-1.33-.06,10.65,10.65,0,0,1,.06,1.12v2.76a10.37,10.37,0,0,1-.06,1.12,11.92,11.92,0,0,1,1.33,0h5.93v.65h-6.9a11.06,11.06,0,0,1-1.52-.08v1.44a12.4,12.4,0,0,1,1.49-.08h6.93v1.41c0,.28-.09.33-.6.33a10.28,10.28,0,0,1-1.57-.12,6,6,0,0,1,.42,1.43l1,0a3.45,3.45,0,0,0,1.82-.28,1,1,0,0,0,.43-1v-1.82h1.1a11.84,11.84,0,0,1,1.47.09v-1.44a8.29,8.29,0,0,1-1.5.08h-1.07v-.65a13,13,0,0,1,1.4,0,8.32,8.32,0,0,1-.05-1.12V99a8.47,8.47,0,0,1,.05-1.12,9.79,9.79,0,0,1-1.33.06h-3.12v-.66h4.15a10.36,10.36,0,0,1,1.47.09V96a8.39,8.39,0,0,1-1.5.08h-4.12a6.31,6.31,0,0,1,.08-1.06h-1.64a6.32,6.32,0,0,1,.09,1.06h-3.85a10.83,10.83,0,0,1-1.51-.08v1.43a10.41,10.41,0,0,1,1.48-.09Zm0,1.82v.73H120v-.73Zm1.47,0h2.92v.73h-2.92Zm-1.47,1.79v.77H120v-.77Zm1.47,0h2.92v.77h-2.92Zm-1.2,5.67a8,8,0,0,0-2-1.73l-1.12.9a8.36,8.36,0,0,1,2,1.84Zm12.95-5.93h2.51c.49,0,.95,0,1.29,0a10.44,10.44,0,0,1,0-1.25V96.71c0-.55,0-.91,0-1.3a13.67,13.67,0,0,1-1.43,0h-2.48a13.76,13.76,0,0,1-1.43,0,13.82,13.82,0,0,1,.06,1.58v9.17a14.22,14.22,0,0,1-.08,1.73H136a12.31,12.31,0,0,1-.09-1.72Zm0-4h2.38v.9h-2.38Zm0,2h2.38v.88h-2.38ZM146,97a13.75,13.75,0,0,1,.07-1.57,11.72,11.72,0,0,1-1.45.06h-2.6a11.32,11.32,0,0,1-1.43-.06c0,.44,0,.83,0,1.3v2.75c0,.6,0,1,0,1.27.29,0,.78,0,1.29,0h2.63V106c0,.3-.1.35-.53.35a14.87,14.87,0,0,1-1.89-.12,5,5,0,0,1,.37,1.52l1.15,0c2,0,2.4-.25,2.4-1.6Zm-4-.29h2.48v.9h-2.48Zm0,2h2.48v.88h-2.48Zm14.13,5.44v2.07c0,.28-.1.33-.71.33a14.57,14.57,0,0,1-1.74-.14,5.21,5.21,0,0,1,.47,1.48l1.37.06c1.26,0,1.73-.12,2-.47a1.29,1.29,0,0,0,.18-.88v-2.45h3.64a14.49,14.49,0,0,1,1.74.09v-1.56a11,11,0,0,1-1.72.1h-3.66a18.8,18.8,0,0,0,2.8-2l.5-.42-.77-.85a6.22,6.22,0,0,1-1.06.06h-4.63a11.1,11.1,0,0,1-1.41-.07v1.4a13.11,13.11,0,0,1,1.4-.06h3.85a7.43,7.43,0,0,1-1.65,1.13h-.6a6.74,6.74,0,0,1,0,.77v.1h-3.81a10.65,10.65,0,0,1-1.69-.1v1.56a13.83,13.83,0,0,1,1.7-.09Zm-3.73-6.91a15.26,15.26,0,0,1-1.66-.06,7.58,7.58,0,0,1,.06,1.16v1.29a6.53,6.53,0,0,1-.07,1.08h1.53V98.5h9.12v2.17H163a7.55,7.55,0,0,1-.07-1.06v-1.3a7.65,7.65,0,0,1,.06-1.17,16.67,16.67,0,0,1-1.73.06h-.63a14.71,14.71,0,0,0,1.05-1.68l-1.51-.42A8.94,8.94,0,0,1,159,97.2H157.8a10.78,10.78,0,0,0-1-2.17l-1.46.41a8.2,8.2,0,0,1,.86,1.76h-1.49a10.24,10.24,0,0,0-1.27-2l-1.42.42a7.89,7.89,0,0,1,1.05,1.58Zm24.4,3.88a8.58,8.58,0,0,1-1.11,2.25,9,9,0,0,1-1.11-2.18l-1.27.64a11.14,11.14,0,0,0,1.46,2.69,8.47,8.47,0,0,1-3.6,2.18,4.82,4.82,0,0,1,.86,1.36,10.22,10.22,0,0,0,3.66-2.42,10,10,0,0,0,3.74,2.39,5.85,5.85,0,0,1,.79-1.53,8.47,8.47,0,0,1-3.59-2,14.65,14.65,0,0,0,1.56-2.79Zm-3-2.78a7.4,7.4,0,0,1-1.92,2.76A6.33,6.33,0,0,1,170.6,99h.56a7.32,7.32,0,0,1,.81,0V97.59a4.74,4.74,0,0,1-.84,0h-.56V96.48a11.73,11.73,0,0,1,.07-1.45h-1.57a8.81,8.81,0,0,1,.07,1.45v1.16h-.7a7.81,7.81,0,0,1-1.08,0V99a7.81,7.81,0,0,1,1.08-.05H169a12.61,12.61,0,0,1-2,4.31,8.55,8.55,0,0,1,.77,1.58,11.43,11.43,0,0,0,1.49-3.3c0,.76-.06,1.15-.06,1.15v3.58a12.46,12.46,0,0,1-.1,1.73h1.6a12.53,12.53,0,0,1-.08-1.73v-3.39c0-.15,0-.87,0-.92l0-1a13.26,13.26,0,0,0,.91,1.65,7.77,7.77,0,0,1,.46-1,4.18,4.18,0,0,1,.69.92,11,11,0,0,0,2.6-3.63ZM175,96.78H173.8a11.51,11.51,0,0,1-1.55-.09v1.56a13.64,13.64,0,0,1,1.57-.09h4.62c.61,0,1.09,0,1.55.07V96.69a11.27,11.27,0,0,1-1.54.09h-1.9v-.6a5,5,0,0,1,.07-1H175a6,6,0,0,1,.07,1Zm1.4,2.17a10.14,10.14,0,0,0,2.83,3.44,5.87,5.87,0,0,1,.87-1.33,8.23,8.23,0,0,1-2.48-2.8Zm18.16-3.1a13.7,13.7,0,0,1-1.92.07h-4.45a13.73,13.73,0,0,1-1.92-.1v1.85a14.09,14.09,0,0,1,1.84-.1h4.32a23.94,23.94,0,0,0-2.45,4.06,21.6,21.6,0,0,0-1.69,5.44h2.22a17.86,17.86,0,0,1,2.6-7.58,9.26,9.26,0,0,1,1.45-2Zm9.21,5.86a13.55,13.55,0,0,1-1.77,3.06l1.68.3c.33-.51.44-.7.64-1H210a5,5,0,0,1-.5,2.13c-.16.21-.47.3-1.16.3-.5,0-1.52-.09-2.48-.2a3.37,3.37,0,0,1,.38,1.5c.86,0,1.39.08,2.12.08,1.47,0,2-.15,2.43-.69s.65-1.55.88-3.57c.07-.6.1-.81.12-.9a11.64,11.64,0,0,1-1.45.06H205c.18-.36.25-.53.46-1h6.3a13,13,0,0,1,1.65.08v-1.5a13,13,0,0,1-1.65.08h-9.52a11.19,11.19,0,0,1-1.64-.08v1.51a14.66,14.66,0,0,1,1.62-.09Zm-1.4-3.31a9.55,9.55,0,0,1,0,1.19,11.56,11.56,0,0,1,1.44-.06h6.47a11.56,11.56,0,0,1,1.44.06c0-.4-.06-.8-.06-1.19V96.58a11.46,11.46,0,0,1,.06-1.17,9.48,9.48,0,0,1-1.6.07h-6.17a12,12,0,0,1-1.58-.07,11.46,11.46,0,0,1,.06,1.17Zm7.7-1.6v1.44h-6.2V96.8ZM223.48,107a18.19,18.19,0,0,0-1.62-3.09l-1.18.49a6.74,6.74,0,0,1,.59,1.05c-.56.18-.8.25-1.67.46v-2.2H222a7.5,7.5,0,0,1,.82,0c0-.29,0-.6,0-1.13V99.94a9.48,9.48,0,0,1,.05-1.19,6.89,6.89,0,0,1-1.11.06h-.55v-.45a4.37,4.37,0,0,1,.06-.72h-1.4a4.23,4.23,0,0,1,.06.7v.47h-.76c-.35,0-.46,0-.71,0a12.1,12.1,0,0,0,2.2-2.32,9,9,0,0,0,1.9,2,3.49,3.49,0,0,1,.61-1.06v.86a8.44,8.44,0,0,1,0,.87h.62c0,.27,0,.31,0,.53v7.13a9.66,9.66,0,0,1-.07,1.2h1.53v-.71h3V108h1.5a8.38,8.38,0,0,1-.06-1.23v-2.41a10.11,10.11,0,0,1,0-1.1,10.53,10.53,0,0,1-1.1,0H225.2v-1h2.93c.41,0,.7,0,1,0a6.23,6.23,0,0,1,0-1.06V99.2h1a6.09,6.09,0,0,1,0-1v-1a8,8,0,0,1,0-1,12.26,12.26,0,0,1-1.36.07h-1.52v-.24a4,4,0,0,1,.07-1h-1.64a6.37,6.37,0,0,1,.07,1v.24h-1.42a10.75,10.75,0,0,1-1.16-.05,8.58,8.58,0,0,1,0,.87,6.9,6.9,0,0,1-1.87-2h-1.42a5.08,5.08,0,0,1-1.06,1.38,8.72,8.72,0,0,1-1.73,1.36,5.86,5.86,0,0,1,.52,1.58c.27-.2.38-.28.55-.39,0,.28,0,.46,0,.87v6.24a5.65,5.65,0,0,1-.91.11l.35,1.53a7.94,7.94,0,0,1,1.09-.29,30.72,30.72,0,0,0,3.11-.91c.11.28.22.56.39,1.06Zm5.15-8.37c-.25,0-.36,0-.58,0H224.6v-1h4ZM225.2,99.8h2.49v1.26H225.2Zm0,4.79h3V106h-3Zm-5.6-3.92v-.73h1.82v.73Zm0,1.06h1.82v.78H219.6Zm22.92-6a17.6,17.6,0,0,1-1.92.07h-4.45a17.64,17.64,0,0,1-1.92-.1v1.85a12.61,12.61,0,0,1,1.84-.1h4.32a23.64,23.64,0,0,0-2.45,4.07,21.46,21.46,0,0,0-1.69,5.42h2.21a18.09,18.09,0,0,1,2.6-7.57,10,10,0,0,1,1.46-2Zm9.16,3.94c-.38.06-.55.07-.77.09l.28,1.43c.2-.06.39-.12.59-.16a29.29,29.29,0,0,0,3.16-.81V98.93a15.1,15.1,0,0,1-1.86.52V97.88h.85a8.43,8.43,0,0,1,1,.06V96.48a5,5,0,0,1-1,.07h-.84v-.12a11.32,11.32,0,0,1,.07-1.43h-1.54a11.57,11.57,0,0,1,.07,1.44Zm5.08-1.51a11.17,11.17,0,0,0,1.76-.8l.94-.5-.78-1.26a7.26,7.26,0,0,1-1.92,1.12v-.5a7.61,7.61,0,0,1,.07-1.26h-1.55c0,.46.07.93.07,1.39v3.47c0,.46.08.67.35.84l-1.12-.18a5,5,0,0,1-.5,1.24h-.91c-.77,0-1,0-1.43,0a12.18,12.18,0,0,1,0,1.35v3.45a7.37,7.37,0,0,1-.08,1.41h1.51v-.52h4.06V108h1.58c-.05-.53-.08-1.07-.08-1.6v-3.19a12,12,0,0,1,.06-1.47,8.44,8.44,0,0,1-1.42.06h-1.78a4.86,4.86,0,0,0,.3-.56c0-.1.07-.15.08-.18l.1-.2a6.35,6.35,0,0,0,1.15.07c1.23,0,1.67-.07,1.92-.3s.4-.68.46-1.76a3.19,3.19,0,0,1-1.27-.46c0,.67-.07,1-.17,1.12s-.24.11-.65.11c-.68,0-.8,0-.8-.32Zm-3.54,4.8h4.06v.93h-4.06Zm0,2.13h4.06v1h-4.06Zm-6,.87a17.8,17.8,0,0,1-.08,1.93h1.6a17.24,17.24,0,0,1-.07-1.9V96.69H250a14.21,14.21,0,0,1-1.22,3.3,4.76,4.76,0,0,1,1,1.79A4.55,4.55,0,0,1,250,103c0,.52-.16.65-.79.65a3,3,0,0,1-.42,0A2.87,2.87,0,0,1,249,105h.2a3,3,0,0,0,1.37-.23c.52-.27.77-.83.77-1.73a5,5,0,0,0-.32-1.63,7.46,7.46,0,0,0-.87-1.53,16.55,16.55,0,0,0,.71-1.61c.23-.56.56-1.48.63-1.74a2.54,2.54,0,0,1,.17-.46l-.84-.82a7.38,7.38,0,0,1-1.05,0h-1.52a8.24,8.24,0,0,1-1.11,0c0,.25,0,.69,0,1.41Z"/></g></g></g></svg>