<svg xmlns="http://www.w3.org/2000/svg" viewBox="0 0 659.18 343.86"><defs><style>.cls-1{fill:#6945ff;}.cls-2{fill:#fff;}.cls-3{fill:none;stroke:#233667;stroke-linecap:round;stroke-width:2px;}</style></defs><g id="レイヤー_2" data-name="レイヤー 2"><g id="圖層_1" data-name="圖層 1"><g id="グループ_2018" data-name="グループ 2018"><path id="パス_1749" data-name="パス 1749" d="M219.8,35.74c2.82,0,4.58.08,6.64.26V30.19a44.42,44.42,0,0,1-6.42.35H207.7a10.65,10.65,0,0,1,2.51-4,39.3,39.3,0,0,1,5.23-4.4c5.72-3.91,6.16-4.26,7.4-5.41a8.91,8.91,0,0,0,3.12-7c0-6-4.75-9.72-12.45-9.72-4.4,0-7.88,1.36-10.08,3.91-1.63,1.9-2.42,3.7-3,7l6.29.75a8.29,8.29,0,0,1,1.36-4.05c1.1-1.71,3-2.6,5.59-2.6,3.74,0,6.07,1.85,6.07,4.84,0,2.25-1.23,3.7-5.28,6.47a59.89,59.89,0,0,0-7.26,5.33,21.84,21.84,0,0,0-6,8.62A22.69,22.69,0,0,0,200,36a39.86,39.86,0,0,1,5.68-.22Zm33.57.7a12.51,12.51,0,0,0,10.69-5.19c2.07-2.86,3.26-7.61,3.26-13A29.55,29.55,0,0,0,265.6,8a12.3,12.3,0,0,0-2.9-4.45A12.74,12.74,0,0,0,253.42,0,12.51,12.51,0,0,0,242.2,6.12c-1.63,2.69-2.69,7.53-2.69,12.19a29.57,29.57,0,0,0,1.72,10.12,12.26,12.26,0,0,0,2.9,4.44,12.66,12.66,0,0,0,9.24,3.57Zm0-5.1a6.47,6.47,0,0,1-5.64-2.86c-1.4-2-2.24-5.86-2.24-10.47,0-4.8,1-8.4,2.9-10.69a5.94,5.94,0,0,1,4.93-2.25,6.41,6.41,0,0,1,4.8,1.85c2,2.16,3.08,6.16,3.08,11.26s-1.1,9.24-3.08,11.31A6.39,6.39,0,0,1,253.42,31.34Zm46.64,4.4c2.81,0,4.57.08,6.64.26V30.19a44.5,44.5,0,0,1-6.42.35H288a10.63,10.63,0,0,1,2.5-4,40,40,0,0,1,5.24-4.4c5.72-3.91,6.16-4.26,7.39-5.41a9,9,0,0,0,3.13-7c0-6-4.76-9.72-12.46-9.72-4.4,0-7.87,1.36-10.07,3.91-1.63,1.9-2.42,3.7-3,7l6.29.75a8.37,8.37,0,0,1,1.37-4.05c1.1-1.72,3-2.6,5.59-2.6,3.74,0,6.07,1.85,6.07,4.84,0,2.24-1.23,3.7-5.28,6.47a60.1,60.1,0,0,0-7.26,5.32,21.67,21.67,0,0,0-6,8.63A22.16,22.16,0,0,0,280.26,36a39.77,39.77,0,0,1,5.67-.22Zm37.66,0a36.54,36.54,0,0,1-.35-5.72V7.75a65.23,65.23,0,0,1,.35-7.26,32.08,32.08,0,0,1-4.49.22h-4.05a24,24,0,0,1-4.4-.26V6a38.28,38.28,0,0,1,4.54-.27h2.11V30a37.79,37.79,0,0,1-.35,5.72Zm26.75-8h-1.53a25.4,25.4,0,0,1-3.27-.18V31a25.4,25.4,0,0,1,3.27-.18H373v3.69a22.41,22.41,0,0,1-.18,3.27h3.66a17.24,17.24,0,0,1-.18-3.21V30.83h7a25.6,25.6,0,0,1,3.27.18V27.59a25.6,25.6,0,0,1-3.27.18h-7V22.91h4.92q1.5,0,3,.12V19.85a22.84,22.84,0,0,1-3.09.15h-4.83V16.1h6.12a22.4,22.4,0,0,1,3.06.15V13a22.4,22.4,0,0,1-3.06.15h-14c.54-1.17.84-1.8.87-1.89.21-.45.27-.54.45-.9l-3.57-.72a9.37,9.37,0,0,1-.72,2.19c-1.23,2.94-2.79,4.92-5.85,7.53A13.25,13.25,0,0,1,361.8,22a28.06,28.06,0,0,0,4.95-5.91H373V20h-6.54c-.81,0-1.47,0-2.1-.09a16.9,16.9,0,0,1,.09,1.74Zm3.15,0V22.91H373v4.86Zm48.69,8c2.82,0,4.58.08,6.65.26V30.19a44.56,44.56,0,0,1-6.43.35H404.21a10.65,10.65,0,0,1,2.51-4,38.76,38.76,0,0,1,5.24-4.4c5.72-3.91,6.16-4.26,7.39-5.41a8.91,8.91,0,0,0,3.12-7c0-6-4.75-9.72-12.45-9.72-4.4,0-7.88,1.36-10.08,3.91-1.62,1.9-2.42,3.7-3,7l6.29.75a8.5,8.5,0,0,1,1.36-4.05c1.1-1.71,3-2.6,5.59-2.6,3.74,0,6.07,1.85,6.07,4.84,0,2.25-1.23,3.7-5.28,6.47a60.68,60.68,0,0,0-7.26,5.33,21.71,21.71,0,0,0-6,8.62A22.18,22.18,0,0,0,396.51,36a39.91,39.91,0,0,1,5.68-.22Zm39.61-7.46v5.19c0,.66-.21.81-1.11.81a29.69,29.69,0,0,1-4.41-.36,10.55,10.55,0,0,1,.87,3.36c1.53.09,2.52.12,3.48.12,2,0,2.82-.15,3.48-.6s1.08-1.35,1.08-2.85V14.51a24,24,0,0,1,.15-3.39,28.76,28.76,0,0,1-3.48.15H443.47a29.44,29.44,0,0,1-3.51-.15,40.26,40.26,0,0,1,.15,4.53c0,7.8-.3,11.31-1.2,14.1A11.34,11.34,0,0,1,435.7,35a11.43,11.43,0,0,1,2.79,2.76A16.72,16.72,0,0,0,442,31.85a22.12,22.12,0,0,0,.87-3.57Zm-12.66-3.06c.18-2.43.24-3.09.24-4h12.42v4Zm.27-7.08V14.39h12.39v3.75Z"/><g id="グループ_2017" data-name="グループ 2017"><path id="パス_1746" data-name="パス 1746" d="M120.41,120.59a26.34,26.34,0,0,1-.26-4.16V100.24a49,49,0,0,1,.26-5.28,23.8,23.8,0,0,1-3.27.16H114.2a18,18,0,0,1-3.2-.19V99a28.09,28.09,0,0,1,3.3-.19h1.54v17.63a27.59,27.59,0,0,1-.26,4.16Zm26.21.52a9.09,9.09,0,0,0,7.77-3.78c1.51-2.08,2.37-5.54,2.37-9.47a21.6,21.6,0,0,0-1.25-7.43,8.92,8.92,0,0,0-2.11-3.23,9.32,9.32,0,0,0-6.75-2.59,9.09,9.09,0,0,0-8.16,4.45c-1.19,2-2,5.47-2,8.86a21.43,21.43,0,0,0,1.24,7.36,9.07,9.07,0,0,0,2.12,3.23A9.22,9.22,0,0,0,146.62,121.11Zm0-3.71a4.69,4.69,0,0,1-4.09-2.09c-1-1.47-1.64-4.26-1.64-7.62s.7-6.11,2.12-7.77a4.28,4.28,0,0,1,3.58-1.63,4.61,4.61,0,0,1,3.48,1.34c1.44,1.57,2.24,4.48,2.24,8.19s-.8,6.72-2.24,8.23a4.62,4.62,0,0,1-3.45,1.34ZM168.11,119a25.59,25.59,0,0,1-.14,2.9h2.85V120.5H182v1.44h2.9a25.59,25.59,0,0,1-.14-2.9v-15.5a20,20,0,0,1,.12-2.45,18.72,18.72,0,0,1-2.59.12H170.66a23.85,23.85,0,0,1-2.67-.12c.07.79.12,1.63.12,2.57Zm2.71-15.29H182v5.56H170.82Zm0,8.09H182V118H170.82Z"/><path id="パス_1745" data-name="パス 1745" class="cls-1" d="M246.26,91.21h27.49a3,3,0,0,1,3,3V121.7a3,3,0,0,1-3,3H246.26a3,3,0,0,1-3-3h0V94.21A3,3,0,0,1,246.26,91.21Z"/><path id="パス_1744" data-name="パス 1744" class="cls-2" d="M265.08,102.44a12.46,12.46,0,0,1-3.16,3.69,9.62,9.62,0,0,1-1.13-3.07v-1.19a10.75,10.75,0,0,1,.12-1.8h-2.15a13.2,13.2,0,0,1,.12,1.78v11.24c0,.35-.1.42-.62.42a14.88,14.88,0,0,1-2.21-.2,6,6,0,0,1,.48,2c.66,0,1.58.1,2.21.1a2.41,2.41,0,0,0,1.63-.39c.32-.27.44-.61.44-1.37l0-4.07c0-.56,0-1-.08-2.65a15.23,15.23,0,0,0,2.68,4.46,15.6,15.6,0,0,0,2.91,2.53,9.61,9.61,0,0,1,1.46-1.84,11.37,11.37,0,0,1-2.95-2.11,14.78,14.78,0,0,1-1.94-2.24,25,25,0,0,0,3-2.87c.58-.65.88-1,.9-1Zm-7.64,1.38a10.62,10.62,0,0,1-1.5.07h-1.78a12.38,12.38,0,0,1-1.82-.08v2.07a10.85,10.85,0,0,1,1.7-.1h2.15a12,12,0,0,1-4.49,6.58,6.42,6.42,0,0,1,1.61,1.42,12.35,12.35,0,0,0,2.57-2.92A15.66,15.66,0,0,0,258,106q.15-.57.36-1.14Z"/><path id="パス_1747" data-name="パス 1747" d="M120.41,179.59a26.34,26.34,0,0,1-.26-4.16V159.24a49,49,0,0,1,.26-5.28,23.8,23.8,0,0,1-3.27.16H114.2a18,18,0,0,1-3.2-.19V158a28.09,28.09,0,0,1,3.3-.19h1.54v17.63a27.59,27.59,0,0,1-.26,4.16Zm29.18,0a26.33,26.33,0,0,1-.25-4.16V159.24a46.55,46.55,0,0,1,.25-5.28,23.65,23.65,0,0,1-3.26.16h-3a18,18,0,0,1-3.2-.19V158a28.09,28.09,0,0,1,3.3-.19H145v17.63a27.59,27.59,0,0,1-.26,4.16ZM168.11,178a25.48,25.48,0,0,1-.14,2.9h2.85V179.5H182v1.44h2.9a25.59,25.59,0,0,1-.14-2.9v-15.5a20,20,0,0,1,.12-2.45,18.72,18.72,0,0,1-2.59.12H170.66a23.85,23.85,0,0,1-2.67-.12c.07.79.12,1.63.12,2.57Zm2.71-15.29H182v5.57H170.82Zm0,8.09H182V177H170.82Z"/><path id="パス_1743" data-name="パス 1743" class="cls-1" d="M246.26,151.21h27.49a3,3,0,0,1,3,3V181.7a3,3,0,0,1-3,3H246.26a3,3,0,0,1-3-3h0V154.21A3,3,0,0,1,246.26,151.21Z"/><path id="パス_1742" data-name="パス 1742" class="cls-2" d="M265.2,166a14.32,14.32,0,0,1,2.06.12v-2a14.24,14.24,0,0,1-2.06.12h-4.58v-1.61a8.24,8.24,0,0,1,.12-1.57h-2.21a8.41,8.41,0,0,1,.12,1.58v1.6h-4.33a15.31,15.31,0,0,1-2-.11v2a17.19,17.19,0,0,1,2-.12H258a16,16,0,0,1-6.39,6.72,6.36,6.36,0,0,1,1.26,1.73,16.6,16.6,0,0,0,5.83-6.55c-.05.67-.09,1.43-.09,1.86v4.72a15.21,15.21,0,0,1-.12,2.13h2.21a14.85,14.85,0,0,1-.12-2.11V169.7a15.47,15.47,0,0,0-.12-1.92,16.68,16.68,0,0,0,2.76,3.86,20.31,20.31,0,0,0,3.28,2.7,7,7,0,0,1,1.31-1.8,15.22,15.22,0,0,1-6.61-6.58Z"/><path id="パス_1748" data-name="パス 1748" d="M120.41,239.59a26.34,26.34,0,0,1-.26-4.16V219.24a49,49,0,0,1,.26-5.28,23.8,23.8,0,0,1-3.27.16H114.2a18,18,0,0,1-3.2-.19V218a28.09,28.09,0,0,1,3.3-.19h1.54v17.63a27.59,27.59,0,0,1-.26,4.16Zm31,0c2.05,0,3.33.07,4.84.19v-4.22a34.78,34.78,0,0,1-4.68.26h-9a7.66,7.66,0,0,1,1.83-2.88,27.14,27.14,0,0,1,3.81-3.2c4.16-2.85,4.48-3.1,5.37-3.94a6.49,6.49,0,0,0,2.27-5.12c0-4.38-3.45-7.07-9.05-7.07-3.2,0-5.73,1-7.33,2.85a9.62,9.62,0,0,0-2.21,5.12l4.58.54a6.07,6.07,0,0,1,1-2.94,4.52,4.52,0,0,1,4.06-1.89c2.72,0,4.42,1.34,4.42,3.52,0,1.63-.9,2.69-3.84,4.7a44.42,44.42,0,0,0-5.28,3.87A14.68,14.68,0,0,0,137,239.76a30,30,0,0,1,4.13-.17ZM168.11,238a25.48,25.48,0,0,1-.14,2.9h2.85V239.5H182v1.44h2.9a25.59,25.59,0,0,1-.14-2.9v-15.5a20,20,0,0,1,.12-2.45,18.72,18.72,0,0,1-2.59.12H170.66a23.85,23.85,0,0,1-2.67-.12c.07.79.12,1.63.12,2.57Zm2.71-15.29H182v5.57H170.82Zm0,8.09H182V237H170.82Z"/><path id="パス_1741" data-name="パス 1741" class="cls-1" d="M246.26,212.21h27.49a3,3,0,0,1,3,3V242.7a3,3,0,0,1-3,3H246.26a3,3,0,0,1-3-3h0V215.21A3,3,0,0,1,246.26,212.21Z"/><path id="パス_1740" data-name="パス 1740" class="cls-2" d="M258.7,227.18v1.65h-4a11.42,11.42,0,0,1-1.85-.1v1.89a12.48,12.48,0,0,1,1.83-.1h4v3.8h-4.26a16.48,16.48,0,0,1-2.11-.1v2a14.85,14.85,0,0,1,2.11-.12h10.74a14,14,0,0,1,2,.12v-2a15,15,0,0,1-2,.1h-4.62v-3.8h4.28a13,13,0,0,1,1.87.1v-1.89a11.42,11.42,0,0,1-1.85.1h-4.3v-1.65h1.73a11.61,11.61,0,0,1,1.67.09v-.87a16.63,16.63,0,0,0,3,1.5,8.29,8.29,0,0,1,.91-1.87,14.21,14.21,0,0,1-4.5-2.3,10,10,0,0,1-2.62-2.61h-2.11c-1.22,2-3.77,3.87-6.93,5a7.49,7.49,0,0,1,1,1.75,18,18,0,0,0,2.77-1.4v.82a11.61,11.61,0,0,1,1.67-.09Zm-2-1.6a11.87,11.87,0,0,0,3-2.85,13.17,13.17,0,0,0,3.06,2.85l-.41,0-5.27,0Zm-2.48,5.77a12.79,12.79,0,0,1,1.34,2.82l1.7-.68a19.77,19.77,0,0,0-1.36-2.82Zm9.16-.66a14.28,14.28,0,0,1-1.34,2.92l1.6.6.7-1.21c.63-1.24.63-1.24.85-1.63Z"/><g id="グループ_2016" data-name="グループ 2016"><path id="パス_1750" data-name="パス 1750" d="M334.19,118.59a22.82,22.82,0,0,1-.21-3.51V101.42a41.3,41.3,0,0,1,.21-4.45,19.41,19.41,0,0,1-2.75.13H329a14.35,14.35,0,0,1-2.7-.16v3.43a23.43,23.43,0,0,1,2.78-.16h1.3v14.87a21.63,21.63,0,0,1-.22,3.51Zm9.59-5.1a7.1,7.1,0,0,0,1.51,3c1.53,1.75,3.69,2.56,6.85,2.56,2.89,0,5.16-.76,6.65-2.19a5.78,5.78,0,0,0,1.62-3.94,5.27,5.27,0,0,0-1.3-3.73,5.66,5.66,0,0,0-3.87-1.8,6.54,6.54,0,0,0,2.62-1.06,5,5,0,0,0,1.87-4c0-3.51-2.92-5.77-7.43-5.77A8.72,8.72,0,0,0,347,98.1a6.7,6.7,0,0,0-2.57,3.86l3.87.65a3.92,3.92,0,0,1,1.13-2.08,4.53,4.53,0,0,1,2.94-.84c2.3,0,3.57,1.06,3.57,2.92,0,2.08-1.6,3.32-4.3,3.32a19.16,19.16,0,0,1-2.62-.13v3.34a23.29,23.29,0,0,1,2.89-.13,6.91,6.91,0,0,1,3.1.65,3.13,3.13,0,0,1,1.52,2.83c0,2.13-1.7,3.51-4.38,3.51a5.08,5.08,0,0,1-3.27-1,3.46,3.46,0,0,1-1.26-2.22Zm21.13-10.39V107h3.95V103.1Zm0,11.55v3.94h3.95v-3.94ZM381.47,119a7.68,7.68,0,0,0,6.56-3.19c1.26-1.76,2-4.67,2-8a18.08,18.08,0,0,0-1.06-6.27,7.47,7.47,0,0,0-1.78-2.72,7.83,7.83,0,0,0-5.7-2.19,7.66,7.66,0,0,0-6.88,3.75A15.89,15.89,0,0,0,373,107.9a18,18,0,0,0,1.05,6.21,7.64,7.64,0,0,0,1.78,2.73A7.8,7.8,0,0,0,381.47,119Zm0-3.14a3.92,3.92,0,0,1-3.45-1.75c-.87-1.24-1.38-3.59-1.38-6.43s.59-5.15,1.78-6.56a3.63,3.63,0,0,1,3-1.38,3.94,3.94,0,0,1,2.94,1.13c1.21,1.33,1.89,3.78,1.89,6.92s-.68,5.67-1.89,6.93A3.92,3.92,0,0,1,381.49,115.89ZM402,119a7.68,7.68,0,0,0,6.56-3.19c1.27-1.76,2-4.67,2-8a18.31,18.31,0,0,0-1.05-6.27,7.6,7.6,0,0,0-1.78-2.72,7.86,7.86,0,0,0-5.7-2.19,7.68,7.68,0,0,0-6.89,3.75,15.89,15.89,0,0,0-1.65,7.48,18.22,18.22,0,0,0,1.06,6.21,7.64,7.64,0,0,0,1.78,2.73A7.86,7.86,0,0,0,402,119Zm0-3.14a4,4,0,0,1-3.46-1.75c-.86-1.24-1.38-3.59-1.38-6.43s.6-5.15,1.79-6.56a3.61,3.61,0,0,1,3-1.38A3.92,3.92,0,0,1,405,100.9c1.22,1.33,1.89,3.78,1.89,6.92s-.67,5.67-1.89,6.93A3.92,3.92,0,0,1,402.07,115.89Z"/><path id="パス_1752" data-name="パス 1752" d="M473.23,118.59c1.72,0,2.8.06,4.07.17v-3.57a28.74,28.74,0,0,1-3.94.22H465.8a6.46,6.46,0,0,1,1.54-2.43,23,23,0,0,1,3.21-2.7,34.29,34.29,0,0,0,4.54-3.32,5.51,5.51,0,0,0,1.92-4.32c0-3.7-2.92-6-7.64-6a7.89,7.89,0,0,0-6.19,2.4,8.13,8.13,0,0,0-1.86,4.32l3.86.46a5.14,5.14,0,0,1,.84-2.48,3.82,3.82,0,0,1,3.43-1.6c2.3,0,3.72,1.13,3.72,3,0,1.38-.75,2.27-3.24,4a37.42,37.42,0,0,0-4.45,3.27,13.27,13.27,0,0,0-3.7,5.29,13.63,13.63,0,0,0-.7,3.46,25.26,25.26,0,0,1,3.48-.14Zm16.55.44a7.68,7.68,0,0,0,6.56-3.19c1.27-1.76,2-4.67,2-8a18.31,18.31,0,0,0-1-6.27,7.5,7.5,0,0,0-1.79-2.72,7.83,7.83,0,0,0-5.7-2.19,7.66,7.66,0,0,0-6.88,3.75,15.89,15.89,0,0,0-1.65,7.48,18.21,18.21,0,0,0,1.05,6.21,7.54,7.54,0,0,0,1.79,2.73A7.76,7.76,0,0,0,489.78,119Zm0-3.14a3.92,3.92,0,0,1-3.45-1.75c-.87-1.24-1.38-3.59-1.38-6.43s.6-5.15,1.78-6.56a3.63,3.63,0,0,1,3-1.38,3.91,3.91,0,0,1,2.94,1.14c1.21,1.32,1.89,3.78,1.89,6.91s-.68,5.67-1.89,6.94A3.92,3.92,0,0,1,489.8,115.89Zm12.64-12.8v4h3.94v-4Zm0,11.56v3.94h3.94v-3.94Zm8.07-1.16a7.2,7.2,0,0,0,1.52,3c1.53,1.76,3.69,2.57,6.85,2.57,2.89,0,5.16-.76,6.65-2.19a5.78,5.78,0,0,0,1.62-3.94,5.27,5.27,0,0,0-1.3-3.73,5.66,5.66,0,0,0-3.87-1.8,6.54,6.54,0,0,0,2.62-1.06,5,5,0,0,0,1.87-4c0-3.51-2.92-5.77-7.43-5.77a8.72,8.72,0,0,0-5.29,1.48,6.7,6.7,0,0,0-2.57,3.86l3.87.65a3.92,3.92,0,0,1,1.13-2.08,4.53,4.53,0,0,1,2.94-.84c2.3,0,3.57,1.06,3.57,2.92,0,2.08-1.6,3.32-4.3,3.32a19.16,19.16,0,0,1-2.62-.13v3.34a23.29,23.29,0,0,1,2.89-.13,7,7,0,0,1,3.11.65,3.15,3.15,0,0,1,1.51,2.83c0,2.13-1.7,3.51-4.37,3.51a5.06,5.06,0,0,1-3.27-1,3.48,3.48,0,0,1-1.27-2.22ZM539.57,119a7.68,7.68,0,0,0,6.56-3.19c1.27-1.76,2-4.67,2-8a18.08,18.08,0,0,0-1.06-6.27,7.47,7.47,0,0,0-1.78-2.72,7.85,7.85,0,0,0-5.7-2.19,7.66,7.66,0,0,0-6.88,3.75,15.89,15.89,0,0,0-1.65,7.48,18,18,0,0,0,1.06,6.21,7.51,7.51,0,0,0,1.78,2.73A7.84,7.84,0,0,0,539.57,119Zm0-3.14a3.92,3.92,0,0,1-3.45-1.75c-.87-1.24-1.38-3.59-1.38-6.43s.59-5.15,1.78-6.56a3.63,3.63,0,0,1,3-1.38,3.94,3.94,0,0,1,2.94,1.13c1.21,1.33,1.89,3.78,1.89,6.92s-.68,5.67-1.89,6.93A3.92,3.92,0,0,1,539.59,115.89Z"/><path id="パス_1751" data-name="パス 1751" class="cls-3" d="M429.56,109.23h16.13"/><path id="パス_1753" data-name="パス 1753" d="M334.19,178.39a22.9,22.9,0,0,1-.21-3.51V161.22a41.49,41.49,0,0,1,.21-4.46,19.41,19.41,0,0,1-2.75.14H329a15.24,15.24,0,0,1-2.7-.16v3.42A25.76,25.76,0,0,1,329,160h1.3v14.88a21.71,21.71,0,0,1-.22,3.51Zm9.59-5.1a7.07,7.07,0,0,0,1.51,3c1.53,1.75,3.69,2.56,6.85,2.56,2.89,0,5.16-.75,6.65-2.18a5.8,5.8,0,0,0,1.62-3.94,5.24,5.24,0,0,0-1.3-3.73,5.71,5.71,0,0,0-3.87-1.81,6.67,6.67,0,0,0,2.62-1.05,5,5,0,0,0,1.87-4c0-3.51-2.92-5.78-7.43-5.78A8.73,8.73,0,0,0,347,157.9a6.7,6.7,0,0,0-2.57,3.86l3.87.64a3.89,3.89,0,0,1,1.13-2.07,4.42,4.42,0,0,1,2.94-.84c2.3,0,3.57,1,3.57,2.91,0,2.08-1.6,3.33-4.3,3.33a19.17,19.17,0,0,1-2.62-.14v3.35a23.3,23.3,0,0,1,2.89-.14,7,7,0,0,1,3.1.65,3.16,3.16,0,0,1,1.52,2.84c0,2.13-1.7,3.51-4.38,3.51a5.15,5.15,0,0,1-3.27-1.06,3.47,3.47,0,0,1-1.26-2.21Zm21.13-10.4v3.94h3.95v-3.94Zm0,11.56v3.94h3.95v-3.94Zm16.56,4.37a7.66,7.66,0,0,0,6.56-3.19c1.26-1.75,2-4.67,2-8a18.07,18.07,0,0,0-1.06-6.26,7.51,7.51,0,0,0-1.78-2.73,7.83,7.83,0,0,0-5.7-2.19,7.67,7.67,0,0,0-6.88,3.76A15.89,15.89,0,0,0,373,167.7a18.05,18.05,0,0,0,1.05,6.21,7.69,7.69,0,0,0,1.78,2.72A7.8,7.8,0,0,0,381.47,178.82Zm0-3.13a3.93,3.93,0,0,1-3.45-1.76c-.87-1.24-1.38-3.59-1.38-6.42s.59-5.16,1.78-6.56a3.64,3.64,0,0,1,3-1.39,3.91,3.91,0,0,1,2.94,1.14c1.21,1.32,1.89,3.78,1.89,6.91s-.68,5.67-1.89,6.94A3.92,3.92,0,0,1,381.49,175.69ZM402,178.82a7.66,7.66,0,0,0,6.56-3.19c1.27-1.75,2-4.67,2-8a18.29,18.29,0,0,0-1.05-6.26,7.64,7.64,0,0,0-1.78-2.73,7.86,7.86,0,0,0-5.7-2.19,7.69,7.69,0,0,0-6.89,3.76,15.89,15.89,0,0,0-1.65,7.48,18.3,18.3,0,0,0,1.06,6.21,7.69,7.69,0,0,0,1.78,2.72A7.78,7.78,0,0,0,402,178.82Zm0-3.13a4,4,0,0,1-3.46-1.76c-.86-1.24-1.38-3.59-1.38-6.42s.6-5.16,1.79-6.56a3.62,3.62,0,0,1,3-1.39A3.89,3.89,0,0,1,405,160.7c1.22,1.32,1.89,3.78,1.89,6.91s-.67,5.67-1.89,6.94A3.92,3.92,0,0,1,402.07,175.69Z"/><path id="パス_1755" data-name="パス 1755" d="M473.23,178.39c1.72,0,2.8.05,4.07.16V175a28.73,28.73,0,0,1-3.94.21H465.8a6.62,6.62,0,0,1,1.54-2.43,23.66,23.66,0,0,1,3.21-2.7,34.29,34.29,0,0,0,4.54-3.32,5.5,5.5,0,0,0,1.92-4.32c0-3.7-2.92-6-7.64-6a7.89,7.89,0,0,0-6.19,2.4,8.16,8.16,0,0,0-1.86,4.33l3.86.46a5.14,5.14,0,0,1,.84-2.49,3.82,3.82,0,0,1,3.43-1.6c2.3,0,3.72,1.14,3.72,3,0,1.38-.75,2.27-3.24,4a37.5,37.5,0,0,0-4.45,3.28,13.24,13.24,0,0,0-3.7,5.28,13.63,13.63,0,0,0-.7,3.46,23.78,23.78,0,0,1,3.48-.13Zm16.55.43a7.66,7.66,0,0,0,6.56-3.19c1.27-1.75,2-4.67,2-8a18.29,18.29,0,0,0-1-6.26,7.54,7.54,0,0,0-1.79-2.73,7.83,7.83,0,0,0-5.7-2.19,7.67,7.67,0,0,0-6.88,3.76,15.89,15.89,0,0,0-1.65,7.48,18.29,18.29,0,0,0,1.05,6.21,7.58,7.58,0,0,0,1.79,2.72A7.76,7.76,0,0,0,489.78,178.82Zm0-3.13a3.93,3.93,0,0,1-3.45-1.76c-.87-1.24-1.38-3.59-1.38-6.42s.6-5.16,1.78-6.56a3.64,3.64,0,0,1,3-1.39,4,4,0,0,1,2.94,1.14c1.21,1.33,1.89,3.78,1.89,6.92s-.68,5.67-1.89,6.93A3.92,3.92,0,0,1,489.8,175.69Zm12.64-12.8v3.94h3.94v-3.94Zm0,11.55v3.95h3.94v-3.94Zm8.07-1.16a7.24,7.24,0,0,0,1.52,3c1.53,1.75,3.69,2.56,6.85,2.56,2.89,0,5.16-.75,6.65-2.18a5.8,5.8,0,0,0,1.62-3.94,5.24,5.24,0,0,0-1.3-3.73,5.71,5.71,0,0,0-3.87-1.81,6.67,6.67,0,0,0,2.62-1.05,5,5,0,0,0,1.87-4c0-3.51-2.92-5.78-7.43-5.78a8.73,8.73,0,0,0-5.29,1.49,6.7,6.7,0,0,0-2.57,3.86l3.87.64a3.89,3.89,0,0,1,1.13-2.07,4.42,4.42,0,0,1,2.94-.84c2.3,0,3.57,1,3.57,2.91,0,2.08-1.6,3.33-4.3,3.33a19.17,19.17,0,0,1-2.62-.14v3.35a23.3,23.3,0,0,1,2.89-.14,7.09,7.09,0,0,1,3.11.65,3.17,3.17,0,0,1,1.51,2.84c0,2.13-1.7,3.51-4.37,3.51a5.13,5.13,0,0,1-3.27-1.06,3.48,3.48,0,0,1-1.27-2.21Zm29.06,5.54a7.66,7.66,0,0,0,6.56-3.19c1.27-1.75,2-4.67,2-8a18.07,18.07,0,0,0-1.06-6.26,7.51,7.51,0,0,0-1.78-2.73,7.85,7.85,0,0,0-5.7-2.19,7.67,7.67,0,0,0-6.88,3.76,15.89,15.89,0,0,0-1.65,7.48,18.06,18.06,0,0,0,1.06,6.21,7.56,7.56,0,0,0,1.78,2.72A7.76,7.76,0,0,0,539.57,178.82Zm0-3.13a3.93,3.93,0,0,1-3.45-1.76c-.87-1.24-1.38-3.59-1.38-6.42s.59-5.16,1.78-6.56a3.64,3.64,0,0,1,3-1.39,3.91,3.91,0,0,1,2.94,1.14c1.21,1.32,1.89,3.78,1.89,6.91s-.68,5.67-1.89,6.94A3.92,3.92,0,0,1,539.59,175.69Z"/><path id="パス_1754" data-name="パス 1754" class="cls-3" d="M429.56,169.71h16.13"/><path id="パス_1756" data-name="パス 1756" d="M334.19,238.18a22.9,22.9,0,0,1-.21-3.51V221a41.3,41.3,0,0,1,.21-4.45,19.41,19.41,0,0,1-2.75.13H329a14.35,14.35,0,0,1-2.7-.16V220a25.77,25.77,0,0,1,2.78-.17h1.3v14.88a21.71,21.71,0,0,1-.22,3.51Zm18.06.43a7.64,7.64,0,0,0,6.56-3.18c1.27-1.76,2-4.67,2-8a18.06,18.06,0,0,0-1.05-6.26,7.64,7.64,0,0,0-1.78-2.73,7.89,7.89,0,0,0-5.7-2.18,7.67,7.67,0,0,0-6.89,3.75,15.88,15.88,0,0,0-1.64,7.48,18,18,0,0,0,1.05,6.21,7.51,7.51,0,0,0,1.78,2.73A7.81,7.81,0,0,0,352.25,238.61Zm0-3.13a4,4,0,0,1-3.46-1.75c-.86-1.25-1.37-3.6-1.37-6.43s.59-5.16,1.78-6.56a3.61,3.61,0,0,1,3-1.38,3.88,3.88,0,0,1,2.94,1.14c1.22,1.32,1.89,3.78,1.89,6.91s-.67,5.67-1.89,6.94A4,4,0,0,1,352.28,235.48Zm12.63-12.8v3.94h3.95v-3.94Zm0,11.56v3.94h3.95v-3.94Zm16.56,4.37a7.65,7.65,0,0,0,6.56-3.18c1.26-1.76,2-4.67,2-8a18.07,18.07,0,0,0-1.06-6.26,7.51,7.51,0,0,0-1.78-2.73,7.86,7.86,0,0,0-5.7-2.18,7.64,7.64,0,0,0-6.88,3.75,15.89,15.89,0,0,0-1.65,7.48A18,18,0,0,0,374,233.7a7.64,7.64,0,0,0,1.78,2.73A7.83,7.83,0,0,0,381.47,238.61Zm0-3.13a4,4,0,0,1-3.45-1.75c-.87-1.25-1.38-3.6-1.38-6.43s.59-5.16,1.78-6.56a3.63,3.63,0,0,1,3-1.38,3.9,3.9,0,0,1,2.94,1.13c1.21,1.32,1.89,3.78,1.89,6.91s-.68,5.67-1.89,6.94A3.92,3.92,0,0,1,381.49,235.48ZM402,238.61a7.65,7.65,0,0,0,6.56-3.18c1.27-1.76,2-4.67,2-8a18.29,18.29,0,0,0-1.05-6.26,7.64,7.64,0,0,0-1.78-2.73,7.89,7.89,0,0,0-5.7-2.18,7.66,7.66,0,0,0-6.89,3.75,15.89,15.89,0,0,0-1.65,7.48,18.22,18.22,0,0,0,1.06,6.21,7.64,7.64,0,0,0,1.78,2.73A7.81,7.81,0,0,0,402,238.61Zm0-3.13a4,4,0,0,1-3.46-1.75c-.86-1.25-1.38-3.6-1.38-6.43s.6-5.16,1.79-6.56a3.61,3.61,0,0,1,3-1.38,3.88,3.88,0,0,1,2.94,1.13c1.22,1.32,1.89,3.78,1.89,6.91s-.67,5.67-1.89,6.94A3.92,3.92,0,0,1,402.07,235.48Z"/><path id="パス_1758" data-name="パス 1758" d="M471.72,238.18a22.9,22.9,0,0,1-.22-3.51V221a38.89,38.89,0,0,1,.22-4.45,19.62,19.62,0,0,1-2.76.13h-2.48a14.3,14.3,0,0,1-2.7-.16V220a25.77,25.77,0,0,1,2.78-.17h1.3v14.88a22.9,22.9,0,0,1-.22,3.51Zm10.07-4.81a7.73,7.73,0,0,0,1.7,2.95,7.9,7.9,0,0,0,6.15,2.35c5,0,8.13-2.95,8.13-7.7a6.61,6.61,0,0,0-1.92-5.07,6.94,6.94,0,0,0-5.26-2,6.62,6.62,0,0,0-4.62,1.65c.08-.54.13-.92.16-1.14l.43-4.72h6.35a25.92,25.92,0,0,1,3.73.21v-3.4a20.59,20.59,0,0,1-3.76.22h-6.64c-1.43,0-2.05,0-2.86-.08,0,1.35-.08,2.27-.11,2.75l-.62,6.7c0,.76-.08.89-.35,2.81l3.37.33a3.15,3.15,0,0,1,.81-1.22,4.76,4.76,0,0,1,3.35-1.24,4,4,0,0,1,4.25,3.79,3.49,3.49,0,0,1,0,.56,4.19,4.19,0,0,1-3.9,4.45,4.69,4.69,0,0,1-.53,0,4.07,4.07,0,0,1-3.32-1.38,3.74,3.74,0,0,1-.81-1.57Zm20.65-10.69v3.94h3.94v-3.94Zm0,11.56v3.94h3.94v-3.94ZM519,238.61a7.64,7.64,0,0,0,6.56-3.18c1.27-1.76,2-4.67,2-8a18.06,18.06,0,0,0-1-6.26,7.64,7.64,0,0,0-1.78-2.73,7.88,7.88,0,0,0-5.7-2.18,7.67,7.67,0,0,0-6.89,3.75,15.88,15.88,0,0,0-1.64,7.48,18,18,0,0,0,1.05,6.21,7.51,7.51,0,0,0,1.78,2.73A7.79,7.79,0,0,0,519,238.61Zm0-3.13a4,4,0,0,1-3.46-1.75c-.86-1.25-1.37-3.6-1.37-6.43s.59-5.16,1.78-6.56a3.61,3.61,0,0,1,3-1.38,3.87,3.87,0,0,1,2.94,1.13c1.22,1.32,1.89,3.78,1.89,6.91s-.67,5.67-1.89,6.94A3.9,3.9,0,0,1,519,235.48Zm20.55,3.13a7.65,7.65,0,0,0,6.56-3.18c1.27-1.76,2-4.67,2-8a18.07,18.07,0,0,0-1.06-6.26,7.51,7.51,0,0,0-1.78-2.73,7.88,7.88,0,0,0-5.7-2.18,7.64,7.64,0,0,0-6.88,3.75,15.89,15.89,0,0,0-1.65,7.48,18,18,0,0,0,1.06,6.21,7.51,7.51,0,0,0,1.78,2.73A7.79,7.79,0,0,0,539.57,238.61Zm0-3.13a4,4,0,0,1-3.45-1.75c-.87-1.25-1.38-3.6-1.38-6.43s.59-5.16,1.78-6.56a3.63,3.63,0,0,1,3-1.38,3.9,3.9,0,0,1,2.94,1.13c1.21,1.32,1.89,3.78,1.89,6.91s-.68,5.67-1.89,6.94A3.92,3.92,0,0,1,539.59,235.48Z"/><path id="パス_1757" data-name="パス 1757" class="cls-3" d="M429.56,230.2h16.13"/></g></g><path id="パス_1739" data-name="パス 1739" d="M.29,337.28A51.26,51.26,0,0,1,0,343.09H5.71v-2.88H28v2.88h5.81a49,49,0,0,1-.29-5.81v-31a44.66,44.66,0,0,1,.24-4.9,37.36,37.36,0,0,1-5.18.24H5.38a43.13,43.13,0,0,1-5.33-.24c.14,1.59.24,3.27.24,5.14ZM5.71,306.7H28v11.14H5.71Zm0,16.18H28v12.29H5.71Zm58-10.46A45.13,45.13,0,0,1,47,330.85a16.44,16.44,0,0,1,3.27,5,46.08,46.08,0,0,0,7.77-6.72v5.42a35.14,35.14,0,0,1,4.8-.29h3.8v3.27a43.79,43.79,0,0,1-.34,5.95h6a43.79,43.79,0,0,1-.34-5.95V334.3h4.27a36.6,36.6,0,0,1,4.8.29v-5.47a53.67,53.67,0,0,0,8.07,6.67,19.45,19.45,0,0,1,3.26-5.23A41.25,41.25,0,0,1,82,322.5a47.72,47.72,0,0,1-7.2-10.08H85.06a56.36,56.36,0,0,1,5.81.28v-5.85a39,39,0,0,1-5.81.33h-13v-3.45a24.07,24.07,0,0,1,.34-4.41h-6a30.28,30.28,0,0,1,.29,4.46v3.41H54.33a40.34,40.34,0,0,1-5.71-.34v5.86a54.45,54.45,0,0,1,5.71-.29Zm8.3,16.7v-7.59a38.17,38.17,0,0,0-.43-5.33c3.46,6.05,5.57,9,9.31,12.72a29.75,29.75,0,0,1-4.22.2Zm-5.37,0H62.59a30.38,30.38,0,0,1-4.27-.2,47.51,47.51,0,0,0,8.73-12.72,46.17,46.17,0,0,0-.38,5.38Zm52.85-24.63v1.83H107.33a52.79,52.79,0,0,1-5.9-.2,30.58,30.58,0,0,1,.19,3.94v3a22,22,0,0,1-.28,3.8h5v-6.77h13.2v4.75a37.92,37.92,0,0,1-.24,4.52h5.52a27.31,27.31,0,0,1-.19-4.52v-4.75h13.92v6.77h4.94a21.81,21.81,0,0,1-.24-3.79v-3a23.47,23.47,0,0,1,.19-3.93,56.23,56.23,0,0,1-6,.19H124.62V304.5h11a47.88,47.88,0,0,1,4.94.19V300a44.63,44.63,0,0,1-5.42.29H109.78a46.75,46.75,0,0,1-5.42-.29v4.66a49.65,49.65,0,0,1,5-.19Zm20,20.55a40.35,40.35,0,0,1,.19-4.66,41.83,41.83,0,0,1-4.75.2H109.63a38.65,38.65,0,0,1-4.56-.2,44.49,44.49,0,0,1,.24,4.61v8.83a36.1,36.1,0,0,1-.29,4.76h5.33v-2.45h9.17v3.26c0,3.22,1.39,3.7,10.8,3.7,8.21,0,10.94-.33,12.34-1.53,1.24-1.06,1.77-3.08,1.92-7.25a17,17,0,0,1-5-1.92Zm-15,11.09h14.83c-.14,1.63-.33,2.07-.91,2.35-.77.39-3.31.63-6.81.63-3.89,0-6.15-.19-6.77-.53-.24-.1-.34-.34-.34-.72Zm-5-11.85v2.2h-9.17v-2.21Zm5,0h10v2.2h-10Zm-5,5.61v2.4h-9.17v-2.4Zm5,0h10v2.4h-10Zm-16.18-15.31a17.48,17.48,0,0,1,2.5-.15h4.23a16.65,16.65,0,0,1,2.44.15v-3.22a15.37,15.37,0,0,1-2.44.14h-4.23a11.05,11.05,0,0,1-2.5-.14Zm0,4.51a17.48,17.48,0,0,1,2.5-.15h4.23a16.65,16.65,0,0,1,2.44.15v-3.22a16.65,16.65,0,0,1-2.44.15h-4.23a11.67,11.67,0,0,1-2.5-.15Zm18.43-4.51a17.48,17.48,0,0,1,2.5-.15h4.9a16.7,16.7,0,0,1,2.45.15v-3.22a15.42,15.42,0,0,1-2.45.14h-4.9a11.05,11.05,0,0,1-2.5-.14Zm0,4.51a17.48,17.48,0,0,1,2.5-.15h4.9a16.7,16.7,0,0,1,2.45.15v-3.22a16.7,16.7,0,0,1-2.45.15h-4.9a11.67,11.67,0,0,1-2.5-.15Zm46.37-.87H160.36a57.24,57.24,0,0,1-6.67-.28v5.8a61.9,61.9,0,0,1,6.53-.28h12.91v12.67c0,1.06-.33,1.25-2.3,1.25a41.64,41.64,0,0,1-7-.58,19.58,19.58,0,0,1,1.49,5.76c3.46.15,4.42.2,5.38.2,6.38,0,8-1.06,8-5.28v-14h11.76a59.33,59.33,0,0,1,6.53.28v-5.81a52.76,52.76,0,0,1-6.53.29H178.75v-2.06a65.74,65.74,0,0,0,10.23-7.4c3.26-3.12,3.26-3.12,4.51-4.27l-3.12-3.5a19.49,19.49,0,0,1-4.18.24H164.45a46.11,46.11,0,0,1-5.76-.29v5.67a47,47,0,0,1,5.81-.29h19.15a42.14,42.14,0,0,1-8.16,6.14H173c.1,1.1.14,2.12.14,3.65Zm52.13-11.13v2.25h-9.84a34.71,34.71,0,0,1-4.56-.19,32.92,32.92,0,0,1,.19,3.84v9.46a32.92,32.92,0,0,1-.19,3.84,36.53,36.53,0,0,1,4.56-.19h20.3v2.25H212.06a34.6,34.6,0,0,1-5.19-.29V333a43.3,43.3,0,0,1,5.09-.29h23.77v4.85c0,1-.29,1.1-2.06,1.1a37.24,37.24,0,0,1-5.38-.39,19.15,19.15,0,0,1,1.44,4.9c1.59.05,2.64.1,3.31.1,3.46,0,5.14-.24,6.24-1s1.49-1.58,1.49-3.36v-6.24h3.79a44.55,44.55,0,0,1,5,.29v-4.94a30.33,30.33,0,0,1-5.13.29h-3.7V326.1a40.55,40.55,0,0,1,4.8.19,30.67,30.67,0,0,1-.19-3.84V313a30.86,30.86,0,0,1,.19-3.84,34.78,34.78,0,0,1-4.56.19h-10.7v-2.25h14.2a36.86,36.86,0,0,1,5,.29v-4.9a29.37,29.37,0,0,1-5.13.28H230.3a21.11,21.11,0,0,1,.29-3.64H225a20.15,20.15,0,0,1,.28,3.64h-13.2a35.9,35.9,0,0,1-5.18-.28v4.9a36.12,36.12,0,0,1,5.09-.29Zm0,6.24v2.5H216v-2.5Zm5,0h10v2.5h-10Zm-5,6.14v2.64H216v-2.64Zm5,0h10v2.64h-10Zm-4.12,19.44a27.77,27.77,0,0,0-6.92-6L215.42,336a28.31,28.31,0,0,1,6.72,6.34Zm40-20.35h8.59c1.68,0,3.27.05,4.42.1-.12-1.42-.17-2.85-.15-4.27V305c0-1.87.05-3.12.15-4.46a42.25,42.25,0,0,1-4.9.19h-8.5a44.5,44.5,0,0,1-4.9-.19,51.39,51.39,0,0,1,.2,5.41v31.44a45.67,45.67,0,0,1-.29,6h5.67a41.57,41.57,0,0,1-.29-5.9Zm0-13.68h8.16V308h-8.16Zm0,6.82h8.16v3h-8.16Zm34.75-5.81a43.94,43.94,0,0,1,.24-5.38,43.73,43.73,0,0,1-5,.19h-8.93a40.14,40.14,0,0,1-4.9-.19c.1,1.49.15,2.83.15,4.47v9.4c0,2.07-.05,3.27-.15,4.37,1-.1,2.69-.14,4.42-.14h9v18.14c0,1-.33,1.2-1.82,1.2a52,52,0,0,1-6.48-.43,17.84,17.84,0,0,1,1.3,5.23c2,.05,3.07.1,3.93.1,6.92,0,8.21-.86,8.21-5.47Zm-13.63-1h8.5V308h-8.5Zm0,6.82h8.5v3h-8.5Zm44,18.67v7.1c0,1-.34,1.1-2.45,1.1a45.6,45.6,0,0,1-6-.48,18.24,18.24,0,0,1,1.58,5.09c2.5.15,4.08.2,4.7.2,4.32,0,5.95-.39,6.77-1.59.48-.67.62-1.34.62-3v-8.4h12.48a47.23,47.23,0,0,1,5.95.29v-5.33a40,40,0,0,1-5.9.34H336.58v-.05a67.21,67.21,0,0,0,9.6-7l1.72-1.44-2.64-2.93a21.06,21.06,0,0,1-3.64.2H325.73a35.73,35.73,0,0,1-4.85-.24V319c1.6-.15,3.2-.21,4.8-.2h13.2a25,25,0,0,1-5.66,3.89h-2.07a23.36,23.36,0,0,1,.15,2.64v.34H318.24a41.85,41.85,0,0,1-5.81-.34v5.33a47.82,47.82,0,0,1,5.86-.29Zm-12.82-23.71a46.49,46.49,0,0,1-5.66-.2,33.31,33.31,0,0,1,.19,4v4.41a20.79,20.79,0,0,1-.24,3.7H318v-7.44h31.3v7.44h5.23a31.63,31.63,0,0,1-.24-3.64v-4.47a31.11,31.11,0,0,1,.19-4,58.05,58.05,0,0,1-5.9.19h-2.16a49.07,49.07,0,0,0,3.6-5.76l-5.19-1.44a31.85,31.85,0,0,1-3.93,7.2h-4.08a37.87,37.87,0,0,0-3.32-7.44l-5,1.39a27.71,27.71,0,0,1,2.93,6.05h-5.09a35.21,35.21,0,0,0-4.37-6.87l-4.85,1.44a27.38,27.38,0,0,1,3.6,5.43Zm79.2,13.3a28.87,28.87,0,0,1-3.79,7.72,29.92,29.92,0,0,1-3.79-7.48l-4.37,2.2a38.09,38.09,0,0,0,5,9.22c-3.55,3.6-6.67,5.47-12.33,7.48a16.79,16.79,0,0,1,3,4.66,35.08,35.08,0,0,0,12.53-8.3c3.55,3.6,6.91,5.81,12.82,8.21a19.24,19.24,0,0,1,2.68-5.24c-5.71-1.87-9-3.74-12.29-6.91a49.37,49.37,0,0,0,5.33-9.55Zm-10.37-9.5c-2,4.41-3.93,7.15-6.57,9.45a21.65,21.65,0,0,1-4.52-7.1h1.92a26.08,26.08,0,0,1,2.79.15V308a16.34,16.34,0,0,1-2.88.19h-1.92v-4a41.58,41.58,0,0,1,.24-5H371a32,32,0,0,1,.24,5v4h-2.4a25.49,25.49,0,0,1-3.7-.19v5a30.57,30.57,0,0,1,3.7-.19h1.87c-1.39,5.41-4.22,11.46-6.91,14.77a31.3,31.3,0,0,1,2.64,5.43c2.16-3.22,3.41-6,5.09-11.33-.14,2.59-.19,3.94-.19,3.94l-.05,2.44v9.84a37.47,37.47,0,0,1-.34,5.9h5.48a46.36,46.36,0,0,1-.29-5.9V326.29c0-.53-.05-3-.05-3.17-.1-2.64-.1-2.64-.14-3.5a42.1,42.1,0,0,0,3.12,5.66,26.79,26.79,0,0,1,1.58-3.5A15.15,15.15,0,0,1,383,325c4.13-4,5.62-6.05,8.93-12.43Zm4.08-5.24h-4.17a39.58,39.58,0,0,1-5.33-.28v5.32a43.81,43.81,0,0,1,5.37-.28H403.1c2.12,0,3.75.1,5.33.24v-5.29a38.76,38.76,0,0,1-5.28.29h-6.53v-2.07a18.67,18.67,0,0,1,.24-3.5h-5.71a18.11,18.11,0,0,1,.24,3.6Zm4.8,7.44c3.22,5.72,5.14,8,9.7,11.81a19.9,19.9,0,0,1,3-4.56,28.7,28.7,0,0,1-8.5-9.6ZM454,302.06a55.42,55.42,0,0,1-6.57.24H432.14a53.45,53.45,0,0,1-6.57-.34v6.34a45.48,45.48,0,0,1,6.29-.34h14.83a78.77,78.77,0,0,0-8.4,13.92,72.83,72.83,0,0,0-5.81,18.62h7.58a62,62,0,0,1,8.93-26,31.42,31.42,0,0,1,5-6.91Zm27.12,20.11a46.61,46.61,0,0,1-6.1,10.46l5.76,1.06c1.16-1.78,1.54-2.4,2.21-3.6h19.25c-.48,4.17-1,6.33-1.73,7.3-.57.72-1.63,1-4,1-1.73,0-5.23-.29-8.5-.68a12.56,12.56,0,0,1,1.3,5.14c2.93.19,4.75.29,7.25.29,5,0,6.86-.53,8.35-2.35,1.3-1.59,2.21-5.33,3-12.24.24-2.07.34-2.79.39-3.08a41,41,0,0,1-4.95.2h-18.1c.63-1.25.87-1.83,1.59-3.5h21.6a44.61,44.61,0,0,1,5.66.28v-5.18a42.84,42.84,0,0,1-5.66.29H475.82a42.15,42.15,0,0,1-5.62-.29v5.18a43.21,43.21,0,0,1,5.57-.28Zm-4.8-11.38a32.69,32.69,0,0,1-.19,4.08,45.51,45.51,0,0,1,4.95-.19h22.17a43.12,43.12,0,0,1,4.95.19,32.6,32.6,0,0,1-.2-4.08v-6.24a31.12,31.12,0,0,1,.2-4,38.6,38.6,0,0,1-5.48.24H481.53a44.59,44.59,0,0,1-5.42-.24,33,33,0,0,1,.19,4Zm26.4-5.47v4.94H481.44v-4.95Zm41.43,34.79a61,61,0,0,0-5.57-10.61l-4,1.68a26.5,26.5,0,0,1,2,3.6,59.07,59.07,0,0,1-5.71,1.59v-7.54h8.3A22.36,22.36,0,0,1,542,329c-.1-1-.1-2.07-.1-3.89v-9A32.73,32.73,0,0,1,542,312a25.27,25.27,0,0,1-3.79.2h-1.87v-1.54a12.59,12.59,0,0,1,.19-2.45h-4.8a12.09,12.09,0,0,1,.2,2.4v1.59h-2.6c-1.2,0-1.58,0-2.44-.05a41.83,41.83,0,0,0,7.53-8,30.85,30.85,0,0,0,6.53,7,12,12,0,0,1,2.11-3.65v3a29.52,29.52,0,0,1-.14,3H545c.05.91.05,1.06.05,1.83v24.43a28.53,28.53,0,0,1-.24,4.13h5.23v-2.45H560.3v2.3h5.14a33.1,33.1,0,0,1-.19-4.23v-8.25a28.25,28.25,0,0,1,.14-3.79,37.16,37.16,0,0,1-3.79.14H550v-3.45h10c1.4,0,2.4.05,3.56.15a22.25,22.25,0,0,1-.15-3.65v-7.1h3.31a21,21,0,0,1-.14-3.27v-3.6c0-1.12,0-2.24.14-3.36a40.12,40.12,0,0,1-4.65.24H556.9v-.81a15.75,15.75,0,0,1,.24-3.36h-5.62a23.52,23.52,0,0,1,.24,3.36v.81h-4.85a39.45,39.45,0,0,1-4-.14c.1.86.1,1.44.14,3a23.59,23.59,0,0,1-6.43-6.92h-4.85a17.46,17.46,0,0,1-3.65,4.76,29.86,29.86,0,0,1-5.9,4.65A20.35,20.35,0,0,1,524,314.3c.91-.68,1.3-1,1.87-1.35.05,1,.1,1.59.1,3v21.4a23.33,23.33,0,0,1-3.12.39l1.2,5.23a34.43,34.43,0,0,1,3.74-1,94.07,94.07,0,0,0,10.65-3.12c.39,1,.77,1.92,1.35,3.65Zm17.67-28.7c-.87,0-1.25,0-2,0H548V308.1h13.82ZM550,315.58h8.55v4.32H550ZM550,332H560.3v4.94H550Zm-19.2-13.44v-2.5h6.24v2.5Zm0,3.65h6.24v2.69h-6.24Zm74.11-20.45a51.48,51.48,0,0,1-6.57.24H583.1a53.45,53.45,0,0,1-6.57-.34V308a45.48,45.48,0,0,1,6.29-.34h14.83a79.54,79.54,0,0,0-8.4,14c-2.79,5.95-4.23,10.56-5.81,18.58H591a62,62,0,0,1,8.93-26,33,33,0,0,1,5-6.91Zm26.93,13.54a24.62,24.62,0,0,1-2.64.28l1,4.9c.67-.19,1.35-.38,2-.52a102.16,102.16,0,0,0,10.85-2.79v-4.56a48.81,48.81,0,0,1-6.39,1.78V309h2.93a28.66,28.66,0,0,1,3.46.19v-5a16.45,16.45,0,0,1-3.5.24h-2.88V304a40.1,40.1,0,0,1,.24-4.9h-5.29a37.07,37.07,0,0,1,.24,4.94Zm17.43-5.19a42,42,0,0,0,6-2.73c2-1.06,2.93-1.59,3.22-1.73l-2.69-4.32a25,25,0,0,1-6.57,3.84v-1.73a26.08,26.08,0,0,1,.24-4.32h-5.33a47.26,47.26,0,0,1,.24,4.76v11.9c0,1.58.29,2.3,1.2,2.88l-3.84-.63a16,16,0,0,1-1.73,4.27H637c-2.64,0-3.55,0-4.9-.14a37.33,37.33,0,0,1,.19,4.61v11.85a27.07,27.07,0,0,1-.29,4.85h5.19V341.7h13.92v1.87h5.42a50.12,50.12,0,0,1-.29-5.47v-11a40.45,40.45,0,0,1,.2-5,30.23,30.23,0,0,1-4.85.19h-6.1c.38-.67.62-1.1,1-1.92.14-.33.24-.52.28-.62l.34-.67a18.56,18.56,0,0,0,3.94.24c4.22,0,5.71-.24,6.57-1s1.39-2.35,1.59-6.05a10.52,10.52,0,0,1-4.37-1.58c0,2.3-.24,3.5-.58,3.84s-.81.38-2.21.38c-2.35,0-2.73-.14-2.73-1.1Zm-12.15,16.47h13.92v3.16H637.15Zm0,7.3h13.92v3.5H637.15Zm-20.69,3a58.54,58.54,0,0,1-.28,6.62h5.47a54.75,54.75,0,0,1-.24-6.53v-32H626a49.11,49.11,0,0,1-4.18,11.33,16.34,16.34,0,0,1,3.36,6.14,15,15,0,0,1,.77,4.13c0,1.78-.53,2.21-2.69,2.21a11.61,11.61,0,0,1-1.44-.1,9.87,9.87,0,0,1,.91,4.85h.68a10.24,10.24,0,0,0,4.7-.82c1.77-.91,2.64-2.83,2.64-5.9a17.59,17.59,0,0,0-1.1-5.61,26.34,26.34,0,0,0-3-5.24c1.2-2.5,1.78-3.74,2.45-5.52s1.92-5.08,2.16-5.95a7.27,7.27,0,0,1,.57-1.58L628.94,300a21.61,21.61,0,0,1-3.6.19h-5.23a34.31,34.31,0,0,1-3.79-.15c.1.87.14,2.36.14,4.85Z"/></g></g></g></svg>