<svg xmlns="http://www.w3.org/2000/svg" xmlns:xlink="http://www.w3.org/1999/xlink" width="661.157" height="97.129" viewBox="0 0 661.157 97.129"><defs><linearGradient id="a" y1="0.5" x2="1" y2="0.5" gradientUnits="objectBoundingBox"><stop offset="0" stop-color="#00fccc"/><stop offset="0" stop-color="#00caf9"/><stop offset="0.143" stop-color="#1ba7fb"/><stop offset="1" stop-color="#6945ff"/></linearGradient></defs><path d="M778.905,437.976a43.6,43.6,0,0,0,.515-8.034v-9.064a71.3,71.3,0,0,1-7.519,17c-4.12-6.18-6.7-9.167-11.433-13.184,6.694-10.815,8.858-21.321,8.858-44.187,0-3.5-.1-5.871-.206-8.24-.721.31-.927.516-1.854.927a51.321,51.321,0,0,0-6.593-13.8c11.536-5.253,19.364-10.918,24.824-17.613h15.759c4.944,4.944,11.433,9.064,19.878,12.669-.1-2.164-.206-3.193-.411-5.047h15.656a84.482,84.482,0,0,0-.412,10.2v42.951c0,5.562,0,7.52.412,10.3H820.724a67.475,67.475,0,0,0,.515-10.4V359.7a83.183,83.183,0,0,0-4.429,9.064c-3.4-1.854-4.739-2.575-7.416-4.325v3.811c-2.164-.1-3.708-.206-5.872-.206h-17.2a46.038,46.038,0,0,0-6.077.206v-3.193c-2.884,2.06-5.15,3.708-8.446,5.666,3.4.1,3.811.1,7.313.1h28.943c4.12,0,5.768-.1,8.343-.309-.206,2.369-.309,4.635-.309,7.725v19.055a55.791,55.791,0,0,0,.309,7.828c-2.987-.206-4.326-.206-6.7-.206H782.716c-.206,1.443-.31,1.957-.412,2.884h28.84c2.781,0,4.429-.1,6.9-.206-.206,2.369-.206,4.326-.206,7.313v13.7a55.514,55.514,0,0,0,.412,8.033H803.419v-2.781H793.325v4.12Zm14.523-14.832h9.991v-4.738h-9.991Zm-9.785-28.016h17.818v-3.3H783.849C783.746,393.274,783.746,393.583,783.643,395.128Zm.411-11.33h17.407V380.6H784.055Zm4.739-25.75h11.433a42.14,42.14,0,0,1-6.077-5.458A54.506,54.506,0,0,1,788.793,358.048ZM516.255,437.976a70.655,70.655,0,0,0,.721-11.021v-10.4c0-2.266,0-4.945.206-8.549-7.622,11.741-16.377,19.467-31.415,27.6a62.525,62.525,0,0,0-9.681-15.038,92.217,92.217,0,0,0,17.407-9.374,62.812,62.812,0,0,0,14.522-13.6H491.639a111.6,111.6,0,0,0-12.978.617V382.562a96.408,96.408,0,0,0,12.772.515h4.223a63.127,63.127,0,0,0-5.871-13.7l15.038-3.914A82.662,82.662,0,0,1,511,380.193l-11.124,2.884h17.1V365.258H494.831a90.246,90.246,0,0,0-11.845.515V350.014a104.009,104.009,0,0,0,12.772.618h21.218V348.16a52,52,0,0,0-.515-7.312h16.892a55.95,55.95,0,0,0-.412,7.519v2.266h22.866a103.126,103.126,0,0,0,12.977-.618v15.759a87.391,87.391,0,0,0-11.845-.515h-24v17.819h4.635a78.009,78.009,0,0,0,7.622-17.613l15.759,3.605a93.389,93.389,0,0,1-6.592,14.008h6.283a88.448,88.448,0,0,0,12.361-.515v15.656a115.526,115.526,0,0,0-13.184-.617H541.387c8.343,10.4,18.54,17.2,34.2,22.969a71.789,71.789,0,0,0-9.373,15.45c-9.167-4.738-14.522-8.343-20.6-13.6A72.209,72.209,0,0,1,532.633,408a22.493,22.493,0,0,0,.1,2.575c0,.515.1,2.471.206,5.665v10.712a81.345,81.345,0,0,0,.721,11.021Zm-142.655,0a79.24,79.24,0,0,0,.721-11.845V415.007c0-1.957.206-6.18.31-8.652a72.785,72.785,0,0,1-14.215,15.964,106.779,106.779,0,0,1-17.1,12.155,62.412,62.412,0,0,0-9.58-14.936,82.256,82.256,0,0,0,24.618-16.376,60.122,60.122,0,0,0,9.27-10.609H350.734a97.888,97.888,0,0,0-13.39.618V377a113.538,113.538,0,0,0,13.287.618h23.69v-10.3H356.3a107.553,107.553,0,0,0-13.494.515V351.868c3.3.516,6.489.618,13.39.618h18.128v-1.75a82.933,82.933,0,0,0-.515-9.682h17.2a90.745,90.745,0,0,0-.515,9.785v1.648h20.394a95.687,95.687,0,0,0,13.287-.618v15.965a100.074,100.074,0,0,0-13.081-.515h-20.6v10.3h25.647A111.88,111.88,0,0,0,429.53,377v16.171a118.011,118.011,0,0,0-13.39-.618H397.5A76.453,76.453,0,0,0,408.62,404.6c7.211,6.283,13.8,10.2,24.514,14.626a76.748,76.748,0,0,0-9.373,15.759c-15.244-8.446-25.133-16.892-33.578-28.943.206,5.253.309,8.034.309,8.549v11.33a93.512,93.512,0,0,0,.721,12.051Zm454.23-1.133a49.451,49.451,0,0,0-3.708-15.141,92.9,92.9,0,0,0,11.948.927c3.914,0,4.841-.618,4.841-3.091v-64.58a99.457,99.457,0,0,0-.618-13.082h16.48c-.515,2.884-.618,5.665-.618,12.463v68.186c0,11.742-3.6,14.626-18.23,14.626C836.276,437.152,836.173,437.152,827.83,436.843Zm-9.579-.206Zm107.12-19.363c0-9.58,8.549-16.48,20.5-16.48a24.157,24.157,0,0,1,18.437,7.931c2.06,2.266,3.193,4.325,4.738,8.137,5.562-2.472,8.137-5.974,8.137-11.228,0-7.21-7-11.639-18.437-11.639a59.233,59.233,0,0,0-31.724,9.476,76.561,76.561,0,0,0-9.887,7.725l-9.58-15.656c9.476-4.429,31.209-21.321,43.981-33.99-5.458.618-9.579.824-24.1,1.545-2.781.1-4.738.309-6.8.515l-.721-16.892a115.3,115.3,0,0,0,14.832.721c9.167,0,20.6-.411,31-1.236,4.532-.309,5.872-.618,7.828-1.442l8.447,12.463c-2.678,1.544-2.678,1.544-16.583,13.493-5.458,4.635-7.312,6.179-14.214,11.227a49.286,49.286,0,0,1,14.111-1.854c9.681,0,16.583,2.266,22.042,7,4.944,4.43,7.519,10.4,7.519,17.819,0,10.4-4.841,18.643-14.214,24.206-7.107,4.12-16.995,6.489-27.3,6.489C935.98,435.607,925.371,428.706,925.371,417.273Zm16.069,0c0,2.781,3.3,4.531,8.858,4.531a15.642,15.642,0,0,0,3.4-.309c-1.338-4.944-4.223-7.622-8.24-7.622C943.088,413.874,941.44,415.213,941.44,417.273ZM649.846,430.766a16.561,16.561,0,0,1-8.137-14.626c0-4.841,1.545-8.755,5.047-12.978,3.811-4.429,8.446-7.828,14.832-11.021,2.472-1.236,3.5-1.648,7.622-3.5a4.256,4.256,0,0,0-4.12-2.575c-5.253,0-12.36,3.605-19.57,9.888a65.4,65.4,0,0,0-9.888,10.4l-13.081-12.978a70.718,70.718,0,0,0,10.919-10.713c2.265-2.781,6.385-8.754,7.931-11.227,1.545-2.575,1.545-2.575,1.957-3.3h-3.3c-4.429,0-4.429,0-8.858-.1-1.442-.1-2.164-.1-3.605-.1h-1.544l.205-16.274c4.43,1.03,10.609,1.442,21.322,1.442h2.884a37.285,37.285,0,0,0,3.193-11.434l18.849,1.443a29.928,29.928,0,0,0-2.163,4.841c-1.339,2.986-1.958,4.635-2.06,4.84,1.03-.1,1.03-.1,6.283-.411,10.094-.516,20.6-1.854,26.059-3.3l.618,16.377q-4.79.463-9.27.927c-7.313.721-20.188,1.442-30.694,1.751a55.883,55.883,0,0,1-4.945,7.622,30.4,30.4,0,0,1,13.082-3.091c8.549,0,13.7,3.3,15.759,9.991,1.75-.617,1.75-.617,7.21-2.471.309-.1,3.09-1.03,6.385-2.06,5.872-1.957,6.593-2.164,8.24-3.091l6.283,16.275c-5.356.721-16.377,3.6-26.265,7,.1,2.781.1,2.884.1,7.416a63.949,63.949,0,0,0,.412,8.858l-16.789.515c.309-1.544.411-4.738.515-10.918l-.927.412c-4.739,2.266-5.356,2.678-7.21,4.326a7.1,7.1,0,0,0-2.678,5.252c0,3.914,3.811,5.459,13.8,5.459,12.36,0,24.2-1.854,32.96-5.15l1.133,18.54a66.4,66.4,0,0,0-9.167.927A203.343,203.343,0,0,1,674.36,435.5C662.721,435.5,655.408,434.062,649.846,430.766Zm186.533-17.922ZM816.4,405.119Z" transform="translate(-333.739 -340.847)" fill="url(#a)"/></svg>