<svg xmlns="http://www.w3.org/2000/svg" width="259.644" height="108.074" viewBox="0 0 259.644 108.074"><g transform="translate(2071.594 5534.8)"><path d="M6.72.18A12.574,12.574,0,0,1,6.6-1.77V-9.36a22.6,22.6,0,0,1,.12-2.475,10.909,10.909,0,0,1-1.53.075H3.81a8.336,8.336,0,0,1-1.5-.09v1.905a13.34,13.34,0,0,1,1.545-.09h.72V-1.77A12.451,12.451,0,0,1,4.455.18Zm5.325-2.835a3.962,3.962,0,0,0,.84,1.68A4.685,4.685,0,0,0,16.695.45a5.181,5.181,0,0,0,3.69-1.215,3.176,3.176,0,0,0,.9-2.19,2.881,2.881,0,0,0-.72-2.07A3.156,3.156,0,0,0,18.42-6.03a3.7,3.7,0,0,0,1.455-.585,2.735,2.735,0,0,0,1.035-2.2c0-1.95-1.62-3.21-4.125-3.21a4.87,4.87,0,0,0-2.94.825A3.727,3.727,0,0,0,12.42-9.06l2.145.36a2.2,2.2,0,0,1,.63-1.155,2.5,2.5,0,0,1,1.635-.465c1.275,0,1.98.585,1.98,1.62,0,1.155-.885,1.845-2.385,1.845A10.283,10.283,0,0,1,14.97-6.93v1.86a12.808,12.808,0,0,1,1.605-.075,3.886,3.886,0,0,1,1.725.36,1.748,1.748,0,0,1,.84,1.575c0,1.185-.945,1.95-2.43,1.95A2.832,2.832,0,0,1,14.9-1.845a1.948,1.948,0,0,1-.7-1.23ZM23.79-8.43v2.19h2.19V-8.43Zm0,6.42V.18h2.19V-2.01ZM32.985.42A4.258,4.258,0,0,0,36.63-1.35a7.878,7.878,0,0,0,1.11-4.44,10.088,10.088,0,0,0-.585-3.48,4.2,4.2,0,0,0-.99-1.515A4.357,4.357,0,0,0,33-12a4.265,4.265,0,0,0-3.825,2.085A8.832,8.832,0,0,0,28.26-5.76a10.039,10.039,0,0,0,.585,3.45A4.2,4.2,0,0,0,29.835-.8,4.321,4.321,0,0,0,32.985.42ZM33-1.32A2.2,2.2,0,0,1,31.08-2.3a6.747,6.747,0,0,1-.765-3.57,5.6,5.6,0,0,1,.99-3.645,2.017,2.017,0,0,1,1.68-.765,2.168,2.168,0,0,1,1.635.63A5.817,5.817,0,0,1,35.67-5.8,5.78,5.78,0,0,1,34.62-1.95,2.18,2.18,0,0,1,33-1.32ZM44.415.42A4.258,4.258,0,0,0,48.06-1.35a7.878,7.878,0,0,0,1.11-4.44,10.088,10.088,0,0,0-.585-3.48,4.2,4.2,0,0,0-.99-1.515A4.357,4.357,0,0,0,44.43-12,4.265,4.265,0,0,0,40.6-9.915,8.832,8.832,0,0,0,39.69-5.76a10.039,10.039,0,0,0,.585,3.45A4.2,4.2,0,0,0,41.265-.8,4.321,4.321,0,0,0,44.415.42Zm.015-1.74A2.2,2.2,0,0,1,42.51-2.3a6.747,6.747,0,0,1-.765-3.57,5.6,5.6,0,0,1,.99-3.645,2.017,2.017,0,0,1,1.68-.765,2.168,2.168,0,0,1,1.635.63A5.817,5.817,0,0,1,47.1-5.8,5.78,5.78,0,0,1,46.05-1.95,2.18,2.18,0,0,1,44.43-1.32Z" transform="translate(-1940.431 -5488)" fill="#1f356b"/><path d="M7.56.18c.96,0,1.56.03,2.265.09V-1.71a15.76,15.76,0,0,1-2.19.12h-4.2A3.616,3.616,0,0,1,4.29-2.94a13.123,13.123,0,0,1,1.785-1.5A18.779,18.779,0,0,0,8.6-6.285a3.045,3.045,0,0,0,1.065-2.4C9.66-10.74,8.04-12,5.415-12A4.362,4.362,0,0,0,1.98-10.665a4.5,4.5,0,0,0-1.035,2.4L3.09-8.01a2.851,2.851,0,0,1,.465-1.38,2.119,2.119,0,0,1,1.9-.885c1.275,0,2.07.63,2.07,1.65,0,.765-.42,1.26-1.8,2.2A20.657,20.657,0,0,0,3.255-4.605,7.4,7.4,0,0,0,1.2-1.665,7.664,7.664,0,0,0,.81.255,13.824,13.824,0,0,1,2.745.18Zm9.2.24A4.258,4.258,0,0,0,20.4-1.35a7.878,7.878,0,0,0,1.11-4.44,10.088,10.088,0,0,0-.585-3.48,4.2,4.2,0,0,0-.99-1.515A4.357,4.357,0,0,0,16.77-12a4.265,4.265,0,0,0-3.825,2.085A8.832,8.832,0,0,0,12.03-5.76a10.039,10.039,0,0,0,.585,3.45A4.2,4.2,0,0,0,13.605-.8,4.321,4.321,0,0,0,16.755.42Zm.015-1.74A2.2,2.2,0,0,1,14.85-2.3a6.747,6.747,0,0,1-.765-3.57,5.6,5.6,0,0,1,.99-3.645,2.017,2.017,0,0,1,1.68-.765,2.168,2.168,0,0,1,1.635.63A5.817,5.817,0,0,1,19.44-5.8,5.78,5.78,0,0,1,18.39-1.95,2.18,2.18,0,0,1,16.77-1.32Zm7.02-7.11v2.19h2.19V-8.43Zm0,6.42V.18h2.19V-2.01Zm4.485-.645a3.962,3.962,0,0,0,.84,1.68A4.685,4.685,0,0,0,32.925.45a5.181,5.181,0,0,0,3.69-1.215,3.176,3.176,0,0,0,.9-2.19,2.881,2.881,0,0,0-.72-2.07A3.156,3.156,0,0,0,34.65-6.03,3.7,3.7,0,0,0,36.1-6.615a2.735,2.735,0,0,0,1.035-2.2c0-1.95-1.62-3.21-4.125-3.21a4.87,4.87,0,0,0-2.94.825A3.727,3.727,0,0,0,28.65-9.06L30.8-8.7a2.2,2.2,0,0,1,.63-1.155,2.5,2.5,0,0,1,1.635-.465c1.275,0,1.98.585,1.98,1.62,0,1.155-.885,1.845-2.385,1.845A10.283,10.283,0,0,1,31.2-6.93v1.86a12.808,12.808,0,0,1,1.6-.075,3.886,3.886,0,0,1,1.725.36,1.748,1.748,0,0,1,.84,1.575c0,1.185-.945,1.95-2.43,1.95a2.832,2.832,0,0,1-1.815-.585,1.948,1.948,0,0,1-.7-1.23ZM44.415.42A4.258,4.258,0,0,0,48.06-1.35a7.878,7.878,0,0,0,1.11-4.44,10.088,10.088,0,0,0-.585-3.48,4.2,4.2,0,0,0-.99-1.515A4.357,4.357,0,0,0,44.43-12,4.265,4.265,0,0,0,40.6-9.915,8.832,8.832,0,0,0,39.69-5.76a10.039,10.039,0,0,0,.585,3.45A4.2,4.2,0,0,0,41.265-.8,4.321,4.321,0,0,0,44.415.42Zm.015-1.74A2.2,2.2,0,0,1,42.51-2.3a6.747,6.747,0,0,1-.765-3.57,5.6,5.6,0,0,1,.99-3.645,2.017,2.017,0,0,1,1.68-.765,2.168,2.168,0,0,1,1.635.63A5.817,5.817,0,0,1,47.1-5.8,5.78,5.78,0,0,1,46.05-1.95,2.18,2.18,0,0,1,44.43-1.32Z" transform="translate(-1863.308 -5488)" fill="#1f356b"/><line x2="17" transform="translate(-1885.5 -5493.843)" fill="none" stroke="#233667" stroke-linecap="round" stroke-width="1"/><g transform="translate(-2033.831 -5504)"><rect width="20.424" height="20.424" rx="3" transform="translate(-0.169)" fill="#6945ff"/><text transform="translate(3.831 15)" fill="#fff" font-size="12" font-family="HiraKakuPro-W6, Hiragino Kaku Gothic Pro" letter-spacing="0.15em"><tspan x="0" y="0">水</tspan></text></g><g transform="translate(-1970.262 -5504)"><rect width="20.424" height="20.424" rx="3" transform="translate(0.262)" fill="#6945ff"/><text transform="translate(4.262 15)" fill="#fff" font-size="12" font-family="HiraKakuPro-W6, Hiragino Kaku Gothic Pro" letter-spacing="0.15em"><tspan x="0" y="0">木</tspan></text></g><path d="M10.3.276a19.28,19.28,0,0,1-.184-2.99V-14.352a34.656,34.656,0,0,1,.184-3.795,16.727,16.727,0,0,1-2.346.115H5.842a12.781,12.781,0,0,1-2.3-.138v2.921a20.455,20.455,0,0,1,2.369-.138h1.1V-2.714A19.091,19.091,0,0,1,6.831.276ZM24.541.644A6.529,6.529,0,0,0,30.13-2.07a12.08,12.08,0,0,0,1.7-6.808,15.468,15.468,0,0,0-.9-5.336,6.444,6.444,0,0,0-1.518-2.323A6.681,6.681,0,0,0,24.564-18.4,6.54,6.54,0,0,0,18.7-15.2a13.543,13.543,0,0,0-1.4,6.371,15.393,15.393,0,0,0,.9,5.29,6.444,6.444,0,0,0,1.518,2.323A6.626,6.626,0,0,0,24.541.644Zm.023-2.668a3.37,3.37,0,0,1-2.944-1.5,10.346,10.346,0,0,1-1.173-5.474c0-2.507.506-4.393,1.518-5.589a3.093,3.093,0,0,1,2.576-1.173,3.324,3.324,0,0,1,2.507.966c1.035,1.127,1.61,3.22,1.61,5.888,0,2.691-.575,4.83-1.61,5.911A3.343,3.343,0,0,1,24.564-2.024Z" transform="translate(-2072 -5485)" fill="#1f356b"/><path d="M10.3.276a19.28,19.28,0,0,1-.184-2.99V-14.352a34.656,34.656,0,0,1,.184-3.795,16.727,16.727,0,0,1-2.346.115H5.842a12.781,12.781,0,0,1-2.3-.138v2.921a20.455,20.455,0,0,1,2.369-.138h1.1V-2.714A19.091,19.091,0,0,1,6.831.276Zm16.376,0a19.28,19.28,0,0,1-.184-2.99V-14.352a34.656,34.656,0,0,1,.184-3.795,16.727,16.727,0,0,1-2.346.115H22.218a12.781,12.781,0,0,1-2.3-.138v2.921a20.455,20.455,0,0,1,2.369-.138h1.1V-2.714a19.091,19.091,0,0,1-.184,2.99Z" transform="translate(-2007 -5485)" fill="#1f356b"/><line x2="17" transform="translate(-1951.5 -5466.5)" fill="none" stroke="#233667" stroke-linecap="round" stroke-width="1"/><g transform="translate(-2033.831 -5477)"><rect width="20.424" height="20.424" rx="3" transform="translate(-0.169)" fill="#6945ff"/><text transform="translate(3.831 15)" fill="#fff" font-size="12" font-family="HiraKakuPro-W6, Hiragino Kaku Gothic Pro" letter-spacing="0.15em"><tspan x="0" y="0">金</tspan></text></g><path d="M6.72.18A12.574,12.574,0,0,1,6.6-1.77V-9.36a22.6,22.6,0,0,1,.12-2.475,10.909,10.909,0,0,1-1.53.075H3.81a8.336,8.336,0,0,1-1.5-.09v1.905a13.34,13.34,0,0,1,1.545-.09h.72V-1.77A12.451,12.451,0,0,1,4.455.18ZM16.755.42A4.258,4.258,0,0,0,20.4-1.35a7.878,7.878,0,0,0,1.11-4.44,10.088,10.088,0,0,0-.585-3.48,4.2,4.2,0,0,0-.99-1.515A4.357,4.357,0,0,0,16.77-12a4.265,4.265,0,0,0-3.825,2.085A8.832,8.832,0,0,0,12.03-5.76a10.039,10.039,0,0,0,.585,3.45A4.2,4.2,0,0,0,13.605-.8,4.321,4.321,0,0,0,16.755.42Zm.015-1.74A2.2,2.2,0,0,1,14.85-2.3a6.747,6.747,0,0,1-.765-3.57,5.6,5.6,0,0,1,.99-3.645,2.017,2.017,0,0,1,1.68-.765,2.168,2.168,0,0,1,1.635.63A5.817,5.817,0,0,1,19.44-5.8,5.78,5.78,0,0,1,18.39-1.95,2.18,2.18,0,0,1,16.77-1.32Zm7.02-7.11v2.19h2.19V-8.43Zm0,6.42V.18h2.19V-2.01ZM32.985.42A4.258,4.258,0,0,0,36.63-1.35a7.878,7.878,0,0,0,1.11-4.44,10.088,10.088,0,0,0-.585-3.48,4.2,4.2,0,0,0-.99-1.515A4.357,4.357,0,0,0,33-12a4.265,4.265,0,0,0-3.825,2.085A8.832,8.832,0,0,0,28.26-5.76a10.039,10.039,0,0,0,.585,3.45A4.2,4.2,0,0,0,29.835-.8,4.321,4.321,0,0,0,32.985.42ZM33-1.32A2.2,2.2,0,0,1,31.08-2.3a6.747,6.747,0,0,1-.765-3.57,5.6,5.6,0,0,1,.99-3.645,2.017,2.017,0,0,1,1.68-.765,2.168,2.168,0,0,1,1.635.63A5.817,5.817,0,0,1,35.67-5.8,5.78,5.78,0,0,1,34.62-1.95,2.18,2.18,0,0,1,33-1.32ZM44.415.42A4.258,4.258,0,0,0,48.06-1.35a7.878,7.878,0,0,0,1.11-4.44,10.088,10.088,0,0,0-.585-3.48,4.2,4.2,0,0,0-.99-1.515A4.357,4.357,0,0,0,44.43-12,4.265,4.265,0,0,0,40.6-9.915,8.832,8.832,0,0,0,39.69-5.76a10.039,10.039,0,0,0,.585,3.45A4.2,4.2,0,0,0,41.265-.8,4.321,4.321,0,0,0,44.415.42Zm.015-1.74A2.2,2.2,0,0,1,42.51-2.3a6.747,6.747,0,0,1-.765-3.57,5.6,5.6,0,0,1,.99-3.645,2.017,2.017,0,0,1,1.68-.765,2.168,2.168,0,0,1,1.635.63A5.817,5.817,0,0,1,47.1-5.8,5.78,5.78,0,0,1,46.05-1.95,2.18,2.18,0,0,1,44.43-1.32Z" transform="translate(-2005.834 -5461)" fill="#1f356b"/><path d="M6.72.18A12.574,12.574,0,0,1,6.6-1.77V-9.36a22.6,22.6,0,0,1,.12-2.475,10.909,10.909,0,0,1-1.53.075H3.81a8.336,8.336,0,0,1-1.5-.09v1.905a13.34,13.34,0,0,1,1.545-.09h.72V-1.77A12.451,12.451,0,0,1,4.455.18Zm5.6-2.67A4.425,4.425,0,0,0,13.26-.855,4.39,4.39,0,0,0,16.68.45c2.79,0,4.515-1.635,4.515-4.275a3.687,3.687,0,0,0-1.065-2.82A3.854,3.854,0,0,0,17.2-7.77a3.69,3.69,0,0,0-2.565.915q.068-.45.09-.63l.24-2.625h3.525a14.388,14.388,0,0,1,2.07.12v-1.89a11.421,11.421,0,0,1-2.085.12H14.79c-.8,0-1.14-.015-1.59-.045-.015.75-.045,1.26-.06,1.53L12.8-6.555c-.03.42-.045.495-.195,1.56l1.875.18a1.72,1.72,0,0,1,.45-.675,2.637,2.637,0,0,1,1.86-.69A2.237,2.237,0,0,1,19.14-3.765,2.327,2.327,0,0,1,16.68-1.29a2.272,2.272,0,0,1-1.845-.765,2.054,2.054,0,0,1-.45-.87ZM23.79-8.43v2.19h2.19V-8.43Zm0,6.42V.18h2.19V-2.01ZM32.985.42A4.258,4.258,0,0,0,36.63-1.35a7.878,7.878,0,0,0,1.11-4.44,10.088,10.088,0,0,0-.585-3.48,4.2,4.2,0,0,0-.99-1.515A4.357,4.357,0,0,0,33-12a4.265,4.265,0,0,0-3.825,2.085A8.832,8.832,0,0,0,28.26-5.76a10.039,10.039,0,0,0,.585,3.45A4.2,4.2,0,0,0,29.835-.8,4.321,4.321,0,0,0,32.985.42ZM33-1.32A2.2,2.2,0,0,1,31.08-2.3a6.747,6.747,0,0,1-.765-3.57,5.6,5.6,0,0,1,.99-3.645,2.017,2.017,0,0,1,1.68-.765,2.168,2.168,0,0,1,1.635.63A5.817,5.817,0,0,1,35.67-5.8,5.78,5.78,0,0,1,34.62-1.95,2.18,2.18,0,0,1,33-1.32ZM44.415.42A4.258,4.258,0,0,0,48.06-1.35a7.878,7.878,0,0,0,1.11-4.44,10.088,10.088,0,0,0-.585-3.48,4.2,4.2,0,0,0-.99-1.515A4.357,4.357,0,0,0,44.43-12,4.265,4.265,0,0,0,40.6-9.915,8.832,8.832,0,0,0,39.69-5.76a10.039,10.039,0,0,0,.585,3.45A4.2,4.2,0,0,0,41.265-.8,4.321,4.321,0,0,0,44.415.42Zm.015-1.74A2.2,2.2,0,0,1,42.51-2.3a6.747,6.747,0,0,1-.765-3.57,5.6,5.6,0,0,1,.99-3.645,2.017,2.017,0,0,1,1.68-.765,2.168,2.168,0,0,1,1.635.63A5.817,5.817,0,0,1,47.1-5.8,5.78,5.78,0,0,1,46.05-1.95,2.18,2.18,0,0,1,44.43-1.32Z" transform="translate(-1931.819 -5461)" fill="#1f356b"/><path d="M10.3.276a19.28,19.28,0,0,1-.184-2.99V-14.352a34.656,34.656,0,0,1,.184-3.795,16.727,16.727,0,0,1-2.346.115H5.842a12.781,12.781,0,0,1-2.3-.138v2.921a20.455,20.455,0,0,1,2.369-.138h1.1V-2.714A19.091,19.091,0,0,1,6.831.276Zm17.664,0c1.472,0,2.392.046,3.473.138V-2.622a24.166,24.166,0,0,1-3.358.184h-6.44a5.544,5.544,0,0,1,1.311-2.07,20.122,20.122,0,0,1,2.737-2.3,28.794,28.794,0,0,0,3.864-2.829,4.669,4.669,0,0,0,1.633-3.68c0-3.151-2.484-5.083-6.509-5.083a6.688,6.688,0,0,0-5.267,2.047,6.9,6.9,0,0,0-1.587,3.68l3.289.391a4.371,4.371,0,0,1,.713-2.116,3.25,3.25,0,0,1,2.921-1.357c1.955,0,3.174.966,3.174,2.53,0,1.173-.644,1.932-2.76,3.381a31.674,31.674,0,0,0-3.8,2.783,11.351,11.351,0,0,0-3.151,4.508,11.752,11.752,0,0,0-.6,2.944A21.2,21.2,0,0,1,20.585.276Z" transform="translate(-2072 -5458)" fill="#1f356b"/><path d="M10.584.252c1.344,0,2.184.042,3.171.126V-2.394a22.064,22.064,0,0,1-3.066.168H4.809a5.062,5.062,0,0,1,1.2-1.89,18.372,18.372,0,0,1,2.5-2.1A26.29,26.29,0,0,0,12.033-8.8a4.263,4.263,0,0,0,1.491-3.36c0-2.877-2.268-4.641-5.943-4.641a6.106,6.106,0,0,0-4.809,1.869,6.3,6.3,0,0,0-1.449,3.36l3,.357a3.991,3.991,0,0,1,.651-1.932,2.967,2.967,0,0,1,2.667-1.239c1.785,0,2.9.882,2.9,2.31,0,1.071-.588,1.764-2.52,3.087A28.919,28.919,0,0,0,4.557-6.447,10.364,10.364,0,0,0,1.68-2.331,10.73,10.73,0,0,0,1.134.357,19.354,19.354,0,0,1,3.843.252ZM22.407.588a5.961,5.961,0,0,0,5.1-2.478,11.03,11.03,0,0,0,1.554-6.216,14.123,14.123,0,0,0-.819-4.872A5.883,5.883,0,0,0,26.859-15.1a6.1,6.1,0,0,0-4.431-1.7,5.971,5.971,0,0,0-5.355,2.919,12.365,12.365,0,0,0-1.281,5.817,14.054,14.054,0,0,0,.819,4.83A5.883,5.883,0,0,0,18-1.113,6.05,6.05,0,0,0,22.407.588Zm.021-2.436A3.077,3.077,0,0,1,19.74-3.213a9.446,9.446,0,0,1-1.071-5,7.836,7.836,0,0,1,1.386-5.1,2.824,2.824,0,0,1,2.352-1.071A3.035,3.035,0,0,1,24.7-13.5c.945,1.029,1.47,2.94,1.47,5.376,0,2.457-.525,4.41-1.47,5.4A3.052,3.052,0,0,1,22.428-1.848Zm18.06,2.1c1.344,0,2.184.042,3.171.126V-2.394a22.064,22.064,0,0,1-3.066.168h-5.88a5.062,5.062,0,0,1,1.2-1.89,18.372,18.372,0,0,1,2.5-2.1A26.291,26.291,0,0,0,41.937-8.8a4.263,4.263,0,0,0,1.491-3.36c0-2.877-2.268-4.641-5.943-4.641a6.106,6.106,0,0,0-4.809,1.869,6.3,6.3,0,0,0-1.449,3.36l3,.357a3.991,3.991,0,0,1,.651-1.932,2.967,2.967,0,0,1,2.667-1.239c1.785,0,2.9.882,2.9,2.31,0,1.071-.588,1.764-2.52,3.087a28.92,28.92,0,0,0-3.465,2.541,10.364,10.364,0,0,0-2.877,4.116A10.73,10.73,0,0,0,31.038.357,19.353,19.353,0,0,1,33.747.252Zm13.776,0a17.6,17.6,0,0,1-.168-2.73V-13.1a31.643,31.643,0,0,1,.168-3.465,15.272,15.272,0,0,1-2.142.105H50.19a11.67,11.67,0,0,1-2.1-.126v2.667a18.676,18.676,0,0,1,2.163-.126h1.008V-2.478a17.431,17.431,0,0,1-.168,2.73ZM67.788-16.464l-7.6,19.887h2.583L70.35-16.464ZM81.312.252c1.344,0,2.184.042,3.171.126V-2.394a22.064,22.064,0,0,1-3.066.168h-5.88a5.062,5.062,0,0,1,1.2-1.89,18.372,18.372,0,0,1,2.5-2.1A26.29,26.29,0,0,0,82.761-8.8a4.263,4.263,0,0,0,1.491-3.36c0-2.877-2.268-4.641-5.943-4.641A6.106,6.106,0,0,0,73.5-14.931a6.3,6.3,0,0,0-1.449,3.36l3,.357a3.991,3.991,0,0,1,.651-1.932,2.967,2.967,0,0,1,2.667-1.239c1.785,0,2.9.882,2.9,2.31,0,1.071-.588,1.764-2.52,3.087a28.919,28.919,0,0,0-3.465,2.541,10.364,10.364,0,0,0-2.877,4.116A10.73,10.73,0,0,0,71.862.357,19.354,19.354,0,0,1,74.571.252ZM93.66-16.464l-7.6,19.887h2.583l7.581-19.887ZM106.008.252a17.6,17.6,0,0,1-.168-2.73V-13.1a31.643,31.643,0,0,1,.168-3.465,15.272,15.272,0,0,1-2.142.105h-1.932a11.67,11.67,0,0,1-2.1-.126v2.667A18.676,18.676,0,0,1,102-14.049H103V-2.478a17.431,17.431,0,0,1-.168,2.73Zm13,.336a5.961,5.961,0,0,0,5.1-2.478,11.03,11.03,0,0,0,1.554-6.216,14.123,14.123,0,0,0-.819-4.872,5.883,5.883,0,0,0-1.386-2.121,6.1,6.1,0,0,0-4.431-1.7,5.971,5.971,0,0,0-5.355,2.919,12.365,12.365,0,0,0-1.281,5.817,14.054,14.054,0,0,0,.819,4.83A5.883,5.883,0,0,0,114.6-1.113,6.05,6.05,0,0,0,119.007.588Zm.021-2.436a3.077,3.077,0,0,1-2.688-1.365,9.446,9.446,0,0,1-1.071-5,7.836,7.836,0,0,1,1.386-5.1,2.824,2.824,0,0,1,2.352-1.071,3.035,3.035,0,0,1,2.289.882c.945,1.029,1.47,2.94,1.47,5.376,0,2.457-.525,4.41-1.47,5.4A3.052,3.052,0,0,1,119.028-1.848Z" transform="translate(-2072 -5518)" fill="#1f356b"/><path d="M9.408.252a17.6,17.6,0,0,1-.168-2.73V-13.1a31.642,31.642,0,0,1,.168-3.465,15.272,15.272,0,0,1-2.142.105H5.334a11.67,11.67,0,0,1-2.1-.126v2.667A18.676,18.676,0,0,1,5.4-14.049H6.405V-2.478A17.431,17.431,0,0,1,6.237.252Zm14.952,0a17.6,17.6,0,0,1-.168-2.73V-13.1a31.642,31.642,0,0,1,.168-3.465,15.272,15.272,0,0,1-2.142.105H20.286a11.67,11.67,0,0,1-2.1-.126v2.667a18.676,18.676,0,0,1,2.163-.126h1.008V-2.478a17.431,17.431,0,0,1-.168,2.73Z" transform="translate(-1905.287 -5518)" fill="#1f356b"/><path d="M9.408.252a17.6,17.6,0,0,1-.168-2.73V-13.1a31.642,31.642,0,0,1,.168-3.465,15.272,15.272,0,0,1-2.142.105H5.334a11.67,11.67,0,0,1-2.1-.126v2.667A18.676,18.676,0,0,1,5.4-14.049H6.405V-2.478A17.431,17.431,0,0,1,6.237.252Zm16.128,0c1.344,0,2.184.042,3.171.126V-2.394a22.064,22.064,0,0,1-3.066.168h-5.88a5.062,5.062,0,0,1,1.2-1.89,18.372,18.372,0,0,1,2.5-2.1A26.291,26.291,0,0,0,26.985-8.8a4.263,4.263,0,0,0,1.491-3.36c0-2.877-2.268-4.641-5.943-4.641a6.106,6.106,0,0,0-4.809,1.869,6.3,6.3,0,0,0-1.449,3.36l3,.357a3.991,3.991,0,0,1,.651-1.932A2.967,2.967,0,0,1,22.6-14.385c1.785,0,2.9.882,2.9,2.31,0,1.071-.588,1.764-2.52,3.087a28.92,28.92,0,0,0-3.465,2.541,10.364,10.364,0,0,0-2.877,4.116A10.73,10.73,0,0,0,16.086.357,19.353,19.353,0,0,1,18.8.252Z" transform="translate(-1843.255 -5518)" fill="#1f356b"/><line x2="18.131" transform="translate(-1934.961 -5525.5)" fill="none" stroke="#233667" stroke-linecap="round" stroke-width="2"/><line x2="18.131" transform="translate(-1869.703 -5525.5)" fill="none" stroke="#233667" stroke-linecap="round" stroke-width="2"/><path d="M3.458-6.1a11.2,11.2,0,0,1,1.2-.056H9.338A10.635,10.635,0,0,1,10.6-6.1V-7.2a14.928,14.928,0,0,0,2.394,1.274,6.234,6.234,0,0,1,.77-1.568,14.8,14.8,0,0,1-3.6-1.89A8.5,8.5,0,0,1,7.8-11.7H6.132A9.219,9.219,0,0,1,3.92-9.352,13.064,13.064,0,0,1,.406-7.406a6.5,6.5,0,0,1,.812,1.428,13.173,13.173,0,0,0,2.24-1.2ZM4.676-7.616c-.252,0-.336,0-.574-.014a11.952,11.952,0,0,0,2.912-2.716A11.4,11.4,0,0,0,9.94-7.63c-.266.014-.392.014-.616.014Zm.14,4.046a14.5,14.5,0,0,1-1.5,2.8c-.714.042-1.134.056-1.232.056-.2,0-.434-.014-.812-.042L1.5.952A16.648,16.648,0,0,1,3.3.756C3.864.714,6.636.462,8.022.336,8.54.28,9.38.182,10.542.028c.238.336.378.532.84,1.218L12.726.364A28.651,28.651,0,0,0,9.492-3.374l-1.386.616c.784.812,1.022,1.064,1.47,1.554-1.96.21-1.96.21-4.438.35A15.219,15.219,0,0,0,6.594-3.57H11.41a13.026,13.026,0,0,1,1.638.084V-5.11a13.182,13.182,0,0,1-1.638.084H2.688A13.751,13.751,0,0,1,1.036-5.11v1.624A13.115,13.115,0,0,1,2.688-3.57Zm19.208.406a7.269,7.269,0,0,1-3.248,2,3.461,3.461,0,0,1,.9,1.064A8.43,8.43,0,0,0,25.55-3.164h.84A6.249,6.249,0,0,1,24.934-1.3,8.554,8.554,0,0,1,22.386.21a3.815,3.815,0,0,1,1.008,1.064A10.069,10.069,0,0,0,25.7-.266a3.379,3.379,0,0,1,.378,1.288c.546.028.8.042,1.176.042,1.232,0,1.68-.182,1.96-.826a12.17,12.17,0,0,0,.574-3.808,8.136,8.136,0,0,1,.056-.826c-.406.028-.672.042-1.358.042H24.038a5.008,5.008,0,0,0,.378-.574H28.7a13.7,13.7,0,0,1,1.442.056v-1.4a9.282,9.282,0,0,1-1.456.084H22.568a7.783,7.783,0,0,1-1.316-.07v1.4a10.017,10.017,0,0,1,1.3-.07h.308A5.529,5.529,0,0,1,21.2-3.514V-4.48c-.448.252-.56.322-.938.518v-3.01h.266a7.247,7.247,0,0,1,.98.056v-1.47a6.008,6.008,0,0,1-.994.056h-.252v-1.722a9.431,9.431,0,0,1,.084-1.568H18.718a11.039,11.039,0,0,1,.084,1.554V-8.33H18.41A6.283,6.283,0,0,1,17.3-8.4v1.5a6.82,6.82,0,0,1,1.092-.07H18.8v3.71a10.1,10.1,0,0,1-1.582.56l.35,1.638a.634.634,0,0,1,.14-.07,1.647,1.647,0,0,0,.182-.112,26.364,26.364,0,0,0,2.786-1.47,3.224,3.224,0,0,1,.532.742,8.059,8.059,0,0,0,1.722-1.19Zm4.326,0a17.032,17.032,0,0,1-.238,2.114c-.126.6-.28.742-.8.742A9.791,9.791,0,0,1,25.872-.42a7.823,7.823,0,0,0,1.96-2.744Zm-.574-3.612c.56,0,.98.014,1.274.042a10.844,10.844,0,0,1-.056-1.344V-10.01A11.33,11.33,0,0,1,29.05-11.4a10.547,10.547,0,0,1-1.5.07H23.478a9.847,9.847,0,0,1-1.414-.07,10.892,10.892,0,0,1,.056,1.274v2.044a12.5,12.5,0,0,1-.056,1.358,10.119,10.119,0,0,1,1.288-.056Zm-4.214-3.318h3.962v.588H23.562Zm0,1.61h3.962v.574H23.562Zm15.82-.854v2.044h2.044V-9.338Zm0,5.992V-1.3h2.044V-3.346ZM52.248-.686a14.685,14.685,0,0,1-.084,1.694H53.83V.168h6.51v.84h1.694A14.183,14.183,0,0,1,61.95-.686V-9.73a12.649,12.649,0,0,1,.07-1.428,11.265,11.265,0,0,1-1.512.07H53.732a12.359,12.359,0,0,1-1.554-.07c.042.462.07.952.07,1.5ZM53.83-9.6h6.51v3.248H53.83Zm0,4.718h6.51V-1.3H53.83ZM72.058-7.938a13.166,13.166,0,0,1-4.872,5.376,4.826,4.826,0,0,1,.952,1.47,13.383,13.383,0,0,0,2.268-1.96V-1.47a10.016,10.016,0,0,1,1.4-.084h1.106V-.6a12.927,12.927,0,0,1-.1,1.736h1.764A12.651,12.651,0,0,1,74.48-.6v-.952h1.246a10.158,10.158,0,0,1,1.4.084v-1.6A15.607,15.607,0,0,0,79.478-1.12a5.713,5.713,0,0,1,.952-1.526A11.979,11.979,0,0,1,77.378-5a13.882,13.882,0,0,1-2.1-2.94h3a16.536,16.536,0,0,1,1.694.084V-9.562a11.5,11.5,0,0,1-1.694.1H74.48v-1.008a6.989,6.989,0,0,1,.1-1.288h-1.75a8.7,8.7,0,0,1,.084,1.3v.994h-3.6a12.129,12.129,0,0,1-1.666-.1v1.708a15.986,15.986,0,0,1,1.666-.084ZM74.48-3.066V-5.278a11.313,11.313,0,0,0-.126-1.554,15.154,15.154,0,0,0,2.716,3.71,8.761,8.761,0,0,1-1.232.056Zm-1.568,0h-1.19a8.863,8.863,0,0,1-1.246-.056,13.884,13.884,0,0,0,2.548-3.71,13.708,13.708,0,0,0-.112,1.568Zm16.716-7.182v.532H86.072a15.649,15.649,0,0,1-1.722-.056,8.964,8.964,0,0,1,.056,1.148v.882a6.469,6.469,0,0,1-.084,1.106h1.456V-8.61h3.85v1.386a11.288,11.288,0,0,1-.07,1.316h1.61a8.23,8.23,0,0,1-.056-1.316V-8.61h4.06v1.974h1.442a6.479,6.479,0,0,1-.07-1.106v-.882A6.715,6.715,0,0,1,96.6-9.772a16.127,16.127,0,0,1-1.736.056H91.112v-.532h3.206a14.218,14.218,0,0,1,1.442.056V-11.55a13,13,0,0,1-1.582.084H86.786A13.847,13.847,0,0,1,85.2-11.55v1.358c.462-.042.854-.056,1.47-.056Zm5.838,5.992a11.549,11.549,0,0,1,.056-1.358,12.086,12.086,0,0,1-1.386.056H86.744a11.325,11.325,0,0,1-1.33-.056,12.6,12.6,0,0,1,.07,1.344v2.576A10.685,10.685,0,0,1,85.4-.308h1.554v-.714h2.674V-.07c0,.938.406,1.078,3.15,1.078,2.394,0,3.192-.1,3.6-.448.364-.308.518-.9.56-2.114a4.917,4.917,0,0,1-1.47-.56ZM91.084-1.022H95.41c-.042.476-.1.6-.266.686a6.624,6.624,0,0,1-1.988.182,6.683,6.683,0,0,1-1.974-.154c-.07-.028-.1-.1-.1-.21ZM89.628-4.48v.644H86.954V-4.48Zm1.456,0H94v.644H91.084ZM89.628-2.842v.7H86.954v-.7Zm1.456,0H94v.7H91.084ZM86.366-7.308a5.092,5.092,0,0,1,.728-.042h1.232a4.879,4.879,0,0,1,.714.042v-.938a4.749,4.749,0,0,1-.714.042H87.094a3.346,3.346,0,0,1-.728-.042Zm0,1.316a5.092,5.092,0,0,1,.728-.042h1.232a4.5,4.5,0,0,1,.714.042V-6.93a4.622,4.622,0,0,1-.714.042H87.094a3.346,3.346,0,0,1-.728-.042Zm5.376-1.316a4.959,4.959,0,0,1,.728-.042H93.9a5.014,5.014,0,0,1,.714.042v-.938A4.749,4.749,0,0,1,93.9-8.2H92.47a3.277,3.277,0,0,1-.728-.042Zm0,1.316a5.092,5.092,0,0,1,.728-.042H93.9a4.622,4.622,0,0,1,.714.042V-6.93a4.622,4.622,0,0,1-.714.042H92.47a3.277,3.277,0,0,1-.728-.042Zm14.826-.252h-3.724a16.984,16.984,0,0,1-1.946-.084v1.694a17.9,17.9,0,0,1,1.9-.084h3.766v3.7c0,.308-.1.364-.672.364a12.348,12.348,0,0,1-2.03-.168A5.635,5.635,0,0,1,104.3.854c1.008.042,1.288.056,1.568.056,1.862,0,2.338-.308,2.338-1.54V-4.718h3.43a17.178,17.178,0,0,1,1.9.084V-6.328a15.678,15.678,0,0,1-1.9.084h-3.43v-.6A19.041,19.041,0,0,0,111.188-9c.952-.91.952-.91,1.316-1.246l-.91-1.022a5.728,5.728,0,0,1-1.218.07h-6.342a13.768,13.768,0,0,1-1.68-.084v1.652a13.86,13.86,0,0,1,1.694-.084h5.586a12.3,12.3,0,0,1-2.38,1.792h-.728c.028.322.042.616.042,1.064Zm16.506-3.248v.658H120.2a10.447,10.447,0,0,1-1.33-.056,9.676,9.676,0,0,1,.056,1.12v2.758a9.837,9.837,0,0,1-.056,1.12,11.025,11.025,0,0,1,1.33-.056h5.922v.658h-6.9a10.379,10.379,0,0,1-1.512-.084v1.442a12.468,12.468,0,0,1,1.484-.084h6.93V-.6c0,.28-.084.322-.6.322a10.982,10.982,0,0,1-1.568-.112,5.635,5.635,0,0,1,.42,1.428c.462.014.77.028.966.028a3.44,3.44,0,0,0,1.82-.28A1,1,0,0,0,127.6-.2v-1.82H128.7a12.4,12.4,0,0,1,1.47.084V-3.374a8.619,8.619,0,0,1-1.5.084H127.6v-.658a11.743,11.743,0,0,1,1.4.056,9.363,9.363,0,0,1-.056-1.12V-7.77A9.363,9.363,0,0,1,129-8.89a10.447,10.447,0,0,1-1.33.056h-3.122v-.658h4.144a10.824,10.824,0,0,1,1.47.084v-1.428a8.619,8.619,0,0,1-1.5.084h-4.116a6.074,6.074,0,0,1,.084-1.064H122.99a5.746,5.746,0,0,1,.084,1.064h-3.85a10.379,10.379,0,0,1-1.512-.084v1.428a10.9,10.9,0,0,1,1.484-.084Zm0,1.82v.728h-2.688v-.728Zm1.47,0h2.926v.728h-2.926Zm-1.47,1.792v.77h-2.688v-.77Zm1.47,0h2.926v.77h-2.926Zm-1.2,5.67a8.106,8.106,0,0,0-2.016-1.736l-1.12.9A8.283,8.283,0,0,1,122.164.8ZM136.3-6.146h2.506c.49,0,.952.014,1.288.028a12.461,12.461,0,0,1-.042-1.246v-2.744c0-.546.014-.91.042-1.3a11.829,11.829,0,0,1-1.428.056h-2.478a12.439,12.439,0,0,1-1.428-.056,15.65,15.65,0,0,1,.056,1.582v9.17a13.526,13.526,0,0,1-.084,1.736h1.652A12.28,12.28,0,0,1,136.3-.644Zm0-3.99h2.38v.9H136.3Zm0,1.988h2.38v.882H136.3ZM146.44-9.842a12.463,12.463,0,0,1,.07-1.568,13,13,0,0,1-1.456.056h-2.6a12.13,12.13,0,0,1-1.428-.056c.028.434.042.826.042,1.3v2.744c0,.6-.014.952-.042,1.274.294-.028.784-.042,1.288-.042h2.632V-.84c0,.294-.1.35-.532.35a15.111,15.111,0,0,1-1.89-.126A5.168,5.168,0,0,1,142.9.91c.574.014.9.028,1.148.028,2.016,0,2.394-.252,2.394-1.6Zm-3.976-.294h2.478v.9h-2.478Zm0,1.988h2.478v.882h-2.478ZM156.6-2.7V-.63c0,.28-.1.322-.714.322a12.743,12.743,0,0,1-1.736-.14,5.313,5.313,0,0,1,.462,1.484c.728.042,1.19.056,1.372.056,1.26,0,1.736-.112,1.974-.462a1.352,1.352,0,0,0,.182-.882V-2.7h3.64a13.83,13.83,0,0,1,1.736.084V-4.172a11.532,11.532,0,0,1-1.722.1h-3.654v-.014a19.6,19.6,0,0,0,2.8-2.044c.266-.224.266-.224.5-.42l-.77-.854a6.328,6.328,0,0,1-1.064.056H154.98a10.209,10.209,0,0,1-1.414-.07v1.4a13.87,13.87,0,0,1,1.4-.056h3.85a7.414,7.414,0,0,1-1.652,1.134h-.6a6.549,6.549,0,0,1,.042.77v.1H152.8a11.88,11.88,0,0,1-1.694-.1v1.554A13.64,13.64,0,0,1,152.81-2.7Zm-3.738-6.916a13.464,13.464,0,0,1-1.652-.056,9.2,9.2,0,0,1,.056,1.162v1.288a6.138,6.138,0,0,1-.07,1.078h1.526v-2.17h9.128v2.17h1.526a8.489,8.489,0,0,1-.07-1.064v-1.3a8.785,8.785,0,0,1,.056-1.162,16.851,16.851,0,0,1-1.722.056h-.63a14.668,14.668,0,0,0,1.05-1.68l-1.512-.42a9.275,9.275,0,0,1-1.148,2.1h-1.19a11.077,11.077,0,0,0-.966-2.17l-1.456.406a8.188,8.188,0,0,1,.854,1.764h-1.484a10.322,10.322,0,0,0-1.274-2l-1.414.42a8.11,8.11,0,0,1,1.05,1.582Zm24.4,3.878a8.429,8.429,0,0,1-1.106,2.254,8.886,8.886,0,0,1-1.106-2.184l-1.274.644a11.021,11.021,0,0,0,1.456,2.688,8.377,8.377,0,0,1-3.6,2.184,4.912,4.912,0,0,1,.868,1.358,10.23,10.23,0,0,0,3.654-2.422A9.964,9.964,0,0,0,179.9,1.176a5.6,5.6,0,0,1,.784-1.526A8.457,8.457,0,0,1,177.1-2.366a14.424,14.424,0,0,0,1.554-2.786Zm-3.024-2.772a7.542,7.542,0,0,1-1.918,2.758,6.3,6.3,0,0,1-1.316-2.072h.56a7.886,7.886,0,0,1,.812.042V-9.226a4.853,4.853,0,0,1-.84.056h-.56v-1.162a12.016,12.016,0,0,1,.07-1.456h-1.568a9.441,9.441,0,0,1,.07,1.456V-9.17h-.7a7.7,7.7,0,0,1-1.078-.056V-7.77a8.231,8.231,0,0,1,1.078-.056h.546a12.583,12.583,0,0,1-2.016,4.312,9.276,9.276,0,0,1,.77,1.582,11.452,11.452,0,0,0,1.484-3.3c-.042.756-.056,1.148-.056,1.148l-.014.714V-.5a11.166,11.166,0,0,1-.1,1.722h1.6A13.89,13.89,0,0,1,170.982-.5V-3.892c0-.154-.014-.868-.014-.924-.028-.77-.028-.77-.042-1.022a12.632,12.632,0,0,0,.91,1.652,8.041,8.041,0,0,1,.462-1.022,4.4,4.4,0,0,1,.686.924,11.1,11.1,0,0,0,2.6-3.626Zm1.19-1.526h-1.218a11.6,11.6,0,0,1-1.554-.084v1.554a12.44,12.44,0,0,1,1.568-.084h4.62c.616,0,1.092.028,1.554.07v-1.54a11.519,11.519,0,0,1-1.54.084h-1.9v-.6a5.132,5.132,0,0,1,.07-1.022h-1.666a5.532,5.532,0,0,1,.07,1.05Zm1.4,2.17a10.169,10.169,0,0,0,2.828,3.444,5.747,5.747,0,0,1,.868-1.33,8.388,8.388,0,0,1-2.478-2.8Zm18.158-3.094a15.468,15.468,0,0,1-1.918.07h-4.452a15.464,15.464,0,0,1-1.918-.1v1.848a13.368,13.368,0,0,1,1.834-.1h4.326a23.084,23.084,0,0,0-2.45,4.06A21.214,21.214,0,0,0,188.72.252h2.212a18.032,18.032,0,0,1,2.6-7.574,9.164,9.164,0,0,1,1.456-2.016ZM204.2-5.1a13.64,13.64,0,0,1-1.778,3.052l1.68.308c.336-.518.448-.7.644-1.05h5.614a5.142,5.142,0,0,1-.5,2.128c-.168.21-.476.294-1.162.294-.5,0-1.526-.084-2.478-.2a3.631,3.631,0,0,1,.378,1.5c.854.056,1.386.084,2.114.084,1.47,0,2-.154,2.436-.686.378-.462.644-1.554.882-3.57.07-.6.1-.812.112-.9a11.948,11.948,0,0,1-1.442.056h-5.278c.182-.364.252-.532.462-1.022h6.3a12.662,12.662,0,0,1,1.652.084V-6.524a12.515,12.515,0,0,1-1.652.084h-9.52a12.134,12.134,0,0,1-1.638-.084v1.512A12.631,12.631,0,0,1,202.65-5.1Zm-1.4-3.318a10.134,10.134,0,0,1-.056,1.19,13.035,13.035,0,0,1,1.442-.056h6.468a12.715,12.715,0,0,1,1.442.056,9.685,9.685,0,0,1-.056-1.19v-1.82A9.2,9.2,0,0,1,212.1-11.4a11.018,11.018,0,0,1-1.6.07H204.33a13.263,13.263,0,0,1-1.582-.07,9.791,9.791,0,0,1,.056,1.162Zm7.7-1.6v1.442h-6.2V-10.01ZM223.888.14a17.965,17.965,0,0,0-1.624-3.094l-1.176.49a7.421,7.421,0,0,1,.588,1.05c-.56.182-.8.252-1.666.462v-2.2h2.422a6.257,6.257,0,0,1,.826.042c-.028-.294-.028-.6-.028-1.134V-6.874a9.889,9.889,0,0,1,.042-1.19,7.272,7.272,0,0,1-1.106.056h-.546v-.448a3.513,3.513,0,0,1,.056-.714h-1.4a3.545,3.545,0,0,1,.056.7v.462h-.756c-.35,0-.462,0-.714-.014a12.209,12.209,0,0,0,2.2-2.324,8.92,8.92,0,0,0,1.9,2.044,3.484,3.484,0,0,1,.616-1.064V-8.5a8.586,8.586,0,0,1-.042.868h.616c.014.266.014.308.014.532V.028a8.524,8.524,0,0,1-.07,1.2h1.526V.518h2.982V1.19h1.5a9.7,9.7,0,0,1-.056-1.232V-2.45a8.568,8.568,0,0,1,.042-1.106c-.294.028-.6.042-1.106.042H225.61V-4.522h2.926c.406,0,.7.014,1.036.042a6.672,6.672,0,0,1-.042-1.064V-7.616h.966a6.225,6.225,0,0,1-.042-.952v-1.05a9.342,9.342,0,0,1,.042-.98,11.9,11.9,0,0,1-1.358.07h-1.526v-.238a4.683,4.683,0,0,1,.07-.98h-1.638a6.7,6.7,0,0,1,.07.98v.238H224.7c-.56,0-.854-.014-1.162-.042.028.252.028.42.042.868a6.881,6.881,0,0,1-1.876-2.016H220.29a5.107,5.107,0,0,1-1.064,1.386A8.778,8.778,0,0,1,217.5-8.974a5.985,5.985,0,0,1,.518,1.582c.266-.2.378-.28.546-.392.014.28.028.462.028.868V-.672a6.387,6.387,0,0,1-.91.112l.35,1.526a9.436,9.436,0,0,1,1.092-.294,28.124,28.124,0,0,0,3.108-.91c.112.28.224.56.392,1.064Zm5.152-8.372c-.252.014-.364.014-.588.014h-3.444V-9.2h4.032Zm-3.43,1.218H228.1v1.26H225.61Zm0,4.788h3V-.784h-3Zm-5.6-3.92v-.728h1.82v.728Zm0,1.064h1.82V-4.3h-1.82Zm22.918-5.964a15.468,15.468,0,0,1-1.918.07h-4.452a15.464,15.464,0,0,1-1.918-.1v1.848a13.368,13.368,0,0,1,1.834-.1H240.8a23.136,23.136,0,0,0-2.45,4.074A20.926,20.926,0,0,0,236.656.168h2.212a18.032,18.032,0,0,1,2.6-7.574,9.527,9.527,0,0,1,1.456-2.016ZM252.084-7.1c-.378.056-.546.07-.77.084l.28,1.428c.2-.056.392-.112.588-.154a29.48,29.48,0,0,0,3.164-.812v-1.33a14.176,14.176,0,0,1-1.862.518V-8.932h.854a7.818,7.818,0,0,1,1.008.056v-1.456a4.882,4.882,0,0,1-1.022.07h-.84v-.126a12.711,12.711,0,0,1,.07-1.428h-1.54a10.9,10.9,0,0,1,.07,1.442Zm5.082-1.512a12.008,12.008,0,0,0,1.764-.8c.574-.308.854-.462.938-.5l-.784-1.26a7.411,7.411,0,0,1-1.918,1.12v-.5a8.072,8.072,0,0,1,.07-1.26h-1.554a12.838,12.838,0,0,1,.07,1.386v3.472c0,.462.084.672.35.84l-1.12-.182a4.739,4.739,0,0,1-.5,1.246h-.91c-.77,0-1.036-.014-1.428-.042a10.987,10.987,0,0,1,.056,1.344V-.294a7.949,7.949,0,0,1-.084,1.414h1.512V.6h4.06v.546h1.582a14.1,14.1,0,0,1-.084-1.6V-3.64a11.894,11.894,0,0,1,.056-1.47,9.012,9.012,0,0,1-1.414.056h-1.778c.112-.2.182-.322.294-.56.042-.1.07-.154.084-.182l.1-.2a5.52,5.52,0,0,0,1.148.07c1.232,0,1.666-.07,1.918-.294.294-.266.406-.686.462-1.764a3.073,3.073,0,0,1-1.274-.462c-.014.672-.07,1.022-.168,1.12s-.238.112-.644.112c-.686,0-.8-.042-.8-.322Zm-3.542,4.8h4.06v.924h-4.06Zm0,2.128h4.06V-.658h-4.06Zm-6.034.868a17.045,17.045,0,0,1-.084,1.932h1.6a16.5,16.5,0,0,1-.07-1.9v-9.338h1.33a14.319,14.319,0,0,1-1.218,3.3,4.768,4.768,0,0,1,.98,1.792,4.439,4.439,0,0,1,.224,1.2c0,.518-.154.644-.784.644a3.336,3.336,0,0,1-.42-.028,2.9,2.9,0,0,1,.266,1.414h.2a2.978,2.978,0,0,0,1.372-.238c.518-.266.77-.826.77-1.722a5.071,5.071,0,0,0-.322-1.638,7.479,7.479,0,0,0-.868-1.526c.35-.728.518-1.092.714-1.61.224-.56.56-1.484.63-1.736a2.249,2.249,0,0,1,.168-.462l-.84-.826a6.24,6.24,0,0,1-1.05.056h-1.526a9.686,9.686,0,0,1-1.106-.042c.028.252.042.686.042,1.414Z" transform="translate(-2072 -5428)" fill="#1f356b"/></g></svg>