<svg xmlns="http://www.w3.org/2000/svg" width="659.184" height="343.848" viewBox="0 0 659.184 343.848"><g transform="translate(-227 -23584.801)"><path d="M-111.144.528c2.816,0,4.576.088,6.644.264V-5.016a46.23,46.23,0,0,1-6.424.352h-12.32a10.607,10.607,0,0,1,2.508-3.96,38.493,38.493,0,0,1,5.236-4.4c5.72-3.916,6.16-4.268,7.392-5.412a8.931,8.931,0,0,0,3.124-7.04c0-6.028-4.752-9.724-12.452-9.724-4.4,0-7.876,1.364-10.076,3.916-1.628,1.892-2.42,3.7-3.036,7.04l6.292.748a8.362,8.362,0,0,1,1.364-4.048c1.1-1.716,3.036-2.6,5.588-2.6,3.74,0,6.072,1.848,6.072,4.84,0,2.244-1.232,3.7-5.28,6.468a60.593,60.593,0,0,0-7.26,5.324A21.716,21.716,0,0,0-129.8-4.884,22.482,22.482,0,0,0-130.944.748a40.55,40.55,0,0,1,5.676-.22Zm33.572.7A12.489,12.489,0,0,0-66.88-3.96c2.068-2.86,3.256-7.612,3.256-13.024A29.59,29.59,0,0,0-65.34-27.192a12.327,12.327,0,0,0-2.9-4.444A12.781,12.781,0,0,0-77.528-35.2a12.511,12.511,0,0,0-11.22,6.116C-90.376-26.4-91.432-21.56-91.432-16.9a29.447,29.447,0,0,0,1.716,10.12,12.327,12.327,0,0,0,2.9,4.444A12.676,12.676,0,0,0-77.572,1.232Zm.044-5.1a6.446,6.446,0,0,1-5.632-2.86C-84.568-8.756-85.4-12.584-85.4-17.2c0-4.8.968-8.4,2.9-10.692a5.918,5.918,0,0,1,4.928-2.244,6.359,6.359,0,0,1,4.8,1.848c1.98,2.156,3.08,6.16,3.08,11.264,0,5.148-1.1,9.24-3.08,11.308A6.394,6.394,0,0,1-77.528-3.872Zm46.64,4.4c2.816,0,4.576.088,6.644.264V-5.016a46.23,46.23,0,0,1-6.424.352h-12.32a10.607,10.607,0,0,1,2.508-3.96,38.493,38.493,0,0,1,5.236-4.4c5.72-3.916,6.16-4.268,7.392-5.412a8.931,8.931,0,0,0,3.124-7.04c0-6.028-4.752-9.724-12.452-9.724-4.4,0-7.876,1.364-10.076,3.916-1.628,1.892-2.42,3.7-3.036,7.04L-44-23.5a8.362,8.362,0,0,1,1.364-4.048c1.1-1.716,3.036-2.6,5.588-2.6,3.74,0,6.072,1.848,6.072,4.84,0,2.244-1.232,3.7-5.28,6.468a60.593,60.593,0,0,0-7.26,5.324,21.716,21.716,0,0,0-6.028,8.624A22.482,22.482,0,0,0-50.688.748a40.55,40.55,0,0,1,5.676-.22Zm37.664,0a36.884,36.884,0,0,1-.352-5.72V-27.456a66.3,66.3,0,0,1,.352-7.26,32,32,0,0,1-4.488.22H-1.76a24.451,24.451,0,0,1-4.4-.264v5.588a39.131,39.131,0,0,1,4.532-.264H.484V-5.192A36.522,36.522,0,0,1,.132.528ZM33.522-7.44h-1.53a25.142,25.142,0,0,1-3.27-.18V-4.2a25.8,25.8,0,0,1,3.27-.18h10.08V-.69a21.864,21.864,0,0,1-.18,3.27h3.66a18.065,18.065,0,0,1-.18-3.21V-4.38h6.96a25.468,25.468,0,0,1,3.27.18V-7.62a24.506,24.506,0,0,1-3.27.18h-6.96V-12.3h4.92a28.232,28.232,0,0,1,3,.12v-3.18a22.022,22.022,0,0,1-3.09.15h-4.83v-3.9h6.12a22.08,22.08,0,0,1,3.06.15v-3.27a21.3,21.3,0,0,1-3.06.15H37.452c.54-1.17.84-1.8.87-1.89.21-.45.27-.54.45-.9l-3.57-.72a8.666,8.666,0,0,1-.72,2.19c-1.23,2.94-2.79,4.92-5.85,7.53a13.132,13.132,0,0,1,2.22,2.67,27.663,27.663,0,0,0,4.95-5.91h6.27v3.9h-6.54c-.81,0-1.47-.03-2.1-.09a16.472,16.472,0,0,1,.09,1.74Zm3.15,0V-12.3h5.4v4.86ZM85.368.528c2.816,0,4.576.088,6.644.264V-5.016a46.23,46.23,0,0,1-6.424.352H73.268a10.607,10.607,0,0,1,2.508-3.96,38.493,38.493,0,0,1,5.236-4.4c5.72-3.916,6.16-4.268,7.392-5.412a8.931,8.931,0,0,0,3.124-7.04c0-6.028-4.752-9.724-12.452-9.724-4.4,0-7.876,1.364-10.076,3.916-1.628,1.892-2.42,3.7-3.036,7.04l6.292.748a8.362,8.362,0,0,1,1.364-4.048c1.1-1.716,3.036-2.6,5.588-2.6,3.74,0,6.072,1.848,6.072,4.84,0,2.244-1.232,3.7-5.28,6.468a60.593,60.593,0,0,0-7.26,5.324,21.716,21.716,0,0,0-6.028,8.624A22.482,22.482,0,0,0,65.568.748a40.55,40.55,0,0,1,5.676-.22ZM124.98-6.93v5.19c0,.66-.21.81-1.11.81a30.334,30.334,0,0,1-4.41-.36,10.854,10.854,0,0,1,.87,3.36c1.53.09,2.52.12,3.48.12,1.98,0,2.82-.15,3.48-.6.75-.48,1.08-1.35,1.08-2.85V-20.7a22.629,22.629,0,0,1,.15-3.39,27.04,27.04,0,0,1-3.48.15H112.53a30.268,30.268,0,0,1-3.51-.15,42.277,42.277,0,0,1,.15,4.53c0,7.8-.3,11.31-1.2,14.1a11.359,11.359,0,0,1-3.21,5.28,11.605,11.605,0,0,1,2.79,2.76,16.822,16.822,0,0,0,3.54-5.94,22.234,22.234,0,0,0,.87-3.57ZM112.32-9.99c.18-2.43.24-3.09.24-4.02h12.42v4.02Zm.27-7.08v-3.75h12.39v3.75Z" transform="translate(557.944 23620)"/><g transform="translate(-7.744)"><path d="M-26.848.384a26.825,26.825,0,0,1-.256-4.16V-19.968a48.217,48.217,0,0,1,.256-5.28,23.272,23.272,0,0,1-3.264.16h-2.944a17.783,17.783,0,0,1-3.2-.192v4.064a28.459,28.459,0,0,1,3.3-.192h1.536V-3.776A26.561,26.561,0,0,1-31.68.384ZM-.64.9A9.083,9.083,0,0,0,7.136-2.88C8.64-4.96,9.5-8.416,9.5-12.352a21.52,21.52,0,0,0-1.248-7.424,8.965,8.965,0,0,0-2.112-3.232A9.3,9.3,0,0,0-.608-25.6a9.1,9.1,0,0,0-8.16,4.448C-9.952-19.2-10.72-15.68-10.72-12.288a21.416,21.416,0,0,0,1.248,7.36A8.965,8.965,0,0,0-7.36-1.7,9.219,9.219,0,0,0-.64.9Zm.032-3.712A4.688,4.688,0,0,1-4.7-4.9c-1.024-1.472-1.632-4.256-1.632-7.616,0-3.488.7-6.112,2.112-7.776A4.3,4.3,0,0,1-.64-21.92a4.625,4.625,0,0,1,3.488,1.344c1.44,1.568,2.24,4.48,2.24,8.192,0,3.744-.8,6.72-2.24,8.224A4.65,4.65,0,0,1-.608-2.816Zm21.464,1.64a25.173,25.173,0,0,1-.144,2.9h2.856V.288h11.16v1.44h2.9a24.313,24.313,0,0,1-.144-2.9v-15.5a21.685,21.685,0,0,1,.12-2.448,19.312,19.312,0,0,1-2.592.12H23.4a21.187,21.187,0,0,1-2.664-.12c.072.792.12,1.632.12,2.568Zm2.712-15.288h11.16V-10.9H23.568Zm0,8.088h11.16v6.144H23.568Z" transform="translate(382 23705)"/><path d="M3,0H30.493a3,3,0,0,1,3,3V30.493a3,3,0,0,1-3,3H3a3,3,0,0,1-3-3V3A3,3,0,0,1,3,0Z" transform="translate(478 23676)" fill="#6945ff"/><path d="M13.821-11.764a12.469,12.469,0,0,1-3.162,3.689,9.921,9.921,0,0,1-1.122-3.077v-1.19a11.147,11.147,0,0,1,.119-1.8H7.5a10.925,10.925,0,0,1,.119,1.785V-1.122c0,.357-.1.425-.612.425a15.56,15.56,0,0,1-2.21-.2A6.1,6.1,0,0,1,5.27,1.054c.663.051,1.581.1,2.21.1A2.435,2.435,0,0,0,9.112.765c.323-.272.442-.612.442-1.377L9.537-4.675c0-.561-.017-.952-.085-2.652a15.265,15.265,0,0,0,2.686,4.454A14.9,14.9,0,0,0,15.045-.34a9.489,9.489,0,0,1,1.462-1.836,11.782,11.782,0,0,1-2.958-2.108,15.175,15.175,0,0,1-1.938-2.244A25.805,25.805,0,0,0,14.654-9.4c.578-.646.884-.986.9-1ZM6.188-10.387a9.884,9.884,0,0,1-1.5.068H2.907A11.954,11.954,0,0,1,1.088-10.4V-8.33a11.5,11.5,0,0,1,1.7-.1H4.93A11.315,11.315,0,0,1,2.907-4.267,11.063,11.063,0,0,1,.442-1.853,6.5,6.5,0,0,1,2.057-.425,12.588,12.588,0,0,0,4.624-3.349,15.614,15.614,0,0,0,6.783-8.177,10.827,10.827,0,0,1,7.14-9.316Z" transform="translate(486 23699)" fill="#fff"/><path d="M-26.848.384a26.825,26.825,0,0,1-.256-4.16V-19.968a48.217,48.217,0,0,1,.256-5.28,23.272,23.272,0,0,1-3.264.16h-2.944a17.783,17.783,0,0,1-3.2-.192v4.064a28.459,28.459,0,0,1,3.3-.192h1.536V-3.776A26.561,26.561,0,0,1-31.68.384Zm29.184,0a26.824,26.824,0,0,1-.256-4.16V-19.968a48.217,48.217,0,0,1,.256-5.28,23.272,23.272,0,0,1-3.264.16H-3.872a17.783,17.783,0,0,1-3.2-.192v4.064a28.459,28.459,0,0,1,3.3-.192H-2.24V-3.776A26.561,26.561,0,0,1-2.5.384Zm18.52-1.56a25.173,25.173,0,0,1-.144,2.9h2.856V.288h11.16v1.44h2.9a24.313,24.313,0,0,1-.144-2.9v-15.5a21.685,21.685,0,0,1,.12-2.448,19.312,19.312,0,0,1-2.592.12H23.4a21.187,21.187,0,0,1-2.664-.12c.072.792.12,1.632.12,2.568Zm2.712-15.288h11.16V-10.9H23.568Zm0,8.088h11.16v6.144H23.568Z" transform="translate(382 23764)"/><path d="M3,0H30.493a3,3,0,0,1,3,3V30.493a3,3,0,0,1-3,3H3a3,3,0,0,1-3-3V3A3,3,0,0,1,3,0Z" transform="translate(478 23736)" fill="#6945ff"/><path d="M13.94-9.248A15.592,15.592,0,0,1,16-9.129v-2.006a13.656,13.656,0,0,1-2.057.119H9.367v-1.615a8.365,8.365,0,0,1,.119-1.564H7.276a8.438,8.438,0,0,1,.119,1.581v1.6H3.06a14.654,14.654,0,0,1-2.04-.119v2.006a15.156,15.156,0,0,1,2.04-.119H6.783A15.917,15.917,0,0,1,.391-2.533,6.34,6.34,0,0,1,1.649-.8,16.507,16.507,0,0,0,7.48-7.344c-.051.663-.085,1.428-.085,1.853V-.765A15.793,15.793,0,0,1,7.276,1.36h2.21A15.361,15.361,0,0,1,9.367-.748v-4.76a17.465,17.465,0,0,0-.119-1.921A16.281,16.281,0,0,0,12-3.57a20.844,20.844,0,0,0,3.281,2.7,7.229,7.229,0,0,1,1.309-1.8A15.256,15.256,0,0,1,9.979-9.248Z" transform="translate(486 23760)" fill="#fff"/><path d="M-26.848.384a26.825,26.825,0,0,1-.256-4.16V-19.968a48.217,48.217,0,0,1,.256-5.28,23.272,23.272,0,0,1-3.264.16h-2.944a17.783,17.783,0,0,1-3.2-.192v4.064a28.459,28.459,0,0,1,3.3-.192h1.536V-3.776A26.561,26.561,0,0,1-31.68.384Zm30.976,0c2.048,0,3.328.064,4.832.192V-3.648a33.622,33.622,0,0,1-4.672.256h-8.96a7.714,7.714,0,0,1,1.824-2.88A28,28,0,0,1,.96-9.472c4.16-2.848,4.48-3.1,5.376-3.936a6.5,6.5,0,0,0,2.272-5.12c0-4.384-3.456-7.072-9.056-7.072-3.2,0-5.728.992-7.328,2.848a9.6,9.6,0,0,0-2.208,5.12l4.576.544a6.082,6.082,0,0,1,.992-2.944A4.522,4.522,0,0,1-.352-21.92c2.72,0,4.416,1.344,4.416,3.52,0,1.632-.9,2.688-3.84,4.7a44.068,44.068,0,0,0-5.28,3.872A15.793,15.793,0,0,0-9.44-3.552a16.351,16.351,0,0,0-.832,4.1A29.491,29.491,0,0,1-6.144.384Zm16.728-1.56a25.173,25.173,0,0,1-.144,2.9h2.856V.288h11.16v1.44h2.9a24.313,24.313,0,0,1-.144-2.9v-15.5a21.685,21.685,0,0,1,.12-2.448,19.312,19.312,0,0,1-2.592.12H23.4a21.187,21.187,0,0,1-2.664-.12c.072.792.12,1.632.12,2.568Zm2.712-15.288h11.16V-10.9H23.568Zm0,8.088h11.16v6.144H23.568Z" transform="translate(382 23824)"/><path d="M3,0H30.493a3,3,0,0,1,3,3V30.493a3,3,0,0,1-3,3H3a3,3,0,0,1-3-3V3A3,3,0,0,1,3,0Z" transform="translate(478 23797)" fill="#6945ff"/><path d="M7.446-8.024v1.649H3.434a12.547,12.547,0,0,1-1.853-.1V-4.59a13.967,13.967,0,0,1,1.836-.1H7.446V-.884H3.179a18.37,18.37,0,0,1-2.108-.1V.969A16.761,16.761,0,0,1,3.179.85H13.923a15.68,15.68,0,0,1,2.04.119V-.986a15.926,15.926,0,0,1-2.006.1H9.333V-4.692h4.284a13.469,13.469,0,0,1,1.87.1V-6.477a12.081,12.081,0,0,1-1.853.1h-4.3V-8.024h1.734a11.619,11.619,0,0,1,1.666.085v-.867a17.333,17.333,0,0,0,2.975,1.5,8.677,8.677,0,0,1,.918-1.87,14.081,14.081,0,0,1-4.5-2.3A10.055,10.055,0,0,1,9.5-14.093H7.395C6.171-12.053,3.621-10.217.459-9.112a7.553,7.553,0,0,1,.986,1.751A18.346,18.346,0,0,0,4.216-8.755v.816a11.912,11.912,0,0,1,1.666-.085Zm-1.972-1.6a11.993,11.993,0,0,0,2.975-2.856,13.412,13.412,0,0,0,3.06,2.856c-.255.017-.255.017-.408.017l-5.27-.017ZM2.992-3.859A12.38,12.38,0,0,1,4.335-1.037l1.7-.68a19.7,19.7,0,0,0-1.36-2.822Zm9.163-.663A14.2,14.2,0,0,1,10.812-1.6L12.41-1c.578-.986.646-1.105.7-1.207.629-1.241.629-1.241.85-1.632Z" transform="translate(486 23820)" fill="#fff"/><g transform="translate(17.788)"><path d="M12.1.324a22.633,22.633,0,0,1-.216-3.51V-16.848A40.683,40.683,0,0,1,12.1-21.3a19.636,19.636,0,0,1-2.754.135H6.858a15,15,0,0,1-2.7-.162V-17.9a24.012,24.012,0,0,1,2.781-.162h1.3V-3.186A22.411,22.411,0,0,1,8.019.324Zm9.585-5.1a7.131,7.131,0,0,0,1.512,3.024C24.732,0,26.892.81,30.051.81c2.889,0,5.157-.756,6.642-2.187a5.717,5.717,0,0,0,1.62-3.942,5.186,5.186,0,0,0-1.3-3.726,5.68,5.68,0,0,0-3.861-1.809,6.665,6.665,0,0,0,2.619-1.053,4.923,4.923,0,0,0,1.863-3.969c0-3.51-2.916-5.778-7.425-5.778a8.767,8.767,0,0,0-5.292,1.485,6.709,6.709,0,0,0-2.565,3.861l3.861.648a3.966,3.966,0,0,1,1.134-2.079,4.5,4.5,0,0,1,2.943-.837c2.295,0,3.564,1.053,3.564,2.916,0,2.079-1.593,3.321-4.293,3.321a18.51,18.51,0,0,1-2.619-.135v3.348a23.055,23.055,0,0,1,2.889-.135,6.994,6.994,0,0,1,3.1.648,3.146,3.146,0,0,1,1.512,2.835c0,2.133-1.7,3.51-4.374,3.51a5.1,5.1,0,0,1-3.267-1.053,3.507,3.507,0,0,1-1.269-2.214ZM42.822-15.174v3.942h3.942v-3.942Zm0,11.556V.324h3.942V-3.618ZM59.373.756A7.664,7.664,0,0,0,65.934-2.43c1.269-1.755,2-4.671,2-7.992a18.158,18.158,0,0,0-1.053-6.264A7.564,7.564,0,0,0,65.1-19.413,7.843,7.843,0,0,0,59.4-21.6a7.677,7.677,0,0,0-6.885,3.753,15.9,15.9,0,0,0-1.647,7.479,18.07,18.07,0,0,0,1.053,6.21A7.564,7.564,0,0,0,53.7-1.431,7.779,7.779,0,0,0,59.373.756ZM59.4-2.376a3.956,3.956,0,0,1-3.456-1.755c-.864-1.242-1.377-3.591-1.377-6.426,0-2.943.594-5.157,1.782-6.561A3.631,3.631,0,0,1,59.373-18.5a3.9,3.9,0,0,1,2.943,1.134c1.215,1.323,1.89,3.78,1.89,6.912,0,3.159-.675,5.67-1.89,6.939A3.924,3.924,0,0,1,59.4-2.376ZM79.947.756A7.664,7.664,0,0,0,86.508-2.43c1.269-1.755,2-4.671,2-7.992a18.158,18.158,0,0,0-1.053-6.264,7.564,7.564,0,0,0-1.782-2.727,7.843,7.843,0,0,0-5.7-2.187,7.677,7.677,0,0,0-6.885,3.753,15.9,15.9,0,0,0-1.647,7.479A18.07,18.07,0,0,0,72.5-4.158a7.564,7.564,0,0,0,1.782,2.727A7.779,7.779,0,0,0,79.947.756Zm.027-3.132a3.956,3.956,0,0,1-3.456-1.755c-.864-1.242-1.377-3.591-1.377-6.426,0-2.943.594-5.157,1.782-6.561A3.631,3.631,0,0,1,79.947-18.5a3.9,3.9,0,0,1,2.943,1.134c1.215,1.323,1.89,3.78,1.89,6.912,0,3.159-.675,5.67-1.89,6.939A3.924,3.924,0,0,1,79.974-2.376Z" transform="translate(539.048 23703.061)"/><path d="M13.608.324c1.728,0,2.808.054,4.077.162V-3.078a28.368,28.368,0,0,1-3.942.216H6.183a6.509,6.509,0,0,1,1.539-2.43,23.621,23.621,0,0,1,3.213-2.7,33.8,33.8,0,0,0,4.536-3.321,5.481,5.481,0,0,0,1.917-4.32c0-3.7-2.916-5.967-7.641-5.967a7.851,7.851,0,0,0-6.183,2.4A8.1,8.1,0,0,0,1.7-14.877l3.861.459A5.131,5.131,0,0,1,6.4-16.9,3.815,3.815,0,0,1,9.828-18.5c2.3,0,3.726,1.134,3.726,2.97,0,1.377-.756,2.268-3.24,3.969A37.182,37.182,0,0,0,5.859-8.289,13.325,13.325,0,0,0,2.16-3a13.8,13.8,0,0,0-.7,3.456A24.883,24.883,0,0,1,4.941.324ZM30.159.756A7.664,7.664,0,0,0,36.72-2.43c1.269-1.755,2-4.671,2-7.992a18.158,18.158,0,0,0-1.053-6.264,7.564,7.564,0,0,0-1.782-2.727,7.843,7.843,0,0,0-5.7-2.187A7.677,7.677,0,0,0,23.3-17.847a15.9,15.9,0,0,0-1.647,7.479,18.07,18.07,0,0,0,1.053,6.21,7.564,7.564,0,0,0,1.782,2.727A7.779,7.779,0,0,0,30.159.756Zm.027-3.132A3.956,3.956,0,0,1,26.73-4.131c-.864-1.242-1.377-3.591-1.377-6.426,0-2.943.594-5.157,1.782-6.561A3.631,3.631,0,0,1,30.159-18.5,3.9,3.9,0,0,1,33.1-17.361c1.215,1.323,1.89,3.78,1.89,6.912,0,3.159-.675,5.67-1.89,6.939A3.924,3.924,0,0,1,30.186-2.376Zm12.636-12.8v3.942h3.942v-3.942Zm0,11.556V.324h3.942V-3.618Zm8.073-1.161a7.131,7.131,0,0,0,1.512,3.024C53.946,0,56.106.81,59.265.81c2.889,0,5.157-.756,6.642-2.187a5.717,5.717,0,0,0,1.62-3.942,5.186,5.186,0,0,0-1.3-3.726,5.68,5.68,0,0,0-3.861-1.809,6.665,6.665,0,0,0,2.619-1.053,4.923,4.923,0,0,0,1.863-3.969c0-3.51-2.916-5.778-7.425-5.778a8.767,8.767,0,0,0-5.292,1.485,6.709,6.709,0,0,0-2.565,3.861l3.861.648a3.966,3.966,0,0,1,1.134-2.079,4.5,4.5,0,0,1,2.943-.837c2.295,0,3.564,1.053,3.564,2.916,0,2.079-1.593,3.321-4.293,3.321a18.51,18.51,0,0,1-2.619-.135v3.348a23.055,23.055,0,0,1,2.889-.135,6.994,6.994,0,0,1,3.105.648,3.146,3.146,0,0,1,1.512,2.835c0,2.133-1.7,3.51-4.374,3.51a5.1,5.1,0,0,1-3.267-1.053,3.507,3.507,0,0,1-1.269-2.214ZM79.947.756A7.664,7.664,0,0,0,86.508-2.43c1.269-1.755,2-4.671,2-7.992a18.158,18.158,0,0,0-1.053-6.264,7.564,7.564,0,0,0-1.782-2.727,7.843,7.843,0,0,0-5.7-2.187,7.677,7.677,0,0,0-6.885,3.753,15.9,15.9,0,0,0-1.647,7.479A18.07,18.07,0,0,0,72.5-4.158a7.564,7.564,0,0,0,1.782,2.727A7.779,7.779,0,0,0,79.947.756Zm.027-3.132a3.956,3.956,0,0,1-3.456-1.755c-.864-1.242-1.377-3.591-1.377-6.426,0-2.943.594-5.157,1.782-6.561A3.631,3.631,0,0,1,79.947-18.5a3.9,3.9,0,0,1,2.943,1.134c1.215,1.323,1.89,3.78,1.89,6.912,0,3.159-.675,5.67-1.89,6.939A3.924,3.924,0,0,1,79.974-2.376Z" transform="translate(676.574 23703.061)"/><path d="M0,0H16.13" transform="translate(646.513 23694.021)" fill="none" stroke="#233667" stroke-linecap="round" stroke-width="2"/><path d="M12.1.324a22.633,22.633,0,0,1-.216-3.51V-16.848A40.683,40.683,0,0,1,12.1-21.3a19.636,19.636,0,0,1-2.754.135H6.858a15,15,0,0,1-2.7-.162V-17.9a24.012,24.012,0,0,1,2.781-.162h1.3V-3.186A22.411,22.411,0,0,1,8.019.324Zm9.585-5.1a7.131,7.131,0,0,0,1.512,3.024C24.732,0,26.892.81,30.051.81c2.889,0,5.157-.756,6.642-2.187a5.717,5.717,0,0,0,1.62-3.942,5.186,5.186,0,0,0-1.3-3.726,5.68,5.68,0,0,0-3.861-1.809,6.665,6.665,0,0,0,2.619-1.053,4.923,4.923,0,0,0,1.863-3.969c0-3.51-2.916-5.778-7.425-5.778a8.767,8.767,0,0,0-5.292,1.485,6.709,6.709,0,0,0-2.565,3.861l3.861.648a3.966,3.966,0,0,1,1.134-2.079,4.5,4.5,0,0,1,2.943-.837c2.295,0,3.564,1.053,3.564,2.916,0,2.079-1.593,3.321-4.293,3.321a18.51,18.51,0,0,1-2.619-.135v3.348a23.055,23.055,0,0,1,2.889-.135,6.994,6.994,0,0,1,3.1.648,3.146,3.146,0,0,1,1.512,2.835c0,2.133-1.7,3.51-4.374,3.51a5.1,5.1,0,0,1-3.267-1.053,3.507,3.507,0,0,1-1.269-2.214ZM42.822-15.174v3.942h3.942v-3.942Zm0,11.556V.324h3.942V-3.618ZM59.373.756A7.664,7.664,0,0,0,65.934-2.43c1.269-1.755,2-4.671,2-7.992a18.158,18.158,0,0,0-1.053-6.264A7.564,7.564,0,0,0,65.1-19.413,7.843,7.843,0,0,0,59.4-21.6a7.677,7.677,0,0,0-6.885,3.753,15.9,15.9,0,0,0-1.647,7.479,18.07,18.07,0,0,0,1.053,6.21A7.564,7.564,0,0,0,53.7-1.431,7.779,7.779,0,0,0,59.373.756ZM59.4-2.376a3.956,3.956,0,0,1-3.456-1.755c-.864-1.242-1.377-3.591-1.377-6.426,0-2.943.594-5.157,1.782-6.561A3.631,3.631,0,0,1,59.373-18.5a3.9,3.9,0,0,1,2.943,1.134c1.215,1.323,1.89,3.78,1.89,6.912,0,3.159-.675,5.67-1.89,6.939A3.924,3.924,0,0,1,59.4-2.376ZM79.947.756A7.664,7.664,0,0,0,86.508-2.43c1.269-1.755,2-4.671,2-7.992a18.158,18.158,0,0,0-1.053-6.264,7.564,7.564,0,0,0-1.782-2.727,7.843,7.843,0,0,0-5.7-2.187,7.677,7.677,0,0,0-6.885,3.753,15.9,15.9,0,0,0-1.647,7.479A18.07,18.07,0,0,0,72.5-4.158a7.564,7.564,0,0,0,1.782,2.727A7.779,7.779,0,0,0,79.947.756Zm.027-3.132a3.956,3.956,0,0,1-3.456-1.755c-.864-1.242-1.377-3.591-1.377-6.426,0-2.943.594-5.157,1.782-6.561A3.631,3.631,0,0,1,79.947-18.5a3.9,3.9,0,0,1,2.943,1.134c1.215,1.323,1.89,3.78,1.89,6.912,0,3.159-.675,5.67-1.89,6.939A3.924,3.924,0,0,1,79.974-2.376Z" transform="translate(539.048 23762.855)"/><path d="M13.608.324c1.728,0,2.808.054,4.077.162V-3.078a28.368,28.368,0,0,1-3.942.216H6.183a6.509,6.509,0,0,1,1.539-2.43,23.621,23.621,0,0,1,3.213-2.7,33.8,33.8,0,0,0,4.536-3.321,5.481,5.481,0,0,0,1.917-4.32c0-3.7-2.916-5.967-7.641-5.967a7.851,7.851,0,0,0-6.183,2.4A8.1,8.1,0,0,0,1.7-14.877l3.861.459A5.131,5.131,0,0,1,6.4-16.9,3.815,3.815,0,0,1,9.828-18.5c2.3,0,3.726,1.134,3.726,2.97,0,1.377-.756,2.268-3.24,3.969A37.182,37.182,0,0,0,5.859-8.289,13.325,13.325,0,0,0,2.16-3a13.8,13.8,0,0,0-.7,3.456A24.883,24.883,0,0,1,4.941.324ZM30.159.756A7.664,7.664,0,0,0,36.72-2.43c1.269-1.755,2-4.671,2-7.992a18.158,18.158,0,0,0-1.053-6.264,7.564,7.564,0,0,0-1.782-2.727,7.843,7.843,0,0,0-5.7-2.187A7.677,7.677,0,0,0,23.3-17.847a15.9,15.9,0,0,0-1.647,7.479,18.07,18.07,0,0,0,1.053,6.21,7.564,7.564,0,0,0,1.782,2.727A7.779,7.779,0,0,0,30.159.756Zm.027-3.132A3.956,3.956,0,0,1,26.73-4.131c-.864-1.242-1.377-3.591-1.377-6.426,0-2.943.594-5.157,1.782-6.561A3.631,3.631,0,0,1,30.159-18.5,3.9,3.9,0,0,1,33.1-17.361c1.215,1.323,1.89,3.78,1.89,6.912,0,3.159-.675,5.67-1.89,6.939A3.924,3.924,0,0,1,30.186-2.376Zm12.636-12.8v3.942h3.942v-3.942Zm0,11.556V.324h3.942V-3.618Zm8.073-1.161a7.131,7.131,0,0,0,1.512,3.024C53.946,0,56.106.81,59.265.81c2.889,0,5.157-.756,6.642-2.187a5.717,5.717,0,0,0,1.62-3.942,5.186,5.186,0,0,0-1.3-3.726,5.68,5.68,0,0,0-3.861-1.809,6.665,6.665,0,0,0,2.619-1.053,4.923,4.923,0,0,0,1.863-3.969c0-3.51-2.916-5.778-7.425-5.778a8.767,8.767,0,0,0-5.292,1.485,6.709,6.709,0,0,0-2.565,3.861l3.861.648a3.966,3.966,0,0,1,1.134-2.079,4.5,4.5,0,0,1,2.943-.837c2.295,0,3.564,1.053,3.564,2.916,0,2.079-1.593,3.321-4.293,3.321a18.51,18.51,0,0,1-2.619-.135v3.348a23.055,23.055,0,0,1,2.889-.135,6.994,6.994,0,0,1,3.105.648,3.146,3.146,0,0,1,1.512,2.835c0,2.133-1.7,3.51-4.374,3.51a5.1,5.1,0,0,1-3.267-1.053,3.507,3.507,0,0,1-1.269-2.214ZM79.947.756A7.664,7.664,0,0,0,86.508-2.43c1.269-1.755,2-4.671,2-7.992a18.158,18.158,0,0,0-1.053-6.264,7.564,7.564,0,0,0-1.782-2.727,7.843,7.843,0,0,0-5.7-2.187,7.677,7.677,0,0,0-6.885,3.753,15.9,15.9,0,0,0-1.647,7.479A18.07,18.07,0,0,0,72.5-4.158a7.564,7.564,0,0,0,1.782,2.727A7.779,7.779,0,0,0,79.947.756Zm.027-3.132a3.956,3.956,0,0,1-3.456-1.755c-.864-1.242-1.377-3.591-1.377-6.426,0-2.943.594-5.157,1.782-6.561A3.631,3.631,0,0,1,79.947-18.5a3.9,3.9,0,0,1,2.943,1.134c1.215,1.323,1.89,3.78,1.89,6.912,0,3.159-.675,5.67-1.89,6.939A3.924,3.924,0,0,1,79.974-2.376Z" transform="translate(676.574 23762.855)"/><path d="M0,0H16.13" transform="translate(646.513 23754.506)" fill="none" stroke="#233667" stroke-linecap="round" stroke-width="2"/><path d="M12.1.324a22.633,22.633,0,0,1-.216-3.51V-16.848A40.683,40.683,0,0,1,12.1-21.3a19.636,19.636,0,0,1-2.754.135H6.858a15,15,0,0,1-2.7-.162V-17.9a24.012,24.012,0,0,1,2.781-.162h1.3V-3.186A22.411,22.411,0,0,1,8.019.324ZM30.159.756A7.664,7.664,0,0,0,36.72-2.43c1.269-1.755,2-4.671,2-7.992a18.158,18.158,0,0,0-1.053-6.264,7.564,7.564,0,0,0-1.782-2.727,7.843,7.843,0,0,0-5.7-2.187A7.677,7.677,0,0,0,23.3-17.847a15.9,15.9,0,0,0-1.647,7.479,18.07,18.07,0,0,0,1.053,6.21,7.564,7.564,0,0,0,1.782,2.727A7.779,7.779,0,0,0,30.159.756Zm.027-3.132A3.956,3.956,0,0,1,26.73-4.131c-.864-1.242-1.377-3.591-1.377-6.426,0-2.943.594-5.157,1.782-6.561A3.631,3.631,0,0,1,30.159-18.5,3.9,3.9,0,0,1,33.1-17.361c1.215,1.323,1.89,3.78,1.89,6.912,0,3.159-.675,5.67-1.89,6.939A3.924,3.924,0,0,1,30.186-2.376Zm12.636-12.8v3.942h3.942v-3.942Zm0,11.556V.324h3.942V-3.618ZM59.373.756A7.664,7.664,0,0,0,65.934-2.43c1.269-1.755,2-4.671,2-7.992a18.158,18.158,0,0,0-1.053-6.264A7.564,7.564,0,0,0,65.1-19.413,7.843,7.843,0,0,0,59.4-21.6a7.677,7.677,0,0,0-6.885,3.753,15.9,15.9,0,0,0-1.647,7.479,18.07,18.07,0,0,0,1.053,6.21A7.564,7.564,0,0,0,53.7-1.431,7.779,7.779,0,0,0,59.373.756ZM59.4-2.376a3.956,3.956,0,0,1-3.456-1.755c-.864-1.242-1.377-3.591-1.377-6.426,0-2.943.594-5.157,1.782-6.561A3.631,3.631,0,0,1,59.373-18.5a3.9,3.9,0,0,1,2.943,1.134c1.215,1.323,1.89,3.78,1.89,6.912,0,3.159-.675,5.67-1.89,6.939A3.924,3.924,0,0,1,59.4-2.376ZM79.947.756A7.664,7.664,0,0,0,86.508-2.43c1.269-1.755,2-4.671,2-7.992a18.158,18.158,0,0,0-1.053-6.264,7.564,7.564,0,0,0-1.782-2.727,7.843,7.843,0,0,0-5.7-2.187,7.677,7.677,0,0,0-6.885,3.753,15.9,15.9,0,0,0-1.647,7.479A18.07,18.07,0,0,0,72.5-4.158a7.564,7.564,0,0,0,1.782,2.727A7.779,7.779,0,0,0,79.947.756Zm.027-3.132a3.956,3.956,0,0,1-3.456-1.755c-.864-1.242-1.377-3.591-1.377-6.426,0-2.943.594-5.157,1.782-6.561A3.631,3.631,0,0,1,79.947-18.5a3.9,3.9,0,0,1,2.943,1.134c1.215,1.323,1.89,3.78,1.89,6.912,0,3.159-.675,5.67-1.89,6.939A3.924,3.924,0,0,1,79.974-2.376Z" transform="translate(539.048 23822.648)"/><path d="M12.1.324a22.633,22.633,0,0,1-.216-3.51V-16.848A40.683,40.683,0,0,1,12.1-21.3a19.636,19.636,0,0,1-2.754.135H6.858a15,15,0,0,1-2.7-.162V-17.9a24.012,24.012,0,0,1,2.781-.162h1.3V-3.186A22.411,22.411,0,0,1,8.019.324ZM22.167-4.482a7.966,7.966,0,0,0,1.7,2.943A7.9,7.9,0,0,0,30.024.81c5.022,0,8.127-2.943,8.127-7.695a6.637,6.637,0,0,0-1.917-5.076,6.937,6.937,0,0,0-5.265-2.025,6.642,6.642,0,0,0-4.617,1.647q.121-.81.162-1.134l.432-4.725h6.345a25.9,25.9,0,0,1,3.726.216v-3.4a20.558,20.558,0,0,1-3.753.216H26.622c-1.431,0-2.052-.027-2.862-.081-.027,1.35-.081,2.268-.108,2.754l-.621,6.7c-.054.756-.081.891-.351,2.808l3.375.324a3.1,3.1,0,0,1,.81-1.215,4.746,4.746,0,0,1,3.348-1.242,4.026,4.026,0,0,1,4.239,4.347,4.188,4.188,0,0,1-4.428,4.455A4.09,4.09,0,0,1,26.7-3.7a3.7,3.7,0,0,1-.81-1.566ZM42.822-15.174v3.942h3.942v-3.942Zm0,11.556V.324h3.942V-3.618ZM59.373.756A7.664,7.664,0,0,0,65.934-2.43c1.269-1.755,2-4.671,2-7.992a18.158,18.158,0,0,0-1.053-6.264A7.564,7.564,0,0,0,65.1-19.413,7.843,7.843,0,0,0,59.4-21.6a7.677,7.677,0,0,0-6.885,3.753,15.9,15.9,0,0,0-1.647,7.479,18.07,18.07,0,0,0,1.053,6.21A7.564,7.564,0,0,0,53.7-1.431,7.779,7.779,0,0,0,59.373.756ZM59.4-2.376a3.956,3.956,0,0,1-3.456-1.755c-.864-1.242-1.377-3.591-1.377-6.426,0-2.943.594-5.157,1.782-6.561A3.631,3.631,0,0,1,59.373-18.5a3.9,3.9,0,0,1,2.943,1.134c1.215,1.323,1.89,3.78,1.89,6.912,0,3.159-.675,5.67-1.89,6.939A3.924,3.924,0,0,1,59.4-2.376ZM79.947.756A7.664,7.664,0,0,0,86.508-2.43c1.269-1.755,2-4.671,2-7.992a18.158,18.158,0,0,0-1.053-6.264,7.564,7.564,0,0,0-1.782-2.727,7.843,7.843,0,0,0-5.7-2.187,7.677,7.677,0,0,0-6.885,3.753,15.9,15.9,0,0,0-1.647,7.479A18.07,18.07,0,0,0,72.5-4.158a7.564,7.564,0,0,0,1.782,2.727A7.779,7.779,0,0,0,79.947.756Zm.027-3.132a3.956,3.956,0,0,1-3.456-1.755c-.864-1.242-1.377-3.591-1.377-6.426,0-2.943.594-5.157,1.782-6.561A3.631,3.631,0,0,1,79.947-18.5a3.9,3.9,0,0,1,2.943,1.134c1.215,1.323,1.89,3.78,1.89,6.912,0,3.159-.675,5.67-1.89,6.939A3.924,3.924,0,0,1,79.974-2.376Z" transform="translate(676.574 23822.648)"/><path d="M0,0H16.13" transform="translate(646.513 23814.992)" fill="none" stroke="#233667" stroke-linecap="round" stroke-width="2"/></g></g><path d="M-326.544-2.352a50.35,50.35,0,0,1-.288,5.808h5.712V.576h22.32v2.88h5.808a48.63,48.63,0,0,1-.288-5.808V-33.36a43.374,43.374,0,0,1,.24-4.9,38.623,38.623,0,0,1-5.184.24h-23.232a42.373,42.373,0,0,1-5.328-.24c.144,1.584.24,3.264.24,5.136Zm5.424-30.576h22.32v11.136h-22.32Zm0,16.176h22.32V-4.464h-22.32Zm58.032-10.464a45.14,45.14,0,0,1-16.7,18.432,16.544,16.544,0,0,1,3.264,5.04,45.885,45.885,0,0,0,7.776-6.72V-5.04a34.34,34.34,0,0,1,4.8-.288h3.792v3.264a44.323,44.323,0,0,1-.336,5.952h6.048a43.373,43.373,0,0,1-.336-5.952V-5.328h4.272a34.826,34.826,0,0,1,4.8.288v-5.472a53.51,53.51,0,0,0,8.064,6.672,19.586,19.586,0,0,1,3.264-5.232,41.071,41.071,0,0,1-10.464-8.064,47.6,47.6,0,0,1-7.2-10.08h10.272a56.693,56.693,0,0,1,5.808.288v-5.856a39.411,39.411,0,0,1-5.808.336h-13.008V-35.9a23.963,23.963,0,0,1,.336-4.416h-6a29.838,29.838,0,0,1,.288,4.464v3.408H-272.5a41.584,41.584,0,0,1-5.712-.336v5.856a54.809,54.809,0,0,1,5.712-.288Zm8.3,16.7V-18.1a38.787,38.787,0,0,0-.432-5.328c3.456,6.048,5.568,8.976,9.312,12.72a30.036,30.036,0,0,1-4.224.192Zm-5.376,0h-4.08a30.388,30.388,0,0,1-4.272-.192,47.6,47.6,0,0,0,8.736-12.72,47,47,0,0,0-.384,5.376Zm52.848-24.624v1.824H-219.5a53.655,53.655,0,0,1-5.9-.192,30.738,30.738,0,0,1,.192,3.936v3.024a22.178,22.178,0,0,1-.288,3.792h4.992V-29.52h13.2v4.752a38.707,38.707,0,0,1-.24,4.512h5.52a28.217,28.217,0,0,1-.192-4.512V-29.52h13.92v6.768h4.944a22.212,22.212,0,0,1-.24-3.792v-3.024a23.023,23.023,0,0,1,.192-3.936,55.292,55.292,0,0,1-5.952.192h-12.864v-1.824h10.992a48.749,48.749,0,0,1,4.944.192V-39.6a44.57,44.57,0,0,1-5.424.288h-25.344a47.477,47.477,0,0,1-5.424-.288v4.656c1.584-.144,2.928-.192,5.04-.192ZM-187.3-14.592a39.6,39.6,0,0,1,.192-4.656,41.439,41.439,0,0,1-4.752.192H-217.2a38.829,38.829,0,0,1-4.56-.192,43.2,43.2,0,0,1,.24,4.608v8.832a36.635,36.635,0,0,1-.288,4.752h5.328V-3.5h9.168V-.24c0,3.216,1.392,3.7,10.8,3.7,8.208,0,10.944-.336,12.336-1.536,1.248-1.056,1.776-3.072,1.92-7.248a16.859,16.859,0,0,1-5.04-1.92ZM-202.32-3.5h14.832c-.144,1.632-.336,2.064-.912,2.352-.768.384-3.312.624-6.816.624-3.888,0-6.144-.192-6.768-.528-.24-.1-.336-.336-.336-.72Zm-4.992-11.856v2.208h-9.168V-15.36Zm4.992,0h9.984v2.208h-9.984Zm-4.992,5.616v2.4h-9.168v-2.4Zm4.992,0h9.984v2.4h-9.984ZM-218.5-25.056A17.46,17.46,0,0,1-216-25.2h4.224a16.729,16.729,0,0,1,2.448.144v-3.216a16.282,16.282,0,0,1-2.448.144H-216a11.471,11.471,0,0,1-2.5-.144Zm0,4.512a17.46,17.46,0,0,1,2.5-.144h4.224a15.427,15.427,0,0,1,2.448.144V-23.76a15.848,15.848,0,0,1-2.448.144H-216a11.471,11.471,0,0,1-2.5-.144Zm18.432-4.512a17,17,0,0,1,2.5-.144h4.9a17.19,17.19,0,0,1,2.448.144v-3.216a16.282,16.282,0,0,1-2.448.144h-4.9a11.237,11.237,0,0,1-2.5-.144Zm0,4.512a17.46,17.46,0,0,1,2.5-.144h4.9a15.848,15.848,0,0,1,2.448.144V-23.76a15.847,15.847,0,0,1-2.448.144h-4.9a11.237,11.237,0,0,1-2.5-.144Zm46.368-.864h-12.768a58.23,58.23,0,0,1-6.672-.288v5.808a61.357,61.357,0,0,1,6.528-.288H-153.7V-3.5c0,1.056-.336,1.248-2.3,1.248a42.337,42.337,0,0,1-6.96-.576,19.32,19.32,0,0,1,1.488,5.76c3.456.144,4.416.192,5.376.192,6.384,0,8.016-1.056,8.016-5.28V-16.176h11.76a58.9,58.9,0,0,1,6.528.288V-21.7a53.755,53.755,0,0,1-6.528.288h-11.76v-2.064a65.286,65.286,0,0,0,10.224-7.392c3.264-3.12,3.264-3.12,4.512-4.272l-3.12-3.5a19.639,19.639,0,0,1-4.176.24h-21.744a47.2,47.2,0,0,1-5.76-.288v5.664a47.52,47.52,0,0,1,5.808-.288h19.152a42.156,42.156,0,0,1-8.16,6.144h-2.5c.1,1.1.144,2.112.144,3.648Zm52.128-11.136v2.256h-9.84a35.817,35.817,0,0,1-4.56-.192,33.175,33.175,0,0,1,.192,3.84v9.456a33.726,33.726,0,0,1-.192,3.84,37.8,37.8,0,0,1,4.56-.192h20.3v2.256h-23.664a35.586,35.586,0,0,1-5.184-.288v4.944a42.749,42.749,0,0,1,5.088-.288H-91.1v4.848c0,.96-.288,1.1-2.064,1.1a37.651,37.651,0,0,1-5.376-.384,19.321,19.321,0,0,1,1.44,4.9c1.584.048,2.64.1,3.312.1,3.456,0,5.136-.24,6.24-.96,1.056-.672,1.488-1.584,1.488-3.36v-6.24h3.792a42.516,42.516,0,0,1,5.04.288v-4.944a29.552,29.552,0,0,1-5.136.288h-3.7v-2.256a40.263,40.263,0,0,1,4.8.192,32.108,32.108,0,0,1-.192-3.84V-26.64a32.108,32.108,0,0,1,.192-3.84,35.817,35.817,0,0,1-4.56.192h-10.7v-2.256H-82.32a37.11,37.11,0,0,1,5.04.288v-4.9a29.552,29.552,0,0,1-5.136.288H-96.528a20.827,20.827,0,0,1,.288-3.648h-5.616a19.7,19.7,0,0,1,.288,3.648h-13.2a35.585,35.585,0,0,1-5.184-.288v4.9a37.381,37.381,0,0,1,5.088-.288Zm0,6.24v2.5h-9.216v-2.5Zm5.04,0H-86.5v2.5H-96.528Zm-5.04,6.144v2.64h-9.216v-2.64Zm5.04,0H-86.5v2.64H-96.528ZM-100.656-.72a27.79,27.79,0,0,0-6.912-5.952l-3.84,3.072a28.4,28.4,0,0,1,6.72,6.336Zm39.984-20.352h8.592c1.68,0,3.264.048,4.416.1a42.72,42.72,0,0,1-.144-4.272v-9.408c0-1.872.048-3.12.144-4.464a40.557,40.557,0,0,1-4.9.192h-8.5a42.648,42.648,0,0,1-4.9-.192A53.665,53.665,0,0,1-65.76-33.7v31.44A46.376,46.376,0,0,1-66.048,3.7h5.664a42.1,42.1,0,0,1-.288-5.9Zm0-13.68h8.16v3.072h-8.16Zm0,6.816h8.16v3.024h-8.16Zm34.752-5.808a42.729,42.729,0,0,1,.24-5.376,44.556,44.556,0,0,1-4.992.192H-39.6a41.59,41.59,0,0,1-4.9-.192c.1,1.488.144,2.832.144,4.464v9.408c0,2.064-.048,3.264-.144,4.368,1.008-.1,2.688-.144,4.416-.144h9.024V-2.88c0,1.008-.336,1.2-1.824,1.2a51.807,51.807,0,0,1-6.48-.432,17.719,17.719,0,0,1,1.3,5.232c1.968.048,3.072.1,3.936.1,6.912,0,8.208-.864,8.208-5.472Zm-13.632-1.008h8.5v3.072h-8.5Zm0,6.816h8.5v3.024h-8.5ZM4.464-9.264v7.1c0,.96-.336,1.1-2.448,1.1a43.692,43.692,0,0,1-5.952-.48A18.214,18.214,0,0,1-2.352,3.552c2.5.144,4.08.192,4.7.192,4.32,0,5.952-.384,6.768-1.584.48-.672.624-1.344.624-3.024v-8.4h12.48a47.419,47.419,0,0,1,5.952.288V-14.3a39.537,39.537,0,0,1-5.9.336H9.744v-.048a67.2,67.2,0,0,0,9.6-7.008c.912-.768.912-.768,1.728-1.44l-2.64-2.928a21.7,21.7,0,0,1-3.648.192H-1.1a35,35,0,0,1-4.848-.24v4.8a47.553,47.553,0,0,1,4.8-.192h13.2a25.419,25.419,0,0,1-5.664,3.888H4.32a22.454,22.454,0,0,1,.144,2.64v.336H-8.592A40.73,40.73,0,0,1-14.4-14.3v5.328a46.764,46.764,0,0,1,5.856-.288ZM-8.352-32.976a46.163,46.163,0,0,1-5.664-.192,31.548,31.548,0,0,1,.192,3.984v4.416a21.045,21.045,0,0,1-.24,3.7h5.232v-7.44h31.3v7.44H27.7a29.1,29.1,0,0,1-.24-3.648v-4.464a30.124,30.124,0,0,1,.192-3.984,57.776,57.776,0,0,1-5.9.192h-2.16a50.289,50.289,0,0,0,3.6-5.76L18-40.176a31.8,31.8,0,0,1-3.936,7.2H9.984a37.98,37.98,0,0,0-3.312-7.44L1.68-39.024a28.073,28.073,0,0,1,2.928,6.048H-.48A35.39,35.39,0,0,0-4.848-39.84L-9.7-38.4a27.806,27.806,0,0,1,3.6,5.424Zm79.2,13.3a28.9,28.9,0,0,1-3.792,7.728,30.466,30.466,0,0,1-3.792-7.488L58.9-17.232a37.786,37.786,0,0,0,4.992,9.216c-3.552,3.6-6.672,5.472-12.336,7.488a16.84,16.84,0,0,1,2.976,4.656,35.075,35.075,0,0,0,12.528-8.3c3.552,3.6,6.912,5.808,12.816,8.208A19.2,19.2,0,0,1,82.56-1.2c-5.712-1.872-8.976-3.744-12.288-6.912A49.453,49.453,0,0,0,75.6-17.664Zm-10.368-9.5c-2.016,4.416-3.936,7.152-6.576,9.456a21.583,21.583,0,0,1-4.512-7.1h1.92a27.038,27.038,0,0,1,2.784.144v-4.944a16.638,16.638,0,0,1-2.88.192H49.3v-3.984a41.192,41.192,0,0,1,.24-4.992H44.16a32.369,32.369,0,0,1,.24,4.992v3.984H42a26.407,26.407,0,0,1-3.7-.192v4.992a28.222,28.222,0,0,1,3.7-.192h1.872C42.48-21.408,39.648-15.36,36.96-12.048A31.8,31.8,0,0,1,39.6-6.624c2.16-3.216,3.408-6,5.088-11.328-.144,2.592-.192,3.936-.192,3.936l-.048,2.448v9.84a38.287,38.287,0,0,1-.336,5.9h5.472a47.622,47.622,0,0,1-.288-5.9V-13.344c0-.528-.048-2.976-.048-3.168-.1-2.64-.1-2.64-.144-3.5a43.308,43.308,0,0,0,3.12,5.664,27.57,27.57,0,0,1,1.584-3.5,15.076,15.076,0,0,1,2.352,3.168c4.128-3.984,5.616-6.048,8.928-12.432Zm4.08-5.232H60.384a39.784,39.784,0,0,1-5.328-.288v5.328a42.649,42.649,0,0,1,5.376-.288h15.84c2.112,0,3.744.1,5.328.24V-34.7a39.495,39.495,0,0,1-5.28.288H69.792V-36.48a17.6,17.6,0,0,1,.24-3.5H64.32a18.966,18.966,0,0,1,.24,3.6Zm4.8,7.44c3.216,5.712,5.136,8.016,9.7,11.808a19.7,19.7,0,0,1,2.976-4.56,28.758,28.758,0,0,1-8.5-9.6Zm57.792-10.608a53.033,53.033,0,0,1-6.576.24H105.312a53.019,53.019,0,0,1-6.576-.336v6.336a45.834,45.834,0,0,1,6.288-.336h14.832a79.144,79.144,0,0,0-8.4,13.92A72.734,72.734,0,0,0,105.648.864h7.584A61.825,61.825,0,0,1,122.16-25.1a31.419,31.419,0,0,1,4.992-6.912Zm27.12,20.112a46.765,46.765,0,0,1-6.1,10.464l5.76,1.056c1.152-1.776,1.536-2.4,2.208-3.6h19.248c-.48,4.176-1.008,6.336-1.728,7.3-.576.72-1.632,1.008-3.984,1.008-1.728,0-5.232-.288-8.5-.672a12.451,12.451,0,0,1,1.3,5.136c2.928.192,4.752.288,7.248.288,5.04,0,6.864-.528,8.352-2.352,1.3-1.584,2.208-5.328,3.024-12.24.24-2.064.336-2.784.384-3.072a40.965,40.965,0,0,1-4.944.192h-18.1c.624-1.248.864-1.824,1.584-3.5h21.6a43.412,43.412,0,0,1,5.664.288v-5.184a42.907,42.907,0,0,1-5.664.288h-32.64a41.6,41.6,0,0,1-5.616-.288v5.184a43.305,43.305,0,0,1,5.568-.288Zm-4.8-11.376a34.74,34.74,0,0,1-.192,4.08,44.691,44.691,0,0,1,4.944-.192H176.4a43.6,43.6,0,0,1,4.944.192,33.2,33.2,0,0,1-.192-4.08v-6.24a31.548,31.548,0,0,1,.192-3.984,37.777,37.777,0,0,1-5.472.24H154.7a45.476,45.476,0,0,1-5.424-.24,33.565,33.565,0,0,1,.192,3.984Zm26.4-5.472v4.944H154.608V-34.32ZM217.3.48a61.6,61.6,0,0,0-5.568-10.608L207.7-8.448a25.441,25.441,0,0,1,2.016,3.6c-1.92.624-2.736.864-5.712,1.584V-10.8h8.3a21.453,21.453,0,0,1,2.832.144c-.1-1.008-.1-2.064-.1-3.888v-9.024a33.9,33.9,0,0,1,.144-4.08,24.934,24.934,0,0,1-3.792.192H209.52v-1.536a12.047,12.047,0,0,1,.192-2.448h-4.8a12.156,12.156,0,0,1,.192,2.4v1.584h-2.592c-1.2,0-1.584,0-2.448-.048a41.858,41.858,0,0,0,7.536-7.968,30.584,30.584,0,0,0,6.528,7.008,11.945,11.945,0,0,1,2.112-3.648v2.976a29.441,29.441,0,0,1-.144,2.976h2.112c.048.912.048,1.056.048,1.824V.1a29.218,29.218,0,0,1-.24,4.128h5.232V1.776h10.224v2.3h5.136a33.252,33.252,0,0,1-.192-4.224V-8.4a29.381,29.381,0,0,1,.144-3.792c-1.008.1-2.064.144-3.792.144H223.2V-15.5h10.032c1.392,0,2.4.048,3.552.144a22.871,22.871,0,0,1-.144-3.648v-7.1h3.312a21.34,21.34,0,0,1-.144-3.264v-3.6a32.032,32.032,0,0,1,.144-3.36,40.812,40.812,0,0,1-4.656.24h-5.232v-.816a16.056,16.056,0,0,1,.24-3.36h-5.616a22.986,22.986,0,0,1,.24,3.36v.816H220.08c-1.92,0-2.928-.048-3.984-.144.1.864.1,1.44.144,2.976a23.593,23.593,0,0,1-6.432-6.912H204.96a17.509,17.509,0,0,1-3.648,4.752,30.1,30.1,0,0,1-5.9,4.656,20.521,20.521,0,0,1,1.776,5.424c.912-.672,1.3-.96,1.872-1.344.048.96.1,1.584.1,2.976V-2.3a21.9,21.9,0,0,1-3.12.384l1.2,5.232A32.356,32.356,0,0,1,200.976,2.3a96.424,96.424,0,0,0,10.656-3.12c.384.96.768,1.92,1.344,3.648Zm17.664-28.7c-.864.048-1.248.048-2.016.048H221.136v-3.36H234.96ZM223.2-24.048h8.544v4.32H223.2Zm0,16.416h10.272v4.944H223.2ZM204-21.072v-2.5h6.24v2.5Zm0,3.648h6.24v2.688H204Zm74.112-20.448a53.034,53.034,0,0,1-6.576.24H256.272a53.019,53.019,0,0,1-6.576-.336v6.336a45.834,45.834,0,0,1,6.288-.336h14.832A79.325,79.325,0,0,0,262.416-18c-2.784,5.952-4.224,10.56-5.808,18.576h7.584a61.825,61.825,0,0,1,8.928-25.968,32.664,32.664,0,0,1,4.992-6.912ZM305.04-24.336c-1.3.192-1.872.24-2.64.288l.96,4.9c.672-.192,1.344-.384,2.016-.528a101.074,101.074,0,0,0,10.848-2.784v-4.56a48.6,48.6,0,0,1-6.384,1.776v-5.376h2.928a26.8,26.8,0,0,1,3.456.192v-4.992a16.739,16.739,0,0,1-3.5.24h-2.88v-.432a43.581,43.581,0,0,1,.24-4.9H304.8a37.377,37.377,0,0,1,.24,4.944Zm17.424-5.184a41.168,41.168,0,0,0,6.048-2.736c1.968-1.056,2.928-1.584,3.216-1.728L329.04-38.3a25.408,25.408,0,0,1-6.576,3.84v-1.728a27.673,27.673,0,0,1,.24-4.32h-5.328a44.013,44.013,0,0,1,.24,4.752v11.9c0,1.584.288,2.3,1.2,2.88l-3.84-.624a16.248,16.248,0,0,1-1.728,4.272h-3.12c-2.64,0-3.552-.048-4.9-.144a37.673,37.673,0,0,1,.192,4.608V-1.008a27.255,27.255,0,0,1-.288,4.848h5.184V2.064h13.92V3.936h5.424a48.346,48.346,0,0,1-.288-5.472V-12.48a40.778,40.778,0,0,1,.192-5.04,30.9,30.9,0,0,1-4.848.192h-6.1c.384-.672.624-1.1,1.008-1.92.144-.336.24-.528.288-.624l.336-.672a18.927,18.927,0,0,0,3.936.24c4.224,0,5.712-.24,6.576-1.008,1.008-.912,1.392-2.352,1.584-6.048a10.537,10.537,0,0,1-4.368-1.584c-.048,2.3-.24,3.5-.576,3.84-.288.288-.816.384-2.208.384-2.352,0-2.736-.144-2.736-1.1ZM310.32-13.056h13.92v3.168H310.32Zm0,7.3h13.92v3.5H310.32ZM289.632-2.784a58.435,58.435,0,0,1-.288,6.624h5.472a56.584,56.584,0,0,1-.24-6.528V-34.7h4.56a49.092,49.092,0,0,1-4.176,11.328,16.345,16.345,0,0,1,3.36,6.144,15.221,15.221,0,0,1,.768,4.128c0,1.776-.528,2.208-2.688,2.208a11.437,11.437,0,0,1-1.44-.1,9.928,9.928,0,0,1,.912,4.848h.672a10.211,10.211,0,0,0,4.7-.816c1.776-.912,2.64-2.832,2.64-5.9a17.385,17.385,0,0,0-1.1-5.616,25.642,25.642,0,0,0-2.976-5.232c1.2-2.5,1.776-3.744,2.448-5.52.768-1.92,1.92-5.088,2.16-5.952a7.714,7.714,0,0,1,.576-1.584l-2.88-2.832a21.4,21.4,0,0,1-3.6.192H293.28a33.21,33.21,0,0,1-3.792-.144c.1.864.144,2.352.144,4.848Z" transform="translate(553.832 23924.424)"/></g></svg>