<svg xmlns="http://www.w3.org/2000/svg" xmlns:xlink="http://www.w3.org/1999/xlink" width="302.705" height="165.32" viewBox="0 0 302.705 165.32"><defs><linearGradient id="a" y1="0.5" x2="1" y2="0.5" gradientUnits="objectBoundingBox"><stop offset="0" stop-color="#00fccc"/><stop offset="0" stop-color="#00caf9"/><stop offset="0.143" stop-color="#1ba7fb"/><stop offset="1" stop-color="#6945ff"/></linearGradient><linearGradient id="b" xlink:href="#a"/></defs><g transform="translate(-36 -975)"><path d="M433.378,346.432a17.926,17.926,0,0,0,2.345-6.3c.63-3.254.91-8.33.91-16.029a35.238,35.238,0,0,0-.245-5.636,45.987,45.987,0,0,0,4.97.211h19.81a38.7,38.7,0,0,0,4.41-.175,31.743,31.743,0,0,0-.139,3.534v3.011a30.844,30.844,0,0,0,.139,3.569c-1.014-.069-2.554-.1-4.2-.1h-1.156v1.471h1.156a25.708,25.708,0,0,0,3.535-.106v4.376q-1.681-.1-3.676-.1h-1.015v1.574h2.1a36.775,36.775,0,0,0,4.13-.139v4.585c-1.156-.1-2.345-.139-3.991-.139h-1.085l3.43,1.4c-.385.35-.385.35-1.925,1.82-.63.63-.91.876-1.26,1.191a24.906,24.906,0,0,0,5.635,1.3,22.912,22.912,0,0,0-2.59,5.145c-4.69-1.3-7.42-2.625-10.219-4.971v2.625c-3.395.665-4.55.874-9.485,1.574-2.73.421-3.43.526-4.375.735l-.595-4.9a24.044,24.044,0,0,1-2.205,5.04A20.923,20.923,0,0,0,433.378,346.432Zm6.755-.945c.315.034.841.034,1.12.034.384,0,1.4-.034,2.38-.1v-5.39h-2.415A32.668,32.668,0,0,1,440.132,345.488Zm8.716-.6c1.644-.175,2.659-.315,3.99-.526a14.236,14.236,0,0,1-2.73-4.339h-1.26Zm8.574-2.765a10.565,10.565,0,0,0,2.066-2.1H455.5A7.446,7.446,0,0,0,457.422,342.127Zm-6.4-6.405h4.1v-1.574h-4.1Zm-9.415,0h4.3v-1.574h-.525c-1.3,0-2,.035-2.835.1v-4.376c.8.07,1.609.106,2.869.106h.491v-1.471h-4.06C441.813,332.013,441.743,333.341,441.6,335.722Zm9.415-5.739h4.1v-1.471h-4.1Zm-9.17-5.39h18.445v-1.541H441.848ZM329.323,347.1a14.4,14.4,0,0,0,2.24-3.186l-1.68.454a40.4,40.4,0,0,0-.665-6.124l2.94-.665c.28,1.539.455,2.73.56,3.78a34.58,34.58,0,0,0,1.365-5.46l-3.15,1.259c-.07-.525-.07-.525-.176-1.049-1.329.1-1.329.1-2.17.175v10.57a21.832,21.832,0,0,0,.211,3.884h-5.145a22.663,22.663,0,0,0,.21-3.884v-10.22c-1.994.141-2.344.141-3.15.211a6.57,6.57,0,0,0-1.575.175l-.49-4.969a15.79,15.79,0,0,0,2.065.1H321.9c.384-.526.419-.6.84-1.191a40.219,40.219,0,0,0-4.41-5.215l2.24-4.41,1.085,1.156a25.5,25.5,0,0,0,2.2-5.145l4.586,1.68a31.056,31.056,0,0,0-1.645,3.044,38.448,38.448,0,0,1-2.205,3.745c.455.526.56.7.8,1.015a38.225,38.225,0,0,0,3.22-5.915l3.255,1.82v-4.13a34.791,34.791,0,0,0,4.515.211h9.66a28.729,28.729,0,0,0,3.36-.139c-.245,1.015-.245,1.015-.7,3.43-.349,1.751-.875,4.094-1.225,5.319h.63a11.865,11.865,0,0,0,1.786-.1l1.82,1.924c-.176.806-.176.806-.385,1.856-.315,1.785-1.19,5.356-1.61,6.755a25.513,25.513,0,0,1-1.925,4.374,24.894,24.894,0,0,0,4.271,3.151,26.057,26.057,0,0,0-2.731,5.389,24.617,24.617,0,0,1-4.829-4.164,24.566,24.566,0,0,1-5.74,4.27,17.888,17.888,0,0,0-2.8-4.2,21.912,21.912,0,0,1-2.555,4.27A17.4,17.4,0,0,0,329.323,347.1Zm7.07-1.4a17.882,17.882,0,0,0,4.829-3.395,23.548,23.548,0,0,1-2.45-5A34.9,34.9,0,0,1,336.393,345.7Zm5.074-13.4A25.348,25.348,0,0,0,344.233,338a19.591,19.591,0,0,0,1.715-5.74h-3.254A10.618,10.618,0,0,0,341.467,332.292Zm-7.21,2.415a76.385,76.385,0,0,0,.7-11.094h-.525a19.794,19.794,0,0,0-2.1.1c-.419.63-.419.63-1.644,2.556-1.05,1.609-1.191,1.819-1.89,2.869l3.15-1.3A45.24,45.24,0,0,1,334.257,334.706Zm-7.56-2.659c1.506-.07,1.925-.106,2.94-.176a16.6,16.6,0,0,0-.98-2.554C327.607,330.822,327.327,331.206,326.7,332.048Zm14.6-.246a72.331,72.331,0,0,0,2-8.19h-3.641A42.521,42.521,0,0,0,341.293,331.8Zm-124.81,19.04a20.344,20.344,0,0,0,.245-3.464v-1.051c0-.874,0-.98.035-1.96a20.252,20.252,0,0,1-4.725,3.536,31.7,31.7,0,0,1-6.51,2.7,17.668,17.668,0,0,0-2.835-4.761c4.655-.805,7.875-2.029,10.36-3.92h-4.9a43.634,43.634,0,0,0-4.515.211v-4.41a38.669,38.669,0,0,0,4.48.211h8.54v-1.085h-7a30.6,30.6,0,0,0-3.395.139v-3.71a30.2,30.2,0,0,0,3.395.139h7v-1.084h-8.47a31.428,31.428,0,0,0-3.4.139v-4.026a29.15,29.15,0,0,0,3.4.141h3.5a14.775,14.775,0,0,0-.875-1.68h-3.08c-1.68,0-3.15.07-4.34.175v-4.656a27.729,27.729,0,0,0,3.919.211,12.7,12.7,0,0,0-1.89-2.8l4.971-1.68a32.614,32.614,0,0,1,2.309,4.48h1.015v-2.274a17.146,17.146,0,0,0-.175-2.521h5.25a18.982,18.982,0,0,0-.105,2.275v2.52h1.436v-2.52a13.793,13.793,0,0,0-.14-2.275h5.25a16.153,16.153,0,0,0-.139,2.521v2.274h1.05a21.614,21.614,0,0,0,2.239-4.515l4.971,1.715c-.7,1.224-1.12,1.889-1.751,2.8a27.724,27.724,0,0,0,4.025-.211v4.656c-1.19-.1-2.695-.175-4.375-.175h-2.9c-.42.909-.526,1.05-.841,1.68h3.29a30.6,30.6,0,0,0,3.43-.141v4.026a32.124,32.124,0,0,0-3.43-.139h-8.925v1.084h7.455a32.131,32.131,0,0,0,3.431-.139v3.71a31.712,31.712,0,0,0-3.431-.139h-7.455v1.085h9.1a34.712,34.712,0,0,0,4.48-.211v4.41a43.674,43.674,0,0,0-4.445-.211h-5.39c2.381,1.786,5.775,2.975,10.64,3.71a20.06,20.06,0,0,0-2.624,4.972c-5.251-1.471-8.89-3.4-11.866-6.3.07.945.105,1.12.105,1.994v1.121a23.251,23.251,0,0,0,.175,3.429Zm.56-22.259h4.83c.35-.736.455-.98.735-1.68h-6.23A15.815,15.815,0,0,1,217.042,328.583Zm147.77,22.189a22.13,22.13,0,0,0,.176-3.674v-7.456h-1.751v5.88c0,1.33.035,2.206.105,3.115h-5.075a19.18,19.18,0,0,0,.176-3.254v-7.315a29.1,29.1,0,0,0-.14-3.29,31.172,31.172,0,0,0,3.465.14h3.22v-1.75h-3.641a38.089,38.089,0,0,0-3.884.14V328.2a24.525,24.525,0,0,0,3.08.14h.56c-1.715-.911-2.695-1.4-4.3-2.136a20.334,20.334,0,0,0,2.2-6.369,10.252,10.252,0,0,0,.175-1.611l4.76.806c-.035.175-.035.209-.07.454l-.175.98c-.035.139-.035.175-.21,1.224h1.5v-.595a19.227,19.227,0,0,0-.176-3.219h5.215a17.582,17.582,0,0,0-.176,3.151v.663h2.59a22.577,22.577,0,0,0,3.43-.174v5.144a31.854,31.854,0,0,0-3.43-.14h-2.59v1.821h3.4a27.414,27.414,0,0,0,3.219-.14v5.111a26.773,26.773,0,0,0-3.395-.14h-3.22v1.75H373c1.715,0,2.31-.035,3.255-.1a26.388,26.388,0,0,0-.105,3.009v7.07c0,2.765-.77,3.465-3.849,3.465-.211,0-.735-.035-1.4-.07a11,11,0,0,0-.945-4.549c.315.035.875.07,1.05.07.419,0,.56-.14.56-.526v-3.64h-1.715v7.525a21.668,21.668,0,0,0,.176,3.6Zm-3.219-22.434h3.395v-1.821h-2.731C362.012,327.288,361.942,327.426,361.593,328.337Zm51.1,22.4a36.5,36.5,0,0,0,.211-4.725v-17.4a36.159,36.159,0,0,1-5.11,7.141,23.813,23.813,0,0,0-3.08-4.724v15.12a42.982,42.982,0,0,0,.21,4.445h-5.67a37.81,37.81,0,0,0,.21-4.411v-9.555c.035-1.154.035-1.154.07-2.38a25.483,25.483,0,0,1-2.415,2.7,23.9,23.9,0,0,0-2.17-6.371,22.8,22.8,0,0,0,6.054-8.89,17.587,17.587,0,0,0,1.365-4.479l5.46,1.679c-.315.77-.385.946-.735,2a41.974,41.974,0,0,1-2.38,5.634v4.131a22.643,22.643,0,0,0,4.655-6.616,26.243,26.243,0,0,0,2.38-6.649l5.6,1.259c-.35.911-.491,1.26-.735,1.925-.35,1.015-.455,1.261-.7,1.855h7.945a34.126,34.126,0,0,0,4.445-.209v5.214a39.07,39.07,0,0,0-4.41-.21h-5.67v3.255h4.935a29.3,29.3,0,0,0,3.815-.175v5.11c-1.3-.105-2.52-.175-3.885-.175h-4.865v3.254h4.9a31.694,31.694,0,0,0,3.885-.175v5.145a36.2,36.2,0,0,0-3.885-.176h-4.9v2.695a34.808,34.808,0,0,0,.21,4.76Zm-234.815,0a24.06,24.06,0,0,0,.28-4.3v-2.906h-8.435a39.094,39.094,0,0,0-4.936.246v-5.53a42.772,42.772,0,0,0,4.936.209h8.435v-.209a24.063,24.063,0,0,0-.14-2.521c-.245.35-.384.561-.734,1.12a28.159,28.159,0,0,1-3.535-3.71,30.1,30.1,0,0,1-4.97,5.215,20.012,20.012,0,0,0-3.78-4.164,17.532,17.532,0,0,0,5.215-5.041A12.167,12.167,0,0,0,172,325.572h-2.309a38.275,38.275,0,0,0-4.445.175v-5.354a43.655,43.655,0,0,0,4.585.209h8.3v-.7a13.933,13.933,0,0,0-.175-2.134h5.88a9.97,9.97,0,0,0-.175,2.1v.734h8.96a40.2,40.2,0,0,0,4.41-.209v5.354a35.1,35.1,0,0,0-4.235-.175h-6.265l4.235,1.015a22.8,22.8,0,0,1-1.015,2.169,17.6,17.6,0,0,0,7.63,4.236,24.957,24.957,0,0,0-2.835,5,20.271,20.271,0,0,1-7.28-5.04,35.249,35.249,0,0,1-2.905,3.534c-.28-.383-.35-.49-.595-.8a23.845,23.845,0,0,0-.105,2.521v.244h8.89a43.869,43.869,0,0,0,4.97-.209v5.53a40.055,40.055,0,0,0-4.97-.246h-8.89v2.835a28.232,28.232,0,0,0,.246,4.375Zm.315-15.223h5.425a14.878,14.878,0,0,0-3.081-2.626A16.865,16.865,0,0,0,178.193,335.513Zm-.806-8.961a20.094,20.094,0,0,1-.98,2.171,16.615,16.615,0,0,0,4.341,3.709,15.154,15.154,0,0,0,4.62-6.859h-12.39Zm102.13,18.48a17.481,17.481,0,0,0,4.41-2.659v-6.616h-1.47a12.474,12.474,0,0,0-2.2.176v-5.285a17.514,17.514,0,0,0,2.905.175h3.395a20.343,20.343,0,0,0,2.695-.14,36.293,36.293,0,0,0-.139,3.954v7.771a4.822,4.822,0,0,0,2.9,2.274,26.769,26.769,0,0,0,6.826.561,104.261,104.261,0,0,0,14.805-.8,26.421,26.421,0,0,0-1.3,5.7c-2.8.106-8.785.175-13.125.175-7.771,0-10.011-.6-12.531-3.395a35.6,35.6,0,0,1-4.34,3.36c-.21.139-.315.246-.56.42Zm99.645,5.39a12.021,12.021,0,0,0-1.33-5.11c1.925.176,3.395.281,4.34.281,1.4,0,1.61-.139,1.61-1.05V322.492a35.41,35.41,0,0,0-.175-4.445h5.565a23.887,23.887,0,0,0-.21,4.235v23.206c0,2.2-.35,3.255-1.33,3.954-.91.7-2.8,1.05-5.425,1.05C381.578,350.492,381.542,350.492,379.163,350.421ZM318.3,347.1a33.385,33.385,0,0,0,1.225-9.346l3.5.456a48.26,48.26,0,0,1-1.19,10.71Zm-9.485-3.466H294.638a31.369,31.369,0,0,0-3.535.105,31.008,31.008,0,0,0,.105-3.534v-8.365c0-.246,0-.8.035-1.47a7.971,7.971,0,0,1-1.085,1.33,18.32,18.32,0,0,0-2.415-4.13l-1.19,1.189a33.164,33.164,0,0,0-6.511-6.929l3.956-3.78a34.9,34.9,0,0,1,6.265,6.159,19.64,19.64,0,0,0,3.885-6.684l5.67.945c-.805,1.47-1.365,2.381-2,3.326h2.835a22.423,22.423,0,0,0,2.17-4.166l5.5.736c-.176.279-.176.279-.42.7-.56,1.015-1.26,2.169-1.645,2.73h2.416a25.753,25.753,0,0,0,3.6-.175v4.8a19.175,19.175,0,0,0-2.765-.139h-3.99v1.539h2.065a29.055,29.055,0,0,0,3.605-.1v4.234a29.046,29.046,0,0,0-3.605-.1h-2.065v1.539h2.065a30.029,30.029,0,0,0,3.605-.1v4.235a29.127,29.127,0,0,0-3.605-.105h-2.065v1.679h3.219a31.525,31.525,0,0,0,3.641-.139v4.829A32.021,32.021,0,0,0,308.813,343.632Zm-12.46-4.55h4.06V337.4h-4.06Zm0-5.705h4.06v-1.539h-4.06Zm0-5.565h4.06v-1.539h-4.06Zm80.955,14.351a19.8,19.8,0,0,0,.175-3.534v-14.35a23.733,23.733,0,0,0-.175-3.605h5.109a30.3,30.3,0,0,0-.139,3.5v14.455a26.915,26.915,0,0,0,.139,3.534Zm-124.636-7.945a5.337,5.337,0,1,1,5.355,5.321A5.333,5.333,0,0,1,252.672,334.217Zm12.865-34.143a7.234,7.234,0,0,0,3.017-1.677,10.187,10.187,0,0,1-1.079-1.963c-.2.208-.274.3-.534.546a5.706,5.706,0,0,0-.727-1.066,9.04,9.04,0,0,0-.508,1.431,5.113,5.113,0,0,1-.65-1.132c.026.729.039,1.105.039,1.365v2.613a12.521,12.521,0,0,0,.078,1.677h-2.067a14,14,0,0,0,.091-1.677v-1.7c0-.469.014-.9.026-1.275a6.551,6.551,0,0,1-1.013,2.094,11.151,11.151,0,0,0-.806-2.184,8.272,8.272,0,0,0,1.638-3.536h-.26a6.434,6.434,0,0,0-1.039.066v-1.924a6.152,6.152,0,0,0,1.039.065h.4v-.845a9.413,9.413,0,0,0-.078-1.352h2.055a9.58,9.58,0,0,0-.066,1.352v.845h.325a4.049,4.049,0,0,0,.716-.053v1.9a3.98,3.98,0,0,0-.676-.051h-.351a4.541,4.541,0,0,0,.936,1.546,6.166,6.166,0,0,0,1.651-2.365,11.267,11.267,0,0,0-1.339.078v-2a11.913,11.913,0,0,0,1.535.077h.936v-.376a4.707,4.707,0,0,0-.065-.91h2.119a5.41,5.41,0,0,0-.052.87v.416h1.3a12.42,12.42,0,0,0,1.547-.077v2a13.318,13.318,0,0,0-1.561-.078h-.3a5.612,5.612,0,0,0,.533.844,7.849,7.849,0,0,0,1.573,1.574,7.745,7.745,0,0,0-1.066,1.728c-.325-.273-.468-.4-.663-.572a10.483,10.483,0,0,1-1.131,2.015,7.649,7.649,0,0,0,2.912,1.455,8.493,8.493,0,0,0-.962,2.041,9.5,9.5,0,0,1-3.224-2.014,9.259,9.259,0,0,1-3.133,2.041A6.768,6.768,0,0,0,265.537,300.074Zm4.252-3.132a6.251,6.251,0,0,0,.741-1.626l1.261.625a9.4,9.4,0,0,1-1.651-2.534l1.092-.637h-2.99l1.261.65a12.157,12.157,0,0,1-1.573,2.5l1.066-.545A6.619,6.619,0,0,0,269.789,296.941ZM374.6,301.855a10.632,10.632,0,0,0,.077-1.664v-1.235l-2.365.481c-.715.156-.988.221-1.274.3l-.156-2.041a7.977,7.977,0,0,0,1.261-.168l2.534-.52v-4.576l-1.027,1.273a14.622,14.622,0,0,0-2.4-2.066l1.209-1.418a14.449,14.449,0,0,1,2.223,1.717v-.677a10.274,10.274,0,0,0-.077-1.638h2.145a10.526,10.526,0,0,0-.078,1.638V296.6a8.314,8.314,0,0,0,1.105-.3l.065,2.041a10.969,10.969,0,0,0-1.17.194V300.2a10.613,10.613,0,0,0,.078,1.65Zm-7.072-.039a14.986,14.986,0,0,0,.078-1.689v-1.5c0-.221.013-.481.039-1.066a6.683,6.683,0,0,1-1.326,2.21,11.83,11.83,0,0,0-.832-2.014,7.21,7.21,0,0,0,1.9-2.965h-.507a7.637,7.637,0,0,0-1.144.065v-1.91a7.791,7.791,0,0,0,1.17.065h.7V292.1c-.286.051-.559.092-1.287.183a8.271,8.271,0,0,0-.651-1.729,12.417,12.417,0,0,0,4.577-1.041l1.118,1.613a12.87,12.87,0,0,1-1.833.584v1.3h.481a5.407,5.407,0,0,0,1.014-.065v1.572l.936-1.092a15.632,15.632,0,0,1,2.4,1.962l-1.184,1.535a15.08,15.08,0,0,0-2.4-2.107c-.286-.013-.494-.026-.793-.026h-.39a7.382,7.382,0,0,0,1.729,1.638,10.2,10.2,0,0,0-.859,1.975,8.225,8.225,0,0,1-.975-1.339c.014.209.026.573.039,1.079v1.977a11.837,11.837,0,0,0,.078,1.689Zm-116.308-.039a7.63,7.63,0,0,0-.572-1.911c.715.064,1.209.1,1.572.1.52,0,.611-.04.611-.274v-1.235h-3.172a16.527,16.527,0,0,0-1.795.077v-1.976a14.674,14.674,0,0,0,1.769.09h3.2a4,4,0,0,0-.039-.61h.715a4.77,4.77,0,0,0,.885-.663h-2.691a13.337,13.337,0,0,0-1.379.051v-1.755a13.621,13.621,0,0,0,1.391.053h3.887a6.322,6.322,0,0,0,1.027-.053l.949,1.079c-.142.117-.194.17-.39.352a21.614,21.614,0,0,1-1.82,1.546h2.4a16.986,16.986,0,0,0,1.833-.09v1.976a17.2,17.2,0,0,0-1.859-.077h-2.885v1.806c0,1.261-.443,1.547-2.457,1.547C252.186,301.816,251.835,301.8,251.224,301.777ZM226,301.79a5.941,5.941,0,0,0-.546-1.794,12.522,12.522,0,0,0,1.469.092c.429,0,.508-.041.508-.275v-.7h-3.809a11.506,11.506,0,0,1,1.586,1.47L223.6,301.8a11.953,11.953,0,0,0-1.924-1.885l1.157-.806h-1.755c-.481,0-.936.027-1.429.066v-1.806a9.163,9.163,0,0,0,1.481.076h6.305v-.428h-5.447c-.715,0-1,.013-1.365.039a10.89,10.89,0,0,0,.052-1.157v-2.38a11.058,11.058,0,0,0-.052-1.156c.364.025.611.039,1.365.039h2.522v-.389h-3.433a11.657,11.657,0,0,0-1.429.064v-1.794a9.035,9.035,0,0,0,1.481.077h3.38a5.174,5.174,0,0,0-.078-.78h2.093a4.751,4.751,0,0,0-.078.78h3.523a9.237,9.237,0,0,0,1.5-.077v1.794a11.4,11.4,0,0,0-1.444-.064h-3.575v.389h2.665c.754,0,1.014-.014,1.378-.039a10.582,10.582,0,0,0-.052,1.156v2.38a10.265,10.265,0,0,0,.052,1.157,11.287,11.287,0,0,0-1.13-.039v.428h.624a9.349,9.349,0,0,0,1.495-.076v1.806c-.468-.039-.949-.066-1.443-.066h-.676V300.4c0,1.092-.546,1.417-2.354,1.417C226.785,301.816,226.446,301.8,226,301.79Zm.442-6.032h2.067v-.481h-2.067Zm-3.861,0h1.924v-.481h-1.924Zm3.861-1.625h2.067v-.455h-2.067Zm-3.861,0h1.924v-.455h-1.924Zm-40.326,7.67a17.374,17.374,0,0,0,.091-1.741v-.69h-.844a12.75,12.75,0,0,0-1.287.066v-1.2a11.374,11.374,0,0,1-1.976,1.651,7.441,7.441,0,0,0-1.027-1.937A10.808,10.808,0,0,0,180,295.564a9.561,9.561,0,0,0,1.391-2.081h-2.106a13.125,13.125,0,0,0-1.664.092V291.52a12.98,12.98,0,0,0,1.664.092h3.067v-.793a5.849,5.849,0,0,0-.091-1.222h2.223a6.023,6.023,0,0,0-.077,1.222v.793h3.2a12.74,12.74,0,0,0,1.69-.092v2.055a13.555,13.555,0,0,0-1.69-.092h-2.3a8.761,8.761,0,0,0,1.495,2.132,10.512,10.512,0,0,0,2.925,2.25,8.5,8.5,0,0,0-1.053,2,12.149,12.149,0,0,1-2.028-1.6v1.171c-.416-.039-.805-.066-1.3-.066H184.4v.69a14.005,14.005,0,0,0,.091,1.741Zm2.146-5.447v1.235h1.586a13.277,13.277,0,0,1-1.652-2.34C184.391,295.993,184.4,296.134,184.4,296.356Zm-3.588,1.235h1.534v-1.208c0-.4.014-.676.052-1.119A11.7,11.7,0,0,1,180.816,297.59Zm15.639,3.03v-.807h-1.976v.573H192.5a12.887,12.887,0,0,0,.077-1.47v-2.2a10.174,10.174,0,0,0-.065-1.352,11.99,11.99,0,0,0,1.339.051h7.2a11.791,11.791,0,0,0,1.365-.051,11.872,11.872,0,0,0-.052,1.364v2.223a7.207,7.207,0,0,0,1.287.352c-.091,1.209-.208,1.651-.546,1.962-.416.391-1.144.5-3.575.5C196.884,301.765,196.456,301.609,196.456,300.621Zm1.911-.6c0,.13.052.183.208.234a10.263,10.263,0,0,0,1.43.066,4.958,4.958,0,0,0,1.443-.131c.13-.051.183-.156.221-.377h-3.3Zm0-1.47h2.08v-.429h-2.08Zm-3.861,0h1.95v-.429h-1.95Zm3.861-1.521h2.08v-.416h-2.08Zm-3.861,0h1.95v-.416h-1.95Zm39.39,4.707a15.415,15.415,0,0,0,.077-1.755V291.39a14.733,14.733,0,0,0-.051-1.495,11.745,11.745,0,0,0,1.312.051h2.717a10.878,10.878,0,0,0,1.327-.051c-.026.39-.04.676-.04,1.184v3.054a11.213,11.213,0,0,0,.026,1.131c-.39-.014-.7-.026-1.066-.026h-2.263V300a13.882,13.882,0,0,0,.078,1.742Zm2.04-7.983h1.508v-.52h-1.508Zm0-1.728h1.508v-.52h-1.508Zm-63.83,9.684v-.649H166.7v.649h-2.145c.052-.532.078-1.13.078-1.781v-8.423c0-.481-.026-.949-.066-1.482.429.039.9.066,1.5.066h6.772a11.325,11.325,0,0,0,1.443-.066c-.039.559-.065,1.04-.065,1.47v8.436a17.147,17.147,0,0,0,.078,1.781Zm-5.408-2.6h5.408v-2.717H166.7Zm0-4.576h5.408v-2.521H166.7Zm144.232,5.108c2.34-.676,3.393-1.858,3.51-3.937h-2.665a15.981,15.981,0,0,0-1.963.064v-2.183a11.375,11.375,0,0,0,2,.1h7.241a12.613,12.613,0,0,0,2.066-.092v2.171a17.537,17.537,0,0,0-2.028-.064h-2.223a6.643,6.643,0,0,1-.936,3.353,6.531,6.531,0,0,1-3.484,2.64A6.36,6.36,0,0,0,310.93,299.644Zm15.886.04c1.937-.533,2.964-1.249,3.51-2.418a6.767,6.767,0,0,0,.4-2.809h-2.756v1.47a9.873,9.873,0,0,0,.051,1.339h-2.366a9.374,9.374,0,0,0,.078-1.365v-1.444h-.494a15.233,15.233,0,0,0-1.832.066v-2.209a11.259,11.259,0,0,0,1.872.09h.454v-.962a8.061,8.061,0,0,0-.078-1.365h2.366a9.793,9.793,0,0,0-.051,1.327v1h2.782c0-.286.013-.546.013-.636v-.273a8.676,8.676,0,0,0-.065-1.327h2.119c-.039-.077-.077-.143-.168-.3l.987-.287a9.379,9.379,0,0,1,.871,2.068l-1.027.35a14.137,14.137,0,0,0-.507-1.495c-.013.2-.013.234-.013.416,0,.274,0,.768-.013,1.482h.52a11.97,11.97,0,0,0,1.872-.09v2.209a17.849,17.849,0,0,0-1.833-.066h-.585a8.926,8.926,0,0,1-.637,3.966,6.406,6.406,0,0,1-4.056,3.249A6.551,6.551,0,0,0,326.816,299.685Zm-118.1,1.976a7.276,7.276,0,0,0-.559-2.158,11.981,11.981,0,0,0,1.937.13c.52,0,.6-.039.6-.286V296.6h-3.133a18.735,18.735,0,0,0-1.949.078v-2.107a18.136,18.136,0,0,0,2,.079h3.081v-.378a8.889,8.889,0,0,0-.051-1.118h1.053a6.948,6.948,0,0,0,1.429-1.235h-4.368a16.539,16.539,0,0,0-1.82.077v-2.041a13.73,13.73,0,0,0,1.781.078h5.616a6.4,6.4,0,0,0,1.261-.064l1.144,1.273c-.234.207-.338.311-.507.482a20.7,20.7,0,0,1-3.419,2.821v.1h2.73a17.766,17.766,0,0,0,1.976-.079v2.107a18.86,18.86,0,0,0-1.963-.078H212.81v3.38c0,1.352-.559,1.689-2.808,1.689C210,301.673,209.572,301.673,208.715,301.66Zm32.851-.014a6.124,6.124,0,0,0-.468-1.962,16.888,16.888,0,0,0,1.768.09c.338,0,.417-.051.417-.286V295.25h-2.366c-.391,0-.78.014-1.066.026.014-.233.026-.546.026-1.144v-3.054c0-.456-.013-.819-.039-1.184a11.432,11.432,0,0,0,1.326.051h2.822a11.745,11.745,0,0,0,1.312-.051,14.652,14.652,0,0,0-.051,1.469v8.476c0,1.521-.429,1.82-2.6,1.82C242.384,301.66,242.007,301.66,241.565,301.647Zm.143-7.877h1.573v-.535h-1.573Zm0-1.742h1.573v-.52h-1.573Zm101.266,9.438a17.528,17.528,0,0,0,.078-2.094v-3.587a22.051,22.051,0,0,1-4.251,1.923,6.994,6.994,0,0,0-1.248-2.092,18.814,18.814,0,0,0,6.9-3.38,9.549,9.549,0,0,0,2.366-2.378l2.106,1.4a4.716,4.716,0,0,0-.507.481,21.879,21.879,0,0,1-3,2.615v5a18.424,18.424,0,0,0,.078,2.107Zm9.464-2.822a13.045,13.045,0,0,0,3.913-.937,7.813,7.813,0,0,0,3.809-3.211,11.907,11.907,0,0,0,1.274-2.547,8.4,8.4,0,0,0,1.911,1.742,11.327,11.327,0,0,1-4.238,5.264,14.109,14.109,0,0,1-5.057,1.951c-.507.117-.585.13-.936.233Zm70.795,1.778a2.069,2.069,0,0,1-1.01-1.176,7.741,7.741,0,0,1-.247-2.263v-3a13.268,13.268,0,0,1,.077-1.667,2.323,2.323,0,0,1,.454-1.068,2.529,2.529,0,0,1,1.048-.81,3.792,3.792,0,0,1,1.539-.3,3.748,3.748,0,0,1,1.948.458,2.191,2.191,0,0,1,1.01,1.139,6.848,6.848,0,0,1,.241,2.123v.978h-2.672v-1.79a3.19,3.19,0,0,0-.086-.975.367.367,0,0,0-.377-.194.4.4,0,0,0-.419.235,3.573,3.573,0,0,0-.089,1.017V297.9a3.339,3.339,0,0,0,.089.978.381.381,0,0,0,.4.228.375.375,0,0,0,.39-.228,3.733,3.733,0,0,0,.093-1.074V296.52h2.672v.4a7.87,7.87,0,0,1-.226,2.259,2.309,2.309,0,0,1-1,1.169,3.417,3.417,0,0,1-1.9.5A3.927,3.927,0,0,1,423.234,300.423Zm-30.392.157a2.473,2.473,0,0,1-1.533-1.984,21.51,21.51,0,0,1-.077-2.221v-1.759q0-1.547.073-2.193a2.458,2.458,0,0,1,1.495-2,3.775,3.775,0,0,1,1.524-.286,3.87,3.87,0,0,1,1.482.27,2.47,2.47,0,0,1,1.533,1.984,21.523,21.523,0,0,1,.077,2.221v1.759q0,1.55-.073,2.193a2.457,2.457,0,0,1-1.495,2,3.806,3.806,0,0,1-1.524.284A3.888,3.888,0,0,1,392.842,300.579Zm1.174-8.538a2.3,2.3,0,0,0-.112.956v4.8a4.706,4.706,0,0,0,.074,1.105.318.318,0,0,0,.339.209.33.33,0,0,0,.349-.24,5.135,5.135,0,0,0,.076-1.15V293a3.191,3.191,0,0,0-.079-.918.315.315,0,0,0-.327-.2A.366.366,0,0,0,394.016,292.041Zm-9.765,8.382a2.067,2.067,0,0,1-1.009-1.176,7.709,7.709,0,0,1-.248-2.263v-3a13.48,13.48,0,0,1,.076-1.667,2.335,2.335,0,0,1,.454-1.068,2.52,2.52,0,0,1,1.047-.81,3.794,3.794,0,0,1,1.54-.3,3.751,3.751,0,0,1,1.949.458,2.186,2.186,0,0,1,1.009,1.139,6.849,6.849,0,0,1,.241,2.123v.978h-2.672v-1.79a3.232,3.232,0,0,0-.086-.975.369.369,0,0,0-.378-.194.4.4,0,0,0-.419.235,3.574,3.574,0,0,0-.089,1.017V297.9a3.341,3.341,0,0,0,.089.978.457.457,0,0,0,.79,0,3.747,3.747,0,0,0,.092-1.074V296.52h2.672v.4a7.878,7.878,0,0,1-.225,2.259,2.314,2.314,0,0,1-1,1.169,3.422,3.422,0,0,1-1.9.5A3.927,3.927,0,0,1,384.251,300.423Zm77.774.194a2.1,2.1,0,0,1-.971-.663,2.853,2.853,0,0,1-.515-.949,5.927,5.927,0,0,1-.152-1.585v-3.586a6.865,6.865,0,0,1,.245-2.12,2.1,2.1,0,0,1,.971-1.13,3.429,3.429,0,0,1,1.761-.425,3.7,3.7,0,0,1,1.51.3,2.536,2.536,0,0,1,1,.72,2.386,2.386,0,0,1,.447.959,8.755,8.755,0,0,1,.117,1.7v3.428a8.107,8.107,0,0,1-.127,1.7,2.362,2.362,0,0,1-.526,1,2.276,2.276,0,0,1-.965.665,3.7,3.7,0,0,1-1.264.2A4.71,4.71,0,0,1,462.026,300.617Zm1.019-8.659a3.322,3.322,0,0,0-.093,1.013v5.015a3.7,3.7,0,0,0,.086,1.079.366.366,0,0,0,.371.184.361.361,0,0,0,.374-.215,3.222,3.222,0,0,0,.089-.971v-5.091a3.846,3.846,0,0,0-.079-1.026.35.35,0,0,0-.372-.205A.367.367,0,0,0,463.045,291.958Zm-16.594,8.659a2.1,2.1,0,0,1-.971-.663,2.835,2.835,0,0,1-.514-.949,5.919,5.919,0,0,1-.153-1.585v-3.586a6.893,6.893,0,0,1,.245-2.12,2.1,2.1,0,0,1,.971-1.13,3.431,3.431,0,0,1,1.761-.425,3.708,3.708,0,0,1,1.511.3,2.533,2.533,0,0,1,1,.72,2.374,2.374,0,0,1,.447.959,8.741,8.741,0,0,1,.118,1.7v3.428a8.107,8.107,0,0,1-.127,1.7,2.354,2.354,0,0,1-.527,1,2.27,2.27,0,0,1-.965.665,3.7,3.7,0,0,1-1.263.2A4.712,4.712,0,0,1,446.45,300.617Zm1.019-8.659a3.364,3.364,0,0,0-.092,1.013v5.015a3.709,3.709,0,0,0,.086,1.079.45.45,0,0,0,.746-.032,3.264,3.264,0,0,0,.088-.971v-5.091a3.845,3.845,0,0,0-.079-1.026.35.35,0,0,0-.371-.205A.368.368,0,0,0,447.469,291.958Zm-142.521,8.63a2.235,2.235,0,0,1-.715-.59l-.165.635h-2.4V290.355h2.564v2.433a2.127,2.127,0,0,1,.708-.55,1.989,1.989,0,0,1,.847-.181,2.325,2.325,0,0,1,.914.165,1.321,1.321,0,0,1,.59.464,1.405,1.405,0,0,1,.244.585,10.829,10.829,0,0,1,.041,1.218v3.8a5.7,5.7,0,0,1-.123,1.38,1.453,1.453,0,0,1-.581.787,1.794,1.794,0,0,1-1.085.332A1.839,1.839,0,0,1,304.948,300.588Zm-.644-6.864a3.172,3.172,0,0,0-.07.878v3.632a2.854,2.854,0,0,0,.08.868.306.306,0,0,0,.314.192.3.3,0,0,0,.314-.2,3.605,3.605,0,0,0,.073-.946V294.6a2.758,2.758,0,0,0-.083-.854.318.318,0,0,0-.323-.2A.292.292,0,0,0,304.3,293.724Zm-8.815,6.827a2.231,2.231,0,0,1-1.447-1.546,5.8,5.8,0,0,1-.134-1.431v-2.457a4.178,4.178,0,0,1,.3-1.742,2.05,2.05,0,0,1,.977-.978,3.919,3.919,0,0,1,3.342.071,2.251,2.251,0,0,1,.985,1.084,5.1,5.1,0,0,1,.282,1.9v1.116h-3.319v1.823a2.035,2.035,0,0,0,.082.736.322.322,0,0,0,.318.165.385.385,0,0,0,.391-.22,2.392,2.392,0,0,0,.1-.848v-1.111h2.431v.623a5.573,5.573,0,0,1-.1,1.2,2.439,2.439,0,0,1-.46.895,2.254,2.254,0,0,1-.917.715,3.577,3.577,0,0,1-1.393.237A4.065,4.065,0,0,1,295.488,300.551Zm1.047-6.84a3.373,3.373,0,0,0-.063.872v.616h.749v-.616a3.092,3.092,0,0,0-.07-.844.275.275,0,0,0-.285-.191C296.688,293.548,296.577,293.6,296.535,293.711Zm156.173,6.921v-1.466q2.507-4.1,2.98-5.075a3.826,3.826,0,0,0,.473-1.519,1.109,1.109,0,0,0-.143-.626.492.492,0,0,0-.435-.205.479.479,0,0,0-.435.229,1.916,1.916,0,0,0-.143.907v.978h-2.3v-.375a8.128,8.128,0,0,1,.089-1.362,2.393,2.393,0,0,1,.437-.98,2.194,2.194,0,0,1,.908-.731,3.312,3.312,0,0,1,1.339-.247,3.2,3.2,0,0,1,2.314.759,2.558,2.558,0,0,1,.784,1.92,4.569,4.569,0,0,1-.441,1.868,38.532,38.532,0,0,1-2.6,4.177h2.812v1.751Zm-15.575,0v-1.466q2.508-4.1,2.981-5.075a3.836,3.836,0,0,0,.472-1.519,1.109,1.109,0,0,0-.143-.626.49.49,0,0,0-.435-.205.479.479,0,0,0-.435.229,1.92,1.92,0,0,0-.142.907v.978h-2.3v-.375a8.128,8.128,0,0,1,.089-1.362,2.384,2.384,0,0,1,.438-.98,2.192,2.192,0,0,1,.907-.731,3.314,3.314,0,0,1,1.34-.247,3.2,3.2,0,0,1,2.313.759,2.558,2.558,0,0,1,.784,1.92,4.57,4.57,0,0,1-.441,1.868,38.388,38.388,0,0,1-2.6,4.177h2.812v1.751Zm-5.718,0v-8.22h-1.58v-2.057h5.839v2.057h-1.587v8.22Zm-15.8,0V290.355h4.456v2.057h-1.784v1.949h1.669v1.955h-1.669v2.259h1.962v2.057Zm-4.455,0-1.39-4.671v4.671h-2.235V290.355h2.235l1.5,4.628v-4.628H413.5v10.277Zm-8.079,0-1.391-4.671v4.671h-2.234V290.355h2.234l1.5,4.628v-4.628h2.234v10.277Zm-115.116,0q-.458-2.367-.806-5.382-.158,1.289-.743,5.382h-3.32L281.9,290.355h2.6l.273,3.587.28,3.459q.146-2.685.736-7.046h2.78q.057.451.292,3.391l.293,3.9q.221-3.726.742-7.294h2.6L291.3,300.632Zm-91.6-5.473a11.189,11.189,0,0,0,.051-1.2v-1.092h-2.938V294.6h-1.859a6.353,6.353,0,0,0,.066-1.079v-.884a8.9,8.9,0,0,0-.052-1.143c.428.025.767.039,1.794.039h2.99V291.2H193.8c-.611,0-.975.013-1.443.039V289.7a15.779,15.779,0,0,0,1.638.078h6.98a15,15,0,0,0,1.625-.078v1.535c-.455-.026-.806-.039-1.417-.039h-2.808v.338h3.159c1.028,0,1.353-.014,1.795-.039a8.37,8.37,0,0,0-.052,1.143v.884a6.181,6.181,0,0,0,.065,1.079h-1.859v-1.728h-3.108v1.092a8.919,8.919,0,0,0,.052,1.2ZM352.31,292.4l1.495-1.832a19.028,19.028,0,0,1,3.575,2.547l-1.535,2.029A13.891,13.891,0,0,0,352.31,292.4Zm-156.816,2.691H194.4c-.182,0-.376.014-.559.026v-.858a2.927,2.927,0,0,0,.559.026h1.093a3,3,0,0,0,.559-.026v.858A3,3,0,0,0,195.493,295.095Zm5.083-.013h-1.248a3.557,3.557,0,0,0-.559.026v-.845a3.076,3.076,0,0,0,.559.026h1.248a2.927,2.927,0,0,0,.559-.026v.845A2.927,2.927,0,0,0,200.577,295.082Zm57.044-.051V293.2h-7.774v1.834H247.87a6.1,6.1,0,0,0,.066-1.079v-1.431a8.552,8.552,0,0,0-.052-1.092c.468.04.805.051,1.6.051h.325a9.33,9.33,0,0,0-.78-1.338l1.911-.39a13.607,13.607,0,0,1,.988,1.728h.871a7.981,7.981,0,0,0-.676-1.507l1.975-.352a10.958,10.958,0,0,1,.768,1.859h.767a9.219,9.219,0,0,0,.806-1.805l1.989.428a14.387,14.387,0,0,1-.728,1.378h.26c.806,0,1.184-.012,1.625-.051a8.171,8.171,0,0,0-.052,1.092v1.444a8.78,8.78,0,0,0,.065,1.066Zm-56.6-1.04a3.675,3.675,0,0,0-.442-.014h-1.248a3.915,3.915,0,0,0-.559.026v-.858a2.921,2.921,0,0,0,.559.026h1.248a2.207,2.207,0,0,0,.559-.026V294A.267.267,0,0,0,201.019,293.99Zm-5.525-.014H194.4a3.828,3.828,0,0,0-.559.026v-.858a3.162,3.162,0,0,0,.559.026h1.093a5.28,5.28,0,0,0,.559-.026V294A3.4,3.4,0,0,0,195.493,293.977Zm121.131-1.6h-3.459a18.781,18.781,0,0,0-2.028.066v-2.2a10.8,10.8,0,0,0,2.067.1h3.379a17.065,17.065,0,0,0,1.924-.077c-.039-.079-.052-.092-.1-.182l1.053-.338a8.513,8.513,0,0,1,.949,2.079l-1.118.4a9.891,9.891,0,0,0-.754-1.923v2.132C318.146,292.4,318.067,292.4,316.625,292.378Zm3.432-2.781,1.014-.352a8.814,8.814,0,0,1,.91,2.015l-1.014.4A9.146,9.146,0,0,0,320.056,289.6Zm14.183-.079.949-.3a5.758,5.758,0,0,1,.845,1.963l-.962.352A9.71,9.71,0,0,0,334.239,289.517Z" transform="translate(-128.553 685.781)" fill="url(#a)"/><g transform="translate(0 137.272)"><path d="M-327.163,11610.08a7.72,7.72,0,0,1,7.719-7.721,7.72,7.72,0,0,1,7.719,7.721,7.72,7.72,0,0,1-7.719,7.719A7.72,7.72,0,0,1-327.163,11610.08Zm-66.5,0a7.72,7.72,0,0,1,7.719-7.721,7.72,7.72,0,0,1,7.719,7.721,7.72,7.72,0,0,1-7.719,7.719,7.719,7.719,0,0,1-7.719-7.719Zm-62.545,0a7.72,7.72,0,0,1,7.719-7.721,7.72,7.72,0,0,1,7.719,7.721,7.72,7.72,0,0,1-7.719,7.719,7.719,7.719,0,0,1-7.718-7.719Zm-64.833,5.582a6.085,6.085,0,0,0,1.542-2.533c.487-1.445.648-3.346.648-7.775a22.763,22.763,0,0,0-.1-2.514,19.8,19.8,0,0,0,2.126.08h7.32a15.55,15.55,0,0,0,2.045-.08,13.749,13.749,0,0,0-.081,1.994v10.355c0,1.055-.211,1.623-.713,1.963a4.145,4.145,0,0,1-2.386.424c-.487,0-1.071-.018-1.851-.049a9.534,9.534,0,0,0-.681-2.535,18.977,18.977,0,0,0,2.533.211c.454,0,.552-.064.552-.355v-2.143h-6.525a9.819,9.819,0,0,1-2.369,5.064A8.253,8.253,0,0,0-521.045,11615.662Zm4.657-5.178h6.3v-1.572h-6.2c-.031.664-.048.957-.1,1.572Zm.115-3.8h6.183v-1.414h-6.183Zm-29.838,11.055a15.243,15.243,0,0,0,.1-2.014v-1.314h-5.048a16.372,16.372,0,0,0-1.932.1V11612a16.371,16.371,0,0,0,1.932.1h.373v-3.781c-.389.406-.536.551-.99.975a7.337,7.337,0,0,0-1.623-2.143,9.922,9.922,0,0,0,3.084-3.766,4.76,4.76,0,0,0,.406-1.168l2.694.451c-.146.295-.162.326-.34.748-.081.18-.13.293-.243.52h7.125a14.9,14.9,0,0,0,1.866-.1v2.467a14.9,14.9,0,0,0-1.866-.1H-543.5v1.559h2.273c.86,0,1.346-.016,1.882-.064v2.354c-.535-.049-1.005-.064-1.8-.064H-543.5v2.109h3.408a14.947,14.947,0,0,0,1.916-.1v2.514a16.091,16.091,0,0,0-1.916-.1H-543.5v1.361a12.75,12.75,0,0,0,.1,1.967Zm-2.159-5.65h2.256v-2.109h-2.256Zm-1.931-4.35c.244.016.341.016.6.016h3.587v-1.559H-549a14.48,14.48,0,0,1-1.2,1.543Zm214.134,9.82v-.811h-6.749v.811h-2.678c.065-.664.1-1.41.1-2.225v-10.516c0-.6-.033-1.184-.081-1.85.535.047,1.119.078,1.866.078h8.456a14.218,14.218,0,0,0,1.8-.078c-.049.7-.081,1.3-.081,1.832v10.533a21.3,21.3,0,0,0,.1,2.225Zm-6.752-3.244h6.754v-3.395h-6.752Zm0-5.717h6.754v-3.146h-6.752Zm-59.629,8.961v-.811H-409.2v.811h-2.678c.065-.664.1-1.41.1-2.225v-10.516c0-.6-.033-1.186-.081-1.85.535.047,1.12.078,1.866.078h8.455a15,15,0,0,0,1.8-.078c-.049.7-.081,1.3-.081,1.832v10.533a21.667,21.667,0,0,0,.1,2.225Zm-6.752-3.246h6.752v-3.393H-409.2Zm0-5.715h6.752v-3.148H-409.2Zm-55.657,8.961v-.811H-471.6v.811h-2.677c.064-.664.1-1.414.1-2.225v-10.516c0-.6-.032-1.186-.081-1.85.536.047,1.12.078,1.866.078h8.456a15,15,0,0,0,1.8-.078c-.049.7-.081,1.3-.081,1.832v10.533a21.311,21.311,0,0,0,.1,2.225Zm-6.752-3.248h6.752v-3.391H-471.6Zm0-5.713h6.752v-3.148H-471.6Zm-16.6,7.574a5.129,5.129,0,0,1-2.366-1.617,6.9,6.9,0,0,1-1.252-2.311,14.439,14.439,0,0,1-.371-3.857v-8.736a16.782,16.782,0,0,1,.6-5.166,5.1,5.1,0,0,1,2.366-2.752,8.377,8.377,0,0,1,4.292-1.037,8.963,8.963,0,0,1,3.682.721,6.107,6.107,0,0,1,2.426,1.756,5.753,5.753,0,0,1,1.09,2.334,21.293,21.293,0,0,1,.286,4.145v8.352a19.739,19.739,0,0,1-.309,4.145,5.724,5.724,0,0,1-1.284,2.426,5.522,5.522,0,0,1-2.35,1.621,8.966,8.966,0,0,1-3.077.494,11.418,11.418,0,0,1-3.727-.516Zm2.483-21.092a8.14,8.14,0,0,0-.224,2.465v12.219a9.051,9.051,0,0,0,.209,2.627.886.886,0,0,0,.9.447.879.879,0,0,0,.91-.523,7.849,7.849,0,0,0,.216-2.367v-12.4a9.387,9.387,0,0,0-.192-2.5.851.851,0,0,0-.905-.5.892.892,0,0,0-.916.533Zm-107.835,21.092a5.127,5.127,0,0,1-2.366-1.617,6.9,6.9,0,0,1-1.253-2.311,14.431,14.431,0,0,1-.371-3.857v-8.736a16.782,16.782,0,0,1,.6-5.166,5.094,5.094,0,0,1,2.366-2.752,8.391,8.391,0,0,1,4.291-1.037,8.964,8.964,0,0,1,3.682.721,6.133,6.133,0,0,1,2.428,1.756,5.783,5.783,0,0,1,1.09,2.334,21.311,21.311,0,0,1,.285,4.145v8.352a19.708,19.708,0,0,1-.309,4.141,5.7,5.7,0,0,1-1.282,2.43,5.547,5.547,0,0,1-2.351,1.623,8.965,8.965,0,0,1-3.077.492,11.36,11.36,0,0,1-3.725-.518Zm2.482-21.092a8.146,8.146,0,0,0-.224,2.465v12.219a9.049,9.049,0,0,0,.209,2.627.891.891,0,0,0,.905.447.882.882,0,0,0,.911-.523,7.941,7.941,0,0,0,.216-2.367v-12.4a9.328,9.328,0,0,0-.194-2.5.854.854,0,0,0-.9-.5.892.892,0,0,0-.916.533Zm228.473,21.131v-3.57q6.108-9.993,7.26-12.365a9.319,9.319,0,0,0,1.151-3.7,2.705,2.705,0,0,0-.348-1.525,1.2,1.2,0,0,0-1.059-.5,1.16,1.16,0,0,0-1.059.555,4.686,4.686,0,0,0-.348,2.211v2.381h-5.6v-.91a19.976,19.976,0,0,1,.216-3.316,5.82,5.82,0,0,1,1.069-2.389,5.363,5.363,0,0,1,2.212-1.777,7.982,7.982,0,0,1,3.262-.6,7.8,7.8,0,0,1,5.636,1.848,6.233,6.233,0,0,1,1.91,4.678,11.115,11.115,0,0,1-1.076,4.543,92.8,92.8,0,0,1-6.334,10.176h6.852v4.268Zm-8.4,0v-13.422a23.473,23.473,0,0,0-.14-3.494,1.294,1.294,0,0,0-.766-.889,7.918,7.918,0,0,0-2.791-.3h-.619v-2.924a11.366,11.366,0,0,0,6.881-4h3.681v25.035Zm-50.484,0v-13.422a23.481,23.481,0,0,0-.14-3.494,1.3,1.3,0,0,0-.766-.889,7.928,7.928,0,0,0-2.791-.3h-.619v-2.924a11.366,11.366,0,0,0,6.881-4h3.681v25.035Zm-12.062,0v-13.422a23.538,23.538,0,0,0-.139-3.494,1.3,1.3,0,0,0-.766-.889,7.927,7.927,0,0,0-2.791-.3h-.619v-2.924a11.366,11.366,0,0,0,6.881-4h3.681v25.035Zm-67.324,0v-13.422a23.732,23.732,0,0,0-.139-3.494,1.3,1.3,0,0,0-.766-.889,7.933,7.933,0,0,0-2.792-.3h-.619v-2.924a11.365,11.365,0,0,0,6.882-4h3.682v25.035Zm-35.791,0v-3.57q6.108-9.993,7.26-12.365a9.321,9.321,0,0,0,1.151-3.7,2.7,2.7,0,0,0-.348-1.525,1.2,1.2,0,0,0-1.059-.5,1.16,1.16,0,0,0-1.059.555,4.686,4.686,0,0,0-.348,2.211v2.381h-5.6v-.91a19.982,19.982,0,0,1,.216-3.316,5.826,5.826,0,0,1,1.069-2.389,5.362,5.362,0,0,1,2.212-1.777,7.983,7.983,0,0,1,3.262-.6,7.8,7.8,0,0,1,5.636,1.848,6.234,6.234,0,0,1,1.91,4.678,11.112,11.112,0,0,1-1.075,4.545,92.794,92.794,0,0,1-6.334,10.176h6.851v4.268Zm-24.627,0v-13.422a23.59,23.59,0,0,0-.139-3.494,1.3,1.3,0,0,0-.766-.889,7.927,7.927,0,0,0-2.791-.3h-.619v-2.924a11.365,11.365,0,0,0,6.881-4h3.682v25.035Zm-19.56,0v-3.57q6.108-9.993,7.259-12.365a9.362,9.362,0,0,0,1.152-3.7,2.7,2.7,0,0,0-.348-1.525,1.2,1.2,0,0,0-1.059-.5,1.16,1.16,0,0,0-1.059.555,4.7,4.7,0,0,0-.349,2.211v2.381h-5.6v-.91a19.839,19.839,0,0,1,.216-3.316,5.828,5.828,0,0,1,1.069-2.389,5.36,5.36,0,0,1,2.212-1.777,8.015,8.015,0,0,1,3.262-.6,7.8,7.8,0,0,1,5.636,1.848,6.233,6.233,0,0,1,1.91,4.678,11.112,11.112,0,0,1-1.075,4.545,92.794,92.794,0,0,1-6.334,10.176h6.851v4.268Zm-32.875,0v-3.57q6.108-9.993,7.26-12.365a9.318,9.318,0,0,0,1.151-3.7,2.7,2.7,0,0,0-.348-1.525,1.2,1.2,0,0,0-1.059-.5,1.16,1.16,0,0,0-1.059.555,4.688,4.688,0,0,0-.347,2.211v2.381h-5.6v-.91a19.969,19.969,0,0,1,.216-3.316,5.819,5.819,0,0,1,1.069-2.389,5.363,5.363,0,0,1,2.212-1.777,7.982,7.982,0,0,1,3.262-.6,7.8,7.8,0,0,1,5.636,1.848,6.234,6.234,0,0,1,1.91,4.678,11.112,11.112,0,0,1-1.075,4.545,92.806,92.806,0,0,1-6.334,10.176h6.851v4.268Z" transform="translate(649.725 -10676.238)" fill="url(#b)"/><text transform="translate(197 937)" fill="#fff" font-size="8" font-family="HiraginoSans-W8, Hiragino Sans" letter-spacing="0.2em"><tspan x="0" y="0">水</tspan></text><text transform="translate(260 937)" fill="#fff" font-size="8" font-family="HiraginoSans-W8, Hiragino Sans" letter-spacing="0.2em"><tspan x="0" y="0">木</tspan></text><text transform="translate(326 937)" fill="#fff" font-size="8" font-family="HiraginoSans-W8, Hiragino Sans" letter-spacing="0.2em"><tspan x="0" y="0">金</tspan></text></g><path d="M-370.579,11621.229l.586-1.187c1.188.265,1.633.375,2.367.575a10.773,10.773,0,0,0-2.27-1.232l.63-.86a7.065,7.065,0,0,1-1.295.585,3.732,3.732,0,0,0-.177-.406l-.611.215c-.036-.187-.047-.234-.072-.366l-.39.046v2.67a5.53,5.53,0,0,0,.054.982h-1.26a6.265,6.265,0,0,0,.054-.982v-2.571c-.132.007-.239.018-.3.018-.221.017-.221.017-.567.035a1.743,1.743,0,0,0-.363.035l-.107-1.224c.283.018.408.025.549.025h.2c.134-.166.169-.22.32-.416a9.346,9.346,0,0,0-1.108-1.319l.611-1.089.223.247a4.73,4.73,0,0,0,.505-1.224l1.179.4a2.25,2.25,0,0,0-.151.292,14.345,14.345,0,0,1-.781,1.463,2.782,2.782,0,0,1,.177.25,7.633,7.633,0,0,0,.8-1.445l1.01.548c0,.01-.105.158-.293.47a3.978,3.978,0,0,0,1-1.045,2.571,2.571,0,0,0,.408-.869l1.419.187a2.927,2.927,0,0,0-.14.293c-.047.095-.062.133-.107.221h.967a4.3,4.3,0,0,0,.718-.043l.611.718c-.044.079-.062.106-.114.21a8.157,8.157,0,0,1-1.241,1.731,6.084,6.084,0,0,0,1.737.6,5.452,5.452,0,0,0-.6,1.428,8.932,8.932,0,0,1-2.207-1.095c-.222.153-.3.207-.488.323a14.047,14.047,0,0,1,2.208,1.071l-.7,1.134c.4.111.788.242,1.171.39l-.513,1.271a16.49,16.49,0,0,0-3.648-1.058Zm-.105-3.5a5.258,5.258,0,0,0,1.081-.509,3.95,3.95,0,0,1-.443-.565c-.132.116-.2.175-.435.354a3.338,3.338,0,0,0-.735-.993c-.151.231-.3.443-.594.853l.746-.268c.221.609.292.8.38,1.125Zm-1.633-.18c.213-.01.258-.01.452-.017.07-.009.14-.009.213-.019a6.034,6.034,0,0,0-.194-.594c-.193.263-.309.424-.468.627Zm3.112-1.818a3.331,3.331,0,0,0,.6.7,4.936,4.936,0,0,0,.62-.761h-1.179Zm-9.742,5.7a7.024,7.024,0,0,1-1.339.771,3.817,3.817,0,0,0-.39-.777,6.928,6.928,0,0,0,.044.817l-1.357,0a6.872,6.872,0,0,0,.047-.823c-.736.137-.967.178-2.341.373a2.546,2.546,0,0,0-.382.08l-.266-1.295c.059.006.118.008.177.008.1,0,.249-.008.656-.032v-2.522c-.345.01-.532.019-.78.045v-1.092a6.964,6.964,0,0,0,1.029.047h6.169a6.72,6.72,0,0,0,1.011-.048v1.093a8.174,8.174,0,0,0-1.037-.045h-2.968v2.935a4.59,4.59,0,0,0,.77-.363,4.758,4.758,0,0,1-.619-.869l.912-.372h-.159a5.376,5.376,0,0,0-.709.035v-1.136a5.3,5.3,0,0,0,.746.039h1.534a3.688,3.688,0,0,0,.656-.039l.629.682a3.189,3.189,0,0,0-.213.4,6.516,6.516,0,0,1-.878,1.25,5.863,5.863,0,0,0,1.446.4,5.037,5.037,0,0,0-.577,1.259,7.131,7.131,0,0,1-1.809-.818Zm-3.9-.991c.169-.015.47-.053.905-.105v-.275h-.905Zm3.848-.5a2.77,2.77,0,0,0,.487-.585h-.937a2.738,2.738,0,0,0,.452.585Zm-3.848-.6h.905v-.31h-.905Zm0-1.027h.905v-.285h-.905Zm43.915,2.737a4.316,4.316,0,0,0,1.3-.831,3.344,3.344,0,0,0,.771-1.127,6.687,6.687,0,0,0-1.561-.506,11.339,11.339,0,0,1-.914,2.19,1.579,1.579,0,0,1-1.355.851,1.648,1.648,0,0,1-1.153-.5,2.028,2.028,0,0,1-.54-1.451,2.445,2.445,0,0,1,1.143-2.095,3.383,3.383,0,0,1,1.755-.48c.161-.522.293-.972.417-1.478-.39.035-.877.061-1.471.086a5.7,5.7,0,0,0-.683.055l-.062-1.426a5.178,5.178,0,0,0,.912.047q.919,0,1.835-.089a.838.838,0,0,0,.364-.106l.957.813a1.563,1.563,0,0,0-.213.425c-.08.2-.445,1.323-.585,1.8a7.377,7.377,0,0,1,1.516.436,8.663,8.663,0,0,0,.07-1.454,3.087,3.087,0,0,0-.035-.5l1.542.055a2.876,2.876,0,0,0-.062.646,15.329,15.329,0,0,1-.159,1.833c.611.31.611.31.922.479a1.437,1.437,0,0,0,.3.142l-.513,1.655a6.25,6.25,0,0,0-1.1-.745,4.839,4.839,0,0,1-2.3,2.437,5.636,5.636,0,0,0-1.107-1.152Zm-1.827-2.111a1.026,1.026,0,0,0-.248.676c0,.274.132.479.3.479.2,0,.435-.46.833-1.64a1.274,1.274,0,0,0-.885.485Zm-16.921,3.23v-.443h-3.689v.443h-1.462c.035-.362.054-.772.054-1.213v-5.744c0-.326-.018-.648-.047-1.011.292.026.612.043,1.02.043h4.619a7.723,7.723,0,0,0,.985-.043c-.028.382-.047.707-.047,1v5.752a11.47,11.47,0,0,0,.054,1.213Zm-3.689-1.773h3.689v-1.854h-3.689Zm0-3.121h3.689v-1.72h-3.689Zm106.319,4.612a1.571,1.571,0,0,1-.732-.5,2.134,2.134,0,0,1-.389-.716,4.467,4.467,0,0,1-.115-1.192v-2.705a5.207,5.207,0,0,1,.187-1.6,1.588,1.588,0,0,1,.732-.851,2.586,2.586,0,0,1,1.329-.319,2.78,2.78,0,0,1,1.138.222,1.878,1.878,0,0,1,.75.545,1.761,1.761,0,0,1,.338.72,6.606,6.606,0,0,1,.089,1.281v2.584a6.122,6.122,0,0,1-.1,1.282,1.765,1.765,0,0,1-.4.753,1.741,1.741,0,0,1-.728.5,2.862,2.862,0,0,1-.951.152,3.659,3.659,0,0,1-1.148-.161Zm.767-6.525a2.518,2.518,0,0,0-.069.763v3.778a2.767,2.767,0,0,0,.065.813.336.336,0,0,0,.286.141.336.336,0,0,0,.274-.164,2.387,2.387,0,0,0,.068-.73v-3.837a2.848,2.848,0,0,0-.061-.772.264.264,0,0,0-.28-.156.283.283,0,0,0-.277.166Zm-7.748,6.525a1.58,1.58,0,0,1-.732-.5,2.14,2.14,0,0,1-.387-.715,4.427,4.427,0,0,1-.115-1.193v-2.705a5.208,5.208,0,0,1,.187-1.6,1.58,1.58,0,0,1,.732-.852,2.582,2.582,0,0,1,1.327-.319,2.786,2.786,0,0,1,1.14.222,1.9,1.9,0,0,1,.75.545,1.762,1.762,0,0,1,.338.72,6.6,6.6,0,0,1,.089,1.281v2.584a6.007,6.007,0,0,1-.1,1.282,1.783,1.783,0,0,1-.4.753,1.762,1.762,0,0,1-.728.5,2.87,2.87,0,0,1-.953.152,3.661,3.661,0,0,1-1.149-.159Zm.768-6.525a2.5,2.5,0,0,0-.07.763v3.778a2.821,2.821,0,0,0,.065.813.273.273,0,0,0,.28.141.271.271,0,0,0,.283-.164,2.456,2.456,0,0,0,.066-.73v-3.837a2.928,2.928,0,0,0-.059-.771.268.268,0,0,0-.28-.155.276.276,0,0,0-.278.164Zm-16.038,6.424a1.563,1.563,0,0,1-.808-.776,4.033,4.033,0,0,1-.239-1.6v-.42h1.937v.484a7.4,7.4,0,0,0,.052,1.067.334.334,0,0,0,.116.234.331.331,0,0,0,.249.08.284.284,0,0,0,.231-.089.306.306,0,0,0,.1-.2q.008-.105.017-.912v-1.536a1.337,1.337,0,0,0-.09-.595.317.317,0,0,0-.3-.155.322.322,0,0,0-.225.079.36.36,0,0,0-.117.174,2.063,2.063,0,0,0-.027.435h-1.913l.082-3.9h4.148v1.24h-2.4v1.314a1.445,1.445,0,0,1,1.158-.528,1.551,1.551,0,0,1,1.208.445,2.627,2.627,0,0,1,.41,1.72v1.1a6.685,6.685,0,0,1-.079,1.209,1.717,1.717,0,0,1-.338.715,1.632,1.632,0,0,1-.72.5,3.314,3.314,0,0,1-1.126.175,3.176,3.176,0,0,1-1.316-.265Zm-19.093.1a1.581,1.581,0,0,1-.732-.5,2.142,2.142,0,0,1-.387-.715,4.419,4.419,0,0,1-.115-1.193v-2.705a5.209,5.209,0,0,1,.187-1.6,1.581,1.581,0,0,1,.732-.851,2.583,2.583,0,0,1,1.327-.319,2.717,2.717,0,0,1,1.138.222,1.887,1.887,0,0,1,.751.545,1.772,1.772,0,0,1,.338.72,6.62,6.62,0,0,1,.089,1.283v2.582a6.126,6.126,0,0,1-.1,1.282,1.794,1.794,0,0,1-.4.753,1.733,1.733,0,0,1-.726.5,2.871,2.871,0,0,1-.953.152,3.662,3.662,0,0,1-1.149-.159Zm.768-6.525a2.519,2.519,0,0,0-.069.763v3.778a2.837,2.837,0,0,0,.064.813.272.272,0,0,0,.28.141.271.271,0,0,0,.283-.164,2.4,2.4,0,0,0,.066-.729v-3.838a2.925,2.925,0,0,0-.059-.771.267.267,0,0,0-.28-.157.28.28,0,0,0-.279.166Zm-7.748,6.525a1.571,1.571,0,0,1-.732-.5,2.138,2.138,0,0,1-.387-.715,4.422,4.422,0,0,1-.115-1.193v-2.705a5.207,5.207,0,0,1,.187-1.6,1.58,1.58,0,0,1,.732-.851,2.581,2.581,0,0,1,1.327-.319,2.778,2.778,0,0,1,1.138.222,1.9,1.9,0,0,1,.752.545,1.748,1.748,0,0,1,.336.72,6.6,6.6,0,0,1,.089,1.281v2.584a6.042,6.042,0,0,1-.1,1.282,1.764,1.764,0,0,1-.4.753,1.756,1.756,0,0,1-.727.5,2.946,2.946,0,0,1-.953.152,3.659,3.659,0,0,1-1.149-.161Zm.767-6.525a2.571,2.571,0,0,0-.069.763v3.778a2.766,2.766,0,0,0,.065.813.272.272,0,0,0,.28.141.271.271,0,0,0,.283-.164,2.466,2.466,0,0,0,.066-.73v-3.837a2.931,2.931,0,0,0-.059-.771.268.268,0,0,0-.28-.155.281.281,0,0,0-.28.164Zm-15.816,6.525a1.57,1.57,0,0,1-.732-.5,2.136,2.136,0,0,1-.387-.715,4.417,4.417,0,0,1-.115-1.193v-2.705a5.206,5.206,0,0,1,.187-1.6,1.58,1.58,0,0,1,.732-.852,2.587,2.587,0,0,1,1.329-.319,2.772,2.772,0,0,1,1.137.222,1.888,1.888,0,0,1,.752.545,1.77,1.77,0,0,1,.338.72,6.6,6.6,0,0,1,.089,1.281v2.584a6.136,6.136,0,0,1-.1,1.282,1.792,1.792,0,0,1-.4.753,1.731,1.731,0,0,1-.726.5,2.871,2.871,0,0,1-.953.152,3.671,3.671,0,0,1-1.151-.159Zm.768-6.525a2.5,2.5,0,0,0-.07.763v3.778a2.819,2.819,0,0,0,.065.813.274.274,0,0,0,.28.141.271.271,0,0,0,.283-.164,2.4,2.4,0,0,0,.066-.729v-3.838a2.92,2.92,0,0,0-.059-.771.268.268,0,0,0-.28-.157.282.282,0,0,0-.28.166Zm-31.7,5.147a4.643,4.643,0,0,0,1.862-.452,2.2,2.2,0,0,0,1.063-2.057,2.081,2.081,0,0,0-.78-1.744,1.453,1.453,0,0,0-.746-.311,12.445,12.445,0,0,1-.976,3.712c-.513,1.137-1.107,1.634-1.913,1.634-1.188,0-2.021-1.136-2.021-2.756a3.935,3.935,0,0,1,1.019-2.7,4.225,4.225,0,0,1,3.209-1.3,3.954,3.954,0,0,1,2.889,1.09,3.527,3.527,0,0,1,.868,2.465,3.813,3.813,0,0,1-1.178,2.862,4.524,4.524,0,0,1-2.544,1.019,4.368,4.368,0,0,0-.748-1.455Zm-1.1-4.095a2.866,2.866,0,0,0-.967,2.108c0,.631.239,1.126.55,1.126.221,0,.452-.309.718-.982a11.509,11.509,0,0,0,.664-2.705,1.791,1.791,0,0,0-.961.453Zm67.728,5.484v-4.151a7.509,7.509,0,0,0-.042-1.085.406.406,0,0,0-.238-.272,2.452,2.452,0,0,0-.863-.093h-.191v-.9a3.523,3.523,0,0,0,2.128-1.243h1.138v7.747Zm-41.336,0v-4.151a7.5,7.5,0,0,0-.042-1.085.406.406,0,0,0-.238-.272,2.452,2.452,0,0,0-.863-.093h-.191v-.9a3.529,3.529,0,0,0,2.129-1.243h1.138v7.747Zm-50.289-.563a7.627,7.627,0,0,0,.257-2.375l.914.113a11.3,11.3,0,0,1-.266,2.8Zm-19.8-2.882-3.234,3.354-.336-.326,3.247-3.361-3.247-3.359.336-.326,3.234,3.35,3.235-3.35.336.326-3.247,3.359,3.247,3.361-.336.326Zm-.77,2.278a.7.7,0,0,1,.7-.7.7.7,0,0,1,.7.7.7.7,0,0,1-.7.7.7.7,0,0,1-.7-.7Zm23.3-1.64.807-.153c.14,1.092.14,1.092.222,2.252l-.913.163a21.137,21.137,0,0,0-.113-2.262Zm102.121,2.072v-1.979h1.979v1.979Zm-41.343,0v-1.979h1.98v1.979Zm20.122-3.571a2.136,2.136,0,0,1,1.382-.613,2.8,2.8,0,0,1,1.11.338,2.3,2.3,0,0,0,.808.271,1.055,1.055,0,0,0,.467-.128,5.017,5.017,0,0,0,.828-.641v1.314a2.251,2.251,0,0,1-1.358.628,3.282,3.282,0,0,1-1.224-.394,1.84,1.84,0,0,0-.68-.225,2.244,2.244,0,0,0-1.334.774Zm-101.407.339a.7.7,0,0,1,.7-.7.7.7,0,0,1,.7.7.7.7,0,0,1-.7.7.7.7,0,0,1-.7-.7Zm-5.6,0a.7.7,0,0,1,.7-.7.7.7,0,0,1,.7.7.7.7,0,0,1-.7.7.7.7,0,0,1-.7-.7Zm128.226-.767v-1.978h1.979v1.978Zm-41.343,0v-1.978h1.98v1.978Zm-73.154-1.186v-1.056a6.915,6.915,0,0,0-.035-.833,9.245,9.245,0,0,0,.93.037h4.681a8.965,8.965,0,0,0,.93-.037,6.573,6.573,0,0,0-.035.833v1.056a6.344,6.344,0,0,0,.035.816c-.089,0-.327-.01-.726-.018h-4.933c-.407,0-.621.008-.877.027a6.753,6.753,0,0,0,.035-.827Zm1.293.082h3.866v-.257H-382.7Zm0-.89h3.866v-.265H-382.7Zm-12.224-.039a.7.7,0,0,1,.7-.7.7.7,0,0,1,.7.7.7.7,0,0,1-.7.7.7.7,0,0,1-.7-.7Zm122.328-8.937a2.911,2.911,0,0,1-1.344-1.474,9.809,9.809,0,0,1-.322-3.033v-1.194h3.773v2.455a3.991,3.991,0,0,0,.117,1.248.5.5,0,0,0,.518.266.565.565,0,0,0,.58-.335,6.322,6.322,0,0,0,.14-1.756v-1.048a3.057,3.057,0,0,0-.2-1.27.98.98,0,0,0-.58-.529,6.023,6.023,0,0,0-1.485-.144v-2.2a7.6,7.6,0,0,0,1.664-.1.719.719,0,0,0,.457-.447,3.106,3.106,0,0,0,.14-1.082v-.841a2.184,2.184,0,0,0-.163-1.047.661.661,0,0,0-.526-.252.657.657,0,0,0-.519.266,2.813,2.813,0,0,0-.145,1.136v1.241h-3.773v-1.287a3.546,3.546,0,0,1,.99-2.931,5.194,5.194,0,0,1,3.148-.761q2.7,0,3.661,1.056a4.193,4.193,0,0,1,.963,2.934,3.657,3.657,0,0,1-.346,1.835,3.062,3.062,0,0,1-1.213,1.033,2.329,2.329,0,0,1,1.279.947,6.96,6.96,0,0,1,.42,3.086,7.563,7.563,0,0,1-.411,2.8,2.91,2.91,0,0,1-1.419,1.511,5.608,5.608,0,0,1-2.588.521,5.535,5.535,0,0,1-2.813-.6Zm-112.294,0a2.914,2.914,0,0,1-1.346-1.474,9.857,9.857,0,0,1-.322-3.033v-1.194h3.773v2.455a3.933,3.933,0,0,0,.118,1.248.5.5,0,0,0,.518.266.562.562,0,0,0,.578-.335,6.246,6.246,0,0,0,.14-1.756v-1.048a3.079,3.079,0,0,0-.2-1.27.985.985,0,0,0-.58-.529,6.024,6.024,0,0,0-1.485-.144v-2.2a7.705,7.705,0,0,0,1.662-.1.723.723,0,0,0,.457-.449,3.064,3.064,0,0,0,.14-1.082v-.841a2.2,2.2,0,0,0-.163-1.047.561.561,0,0,0-.509-.252.555.555,0,0,0-.537.266,2.84,2.84,0,0,0-.145,1.136v1.241h-3.773v-1.287a3.543,3.543,0,0,1,.991-2.931,5.194,5.194,0,0,1,3.147-.761q2.7,0,3.662,1.056a4.192,4.192,0,0,1,.961,2.934,3.669,3.669,0,0,1-.345,1.835,3.062,3.062,0,0,1-1.213,1.033,2.329,2.329,0,0,1,1.28.947,6.965,6.965,0,0,1,.42,3.086,7.56,7.56,0,0,1-.411,2.8,2.937,2.937,0,0,1-1.42,1.515,5.65,5.65,0,0,1-2.587.517,5.52,5.52,0,0,1-2.809-.6Zm126.667.28a3.085,3.085,0,0,1-1.43-.977,4.174,4.174,0,0,1-.756-1.4,8.663,8.663,0,0,1-.224-2.333v-5.279a10.139,10.139,0,0,1,.359-3.116,3.079,3.079,0,0,1,1.428-1.664,5.067,5.067,0,0,1,2.593-.624,5.457,5.457,0,0,1,2.222.431,3.7,3.7,0,0,1,1.466,1.063,3.5,3.5,0,0,1,.659,1.408,12.9,12.9,0,0,1,.173,2.506v5.043a11.874,11.874,0,0,1-.187,2.5,3.439,3.439,0,0,1-.775,1.467,3.307,3.307,0,0,1-1.419.979,5.4,5.4,0,0,1-1.859.3,6.829,6.829,0,0,1-2.249-.311Zm1.5-12.739a4.928,4.928,0,0,0-.135,1.49v7.378a5.489,5.489,0,0,0,.125,1.588.539.539,0,0,0,.546.269.532.532,0,0,0,.551-.314,4.759,4.759,0,0,0,.131-1.431v-7.491a5.663,5.663,0,0,0-.117-1.508.517.517,0,0,0-.546-.3.539.539,0,0,0-.554.324Zm-44.4,12.739a3.086,3.086,0,0,1-1.43-.977,4.173,4.173,0,0,1-.756-1.4,8.652,8.652,0,0,1-.225-2.333v-5.279a10.134,10.134,0,0,1,.36-3.115,3.077,3.077,0,0,1,1.428-1.665,5.059,5.059,0,0,1,2.593-.626,5.481,5.481,0,0,1,2.224.433,3.768,3.768,0,0,1,1.465,1.063,3.5,3.5,0,0,1,.659,1.408,12.894,12.894,0,0,1,.173,2.506v5.043a11.868,11.868,0,0,1-.187,2.5,3.445,3.445,0,0,1-.774,1.467,3.318,3.318,0,0,1-1.42.979,5.4,5.4,0,0,1-1.859.3,6.833,6.833,0,0,1-2.249-.311Zm1.5-12.739a4.926,4.926,0,0,0-.135,1.49v7.378a5.483,5.483,0,0,0,.125,1.588.536.536,0,0,0,.546.269.532.532,0,0,0,.552-.314,4.756,4.756,0,0,0,.131-1.431v-7.491a5.667,5.667,0,0,0-.117-1.508.517.517,0,0,0-.546-.3.54.54,0,0,0-.555.324Zm-41.512,12.739a3.083,3.083,0,0,1-1.429-.977,4.213,4.213,0,0,1-.757-1.4,8.738,8.738,0,0,1-.224-2.333v-5.279a10.092,10.092,0,0,1,.36-3.116,3.078,3.078,0,0,1,1.429-1.664,5.058,5.058,0,0,1,2.593-.626,5.491,5.491,0,0,1,2.222.433,3.722,3.722,0,0,1,1.466,1.063,3.494,3.494,0,0,1,.659,1.408,12.875,12.875,0,0,1,.173,2.5v5.047a11.978,11.978,0,0,1-.187,2.5,3.45,3.45,0,0,1-.776,1.467,3.31,3.31,0,0,1-1.42.98,5.417,5.417,0,0,1-1.858.3,6.816,6.816,0,0,1-2.251-.312Zm1.5-12.739a4.93,4.93,0,0,0-.135,1.49v7.378a5.463,5.463,0,0,0,.127,1.588.662.662,0,0,0,.561.269.658.658,0,0,0,.536-.317,4.8,4.8,0,0,0,.13-1.428v-7.491a5.6,5.6,0,0,0-.117-1.508.515.515,0,0,0-.546-.3.541.541,0,0,0-.555.324Zm-15.125,12.739a3.086,3.086,0,0,1-1.43-.977,4.176,4.176,0,0,1-.756-1.4,8.714,8.714,0,0,1-.225-2.333v-5.279a10.127,10.127,0,0,1,.36-3.115,3.087,3.087,0,0,1,1.429-1.665,5.059,5.059,0,0,1,2.593-.626,5.481,5.481,0,0,1,2.223.433,3.767,3.767,0,0,1,1.465,1.063,3.5,3.5,0,0,1,.659,1.408,12.88,12.88,0,0,1,.173,2.5v5.047a11.868,11.868,0,0,1-.187,2.5,3.446,3.446,0,0,1-.774,1.467,3.317,3.317,0,0,1-1.42.979,5.4,5.4,0,0,1-1.859.3,6.833,6.833,0,0,1-2.249-.312Zm1.5-12.739a4.928,4.928,0,0,0-.135,1.49v7.378a5.549,5.549,0,0,0,.125,1.588.539.539,0,0,0,.546.269.532.532,0,0,0,.552-.314,4.758,4.758,0,0,0,.131-1.431v-7.491a5.664,5.664,0,0,0-.117-1.508.516.516,0,0,0-.546-.3.54.54,0,0,0-.555.324Zm36.589,12.763v-2.157q3.688-6.034,4.386-7.468a5.656,5.656,0,0,0,.7-2.236,1.64,1.64,0,0,0-.209-.921.724.724,0,0,0-.641-.3.7.7,0,0,0-.639.336,2.812,2.812,0,0,0-.211,1.337v1.437h-3.379v-.551a12.006,12.006,0,0,1,.131-2.006,3.5,3.5,0,0,1,.645-1.442,3.25,3.25,0,0,1,1.336-1.073,4.83,4.83,0,0,1,1.97-.364,4.713,4.713,0,0,1,3.406,1.116,3.76,3.76,0,0,1,1.154,2.825,6.738,6.738,0,0,1-.649,2.747,56.8,56.8,0,0,1-3.826,6.146h4.138v2.578Zm-78.379,0v-8.106a14.5,14.5,0,0,0-.083-2.112.8.8,0,0,0-.463-.537,4.753,4.753,0,0,0-1.686-.181h-.373v-1.765a6.864,6.864,0,0,0,4.156-2.419h2.225v15.12Zm108.738-1.435v-3.864h3.865v3.864Zm-83.023,0v-3.864h3.865v3.864Zm39.283-6.973a4.168,4.168,0,0,1,2.7-1.194,5.563,5.563,0,0,1,2.167.653,4.359,4.359,0,0,0,1.578.534,2.046,2.046,0,0,0,.916-.247,9.736,9.736,0,0,0,1.616-1.256v2.567a4.391,4.391,0,0,1-2.653,1.224,6.323,6.323,0,0,1-2.391-.766,3.572,3.572,0,0,0-1.327-.439,4.383,4.383,0,0,0-2.605,1.514Zm43.74-.829v-3.868h3.865v3.868Zm-83.023,0v-3.868h3.865v3.868Z" transform="translate(511.723 -10481.967)" fill="url(#b)"/></g></svg>