<svg xmlns="http://www.w3.org/2000/svg" width="498.456" height="126.911" viewBox="0 0 498.456 126.911"><g transform="translate(-2998.609 6106)"><path d="M5.187-9.156A16.8,16.8,0,0,1,6.993-9.24h7.014a15.952,15.952,0,0,1,1.89.084v-1.638a22.392,22.392,0,0,0,3.591,1.911,9.352,9.352,0,0,1,1.155-2.352,22.2,22.2,0,0,1-5.4-2.835A12.753,12.753,0,0,1,11.7-17.556H9.2A13.828,13.828,0,0,1,5.88-14.028,19.6,19.6,0,0,1,.609-11.109,9.754,9.754,0,0,1,1.827-8.967a19.759,19.759,0,0,0,3.36-1.806Zm1.827-2.268c-.378,0-.5,0-.861-.021a17.928,17.928,0,0,0,4.368-4.074,17.107,17.107,0,0,0,4.389,4.074c-.4.021-.588.021-.924.021Zm.21,6.069a21.745,21.745,0,0,1-2.247,4.2c-1.071.063-1.7.084-1.848.084-.294,0-.651-.021-1.218-.063l.336,2.562a24.971,24.971,0,0,1,2.709-.294c.84-.063,5-.441,7.077-.63C12.81.42,14.07.273,15.813.042c.357.5.567.8,1.26,1.827L19.089.546a42.976,42.976,0,0,0-4.851-5.607l-2.079.924c1.176,1.218,1.533,1.6,2.2,2.331-2.94.315-2.94.315-6.657.525A22.828,22.828,0,0,0,9.891-5.355h7.224a19.539,19.539,0,0,1,2.457.126V-7.665a19.772,19.772,0,0,1-2.457.126H4.032a20.626,20.626,0,0,1-2.478-.126v2.436a19.673,19.673,0,0,1,2.478-.126ZM43.3-4.746a10.9,10.9,0,0,1-4.872,3,5.192,5.192,0,0,1,1.344,1.6,12.645,12.645,0,0,0,5.817-4.6h1.26a9.373,9.373,0,0,1-2.184,2.793A12.83,12.83,0,0,1,40.845.315a5.723,5.723,0,0,1,1.512,1.6A15.1,15.1,0,0,0,45.822-.4a5.068,5.068,0,0,1,.567,1.932c.819.042,1.2.063,1.764.063,1.848,0,2.52-.273,2.94-1.239a18.256,18.256,0,0,0,.861-5.712,12.2,12.2,0,0,1,.084-1.239c-.609.042-1.008.063-2.037.063H43.323a7.511,7.511,0,0,0,.567-.861h6.426a20.547,20.547,0,0,1,2.163.084v-2.1a13.924,13.924,0,0,1-2.184.126H41.118a11.674,11.674,0,0,1-1.974-.105v2.1A15.026,15.026,0,0,1,41.1-7.392h.462a8.294,8.294,0,0,1-2.5,2.121V-6.72c-.672.378-.84.483-1.407.777v-4.515h.4a10.871,10.871,0,0,1,1.47.084v-2.2a9.012,9.012,0,0,1-1.491.084h-.378v-2.583a14.147,14.147,0,0,1,.126-2.352H35.343a16.559,16.559,0,0,1,.126,2.331v2.6h-.588a9.424,9.424,0,0,1-1.659-.1v2.247a10.231,10.231,0,0,1,1.638-.105h.609v5.565a15.151,15.151,0,0,1-2.373.84L33.621-1.6a.95.95,0,0,1,.21-.105,2.471,2.471,0,0,0,.273-.168,39.546,39.546,0,0,0,4.179-2.205,4.836,4.836,0,0,1,.8,1.113,12.088,12.088,0,0,0,2.583-1.785Zm6.489,0a25.547,25.547,0,0,1-.357,3.171c-.189.9-.42,1.113-1.2,1.113A14.686,14.686,0,0,1,46.074-.63a11.734,11.734,0,0,0,2.94-4.116Zm-.861-5.418c.84,0,1.47.021,1.911.063a16.264,16.264,0,0,1-.084-2.016v-2.9a17,17,0,0,1,.084-2.079,15.82,15.82,0,0,1-2.247.1H42.483a14.77,14.77,0,0,1-2.121-.1,16.338,16.338,0,0,1,.084,1.911v3.066a18.749,18.749,0,0,1-.084,2.037,15.179,15.179,0,0,1,1.932-.084Zm-6.321-4.977h5.943v.882H42.609Zm0,2.415h5.943v.861H42.609Zm31-1.281v3.066h3.066v-3.066Zm0,8.988v3.066h3.066V-5.019Zm26.565,3.99a22.027,22.027,0,0,1-.126,2.541h2.5V.252h9.765v1.26h2.541a21.274,21.274,0,0,1-.126-2.541V-14.6a18.975,18.975,0,0,1,.105-2.142,16.9,16.9,0,0,1-2.268.1H102.4a18.538,18.538,0,0,1-2.331-.1c.063.693.1,1.428.1,2.247Zm2.373-13.377h9.765v4.872h-9.765Zm0,7.077h9.765v5.376h-9.765Zm34.608-4.578a19.749,19.749,0,0,1-7.308,8.064,7.238,7.238,0,0,1,1.428,2.2,20.075,20.075,0,0,0,3.4-2.94V-2.2a15.023,15.023,0,0,1,2.1-.126h1.659V-.9a19.391,19.391,0,0,1-.147,2.6h2.646a18.977,18.977,0,0,1-.147-2.6V-2.331h1.869a15.237,15.237,0,0,1,2.1.126V-4.6a23.41,23.41,0,0,0,3.528,2.919,8.569,8.569,0,0,1,1.428-2.289A17.969,17.969,0,0,1,145.131-7.5a20.824,20.824,0,0,1-3.15-4.41h4.494a24.8,24.8,0,0,1,2.541.126v-2.562a17.242,17.242,0,0,1-2.541.147h-5.691v-1.512a10.484,10.484,0,0,1,.147-1.932h-2.625a13.053,13.053,0,0,1,.126,1.953V-14.2h-5.4a18.193,18.193,0,0,1-2.5-.147v2.562a23.979,23.979,0,0,1,2.5-.126ZM140.784-4.6V-7.917a16.969,16.969,0,0,0-.189-2.331,22.73,22.73,0,0,0,4.074,5.565,13.141,13.141,0,0,1-1.848.084Zm-2.352,0h-1.785a13.3,13.3,0,0,1-1.869-.084,20.825,20.825,0,0,0,3.822-5.565,20.562,20.562,0,0,0-.168,2.352Zm32.34-10.773v.8h-5.334a23.475,23.475,0,0,1-2.583-.084,13.447,13.447,0,0,1,.084,1.722v1.323a9.7,9.7,0,0,1-.126,1.659H165v-2.961h5.775v2.079a16.938,16.938,0,0,1-.1,1.974h2.415A12.345,12.345,0,0,1,173-10.836v-2.079h6.09v2.961h2.163a9.718,9.718,0,0,1-.105-1.659v-1.323a10.073,10.073,0,0,1,.084-1.722,24.19,24.19,0,0,1-2.6.084H173v-.8h4.809a21.328,21.328,0,0,1,2.163.084v-2.037a19.5,19.5,0,0,1-2.373.126H166.509a20.771,20.771,0,0,1-2.373-.126v2.037c.693-.063,1.281-.084,2.205-.084Zm8.757,8.988a17.323,17.323,0,0,1,.084-2.037,18.13,18.13,0,0,1-2.079.084H166.446a16.987,16.987,0,0,1-1.995-.084,18.9,18.9,0,0,1,.1,2.016v3.864a16.028,16.028,0,0,1-.126,2.079h2.331V-1.533h4.011V-.1c0,1.407.609,1.617,4.725,1.617,3.591,0,4.788-.147,5.4-.672.546-.462.777-1.344.84-3.171a7.376,7.376,0,0,1-2.205-.84Zm-6.573,4.851h6.489c-.063.714-.147.9-.4,1.029a9.935,9.935,0,0,1-2.982.273A10.024,10.024,0,0,1,173.1-.462c-.1-.042-.147-.147-.147-.315ZM170.772-6.72v.966h-4.011V-6.72Zm2.184,0h4.368v.966h-4.368Zm-2.184,2.457v1.05h-4.011v-1.05Zm2.184,0h4.368v1.05h-4.368Zm-7.077-6.7a7.639,7.639,0,0,1,1.092-.063h1.848a7.319,7.319,0,0,1,1.071.063v-1.407a7.123,7.123,0,0,1-1.071.063h-1.848a5.019,5.019,0,0,1-1.092-.063Zm0,1.974a7.639,7.639,0,0,1,1.092-.063h1.848a6.749,6.749,0,0,1,1.071.063V-10.4a6.933,6.933,0,0,1-1.071.063h-1.848a5.018,5.018,0,0,1-1.092-.063Zm8.064-1.974a7.438,7.438,0,0,1,1.092-.063h2.142a7.521,7.521,0,0,1,1.071.063v-1.407a7.123,7.123,0,0,1-1.071.063h-2.142a4.916,4.916,0,0,1-1.092-.063Zm0,1.974a7.639,7.639,0,0,1,1.092-.063h2.142a6.933,6.933,0,0,1,1.071.063V-10.4a6.933,6.933,0,0,1-1.071.063h-2.142a4.916,4.916,0,0,1-1.092-.063Zm29.505-.378h-5.586a25.475,25.475,0,0,1-2.919-.126v2.541a26.844,26.844,0,0,1,2.856-.126h5.649v5.544c0,.462-.147.546-1.008.546a18.522,18.522,0,0,1-3.045-.252,8.453,8.453,0,0,1,.651,2.52c1.512.063,1.932.084,2.352.084,2.793,0,3.507-.462,3.507-2.31V-7.077h5.145a25.767,25.767,0,0,1,2.856.126V-9.492a23.518,23.518,0,0,1-2.856.126H205.9v-.9a28.563,28.563,0,0,0,4.473-3.234c1.428-1.365,1.428-1.365,1.974-1.869l-1.365-1.533a8.592,8.592,0,0,1-1.827.1h-9.513a20.652,20.652,0,0,1-2.52-.126v2.478a20.79,20.79,0,0,1,2.541-.126h8.379a18.443,18.443,0,0,1-3.57,2.688h-1.092c.042.483.063.924.063,1.6Zm32.025-4.872v.987h-4.305a15.67,15.67,0,0,1-1.995-.084,14.513,14.513,0,0,1,.084,1.68v4.137a14.754,14.754,0,0,1-.084,1.68,16.537,16.537,0,0,1,1.995-.084h8.883v.987H229.7a15.569,15.569,0,0,1-2.268-.126V-2.9a18.7,18.7,0,0,1,2.226-.126h10.395V-.9c0,.42-.126.483-.9.483A16.472,16.472,0,0,1,236.8-.588a8.453,8.453,0,0,1,.63,2.142c.693.021,1.155.042,1.449.042a5.16,5.16,0,0,0,2.73-.42,1.493,1.493,0,0,0,.651-1.47v-2.73h1.659a18.6,18.6,0,0,1,2.2.126V-5.061a12.929,12.929,0,0,1-2.247.126h-1.617v-.987a17.615,17.615,0,0,1,2.1.084,14.046,14.046,0,0,1-.084-1.68v-4.137a14.046,14.046,0,0,1,.084-1.68,15.67,15.67,0,0,1-1.995.084h-4.683v-.987h6.216a16.235,16.235,0,0,1,2.205.126v-2.142a12.929,12.929,0,0,1-2.247.126h-6.174a9.112,9.112,0,0,1,.126-1.6h-2.457a8.62,8.62,0,0,1,.126,1.6H229.7a15.569,15.569,0,0,1-2.268-.126v2.142a16.354,16.354,0,0,1,2.226-.126Zm0,2.73v1.092h-4.032v-1.092Zm2.205,0h4.389v1.092h-4.389ZM235.473-8.82v1.155h-4.032V-8.82Zm2.205,0h4.389v1.155h-4.389Zm-1.806,8.5a12.158,12.158,0,0,0-3.024-2.6l-1.68,1.344a12.425,12.425,0,0,1,2.94,2.772Zm26.712-8.9h3.759c.735,0,1.428.021,1.932.042a18.693,18.693,0,0,1-.063-1.869v-4.116c0-.819.021-1.365.063-1.953a17.743,17.743,0,0,1-2.142.084h-3.717a18.659,18.659,0,0,1-2.142-.084,23.473,23.473,0,0,1,.084,2.373V-.987a20.286,20.286,0,0,1-.126,2.6h2.478a18.424,18.424,0,0,1-.126-2.583Zm0-5.985h3.57v1.344h-3.57Zm0,2.982h3.57V-10.9h-3.57Zm15.2-2.541a18.691,18.691,0,0,1,.105-2.352,19.493,19.493,0,0,1-2.184.084H271.8a18.2,18.2,0,0,1-2.142-.084c.042.651.063,1.239.063,1.953v4.116c0,.9-.021,1.428-.063,1.911.441-.042,1.176-.063,1.932-.063h3.948V-1.26c0,.441-.147.525-.8.525a22.666,22.666,0,0,1-2.835-.189,7.752,7.752,0,0,1,.567,2.289c.861.021,1.344.042,1.722.042,3.024,0,3.591-.378,3.591-2.394Zm-5.964-.441h3.717v1.344h-3.717Zm0,2.982h3.717V-10.9h-3.717ZM300.3-4.053V-.945c0,.42-.147.483-1.071.483a19.115,19.115,0,0,1-2.6-.21,7.969,7.969,0,0,1,.693,2.226c1.092.063,1.785.084,2.058.084,1.89,0,2.6-.168,2.961-.693a2.028,2.028,0,0,0,.273-1.323V-4.053h5.46a20.746,20.746,0,0,1,2.6.126V-6.258a17.3,17.3,0,0,1-2.583.147H302.61v-.021a29.4,29.4,0,0,0,4.2-3.066c.4-.336.4-.336.756-.63l-1.155-1.281a9.492,9.492,0,0,1-1.6.084h-6.951a15.314,15.314,0,0,1-2.121-.1v2.1a20.8,20.8,0,0,1,2.1-.084h5.775a11.122,11.122,0,0,1-2.478,1.7h-.9a9.826,9.826,0,0,1,.063,1.155v.147h-5.712a17.82,17.82,0,0,1-2.541-.147v2.331a20.459,20.459,0,0,1,2.562-.126Zm-5.607-10.374a20.2,20.2,0,0,1-2.478-.084,13.8,13.8,0,0,1,.084,1.743v1.932a9.206,9.206,0,0,1-.105,1.617h2.289v-3.255h13.692v3.255h2.289a12.733,12.733,0,0,1-.1-1.6v-1.953a13.182,13.182,0,0,1,.084-1.743,25.277,25.277,0,0,1-2.583.084h-.945a22,22,0,0,0,1.575-2.52l-2.268-.63a13.914,13.914,0,0,1-1.722,3.15h-1.785a16.615,16.615,0,0,0-1.449-3.255l-2.184.609a12.281,12.281,0,0,1,1.281,2.646h-2.226a15.484,15.484,0,0,0-1.911-3l-2.121.63a12.165,12.165,0,0,1,1.575,2.373ZM338.562-8.61A12.645,12.645,0,0,1,336.9-5.229a13.33,13.33,0,0,1-1.659-3.276l-1.911.966a16.531,16.531,0,0,0,2.184,4.032,12.565,12.565,0,0,1-5.4,3.276,7.367,7.367,0,0,1,1.3,2.037A15.346,15.346,0,0,0,336.9-1.827a14.946,14.946,0,0,0,5.607,3.591,8.4,8.4,0,0,1,1.176-2.289,12.685,12.685,0,0,1-5.376-3.024,21.635,21.635,0,0,0,2.331-4.179Zm-4.536-4.158a11.312,11.312,0,0,1-2.877,4.137,9.443,9.443,0,0,1-1.974-3.108h.84a11.829,11.829,0,0,1,1.218.063v-2.163a7.279,7.279,0,0,1-1.26.084h-.84V-15.5a18.017,18.017,0,0,1,.105-2.184h-2.352a14.164,14.164,0,0,1,.1,2.184v1.743h-1.05a11.553,11.553,0,0,1-1.617-.084v2.184a12.347,12.347,0,0,1,1.617-.084h.819a18.875,18.875,0,0,1-3.024,6.468A13.912,13.912,0,0,1,324.891-2.9a17.178,17.178,0,0,0,2.226-4.956c-.063,1.134-.084,1.722-.084,1.722l-.021,1.071v4.3a16.749,16.749,0,0,1-.147,2.583h2.394a20.831,20.831,0,0,1-.126-2.583V-5.838c0-.231-.021-1.3-.021-1.386-.042-1.155-.042-1.155-.063-1.533a18.945,18.945,0,0,0,1.365,2.478,12.066,12.066,0,0,1,.693-1.533,6.6,6.6,0,0,1,1.029,1.386,16.646,16.646,0,0,0,3.906-5.439Zm1.785-2.289h-1.827a17.405,17.405,0,0,1-2.331-.126v2.331a18.659,18.659,0,0,1,2.352-.126h6.93c.924,0,1.638.042,2.331.105v-2.31a17.278,17.278,0,0,1-2.31.126H338.1v-.9a7.7,7.7,0,0,1,.105-1.533h-2.5a8.3,8.3,0,0,1,.105,1.575Zm2.1,3.255a15.253,15.253,0,0,0,4.242,5.166,8.62,8.62,0,0,1,1.3-2,12.582,12.582,0,0,1-3.717-4.2Zm34.5-4.641a23.2,23.2,0,0,1-2.877.105h-6.678a23.2,23.2,0,0,1-2.877-.147v2.772a20.053,20.053,0,0,1,2.751-.147h6.489a34.625,34.625,0,0,0-3.675,6.09A31.821,31.821,0,0,0,363.006.378h3.318a27.048,27.048,0,0,1,3.906-11.361,13.745,13.745,0,0,1,2.184-3.024Zm21.084,8.8a20.459,20.459,0,0,1-2.667,4.578l2.52.462c.5-.777.672-1.05.966-1.575h8.421a7.712,7.712,0,0,1-.756,3.192c-.252.315-.714.441-1.743.441-.756,0-2.289-.126-3.717-.294a5.447,5.447,0,0,1,.567,2.247c1.281.084,2.079.126,3.171.126,2.2,0,3-.231,3.654-1.029.567-.693.966-2.331,1.323-5.355.105-.9.147-1.218.168-1.344a17.922,17.922,0,0,1-2.163.084h-7.917c.273-.546.378-.8.693-1.533h9.45a18.993,18.993,0,0,1,2.478.126V-9.786a18.772,18.772,0,0,1-2.478.126h-14.28a18.2,18.2,0,0,1-2.457-.126v2.268a18.945,18.945,0,0,1,2.436-.126Zm-2.1-4.977a15.194,15.194,0,0,1-.084,1.785,19.552,19.552,0,0,1,2.163-.084h9.7a19.073,19.073,0,0,1,2.163.084,14.521,14.521,0,0,1-.084-1.785v-2.73a13.8,13.8,0,0,1,.084-1.743,16.528,16.528,0,0,1-2.394.1h-9.261a19.9,19.9,0,0,1-2.373-.1,14.68,14.68,0,0,1,.084,1.743Zm11.55-2.394v2.163h-9.3v-2.163ZM430.29.21a26.949,26.949,0,0,0-2.436-4.641L426.09-3.7a11.13,11.13,0,0,1,.882,1.575c-.84.273-1.2.378-2.5.693v-3.3h3.633a9.386,9.386,0,0,1,1.239.063c-.042-.441-.042-.9-.042-1.7v-3.948a14.833,14.833,0,0,1,.063-1.785,10.908,10.908,0,0,1-1.659.084h-.819v-.672a5.269,5.269,0,0,1,.084-1.071h-2.1a5.319,5.319,0,0,1,.084,1.05v.693h-1.134c-.525,0-.693,0-1.071-.021a18.313,18.313,0,0,0,3.3-3.486,13.381,13.381,0,0,0,2.856,3.066,5.226,5.226,0,0,1,.924-1.6v1.3a12.882,12.882,0,0,1-.063,1.3h.924c.021.4.021.462.021.8V.042a12.786,12.786,0,0,1-.1,1.806h2.289V.777h4.473V1.785h2.247a14.544,14.544,0,0,1-.084-1.848V-3.675a12.85,12.85,0,0,1,.063-1.659c-.441.042-.9.063-1.659.063h-5.061V-6.783h4.389c.609,0,1.05.021,1.554.063a10,10,0,0,1-.063-1.6v-3.108H440.2a9.338,9.338,0,0,1-.063-1.428v-1.575a14.016,14.016,0,0,1,.063-1.47,17.855,17.855,0,0,1-2.037.105h-2.289v-.357a7.023,7.023,0,0,1,.105-1.47h-2.457a10.058,10.058,0,0,1,.1,1.47v.357h-2.121c-.84,0-1.281-.021-1.743-.063.042.378.042.63.063,1.3a10.322,10.322,0,0,1-2.814-3.024h-2.121a7.66,7.66,0,0,1-1.6,2.079,13.166,13.166,0,0,1-2.583,2.037,8.977,8.977,0,0,1,.777,2.373c.4-.294.567-.42.819-.588.021.42.042.693.042,1.3v9.366a9.58,9.58,0,0,1-1.365.168l.525,2.289a14.157,14.157,0,0,1,1.638-.441,42.185,42.185,0,0,0,4.662-1.365c.168.42.336.84.588,1.6Zm7.728-12.558c-.378.021-.546.021-.882.021H431.97V-13.8h6.048Zm-5.145,1.827h3.738v1.89h-3.738Zm0,7.182h4.494v2.163h-4.494Zm-8.4-5.88v-1.092h2.73v1.092Zm0,1.6h2.73v1.176h-2.73Zm41.643-8.946a23.2,23.2,0,0,1-2.877.105h-6.678a23.2,23.2,0,0,1-2.877-.147v2.772a20.053,20.053,0,0,1,2.751-.147h6.489a34.7,34.7,0,0,0-3.675,6.111A31.39,31.39,0,0,0,456.708.252h3.318a27.049,27.049,0,0,1,3.906-11.361,14.29,14.29,0,0,1,2.184-3.024Zm21,5.922c-.567.084-.819.105-1.155.126l.42,2.142c.294-.084.588-.168.882-.231a44.219,44.219,0,0,0,4.746-1.218v-2a21.263,21.263,0,0,1-2.793.777V-13.4H490.5a11.726,11.726,0,0,1,1.512.084V-15.5a7.324,7.324,0,0,1-1.533.1h-1.26v-.189a19.063,19.063,0,0,1,.105-2.142h-2.31a16.351,16.351,0,0,1,.105,2.163Zm7.623-2.268a18.013,18.013,0,0,0,2.646-1.2c.861-.462,1.281-.693,1.407-.756l-1.176-1.89a11.116,11.116,0,0,1-2.877,1.68v-.756a12.11,12.11,0,0,1,.1-1.89h-2.331a19.256,19.256,0,0,1,.105,2.079v5.208c0,.693.126,1.008.525,1.26l-1.68-.273a7.109,7.109,0,0,1-.756,1.869h-1.365c-1.155,0-1.554-.021-2.142-.063a16.487,16.487,0,0,1,.084,2.016V-.441a11.924,11.924,0,0,1-.126,2.121h2.268V.9h6.09v.819h2.373a21.149,21.149,0,0,1-.126-2.394V-5.46a17.842,17.842,0,0,1,.084-2.2,13.517,13.517,0,0,1-2.121.084h-2.667c.168-.294.273-.483.441-.84.063-.147.105-.231.126-.273l.147-.294a8.281,8.281,0,0,0,1.722.1c1.848,0,2.5-.1,2.877-.441.441-.4.609-1.029.693-2.646a4.61,4.61,0,0,1-1.911-.693c-.021,1.008-.1,1.533-.252,1.68-.126.126-.357.168-.966.168-1.029,0-1.2-.063-1.2-.483Zm-5.313,7.2h6.09v1.386h-6.09Zm0,3.192h6.09V-.987h-6.09Zm-9.051,1.3a25.563,25.563,0,0,1-.126,2.9h2.394a24.754,24.754,0,0,1-.105-2.856V-15.183h1.995a21.479,21.479,0,0,1-1.827,4.956,7.151,7.151,0,0,1,1.47,2.688,6.659,6.659,0,0,1,.336,1.806c0,.777-.231.966-1.176.966a5,5,0,0,1-.63-.042,4.344,4.344,0,0,1,.4,2.121h.294a4.467,4.467,0,0,0,2.058-.357c.777-.4,1.155-1.239,1.155-2.583a7.606,7.606,0,0,0-.483-2.457,11.217,11.217,0,0,0-1.3-2.289c.525-1.092.777-1.638,1.071-2.415.336-.84.84-2.226.945-2.6a3.376,3.376,0,0,1,.252-.693l-1.26-1.239a9.36,9.36,0,0,1-1.575.084h-2.289a14.529,14.529,0,0,1-1.659-.063c.042.378.063,1.029.063,2.121Z" transform="translate(2998 -5981)" fill="#1f356b"/><rect width="23" height="23" rx="3" transform="translate(3000 -6063)" fill="#6945ff"/><path d="M11.382-9.688a10.268,10.268,0,0,1-2.6,3.038,8.17,8.17,0,0,1-.924-2.534v-.98a9.18,9.18,0,0,1,.1-1.484H6.174a9,9,0,0,1,.1,1.47V-.924c0,.294-.084.35-.5.35a12.814,12.814,0,0,1-1.82-.168A5.023,5.023,0,0,1,4.34.868c.546.042,1.3.084,1.82.084A2.005,2.005,0,0,0,7.5.63c.266-.224.364-.5.364-1.134L7.854-3.85c0-.462-.014-.784-.07-2.184A12.571,12.571,0,0,0,10-2.366,12.267,12.267,0,0,0,12.39-.28a7.815,7.815,0,0,1,1.2-1.512,9.7,9.7,0,0,1-2.436-1.736,12.5,12.5,0,0,1-1.6-1.848,21.251,21.251,0,0,0,2.506-2.366c.476-.532.728-.812.742-.826ZM5.1-8.554A8.14,8.14,0,0,1,3.864-8.5H2.394a9.844,9.844,0,0,1-1.5-.07V-6.86a9.472,9.472,0,0,1,1.4-.084H4.06a9.319,9.319,0,0,1-1.666,3.43A9.111,9.111,0,0,1,.364-1.526,5.353,5.353,0,0,1,1.694-.35,10.367,10.367,0,0,0,3.808-2.758,12.859,12.859,0,0,0,5.586-6.734a8.917,8.917,0,0,1,.294-.938Z" transform="translate(3004 -6047)" fill="#fff"/><rect width="23" height="23" rx="3" transform="translate(3038 -6063)" fill="#6945ff"/><path d="M11.48-7.616a12.84,12.84,0,0,1,1.694.1V-9.17a11.246,11.246,0,0,1-1.694.1H7.714V-10.4a6.889,6.889,0,0,1,.1-1.288H5.992a6.949,6.949,0,0,1,.1,1.3v1.316H2.52a12.068,12.068,0,0,1-1.68-.1v1.652a12.481,12.481,0,0,1,1.68-.1H5.586A13.108,13.108,0,0,1,.322-2.086,5.221,5.221,0,0,1,1.358-.658a13.594,13.594,0,0,0,4.8-5.39c-.042.546-.07,1.176-.07,1.526V-.63a13.006,13.006,0,0,1-.1,1.75h1.82a12.651,12.651,0,0,1-.1-1.736v-3.92a14.383,14.383,0,0,0-.1-1.582A13.408,13.408,0,0,0,9.884-2.94a17.166,17.166,0,0,0,2.7,2.226A5.953,5.953,0,0,1,13.664-2.2,12.564,12.564,0,0,1,8.218-7.616Z" transform="translate(3042 -6047)" fill="#fff"/><rect width="23" height="23" rx="3" transform="translate(3287 -6063)" fill="#6945ff"/><path d="M6.132-6.608V-5.25h-3.3A10.333,10.333,0,0,1,1.3-5.334V-3.78a11.5,11.5,0,0,1,1.512-.084H6.132V-.728H2.618A15.128,15.128,0,0,1,.882-.812V.8A13.8,13.8,0,0,1,2.618.7h8.848a12.913,12.913,0,0,1,1.68.1V-.812a13.115,13.115,0,0,1-1.652.084H7.686V-3.864h3.528a11.092,11.092,0,0,1,1.54.084V-5.334a9.949,9.949,0,0,1-1.526.084H7.686V-6.608H9.114a9.569,9.569,0,0,1,1.372.07v-.714a14.274,14.274,0,0,0,2.45,1.232,7.146,7.146,0,0,1,.756-1.54,11.6,11.6,0,0,1-3.71-1.89,8.281,8.281,0,0,1-2.156-2.156H6.09A10.8,10.8,0,0,1,.378-7.5,6.22,6.22,0,0,1,1.19-6.062,15.108,15.108,0,0,0,3.472-7.21v.672a9.81,9.81,0,0,1,1.372-.07ZM4.508-7.924a9.877,9.877,0,0,0,2.45-2.352,11.045,11.045,0,0,0,2.52,2.352c-.21.014-.21.014-.336.014L4.8-7.924ZM2.464-3.178A10.2,10.2,0,0,1,3.57-.854l1.4-.56A16.225,16.225,0,0,0,3.85-3.738Zm7.546-.546A11.7,11.7,0,0,1,8.9-1.316l1.316.49c.476-.812.532-.91.574-.994.518-1.022.518-1.022.7-1.344Z" transform="translate(3291 -6047)" fill="#fff"/><path d="M9.408.252a17.6,17.6,0,0,1-.168-2.73V-13.1a31.642,31.642,0,0,1,.168-3.465,15.272,15.272,0,0,1-2.142.105H5.334a11.67,11.67,0,0,1-2.1-.126v2.667A18.676,18.676,0,0,1,5.4-14.049H6.405V-2.478A17.431,17.431,0,0,1,6.237.252Zm7.455-3.969a5.546,5.546,0,0,0,1.176,2.352c1.2,1.365,2.877,2,5.334,2a7.253,7.253,0,0,0,5.166-1.7A4.447,4.447,0,0,0,29.8-4.137a4.034,4.034,0,0,0-1.008-2.9,4.418,4.418,0,0,0-3-1.407,5.184,5.184,0,0,0,2.037-.819,3.829,3.829,0,0,0,1.449-3.087c0-2.73-2.268-4.494-5.775-4.494a6.818,6.818,0,0,0-4.116,1.155,5.218,5.218,0,0,0-2,3l3,.5a3.085,3.085,0,0,1,.882-1.617,3.5,3.5,0,0,1,2.289-.651c1.785,0,2.772.819,2.772,2.268C26.334-10.563,25.1-9.6,23-9.6A14.4,14.4,0,0,1,20.958-9.7v2.6A17.932,17.932,0,0,1,23.205-7.2a5.44,5.44,0,0,1,2.415.5A2.447,2.447,0,0,1,26.8-4.494c0,1.659-1.323,2.73-3.4,2.73a3.965,3.965,0,0,1-2.541-.819A2.728,2.728,0,0,1,19.866-4.3ZM33.306-11.8v3.066h3.066V-11.8Zm0,8.988V.252h3.066V-2.814ZM46.179.588a5.961,5.961,0,0,0,5.1-2.478,11.03,11.03,0,0,0,1.554-6.216,14.123,14.123,0,0,0-.819-4.872A5.883,5.883,0,0,0,50.631-15.1,6.1,6.1,0,0,0,46.2-16.8a5.971,5.971,0,0,0-5.355,2.919,12.365,12.365,0,0,0-1.281,5.817,14.054,14.054,0,0,0,.819,4.83,5.883,5.883,0,0,0,1.386,2.121A6.05,6.05,0,0,0,46.179.588ZM46.2-1.848a3.077,3.077,0,0,1-2.688-1.365,9.446,9.446,0,0,1-1.071-5,7.836,7.836,0,0,1,1.386-5.1,2.824,2.824,0,0,1,2.352-1.071,3.035,3.035,0,0,1,2.289.882c.945,1.029,1.47,2.94,1.47,5.376,0,2.457-.525,4.41-1.47,5.4A3.052,3.052,0,0,1,46.2-1.848ZM62.181.588a5.961,5.961,0,0,0,5.1-2.478,11.03,11.03,0,0,0,1.554-6.216,14.123,14.123,0,0,0-.819-4.872A5.883,5.883,0,0,0,66.633-15.1,6.1,6.1,0,0,0,62.2-16.8a5.971,5.971,0,0,0-5.355,2.919,12.365,12.365,0,0,0-1.281,5.817,14.054,14.054,0,0,0,.819,4.83,5.883,5.883,0,0,0,1.386,2.121A6.05,6.05,0,0,0,62.181.588ZM62.2-1.848a3.077,3.077,0,0,1-2.688-1.365,9.446,9.446,0,0,1-1.071-5,7.836,7.836,0,0,1,1.386-5.1,2.824,2.824,0,0,1,2.352-1.071,3.035,3.035,0,0,1,2.289.882c.945,1.029,1.47,2.94,1.47,5.376,0,2.457-.525,4.41-1.47,5.4A3.052,3.052,0,0,1,62.2-1.848Z" transform="translate(3076 -6044)" fill="#1f356b"/><path d="M10.584.252c1.344,0,2.184.042,3.171.126V-2.394a22.064,22.064,0,0,1-3.066.168H4.809a5.062,5.062,0,0,1,1.2-1.89,18.372,18.372,0,0,1,2.5-2.1A26.29,26.29,0,0,0,12.033-8.8a4.263,4.263,0,0,0,1.491-3.36c0-2.877-2.268-4.641-5.943-4.641a6.106,6.106,0,0,0-4.809,1.869,6.3,6.3,0,0,0-1.449,3.36l3,.357a3.991,3.991,0,0,1,.651-1.932,2.967,2.967,0,0,1,2.667-1.239c1.785,0,2.9.882,2.9,2.31,0,1.071-.588,1.764-2.52,3.087A28.919,28.919,0,0,0,4.557-6.447,10.364,10.364,0,0,0,1.68-2.331,10.73,10.73,0,0,0,1.134.357,19.354,19.354,0,0,1,3.843.252ZM23.457.588a5.961,5.961,0,0,0,5.1-2.478,11.03,11.03,0,0,0,1.554-6.216,14.123,14.123,0,0,0-.819-4.872A5.883,5.883,0,0,0,27.909-15.1a6.1,6.1,0,0,0-4.431-1.7,5.971,5.971,0,0,0-5.355,2.919,12.365,12.365,0,0,0-1.281,5.817,14.054,14.054,0,0,0,.819,4.83,5.883,5.883,0,0,0,1.386,2.121A6.05,6.05,0,0,0,23.457.588Zm.021-2.436A3.077,3.077,0,0,1,20.79-3.213a9.446,9.446,0,0,1-1.071-5,7.836,7.836,0,0,1,1.386-5.1,2.824,2.824,0,0,1,2.352-1.071,3.035,3.035,0,0,1,2.289.882c.945,1.029,1.47,2.94,1.47,5.376,0,2.457-.525,4.41-1.47,5.4A3.052,3.052,0,0,1,23.478-1.848ZM33.306-11.8v3.066h3.066V-11.8Zm0,8.988V.252h3.066V-2.814Zm6.279-.9a5.546,5.546,0,0,0,1.176,2.352c1.2,1.365,2.877,2,5.334,2a7.253,7.253,0,0,0,5.166-1.7,4.447,4.447,0,0,0,1.26-3.066,4.034,4.034,0,0,0-1.008-2.9,4.418,4.418,0,0,0-3-1.407,5.184,5.184,0,0,0,2.037-.819A3.829,3.829,0,0,0,52-12.348c0-2.73-2.268-4.494-5.775-4.494A6.818,6.818,0,0,0,42.1-15.687a5.218,5.218,0,0,0-1.995,3l3,.5a3.085,3.085,0,0,1,.882-1.617,3.5,3.5,0,0,1,2.289-.651c1.785,0,2.772.819,2.772,2.268,0,1.617-1.239,2.583-3.339,2.583A14.4,14.4,0,0,1,43.68-9.7v2.6A17.932,17.932,0,0,1,45.927-7.2a5.44,5.44,0,0,1,2.415.5,2.447,2.447,0,0,1,1.176,2.205c0,1.659-1.323,2.73-3.4,2.73a3.965,3.965,0,0,1-2.541-.819A2.728,2.728,0,0,1,42.588-4.3ZM62.181.588a5.961,5.961,0,0,0,5.1-2.478,11.03,11.03,0,0,0,1.554-6.216,14.123,14.123,0,0,0-.819-4.872A5.883,5.883,0,0,0,66.633-15.1,6.1,6.1,0,0,0,62.2-16.8a5.971,5.971,0,0,0-5.355,2.919,12.365,12.365,0,0,0-1.281,5.817,14.054,14.054,0,0,0,.819,4.83,5.883,5.883,0,0,0,1.386,2.121A6.05,6.05,0,0,0,62.181.588ZM62.2-1.848a3.077,3.077,0,0,1-2.688-1.365,9.446,9.446,0,0,1-1.071-5,7.836,7.836,0,0,1,1.386-5.1,2.824,2.824,0,0,1,2.352-1.071,3.035,3.035,0,0,1,2.289.882c.945,1.029,1.47,2.94,1.47,5.376,0,2.457-.525,4.41-1.47,5.4A3.052,3.052,0,0,1,62.2-1.848Z" transform="translate(3179 -6044)" fill="#1f356b"/><line x2="12" transform="translate(3156.5 -6050.5)" fill="none" stroke="#233667" stroke-linecap="round" stroke-width="2"/><path d="M9.408.252a17.6,17.6,0,0,1-.168-2.73V-13.1a31.642,31.642,0,0,1,.168-3.465,15.272,15.272,0,0,1-2.142.105H5.334a11.67,11.67,0,0,1-2.1-.126v2.667A18.676,18.676,0,0,1,5.4-14.049H6.405V-2.478A17.431,17.431,0,0,1,6.237.252ZM23.457.588a5.961,5.961,0,0,0,5.1-2.478,11.03,11.03,0,0,0,1.554-6.216,14.123,14.123,0,0,0-.819-4.872A5.883,5.883,0,0,0,27.909-15.1a6.1,6.1,0,0,0-4.431-1.7,5.971,5.971,0,0,0-5.355,2.919,12.365,12.365,0,0,0-1.281,5.817,14.054,14.054,0,0,0,.819,4.83,5.883,5.883,0,0,0,1.386,2.121A6.05,6.05,0,0,0,23.457.588Zm.021-2.436A3.077,3.077,0,0,1,20.79-3.213a9.446,9.446,0,0,1-1.071-5,7.836,7.836,0,0,1,1.386-5.1,2.824,2.824,0,0,1,2.352-1.071,3.035,3.035,0,0,1,2.289.882c.945,1.029,1.47,2.94,1.47,5.376,0,2.457-.525,4.41-1.47,5.4A3.052,3.052,0,0,1,23.478-1.848ZM33.306-11.8v3.066h3.066V-11.8Zm0,8.988V.252h3.066V-2.814ZM46.179.588a5.961,5.961,0,0,0,5.1-2.478,11.03,11.03,0,0,0,1.554-6.216,14.123,14.123,0,0,0-.819-4.872A5.883,5.883,0,0,0,50.631-15.1,6.1,6.1,0,0,0,46.2-16.8a5.971,5.971,0,0,0-5.355,2.919,12.365,12.365,0,0,0-1.281,5.817,14.054,14.054,0,0,0,.819,4.83,5.883,5.883,0,0,0,1.386,2.121A6.05,6.05,0,0,0,46.179.588ZM46.2-1.848a3.077,3.077,0,0,1-2.688-1.365,9.446,9.446,0,0,1-1.071-5,7.836,7.836,0,0,1,1.386-5.1,2.824,2.824,0,0,1,2.352-1.071,3.035,3.035,0,0,1,2.289.882c.945,1.029,1.47,2.94,1.47,5.376,0,2.457-.525,4.41-1.47,5.4A3.052,3.052,0,0,1,46.2-1.848ZM62.181.588a5.961,5.961,0,0,0,5.1-2.478,11.03,11.03,0,0,0,1.554-6.216,14.123,14.123,0,0,0-.819-4.872A5.883,5.883,0,0,0,66.633-15.1,6.1,6.1,0,0,0,62.2-16.8a5.971,5.971,0,0,0-5.355,2.919,12.365,12.365,0,0,0-1.281,5.817,14.054,14.054,0,0,0,.819,4.83,5.883,5.883,0,0,0,1.386,2.121A6.05,6.05,0,0,0,62.181.588ZM62.2-1.848a3.077,3.077,0,0,1-2.688-1.365,9.446,9.446,0,0,1-1.071-5,7.836,7.836,0,0,1,1.386-5.1,2.824,2.824,0,0,1,2.352-1.071,3.035,3.035,0,0,1,2.289.882c.945,1.029,1.47,2.94,1.47,5.376,0,2.457-.525,4.41-1.47,5.4A3.052,3.052,0,0,1,62.2-1.848Z" transform="translate(3325 -6044)" fill="#1f356b"/><path d="M9.408.252a17.6,17.6,0,0,1-.168-2.73V-13.1a31.642,31.642,0,0,1,.168-3.465,15.272,15.272,0,0,1-2.142.105H5.334a11.67,11.67,0,0,1-2.1-.126v2.667A18.676,18.676,0,0,1,5.4-14.049H6.405V-2.478A17.431,17.431,0,0,1,6.237.252Zm7.833-3.738A6.2,6.2,0,0,0,18.564-1.2,6.146,6.146,0,0,0,23.352.63c3.906,0,6.321-2.289,6.321-5.985A5.162,5.162,0,0,0,28.182-9.3a5.4,5.4,0,0,0-4.095-1.575A5.166,5.166,0,0,0,20.5-9.6q.094-.63.126-.882l.336-3.675h4.935a20.144,20.144,0,0,1,2.9.168v-2.646a15.99,15.99,0,0,1-2.919.168H20.706c-1.113,0-1.6-.021-2.226-.063-.021,1.05-.063,1.764-.084,2.142l-.483,5.208c-.042.588-.063.693-.273,2.184l2.625.252a2.409,2.409,0,0,1,.63-.945,3.692,3.692,0,0,1,2.6-.966,3.132,3.132,0,0,1,3.3,3.381,3.257,3.257,0,0,1-3.444,3.465,3.181,3.181,0,0,1-2.583-1.071,2.876,2.876,0,0,1-.63-1.218ZM33.306-11.8v3.066h3.066V-11.8Zm0,8.988V.252h3.066V-2.814ZM46.179.588a5.961,5.961,0,0,0,5.1-2.478,11.03,11.03,0,0,0,1.554-6.216,14.123,14.123,0,0,0-.819-4.872A5.883,5.883,0,0,0,50.631-15.1,6.1,6.1,0,0,0,46.2-16.8a5.971,5.971,0,0,0-5.355,2.919,12.365,12.365,0,0,0-1.281,5.817,14.054,14.054,0,0,0,.819,4.83,5.883,5.883,0,0,0,1.386,2.121A6.05,6.05,0,0,0,46.179.588ZM46.2-1.848a3.077,3.077,0,0,1-2.688-1.365,9.446,9.446,0,0,1-1.071-5,7.836,7.836,0,0,1,1.386-5.1,2.824,2.824,0,0,1,2.352-1.071,3.035,3.035,0,0,1,2.289.882c.945,1.029,1.47,2.94,1.47,5.376,0,2.457-.525,4.41-1.47,5.4A3.052,3.052,0,0,1,46.2-1.848ZM62.181.588a5.961,5.961,0,0,0,5.1-2.478,11.03,11.03,0,0,0,1.554-6.216,14.123,14.123,0,0,0-.819-4.872A5.883,5.883,0,0,0,66.633-15.1,6.1,6.1,0,0,0,62.2-16.8a5.971,5.971,0,0,0-5.355,2.919,12.365,12.365,0,0,0-1.281,5.817,14.054,14.054,0,0,0,.819,4.83,5.883,5.883,0,0,0,1.386,2.121A6.05,6.05,0,0,0,62.181.588ZM62.2-1.848a3.077,3.077,0,0,1-2.688-1.365,9.446,9.446,0,0,1-1.071-5,7.836,7.836,0,0,1,1.386-5.1,2.824,2.824,0,0,1,2.352-1.071,3.035,3.035,0,0,1,2.289.882c.945,1.029,1.47,2.94,1.47,5.376,0,2.457-.525,4.41-1.47,5.4A3.052,3.052,0,0,1,62.2-1.848Z" transform="translate(3428 -6044)" fill="#1f356b"/><line x2="12" transform="translate(3405.5 -6050.5)" fill="none" stroke="#233667" stroke-linecap="round" stroke-width="2"/><path d="M13.608.324c1.728,0,2.808.054,4.077.162V-3.078a28.368,28.368,0,0,1-3.942.216H6.183a6.509,6.509,0,0,1,1.539-2.43,23.621,23.621,0,0,1,3.213-2.7,33.8,33.8,0,0,0,4.536-3.321,5.481,5.481,0,0,0,1.917-4.32c0-3.7-2.916-5.967-7.641-5.967a7.851,7.851,0,0,0-6.183,2.4A8.1,8.1,0,0,0,1.7-14.877l3.861.459A5.131,5.131,0,0,1,6.4-16.9,3.815,3.815,0,0,1,9.828-18.5c2.3,0,3.726,1.134,3.726,2.97,0,1.377-.756,2.268-3.24,3.969A37.182,37.182,0,0,0,5.859-8.289,13.325,13.325,0,0,0,2.16-3a13.8,13.8,0,0,0-.7,3.456A24.883,24.883,0,0,1,4.941.324Zm21.06.432A7.664,7.664,0,0,0,41.229-2.43c1.269-1.755,2-4.671,2-7.992a18.158,18.158,0,0,0-1.053-6.264,7.564,7.564,0,0,0-1.782-2.727,7.843,7.843,0,0,0-5.7-2.187,7.677,7.677,0,0,0-6.885,3.753,15.9,15.9,0,0,0-1.647,7.479,18.07,18.07,0,0,0,1.053,6.21A7.564,7.564,0,0,0,29-1.431,7.779,7.779,0,0,0,34.668.756Zm.027-3.132a3.956,3.956,0,0,1-3.456-1.755c-.864-1.242-1.377-3.591-1.377-6.426,0-2.943.594-5.157,1.782-6.561A3.631,3.631,0,0,1,34.668-18.5a3.9,3.9,0,0,1,2.943,1.134c1.215,1.323,1.89,3.78,1.89,6.912,0,3.159-.675,5.67-1.89,6.939A3.924,3.924,0,0,1,34.695-2.376ZM63.774.324c1.728,0,2.808.054,4.077.162V-3.078a28.368,28.368,0,0,1-3.942.216h-7.56a6.509,6.509,0,0,1,1.539-2.43,23.621,23.621,0,0,1,3.213-2.7,33.8,33.8,0,0,0,4.536-3.321,5.481,5.481,0,0,0,1.917-4.32c0-3.7-2.916-5.967-7.641-5.967a7.851,7.851,0,0,0-6.183,2.4,8.1,8.1,0,0,0-1.863,4.32l3.861.459a5.131,5.131,0,0,1,.837-2.484A3.815,3.815,0,0,1,59.994-18.5c2.3,0,3.726,1.134,3.726,2.97,0,1.377-.756,2.268-3.24,3.969a37.182,37.182,0,0,0-4.455,3.267A13.325,13.325,0,0,0,52.326-3a13.8,13.8,0,0,0-.7,3.456A24.883,24.883,0,0,1,55.107.324Zm23.571,0a22.633,22.633,0,0,1-.216-3.51V-16.848a40.683,40.683,0,0,1,.216-4.455,19.636,19.636,0,0,1-2.754.135H82.107a15,15,0,0,1-2.7-.162V-17.9a24.012,24.012,0,0,1,2.781-.162h1.3V-3.186a22.411,22.411,0,0,1-.216,3.51Zm23.247-21.492L100.818,4.4h3.321l9.747-25.569ZM133.839.324c1.728,0,2.808.054,4.077.162V-3.078a28.369,28.369,0,0,1-3.942.216h-7.56a6.509,6.509,0,0,1,1.539-2.43,23.621,23.621,0,0,1,3.213-2.7,33.8,33.8,0,0,0,4.536-3.321,5.481,5.481,0,0,0,1.917-4.32c0-3.7-2.916-5.967-7.641-5.967a7.851,7.851,0,0,0-6.183,2.4,8.1,8.1,0,0,0-1.863,4.32l3.861.459a5.132,5.132,0,0,1,.837-2.484,3.815,3.815,0,0,1,3.429-1.593c2.295,0,3.726,1.134,3.726,2.97,0,1.377-.756,2.268-3.24,3.969a37.182,37.182,0,0,0-4.455,3.267A13.325,13.325,0,0,0,122.391-3a13.8,13.8,0,0,0-.7,3.456,24.883,24.883,0,0,1,3.483-.135Zm21.735-21.492L145.8,4.4h3.321l9.747-25.569ZM177.309.324a22.635,22.635,0,0,1-.216-3.51V-16.848a40.686,40.686,0,0,1,.216-4.455,19.636,19.636,0,0,1-2.754.135h-2.484a15,15,0,0,1-2.7-.162V-17.9a24.011,24.011,0,0,1,2.781-.162h1.3V-3.186a22.411,22.411,0,0,1-.216,3.51Zm22.572.432a7.664,7.664,0,0,0,6.561-3.186c1.269-1.755,2-4.671,2-7.992a18.158,18.158,0,0,0-1.053-6.264,7.564,7.564,0,0,0-1.782-2.727,7.843,7.843,0,0,0-5.7-2.187,7.677,7.677,0,0,0-6.885,3.753,15.9,15.9,0,0,0-1.647,7.479,18.07,18.07,0,0,0,1.053,6.21,7.564,7.564,0,0,0,1.782,2.727A7.779,7.779,0,0,0,199.881.756Zm.027-3.132a3.956,3.956,0,0,1-3.456-1.755c-.864-1.242-1.377-3.591-1.377-6.426,0-2.943.594-5.157,1.782-6.561a3.631,3.631,0,0,1,3.024-1.377,3.9,3.9,0,0,1,2.943,1.134c1.215,1.323,1.89,3.78,1.89,6.912,0,3.159-.675,5.67-1.89,6.939A3.924,3.924,0,0,1,199.908-2.376Z" transform="translate(2999 -6082.075)" fill="#1f356b"/><rect width="27" height="27" rx="3" transform="translate(3217.766 -6106)" fill="#6945ff"/><path d="M13.821-11.764a12.469,12.469,0,0,1-3.162,3.689,9.921,9.921,0,0,1-1.122-3.077v-1.19a11.147,11.147,0,0,1,.119-1.8H7.5a10.925,10.925,0,0,1,.119,1.785V-1.122c0,.357-.1.425-.612.425a15.56,15.56,0,0,1-2.21-.2A6.1,6.1,0,0,1,5.27,1.054c.663.051,1.581.1,2.21.1A2.435,2.435,0,0,0,9.112.765c.323-.272.442-.612.442-1.377L9.537-4.675c0-.561-.017-.952-.085-2.652a15.265,15.265,0,0,0,2.686,4.454A14.9,14.9,0,0,0,15.045-.34a9.489,9.489,0,0,1,1.462-1.836,11.782,11.782,0,0,1-2.958-2.108,15.175,15.175,0,0,1-1.938-2.244A25.805,25.805,0,0,0,14.654-9.4c.578-.646.884-.986.9-1ZM6.188-10.387a9.884,9.884,0,0,1-1.5.068H2.907A11.954,11.954,0,0,1,1.088-10.4V-8.33a11.5,11.5,0,0,1,1.7-.1H4.93A11.315,11.315,0,0,1,2.907-4.267,11.063,11.063,0,0,1,.442-1.853,6.5,6.5,0,0,1,2.057-.425,12.588,12.588,0,0,0,4.624-3.349,15.614,15.614,0,0,0,6.783-8.177,10.827,10.827,0,0,1,7.14-9.316Z" transform="translate(3222.766 -6086)" fill="#fff"/><path d="M12.1.324a22.633,22.633,0,0,1-.216-3.51V-16.848A40.683,40.683,0,0,1,12.1-21.3a19.636,19.636,0,0,1-2.754.135H6.858a15,15,0,0,1-2.7-.162V-17.9a24.012,24.012,0,0,1,2.781-.162h1.3V-3.186A22.411,22.411,0,0,1,8.019.324Zm23.274,0a22.633,22.633,0,0,1-.216-3.51V-16.848A40.683,40.683,0,0,1,35.37-21.3a19.636,19.636,0,0,1-2.754.135H30.132a15,15,0,0,1-2.7-.162V-17.9a24.012,24.012,0,0,1,2.781-.162h1.3V-3.186a22.411,22.411,0,0,1-.216,3.51Z" transform="translate(3296 -6082.075)" fill="#1f356b"/><rect width="27" height="27" rx="3" transform="translate(3341.766 -6106)" fill="#6945ff"/><path d="M13.94-9.248A15.592,15.592,0,0,1,16-9.129v-2.006a13.656,13.656,0,0,1-2.057.119H9.367v-1.615a8.365,8.365,0,0,1,.119-1.564H7.276a8.438,8.438,0,0,1,.119,1.581v1.6H3.06a14.654,14.654,0,0,1-2.04-.119v2.006a15.156,15.156,0,0,1,2.04-.119H6.783A15.917,15.917,0,0,1,.391-2.533,6.34,6.34,0,0,1,1.649-.8,16.507,16.507,0,0,0,7.48-7.344c-.051.663-.085,1.428-.085,1.853V-.765A15.793,15.793,0,0,1,7.276,1.36h2.21A15.361,15.361,0,0,1,9.367-.748v-4.76a17.465,17.465,0,0,0-.119-1.921A16.281,16.281,0,0,0,12-3.57a20.844,20.844,0,0,0,3.281,2.7,7.229,7.229,0,0,1,1.309-1.8A15.256,15.256,0,0,1,9.979-9.248Z" transform="translate(3346.766 -6086)" fill="#fff"/><path d="M12.1.324a22.633,22.633,0,0,1-.216-3.51V-16.848A40.683,40.683,0,0,1,12.1-21.3a19.636,19.636,0,0,1-2.754.135H6.858a15,15,0,0,1-2.7-.162V-17.9a24.012,24.012,0,0,1,2.781-.162h1.3V-3.186A22.411,22.411,0,0,1,8.019.324Zm24.786,0c1.728,0,2.808.054,4.077.162V-3.078a28.368,28.368,0,0,1-3.942.216h-7.56A6.509,6.509,0,0,1,31-5.292a23.621,23.621,0,0,1,3.213-2.7,33.8,33.8,0,0,0,4.536-3.321,5.481,5.481,0,0,0,1.917-4.32c0-3.7-2.916-5.967-7.641-5.967a7.851,7.851,0,0,0-6.183,2.4,8.1,8.1,0,0,0-1.863,4.32l3.861.459a5.131,5.131,0,0,1,.837-2.484A3.815,3.815,0,0,1,33.1-18.5c2.295,0,3.726,1.134,3.726,2.97,0,1.377-.756,2.268-3.24,3.969a37.182,37.182,0,0,0-4.455,3.267A13.325,13.325,0,0,0,25.434-3a13.8,13.8,0,0,0-.7,3.456A24.883,24.883,0,0,1,28.215.324Z" transform="translate(3419 -6082.075)" fill="#1f356b"/><rect width="27" height="27" rx="3" transform="translate(3469.766 -6106)" fill="#6945ff"/><path d="M7.446-8.024v1.649H3.434a12.547,12.547,0,0,1-1.853-.1V-4.59a13.967,13.967,0,0,1,1.836-.1H7.446V-.884H3.179a18.37,18.37,0,0,1-2.108-.1V.969A16.761,16.761,0,0,1,3.179.85H13.923a15.68,15.68,0,0,1,2.04.119V-.986a15.926,15.926,0,0,1-2.006.1H9.333V-4.692h4.284a13.469,13.469,0,0,1,1.87.1V-6.477a12.081,12.081,0,0,1-1.853.1h-4.3V-8.024h1.734a11.619,11.619,0,0,1,1.666.085v-.867a17.333,17.333,0,0,0,2.975,1.5,8.677,8.677,0,0,1,.918-1.87,14.081,14.081,0,0,1-4.5-2.3A10.055,10.055,0,0,1,9.5-14.093H7.395C6.171-12.053,3.621-10.217.459-9.112a7.553,7.553,0,0,1,.986,1.751A18.346,18.346,0,0,0,4.216-8.755v.816a11.912,11.912,0,0,1,1.666-.085Zm-1.972-1.6a11.993,11.993,0,0,0,2.975-2.856,13.412,13.412,0,0,0,3.06,2.856c-.255.017-.255.017-.408.017l-5.27-.017ZM2.992-3.859A12.38,12.38,0,0,1,4.335-1.037l1.7-.68a19.7,19.7,0,0,0-1.36-2.822Zm9.163-.663A14.2,14.2,0,0,1,10.812-1.6L12.41-1c.578-.986.646-1.105.7-1.207.629-1.241.629-1.241.85-1.632Z" transform="translate(3474.766 -6086)" fill="#fff"/><line x2="30" transform="translate(3255.266 -6092.5)" fill="none" stroke="#233667" stroke-linecap="round" stroke-width="2"/><line x2="30" transform="translate(3379.766 -6092.5)" fill="none" stroke="#233667" stroke-linecap="round" stroke-width="2"/></g></svg>