<svg xmlns="http://www.w3.org/2000/svg" xmlns:xlink="http://www.w3.org/1999/xlink" viewBox="0 0 1098.95 273"><defs><style>.cls-1{fill:url(#未命名漸層_2);}.cls-2,.cls-3{isolation:isolate;}.cls-3{font-size:19px;fill:#fff;font-family:HiraginoSans-W8-83pv-RKSJ-H, Hiragino Sans;letter-spacing:0.2em;}</style><linearGradient id="未命名漸層_2" x1="612" y1="79.71" x2="613" y2="79.71" gradientTransform="matrix(1098.95, 0, 0, -273, -672554.62, 21898.82)" gradientUnits="userSpaceOnUse"><stop offset="0" stop-color="#00fccc"/><stop offset="0" stop-color="#00caf9"/><stop offset="0.14" stop-color="#1ba7fb"/><stop offset="1" stop-color="#6945ff"/></linearGradient></defs><g id="レイヤー_2" data-name="レイヤー 2"><g id="圖層_1" data-name="圖層 1"><g id="グループ_1862" data-name="グループ 1862"><path id="交差_70" data-name="交差 70" class="cls-1" d="M723.9,253.5A19.5,19.5,0,1,1,743.4,273h0A19.5,19.5,0,0,1,723.9,253.5Zm-168,0A19.5,19.5,0,1,1,575.4,273a19.5,19.5,0,0,1-19.5-19.5Zm-158,0A19.5,19.5,0,1,1,417.4,273a19.5,19.5,0,0,1-19.5-19.5ZM234.12,267.61a15.35,15.35,0,0,0,3.9-6.4c1.23-3.65,1.64-8.45,1.64-19.64a58.8,58.8,0,0,0-.25-6.36,48.21,48.21,0,0,0,5.37.21h18.49a40.49,40.49,0,0,0,5.17-.21,34,34,0,0,0-.2,5v26.17c0,2.66-.54,4.09-1.8,4.95s-2.71,1.07-6,1.07c-1.23,0-2.71,0-4.68-.12a23.69,23.69,0,0,0-1.72-6.4,49,49,0,0,0,6.4.53c1.15,0,1.4-.16,1.4-.9v-5.41H245.33a24.88,24.88,0,0,1-6,12.79A20.63,20.63,0,0,0,234.12,267.61Zm11.77-13.08H261.8v-4H246.14c-.08,1.68-.12,2.42-.25,4Zm.29-9.59H261.8v-3.57H246.18ZM170.8,272.86a37.65,37.65,0,0,0,.25-5.09v-3.32H158.3a41.87,41.87,0,0,0-4.88.25v-6.36a39.78,39.78,0,0,0,4.88.25h.94V249c-1,1-1.35,1.39-2.5,2.45a18.53,18.53,0,0,0-4.1-5.41,24.91,24.91,0,0,0,7.79-9.51,12.3,12.3,0,0,0,1-2.95l6.8,1.15c-.37.74-.41.82-.86,1.88-.2.45-.33.74-.61,1.31h18a37.06,37.06,0,0,0,4.71-.24V244a37.06,37.06,0,0,0-4.71-.24H177.4v3.93h5.75c2.17,0,3.4,0,4.75-.16v5.94c-1.35-.12-2.54-.16-4.55-.16H177.4v5.33H186a37.19,37.19,0,0,0,4.84-.25v6.36a41.07,41.07,0,0,0-4.84-.25H177.4v3.45a33,33,0,0,0,.25,5Zm-5.45-14.27h5.7v-5.33h-5.7Zm-4.88-11c.62,0,.86,0,1.52,0h9.06v-3.93h-7.54a38,38,0,0,1-3,3.89Zm683.72,23,1.25-2.55c2.55.57,3.5.8,5.08,1.24a22.53,22.53,0,0,0-4.87-2.65l1.35-1.84a15,15,0,0,1-2.77,1.25c-.11-.29-.24-.59-.38-.87l-1.31.46c-.08-.4-.1-.5-.15-.78l-.84.1v5.72a12.27,12.27,0,0,0,.11,2.1H839a12.27,12.27,0,0,0,.12-2.1v-5.52l-.65,0-1.21.08a3.44,3.44,0,0,0-.78.08l-.23-2.63c.61,0,.88.06,1.18.06h.43c.29-.36.37-.48.69-.89a19,19,0,0,0-2.38-2.83l1.31-2.34.48.53a10,10,0,0,0,1.08-2.62l2.53.85a4.65,4.65,0,0,0-.32.63,30.32,30.32,0,0,1-1.68,3.13,4.8,4.8,0,0,1,.38.54,16.16,16.16,0,0,0,1.71-3.1l2.17,1.17s-.23.35-.63,1a8.48,8.48,0,0,0,2.15-2.24,5.4,5.4,0,0,0,.88-1.86l3,.4a6.09,6.09,0,0,0-.3.63l-.23.47h2.07a8.85,8.85,0,0,0,1.54-.09l1.31,1.54a4.3,4.3,0,0,0-.25.45,17.1,17.1,0,0,1-2.66,3.71,13,13,0,0,0,3.73,1.29,11.66,11.66,0,0,0-1.3,3.06,19.67,19.67,0,0,1-4.73-2.34c-.47.32-.64.44-1,.69a29.09,29.09,0,0,1,4.73,2.3l-1.5,2.43a24.57,24.57,0,0,1,2.51.83l-1.1,2.72a35.38,35.38,0,0,0-7.82-2.26Zm-.23-7.5a11.69,11.69,0,0,0,2.32-1.09,8.58,8.58,0,0,1-.95-1.21c-.28.25-.43.38-.93.76a7,7,0,0,0-1.58-2.13c-.32.49-.64,1-1.27,1.82l1.6-.57c.47,1.31.63,1.71.82,2.41Zm-3.5-.38,1,0,.46,0c-.12-.43-.26-.86-.42-1.27-.41.56-.66.91-1,1.34Zm6.67-3.9a7.69,7.69,0,0,0,1.29,1.5,9.94,9.94,0,0,0,1.33-1.64h-2.52ZM826.25,271a14.89,14.89,0,0,1-2.87,1.66,7.88,7.88,0,0,0-.83-1.67,14.76,14.76,0,0,0,.09,1.75h-2.91a13.13,13.13,0,0,0,.1-1.77c-1.57.3-2.07.38-5,.8a4.59,4.59,0,0,0-.82.17l-.57-2.78a2.34,2.34,0,0,0,.38,0c.21,0,.53,0,1.4-.08v-5.4c-.73,0-1.14,0-1.67.09v-2.33a18.16,18.16,0,0,0,2.21.1H829a17.51,17.51,0,0,0,2.17-.1v2.33a16.57,16.57,0,0,0-2.23-.09h-6.36V270a10,10,0,0,0,1.65-.78,11.05,11.05,0,0,1-1.33-1.86l2-.8h-.34a9.62,9.62,0,0,0-1.52.08V264.2a10.66,10.66,0,0,0,1.6.08h3.29a8.16,8.16,0,0,0,1.4-.08l1.35,1.47a6.3,6.3,0,0,0-.46.85,13.47,13.47,0,0,1-1.88,2.68,13,13,0,0,0,3.1.86,10.48,10.48,0,0,0-1.23,2.7,15.27,15.27,0,0,1-3.88-1.76Zm-8.36-2.12,1.94-.23v-.59h-1.94Zm8.25-1.07a6.23,6.23,0,0,0,1-1.25h-2a5.9,5.9,0,0,0,1,1.25Zm-8.25-1.29h1.94v-.66h-1.94Zm0-2.2h1.94v-.61h-1.94ZM912,270.19a9.44,9.44,0,0,0,2.79-1.79,7.14,7.14,0,0,0,1.65-2.41,14.36,14.36,0,0,0-3.34-1.09,24.18,24.18,0,0,1-2,4.7,3.38,3.38,0,0,1-2.9,1.82,3.44,3.44,0,0,1-2.47-1.08,4.32,4.32,0,0,1-1.16-3.12,5.24,5.24,0,0,1,2.45-4.48,7.19,7.19,0,0,1,3.76-1c.34-1.12.63-2.09.89-3.17-.83.08-1.88.13-3.15.19a11.81,11.81,0,0,0-1.46.11l-.14-3a11.71,11.71,0,0,0,2,.1c1.31,0,2.63-.06,3.93-.19a1.91,1.91,0,0,0,.78-.23l2.05,1.75a3.22,3.22,0,0,0-.45.91c-.17.42-1,2.83-1.26,3.85a16.36,16.36,0,0,1,3.25.93,18,18,0,0,0,.15-3.11,6.65,6.65,0,0,0-.07-1.09l3.3.12a6.48,6.48,0,0,0-.13,1.39,32.39,32.39,0,0,1-.34,3.93c1.31.66,1.31.66,2,1a3.73,3.73,0,0,0,.64.3l-1.1,3.55a13,13,0,0,0-2.35-1.6,10.38,10.38,0,0,1-4.92,5.22,12.11,12.11,0,0,0-2.38-2.47Zm-3.92-4.52a2.22,2.22,0,0,0-.53,1.44c0,.59.29,1,.65,1s.93-1,1.78-3.52a2.72,2.72,0,0,0-1.89,1Zm-36.27,6.91v-.95h-7.9v.95h-3.14a25.69,25.69,0,0,0,.12-2.6V257.67c0-.7,0-1.39-.1-2.16.62.05,1.31.09,2.18.09h9.9a18.69,18.69,0,0,0,2.12-.09c-.06.81-.1,1.51-.1,2.14V270a25,25,0,0,0,.11,2.6Zm-7.9-3.8h7.9v-4h-7.9Zm0-6.69h7.9v-3.68h-7.9ZM701.41,272.41v-2.05h-17v2.05H677.6c.16-1.68.24-3.57.24-5.62V240.22c0-1.51-.08-3-.2-4.67,1.35.12,2.82.2,4.71.2h21.36a36.38,36.38,0,0,0,4.55-.2c-.12,1.76-.2,3.28-.2,4.63v26.61a52.71,52.71,0,0,0,.24,5.62Zm-17-8.2h17.06v-8.57H684.36Zm0-14.44h17.06v-8H684.36ZM533.72,272.41v-2.05H516.67v2.05h-6.76c.16-1.68.24-3.57.24-5.62V240.22c0-1.51-.08-3-.2-4.67,1.35.12,2.83.2,4.71.2H536a36.62,36.62,0,0,0,4.56-.2c-.13,1.76-.21,3.28-.21,4.63v26.61a55.48,55.48,0,0,0,.25,5.62Zm-17.05-8.2h17.05v-8.57H516.67Zm0-14.44h17.05v-8H516.67Zm-140.6,22.64v-2.05H359v2.05h-6.76c.16-1.68.25-3.57.25-5.62V240.22c0-1.52-.09-3-.21-4.67,1.35.12,2.83.2,4.72.2h21.36a36.38,36.38,0,0,0,4.55-.2c-.13,1.76-.21,3.28-.21,4.63v26.61a55.61,55.61,0,0,0,.25,5.62ZM359,264.21h17.06v-8.57H359Zm0-14.44h17.06v-8H359ZM1091.81,272a3.41,3.41,0,0,1-1.57-1.07,4.79,4.79,0,0,1-.83-1.54,9.52,9.52,0,0,1-.25-2.55V261a11.28,11.28,0,0,1,.4-3.42,3.44,3.44,0,0,1,1.57-1.83,5.56,5.56,0,0,1,2.85-.68,5.83,5.83,0,0,1,2.44.47,4.06,4.06,0,0,1,1.61,1.17,3.81,3.81,0,0,1,.72,1.55,13.93,13.93,0,0,1,.19,2.74v5.54a13.36,13.36,0,0,1-.2,2.75,3.8,3.8,0,0,1-.85,1.61,3.65,3.65,0,0,1-1.56,1.07,5.93,5.93,0,0,1-2,.33,7.64,7.64,0,0,1-2.47-.34Zm1.65-14a5.05,5.05,0,0,0-.15,1.64v8.1a5.67,5.67,0,0,0,.14,1.74.72.72,0,0,0,1,.16.8.8,0,0,0,.2-.21,5.51,5.51,0,0,0,.14-1.57v-8.22a6.14,6.14,0,0,0-.13-1.66.56.56,0,0,0-.6-.33.59.59,0,0,0-.59.35Zm-16.61,14a3.35,3.35,0,0,1-1.57-1.07,4.61,4.61,0,0,1-.83-1.54,9.52,9.52,0,0,1-.25-2.55V261a11.28,11.28,0,0,1,.4-3.42,3.4,3.4,0,0,1,1.57-1.83,5.54,5.54,0,0,1,2.85-.68,5.83,5.83,0,0,1,2.44.47,4.06,4.06,0,0,1,1.61,1.17,3.81,3.81,0,0,1,.72,1.55A13.93,13.93,0,0,1,1084,261v5.54a12.7,12.7,0,0,1-.21,2.75,3.84,3.84,0,0,1-.84,1.61,3.65,3.65,0,0,1-1.56,1.07,6,6,0,0,1-2,.33,7.62,7.62,0,0,1-2.46-.34Zm1.65-14a5.35,5.35,0,0,0-.16,1.64v8.1a6.37,6.37,0,0,0,.14,1.74.61.61,0,0,0,.6.3.58.58,0,0,0,.61-.35,5.51,5.51,0,0,0,.14-1.57v-8.22a6.18,6.18,0,0,0-.13-1.66.56.56,0,0,0-.6-.33.59.59,0,0,0-.59.35Zm-34.38,13.77a3.34,3.34,0,0,1-1.73-1.66,8.71,8.71,0,0,1-.52-3.43v-.9H1046v1a16,16,0,0,0,.12,2.29.71.71,0,0,0,.76.67h0a.65.65,0,0,0,.49-.19.68.68,0,0,0,.21-.42c0-.15,0-.8,0-2v-3.29a2.8,2.8,0,0,0-.19-1.28.69.69,0,0,0-.65-.33.66.66,0,0,0-.48.17.82.82,0,0,0-.25.38,4.74,4.74,0,0,0-.06.93h-4.1l.18-8.37H1051v2.65h-5.14v2.82a3.11,3.11,0,0,1,2.49-1.13,3.33,3.33,0,0,1,2.58.95c.59.64.88,1.87.88,3.69v2.37a14.1,14.1,0,0,1-.17,2.59,3.66,3.66,0,0,1-.72,1.53,3.5,3.5,0,0,1-1.55,1.07,6.8,6.8,0,0,1-2.41.38,6.68,6.68,0,0,1-2.82-.57Zm-40.93.22a3.38,3.38,0,0,1-1.56-1.07,4.43,4.43,0,0,1-.83-1.54,9.13,9.13,0,0,1-.25-2.55V261a11,11,0,0,1,.4-3.42,3.4,3.4,0,0,1,1.57-1.83,5.52,5.52,0,0,1,2.84-.68,5.83,5.83,0,0,1,2.44.47,4,4,0,0,1,1.61,1.17,3.7,3.7,0,0,1,.73,1.55,14.74,14.74,0,0,1,.19,2.74v5.54a12.7,12.7,0,0,1-.21,2.75,3.86,3.86,0,0,1-.85,1.61,3.59,3.59,0,0,1-1.56,1.07,5.93,5.93,0,0,1-2,.33,7.58,7.58,0,0,1-2.46-.34Zm1.65-14a5.67,5.67,0,0,0-.15,1.64v8.1a6.37,6.37,0,0,0,.14,1.74.61.61,0,0,0,.6.3.59.59,0,0,0,.61-.35,5.51,5.51,0,0,0,.14-1.57v-8.22a6.18,6.18,0,0,0-.13-1.66.56.56,0,0,0-.6-.33.62.62,0,0,0-.6.35Zm-16.61,14a3.33,3.33,0,0,1-1.56-1.07,4.43,4.43,0,0,1-.83-1.54,9.13,9.13,0,0,1-.25-2.55V261a11,11,0,0,1,.4-3.42,3.4,3.4,0,0,1,1.57-1.83,5.52,5.52,0,0,1,2.84-.68,5.83,5.83,0,0,1,2.44.47,4,4,0,0,1,1.61,1.17,3.56,3.56,0,0,1,.72,1.55,13.21,13.21,0,0,1,.19,2.74v5.54a12.7,12.7,0,0,1-.2,2.75,3.8,3.8,0,0,1-.85,1.61,3.59,3.59,0,0,1-1.56,1.07,5.93,5.93,0,0,1-2,.33,7.58,7.58,0,0,1-2.46-.34Zm1.65-14a5.67,5.67,0,0,0-.15,1.64v8.1a6,6,0,0,0,.14,1.74.61.61,0,0,0,.6.3.59.59,0,0,0,.61-.35,5.51,5.51,0,0,0,.14-1.57v-8.22a6.18,6.18,0,0,0-.13-1.66.56.56,0,0,0-.6-.33.62.62,0,0,0-.6.35ZM956,272a3.35,3.35,0,0,1-1.57-1.07,4.61,4.61,0,0,1-.83-1.54,9.52,9.52,0,0,1-.25-2.55V261a11.28,11.28,0,0,1,.4-3.42,3.4,3.4,0,0,1,1.57-1.83,5.56,5.56,0,0,1,2.85-.68,5.83,5.83,0,0,1,2.44.47,4.13,4.13,0,0,1,1.61,1.17,3.81,3.81,0,0,1,.72,1.55,13.93,13.93,0,0,1,.19,2.74v5.54a13.36,13.36,0,0,1-.2,2.75,3.88,3.88,0,0,1-.86,1.61A3.56,3.56,0,0,1,960.5,272a6,6,0,0,1-2,.33A7.62,7.62,0,0,1,956,272Zm1.65-14a5.35,5.35,0,0,0-.16,1.64v8.1a6.37,6.37,0,0,0,.14,1.74.61.61,0,0,0,.6.3.58.58,0,0,0,.61-.35,5.17,5.17,0,0,0,.14-1.57v-8.22a6.18,6.18,0,0,0-.13-1.66.56.56,0,0,0-.6-.33.6.6,0,0,0-.6.35Zm-68,11a9.88,9.88,0,0,0,4-1,4.71,4.71,0,0,0,2.28-4.41,4.47,4.47,0,0,0-1.67-3.74,3.17,3.17,0,0,0-1.6-.67,26.75,26.75,0,0,1-2.09,8c-1.1,2.44-2.38,3.5-4.1,3.5-2.55,0-4.33-2.43-4.33-5.91a8.39,8.39,0,0,1,2.18-5.79,9,9,0,0,1,6.88-2.79,8.46,8.46,0,0,1,6.19,2.33,7.58,7.58,0,0,1,1.86,5.29,8.13,8.13,0,0,1-2.52,6.13c-1.3,1.16-2.8,1.77-5.46,2.19a9.16,9.16,0,0,0-1.6-3.12Zm-2.36-8.78a6.16,6.16,0,0,0-2.07,4.52c0,1.35.52,2.41,1.18,2.41.48,0,1-.66,1.54-2.11a24,24,0,0,0,1.42-5.79,3.87,3.87,0,0,0-2.06,1ZM1032.48,272v-8.9a15,15,0,0,0-.09-2.32.85.85,0,0,0-.51-.58,5,5,0,0,0-1.85-.2h-.41v-1.94a7.54,7.54,0,0,0,4.56-2.66h2.44V272Zm-88.6,0v-8.9a15,15,0,0,0-.09-2.32.85.85,0,0,0-.51-.58,5,5,0,0,0-1.85-.2H941v-1.94a7.53,7.53,0,0,0,4.57-2.66H948V272Zm-107.79-1.21a16.45,16.45,0,0,0,.56-5.09l2,.25a24.24,24.24,0,0,1-.57,6Zm-42.43-6.17-6.93,7.18-.72-.69,7-7.21-7-7.2.72-.69,6.93,7.18L800.6,256l.72.69-7,7.2,7,7.21-.72.69ZM792,269.5a1.5,1.5,0,1,1,1.5,1.5,1.5,1.5,0,0,1-1.5-1.5ZM842,266l1.73-.33c.3,2.34.3,2.34.48,4.83l-2,.34A43.46,43.46,0,0,0,842,266Zm218.89,4.44v-4.24h4.24v4.24Zm-88.61,0v-4.24h4.24v4.24Zm-655.15-1.52a13,13,0,0,1-6-4.09A17.35,17.35,0,0,1,308,259a36.29,36.29,0,0,1-.94-9.74V227.17q0-8.71,1.5-13a12.85,12.85,0,0,1,6-7,21,21,0,0,1,10.84-2.62,22.7,22.7,0,0,1,9.3,1.82,15.46,15.46,0,0,1,6.13,4.43,14.69,14.69,0,0,1,2.76,5.9,54,54,0,0,1,.72,10.47v21.09a49.63,49.63,0,0,1-.78,10.47,14.48,14.48,0,0,1-3.24,6.13,13.94,13.94,0,0,1-5.94,4.1,22.61,22.61,0,0,1-7.78,1.25,28.9,28.9,0,0,1-9.41-1.3Zm6.27-53.29q-.57,1.35-.57,6.23v30.86c0,3.67.18,5.89.53,6.64a2.75,2.75,0,0,0,4.58-.19q.56-1.34.55-6V221.85q0-5-.49-6.31a2.15,2.15,0,0,0-2.28-1.26,2.26,2.26,0,0,0-2.32,1.34ZM51,268.91a13,13,0,0,1-6-4.09A17.35,17.35,0,0,1,41.81,259a36.29,36.29,0,0,1-.94-9.74V227.17q0-8.71,1.51-13a12.83,12.83,0,0,1,6-7,21,21,0,0,1,10.84-2.62,22.7,22.7,0,0,1,9.3,1.82,15.46,15.46,0,0,1,6.13,4.43,14.69,14.69,0,0,1,2.76,5.9,54,54,0,0,1,.72,10.47v21.09a49.63,49.63,0,0,1-.78,10.47,14.48,14.48,0,0,1-3.24,6.13,13.94,13.94,0,0,1-5.94,4.1,22.61,22.61,0,0,1-7.78,1.25,28.9,28.9,0,0,1-9.41-1.3Zm6.27-53.29q-.57,1.35-.57,6.23v30.86c0,3.67.18,5.89.53,6.64a2.75,2.75,0,0,0,4.59-.19q.54-1.34.54-6V221.85q0-5-.49-6.31a2.15,2.15,0,0,0-2.28-1.26,2.27,2.27,0,0,0-2.32,1.34ZM634.38,269v-9q15.43-25.23,18.34-31.23t2.91-9.36a6.77,6.77,0,0,0-.88-3.84,3,3,0,0,0-2.68-1.27,2.92,2.92,0,0,0-2.67,1.4q-.89,1.41-.88,5.58v6H634.38V225a50.08,50.08,0,0,1,.55-8.38,14.63,14.63,0,0,1,2.7-6,13.34,13.34,0,0,1,5.59-4.49,20.22,20.22,0,0,1,8.24-1.53q9.4,0,14.23,4.67A15.73,15.73,0,0,1,670.52,221a28,28,0,0,1-2.72,11.47q-2.71,6.06-16,25.71h17.31V269Zm-21.21,0V235.1a60.55,60.55,0,0,0-.35-8.83,3.3,3.3,0,0,0-1.94-2.25q-1.57-.77-7-.76h-1.56v-7.38q11.44-2.46,17.38-10.12H629V269Zm-127.53,0V235.1a59.19,59.19,0,0,0-.36-8.83,3.3,3.3,0,0,0-1.93-2.25q-1.59-.77-7.05-.76h-1.56v-7.38q11.44-2.46,17.38-10.12h9.3V269Zm-30.47,0V235.1a60.55,60.55,0,0,0-.35-8.83,3.32,3.32,0,0,0-1.94-2.25q-1.58-.77-7.05-.76h-1.56v-7.38q11.44-2.46,17.38-10.12H471V269ZM285.1,269V235.1a60.55,60.55,0,0,0-.35-8.83,3.34,3.34,0,0,0-1.94-2.25c-1.05-.51-3.41-.76-7.05-.76H274.2v-7.38q11.44-2.46,17.38-10.12h9.3V269Zm-90.42,0v-9q15.44-25.23,18.34-31.23t2.91-9.36a6.77,6.77,0,0,0-.88-3.84,3,3,0,0,0-2.67-1.27,2.93,2.93,0,0,0-2.68,1.4c-.58.94-.88,2.8-.88,5.58v6H194.68V225a50.08,50.08,0,0,1,.55-8.38,14.63,14.63,0,0,1,2.7-6,13.37,13.37,0,0,1,5.58-4.49,20.25,20.25,0,0,1,8.24-1.53q9.42,0,14.24,4.67A15.73,15.73,0,0,1,230.82,221a28.19,28.19,0,0,1-2.72,11.48q-2.72,6.06-16,25.7h17.31V269Zm-62.21,0V235.1a60.55,60.55,0,0,0-.35-8.83,3.3,3.3,0,0,0-1.93-2.25q-1.59-.77-7-.76h-1.57v-7.38Q133,213.42,139,205.76h9.3V269Zm-49.41,0v-9q15.42-25.23,18.34-31.23t2.91-9.36a6.85,6.85,0,0,0-.88-3.84,3,3,0,0,0-2.68-1.27,2.92,2.92,0,0,0-2.67,1.4q-.89,1.41-.88,5.58v6H83.06V225a50.07,50.07,0,0,1,.54-8.38,14.77,14.77,0,0,1,2.7-6,13.46,13.46,0,0,1,5.59-4.49,20.25,20.25,0,0,1,8.24-1.53q9.42,0,14.24,4.67A15.76,15.76,0,0,1,119.19,221a28,28,0,0,1-2.71,11.48q-2.72,6.06-16,25.7h17.3V269ZM0,269v-9q15.44-25.23,18.34-31.23t2.91-9.36a6.77,6.77,0,0,0-.88-3.84,3,3,0,0,0-2.68-1.27,2.92,2.92,0,0,0-2.67,1.4q-.88,1.41-.88,5.58v6H0V225a51.15,51.15,0,0,1,.54-8.38,14.77,14.77,0,0,1,2.7-6,13.46,13.46,0,0,1,5.59-4.49,20.25,20.25,0,0,1,8.24-1.53q9.42,0,14.24,4.67A15.72,15.72,0,0,1,36.14,221a28,28,0,0,1-2.71,11.48q-2.71,6.06-16,25.7H34.74V269Zm1015.36-6.22a4.52,4.52,0,0,1,3-1.32,6.26,6.26,0,0,1,2.38.72,5,5,0,0,0,1.73.59,2.34,2.34,0,0,0,1-.28,9.8,9.8,0,0,0,1.77-1.38v2.82a4.76,4.76,0,0,1-2.91,1.35,7,7,0,0,1-2.62-.84,3.81,3.81,0,0,0-1.46-.48,4.83,4.83,0,0,0-2.86,1.65ZM798,263.5a1.5,1.5,0,1,1,1.5,1.5,1.5,1.5,0,0,1-1.5-1.5Zm-12,0a1.5,1.5,0,1,1,1.5,1.5,1.5,1.5,0,0,1-1.5-1.5Zm274.84-1.64v-4.24h4.24v4.24Zm-88.62,0v-4.24h4.25v4.24Zm-156.8-2.54v-2.26a13.33,13.33,0,0,0-.07-1.79,18.92,18.92,0,0,0,2,.08h10a18.92,18.92,0,0,0,2-.08,13.33,13.33,0,0,0-.07,1.79v2.26a12.81,12.81,0,0,0,.07,1.75l-1.56,0H817.25c-.87,0-1.33,0-1.88.05a14.88,14.88,0,0,0,.08-1.77Zm2.78.17h8.28v-.55h-8.28Zm0-1.9h8.28V257h-8.28ZM792,257.5a1.5,1.5,0,1,1,1.5,1.5,1.5,1.5,0,0,1-1.5-1.5Zm262.2-19.15a6.17,6.17,0,0,1-2.88-3.16,21,21,0,0,1-.7-6.5v-2.56h8.09v5.26a8.57,8.57,0,0,0,.25,2.67,1.07,1.07,0,0,0,1.11.57,1.22,1.22,0,0,0,1.25-.71,14.07,14.07,0,0,0,.3-3.77v-2.24a6.61,6.61,0,0,0-.42-2.72,2.1,2.1,0,0,0-1.25-1.14,13.05,13.05,0,0,0-3.18-.31V219a17.09,17.09,0,0,0,3.57-.22,1.58,1.58,0,0,0,1-1,7,7,0,0,0,.3-2.32v-1.8a4.68,4.68,0,0,0-.35-2.25,1.41,1.41,0,0,0-2-.24,1.33,1.33,0,0,0-.26.27,6.11,6.11,0,0,0-.32,2.44v2.66h-8.08v-2.76c0-3.1.7-5.19,2.12-6.28s3.66-1.63,6.75-1.63c3.85,0,6.47.75,7.84,2.26a9,9,0,0,1,2.06,6.29,7.72,7.72,0,0,1-.74,3.93,6.55,6.55,0,0,1-2.6,2.21,5,5,0,0,1,2.74,2c.6,1,.9,3.15.9,6.62a16.11,16.11,0,0,1-.88,6,6.24,6.24,0,0,1-3,3.24,12.16,12.16,0,0,1-5.55,1.11,11.93,11.93,0,0,1-6-1.29Zm-240.7,0a6.25,6.25,0,0,1-2.88-3.16,21,21,0,0,1-.69-6.5v-2.56H818v5.26a8.28,8.28,0,0,0,.25,2.67,1.07,1.07,0,0,0,1.11.57,1.2,1.2,0,0,0,1.24-.71,13.29,13.29,0,0,0,.3-3.77v-2.24a6.61,6.61,0,0,0-.42-2.72,2.11,2.11,0,0,0-1.24-1.14,13.18,13.18,0,0,0-3.19-.31V219a17.05,17.05,0,0,0,3.57-.22,1.56,1.56,0,0,0,1-1,6.53,6.53,0,0,0,.3-2.32v-1.8a4.68,4.68,0,0,0-.35-2.25,1.22,1.22,0,0,0-1.09-.54,1.2,1.2,0,0,0-1.16.57A6.31,6.31,0,0,0,818,214v2.66h-8.09v-2.76q0-4.65,2.13-6.28T818.8,206q5.79,0,7.85,2.26a9,9,0,0,1,2.06,6.29,7.85,7.85,0,0,1-.74,3.93,6.55,6.55,0,0,1-2.6,2.21,5.07,5.07,0,0,1,2.75,2c.6,1,.9,3.15.9,6.62a16.32,16.32,0,0,1-.89,6,6.24,6.24,0,0,1-3,3.24,12.14,12.14,0,0,1-5.54,1.11,11.89,11.89,0,0,1-6-1.29Zm271.5.6a6.63,6.63,0,0,1-3.06-2.09,8.83,8.83,0,0,1-1.62-3,18.26,18.26,0,0,1-.48-5V217.55a21.83,21.83,0,0,1,.77-6.68,6.63,6.63,0,0,1,3.06-3.57,10.89,10.89,0,0,1,5.56-1.34,11.82,11.82,0,0,1,4.76.93,7.91,7.91,0,0,1,3.14,2.28,7.42,7.42,0,0,1,1.41,3,27.52,27.52,0,0,1,.38,5.36v10.81a26.11,26.11,0,0,1-.4,5.37,7.36,7.36,0,0,1-1.67,3.14,7.07,7.07,0,0,1-3,2.1,11.74,11.74,0,0,1-4,.65A14.87,14.87,0,0,1,1085,239Zm3.22-27.31a10.45,10.45,0,0,0-.29,3.2v15.81a11.76,11.76,0,0,0,.26,3.4,1.15,1.15,0,0,0,1.17.58,1.13,1.13,0,0,0,1.19-.68,10.16,10.16,0,0,0,.28-3.06V214.83a12.52,12.52,0,0,0-.25-3.23,1.11,1.11,0,0,0-1.17-.65,1.17,1.17,0,0,0-1.19.69ZM993.06,239a6.63,6.63,0,0,1-3.06-2.09,8.83,8.83,0,0,1-1.62-3,18.26,18.26,0,0,1-.48-5V217.55a21.83,21.83,0,0,1,.77-6.68,6.63,6.63,0,0,1,3.06-3.57,10.89,10.89,0,0,1,5.56-1.34,11.78,11.78,0,0,1,4.76.93,7.91,7.91,0,0,1,3.14,2.28,7.44,7.44,0,0,1,1.42,3,28.32,28.32,0,0,1,.37,5.36v10.81a26.11,26.11,0,0,1-.4,5.37,7.34,7.34,0,0,1-1.66,3.14,7.17,7.17,0,0,1-3,2.1,11.74,11.74,0,0,1-4,.65,14.87,14.87,0,0,1-4.82-.67Zm3.22-27.31a10.45,10.45,0,0,0-.29,3.2v15.81a11.43,11.43,0,0,0,.27,3.4,1.41,1.41,0,0,0,2.35-.1,10.16,10.16,0,0,0,.28-3.06V214.83a12.09,12.09,0,0,0-.25-3.23,1.11,1.11,0,0,0-1.17-.65,1.17,1.17,0,0,0-1.19.69ZM907.3,239a6.63,6.63,0,0,1-3.06-2.09,9,9,0,0,1-1.63-3,19.08,19.08,0,0,1-.48-5V217.55a21.53,21.53,0,0,1,.78-6.68A6.59,6.59,0,0,1,906,207.3a10.89,10.89,0,0,1,5.56-1.34,11.82,11.82,0,0,1,4.76.93,7.91,7.91,0,0,1,3.14,2.28,7.42,7.42,0,0,1,1.41,3,26.76,26.76,0,0,1,.37,5.36v10.81a24.78,24.78,0,0,1-.4,5.37,7.34,7.34,0,0,1-1.66,3.14,7.07,7.07,0,0,1-3,2.1,11.74,11.74,0,0,1-4,.65,14.89,14.89,0,0,1-4.83-.67Zm3.21-27.31a10.77,10.77,0,0,0-.29,3.2v15.81a12.13,12.13,0,0,0,.27,3.4,1.42,1.42,0,0,0,2,.31,1.49,1.49,0,0,0,.38-.41,10.16,10.16,0,0,0,.27-3.06V214.83a11.69,11.69,0,0,0-.25-3.23,1.09,1.09,0,0,0-1.17-.65,1.19,1.19,0,0,0-1.19.69ZM878.09,239a6.63,6.63,0,0,1-3.06-2.09,8.83,8.83,0,0,1-1.62-3,18.67,18.67,0,0,1-.49-5V217.55a21.53,21.53,0,0,1,.78-6.68,6.63,6.63,0,0,1,3.06-3.57,10.89,10.89,0,0,1,5.56-1.34,11.78,11.78,0,0,1,4.76.93,7.91,7.91,0,0,1,3.14,2.28,7.42,7.42,0,0,1,1.41,3,26.76,26.76,0,0,1,.37,5.36v10.81a24.78,24.78,0,0,1-.4,5.37,7.43,7.43,0,0,1-1.65,3.14,7.17,7.17,0,0,1-3.05,2.1,11.74,11.74,0,0,1-4,.65,14.83,14.83,0,0,1-4.82-.67Zm3.22-27.31a10.45,10.45,0,0,0-.29,3.2v15.81a11.76,11.76,0,0,0,.26,3.4,1.42,1.42,0,0,0,2.36-.1,10.16,10.16,0,0,0,.28-3.06V214.83a12.52,12.52,0,0,0-.25-3.23,1.11,1.11,0,0,0-1.17-.65,1.17,1.17,0,0,0-1.19.69ZM959.73,239v-4.63q7.9-12.93,9.4-16a12.13,12.13,0,0,0,1.49-4.79,3.51,3.51,0,0,0-.45-2,1.56,1.56,0,0,0-1.37-.65,1.51,1.51,0,0,0-1.37.72,6,6,0,0,0-.45,2.87v3.08h-7.25v-1.18a25.76,25.76,0,0,1,.29-4.3,7.51,7.51,0,0,1,1.38-3.09,6.9,6.9,0,0,1,2.86-2.3,10.38,10.38,0,0,1,4.22-.79c3.22,0,5.66.8,7.3,2.4a8,8,0,0,1,2.48,6,14.62,14.62,0,0,1-1.39,5.89q-1.39,3.1-8.2,13.17h8.87V239Zm-168,0V221.62a31,31,0,0,0-.18-4.52,1.66,1.66,0,0,0-1-1.15,10,10,0,0,0-3.61-.39h-.8v-3.79a14.7,14.7,0,0,0,8.91-5.18h4.76V239Zm233.07-3.08v-8.28h8.29v8.28Zm-177.95,0v-8.28h8.28v8.28ZM931.05,221a8.94,8.94,0,0,1,5.78-2.56,11.9,11.9,0,0,1,4.65,1.4,9.4,9.4,0,0,0,3.38,1.14,4.39,4.39,0,0,0,2-.53,20.86,20.86,0,0,0,3.46-2.69v5.5q-3.16,2.63-5.69,2.63a13.61,13.61,0,0,1-5.12-1.64,7.81,7.81,0,0,0-2.85-.95c-1.45,0-3.31,1.09-5.58,3.25Zm93.75-1.78v-8.29h8.29v8.29Zm-177.95,0v-8.29h8.28v8.29Zm148.9-66.4a52.65,52.65,0,0,0,6.9-18.54c1.85-9.57,2.68-24.51,2.68-47.17,0-9.78-.1-12-.72-16.58a134.68,134.68,0,0,0,14.62.62h58.3a114.79,114.79,0,0,0,13-.52,92.64,92.64,0,0,0-.41,10.4v8.86a90,90,0,0,0,.41,10.51c-3-.21-7.52-.31-12.36-.31h-3.4v4.32h3.4c6.59,0,7.93,0,10.4-.31V117q-4.93-.31-10.82-.31h-3v4.63h6.18a104.81,104.81,0,0,0,12.15-.41v13.5c-3.4-.31-6.9-.42-11.74-.42h-3.19l10.09,4.12c-1.13,1-1.13,1-5.66,5.36-1.86,1.85-2.68,2.57-3.71,3.5a73.09,73.09,0,0,0,16.58,3.81,67,67,0,0,0-7.62,15.14c-13.8-3.81-21.84-7.72-30.07-14.63V159c-10,2-13.4,2.57-27.92,4.64-8,1.23-10.09,1.54-12.88,2.16l-1.75-14.42a70.59,70.59,0,0,1-6.48,14.83,61.7,61.7,0,0,0-13-13.38Zm19.88-2.78c.92.11,2.47.11,3.29.11,1.14,0,4.12-.11,7-.31V134h-7.1a94.85,94.85,0,0,1-3.2,16.07Zm25.64-1.75c4.84-.51,7.83-.92,11.75-1.54a42.17,42.17,0,0,1-8-12.77h-3.71Zm25.24-8.13a31.18,31.18,0,0,0,6.07-6.18h-11.73a22,22,0,0,0,5.66,6.18Zm-18.85-18.85h12v-4.64h-12Zm-27.7,0h12.66v-4.64h-1.54c-3.81,0-5.87.1-8.34.31V104.09c2.37.2,4.74.3,8.44.3h1.44v-4.32h-11.94c-.11,10.3-.31,14.22-.72,21.22Zm27.7-16.9h12v-4.32h-12Zm-27-15.86H1075V84h-54.27ZM602.39,154.76a42.24,42.24,0,0,0,6.59-9.37L604,146.73a119.94,119.94,0,0,0-2-18l8.65-1.95c.83,4.53,1.34,8,1.65,11.12a102.1,102.1,0,0,0,4-16.07l-9.27,3.71c-.21-1.55-.21-1.55-.52-3.09l-6.38.51V154a64.24,64.24,0,0,0,.61,11.43H585.7a66.18,66.18,0,0,0,.62-11.43V124c-5.87.42-6.9.42-9.27.62a19.6,19.6,0,0,0-4.64.52L571,110.47a45.78,45.78,0,0,0,6.08.31h3.5c1.13-1.55,1.23-1.75,2.47-3.5a118,118,0,0,0-13-15.35l6.59-13,3.2,3.4a75.34,75.34,0,0,0,6.49-15.15l13.5,5c-1.24,2-1.24,2-4.84,9a117,117,0,0,1-6.49,11c1.34,1.54,1.64,2.06,2.36,3,6.39-10.61,7.94-13.5,9.48-17.41l9.58,5.36V70.92a103.48,103.48,0,0,0,13.29.62h28.42a83.62,83.62,0,0,0,9.89-.41c-.72,3-.72,3-2.06,10.09-1,5.15-2.57,12-3.6,15.66h1.86a35.49,35.49,0,0,0,5.25-.31l5.35,5.66c-.51,2.37-.51,2.37-1.13,5.46-.92,5.25-3.5,15.76-4.74,19.88a74.94,74.94,0,0,1-5.66,12.88,74.13,74.13,0,0,0,12.57,9.27,76.52,76.52,0,0,0-8,15.86,72,72,0,0,1-14.21-12.26c-5.05,5.05-9.37,8.24-16.89,12.57-3-5.67-4.74-8.45-8.24-12.36a64.69,64.69,0,0,1-7.52,12.56c-3.71-4.73-6.29-7.1-12.06-11.32Zm20.8-4.12a52.5,52.5,0,0,0,14.22-10,69.13,69.13,0,0,1-7.21-14.73,102.83,102.83,0,0,1-7,24.73Zm14.94-39.45A74.23,74.23,0,0,0,646.27,128c2.57-5.35,3.6-9.06,5.05-16.89h-9.58a31,31,0,0,0-3.61.11Zm-21.22,7.11c1.45-10.4,2-18.44,2.06-32.65h-1.55a57.81,57.81,0,0,0-6.17.31c-1.24,1.85-1.24,1.85-4.85,7.52-3.08,4.73-3.5,5.35-5.56,8.44l9.27-3.81a132,132,0,0,1,6.8,20.19Zm-22.25-7.83c4.43-.2,5.67-.31,8.66-.51a49.24,49.24,0,0,0-2.89-7.52c-3.09,4.43-3.91,5.56-5.76,8Zm43-.72a214.26,214.26,0,0,0,5.87-24.1H632.78c1.64,12.36,2.57,16.69,4.84,24.1Zm-454.44,56a60,60,0,0,0,.72-10.2V152.5c0-2.58,0-2.89.1-5.77a59.74,59.74,0,0,1-13.91,10.4,92.86,92.86,0,0,1-19.15,7.93,52.07,52.07,0,0,0-8.35-14c13.7-2.37,23.18-6,30.49-11.53H158.66a128,128,0,0,0-13.28.61v-13a113.79,113.79,0,0,0,13.18.61h25.13v-3.19h-20.6a90.11,90.11,0,0,0-10,.41V114.07a87.75,87.75,0,0,0,10,.42h20.6v-3.2H158.77a92.68,92.68,0,0,0-10,.41V99.86a85.58,85.58,0,0,0,10,.41h10.3a46.5,46.5,0,0,0-2.58-5h-9.06c-5,0-9.27.21-12.77.52V82.14a82.27,82.27,0,0,0,11.53.62,37.63,37.63,0,0,0-5.56-8.24l14.62-4.94a94.35,94.35,0,0,1,6.8,13.18h3v-6.7a49.62,49.62,0,0,0-.52-7.41H190a57.5,57.5,0,0,0-.3,6.69v7.42h4.22V75.34a40.48,40.48,0,0,0-.41-6.69h15.45a47.16,47.16,0,0,0-.42,7.41v6.7h3.09a63.58,63.58,0,0,0,6.6-13.29l14.62,5c-2.06,3.6-3.3,5.56-5.15,8.24a82.34,82.34,0,0,0,11.85-.62v13.7c-3.5-.31-7.93-.52-12.88-.52h-8.55c-1.23,2.68-1.54,3.1-2.47,5h9.68a92.1,92.1,0,0,0,10.1-.41V111.7a94.65,94.65,0,0,0-10.1-.41H199v3.2H221a94.66,94.66,0,0,0,10.1-.42V125a94.65,94.65,0,0,0-10.1-.41H199v3.19h26.78a101.93,101.93,0,0,0,13.19-.61v13a129.84,129.84,0,0,0-13.08-.61H210.06c7,5.25,17,8.75,31.32,10.91a59.08,59.08,0,0,0-7.73,14.63c-15.45-4.32-26.16-10-34.92-18.54a57.57,57.57,0,0,1,.32,5.87v3.3a68.22,68.22,0,0,0,.51,10.1Zm1.65-65.5H199c1-2.17,1.34-2.89,2.16-5H182.87a45.88,45.88,0,0,1,2,5Zm551.05,65.3a65.27,65.27,0,0,0,.51-10.82V132.82h-5.15v17.31c0,3.91.1,6.49.31,9.16H716.62a56.77,56.77,0,0,0,.51-9.58V128.19a84.62,84.62,0,0,0-.41-9.68,91.47,91.47,0,0,0,10.2.42h9.48v-5.15H725.68a111.85,111.85,0,0,0-11.43.41v-15a70.36,70.36,0,0,0,9.06.41H725c-5-2.68-7.93-4.12-12.67-6.28a59.69,59.69,0,0,0,6.49-18.75,30,30,0,0,0,.52-4.74l14,2.38c-.11.51-.11.61-.21,1.33l-.52,2.89c-.1.41-.1.51-.61,3.6h4.43V78.24a56.7,56.7,0,0,0-.52-9.48h15.34a51.34,51.34,0,0,0-.51,9.27v2h7.62a65.62,65.62,0,0,0,10.1-.52V94.62a94.66,94.66,0,0,0-10.1-.42h-7.62v5.36h10a80.9,80.9,0,0,0,9.47-.41v15a79.26,79.26,0,0,0-10-.42h-9.47v5.15H760c5,0,6.8-.1,9.58-.3a76.91,76.91,0,0,0-.31,8.85v20.81c0,8.13-2.27,10.2-11.33,10.2-.62,0-2.16-.11-4.12-.21-.31-6.18-.93-9.27-2.78-13.39.92.1,2.57.21,3.09.21,1.23,0,1.65-.42,1.65-1.55V132.83h-5V155a64.75,64.75,0,0,0,.51,10.6Zm-9.48-66h10V94.2h-8c-.72,2.27-.93,2.68-2,5.36Zm179.43,65.92a109.35,109.35,0,0,0,.62-13.9V100.38a107.16,107.16,0,0,1-15,21,69.65,69.65,0,0,0-9.07-13.9V152a127,127,0,0,0,.62,13.08H866.28a110.38,110.38,0,0,0,.61-13V124c.1-3.4.1-3.4.21-7a75.26,75.26,0,0,1-7.1,7.93,70.5,70.5,0,0,0-6.39-18.74c6.9-5.67,13-14.63,17.82-26.16a51.58,51.58,0,0,0,4-13.19l16.07,5c-.93,2.26-1.13,2.78-2.16,5.87a124.37,124.37,0,0,1-7,16.58v12.16a66.65,66.65,0,0,0,13.7-19.47c3.81-7.83,6.28-14.94,7-19.57L919.53,71c-1,2.67-1.44,3.7-2.16,5.66-1,3-1.34,3.71-2.06,5.46h23.38a100.25,100.25,0,0,0,13.08-.62V96.89a112.48,112.48,0,0,0-13-.62H922.1v9.58h14.52a85.92,85.92,0,0,0,11.23-.52v15c-3.81-.31-7.42-.51-11.43-.51H922.1v9.58h14.42a93,93,0,0,0,11.44-.52v15.14a106.56,106.56,0,0,0-11.44-.51H922.1v7.93a104.06,104.06,0,0,0,.62,14Zm-865.3,0a70.69,70.69,0,0,0,.82-12.67v-8.55H16.52A115.47,115.47,0,0,0,2,145V128.7a123.64,123.64,0,0,0,14.52.62H41.35v-.62a73.27,73.27,0,0,0-.41-7.41c-.72,1-1.14,1.64-2.16,3.29a81.27,81.27,0,0,1-10.4-10.91c-4.13,5.56-7.11,8.65-14.63,15.34A58.88,58.88,0,0,0,2.63,116.76,51.44,51.44,0,0,0,18,101.92a35.81,35.81,0,0,0,5.26-10.5h-6.8a114.14,114.14,0,0,0-13.08.51V76.17a123.93,123.93,0,0,0,13.49.62H41.25V74.73a40.11,40.11,0,0,0-.52-6.28H58a29.83,29.83,0,0,0-.52,6.18v2.16H83.89a114.76,114.76,0,0,0,13-.62V91.93a103.69,103.69,0,0,0-12.46-.51H66l12.46,3a67.27,67.27,0,0,1-3,6.38A51.69,51.69,0,0,0,97.9,113.25,73.58,73.58,0,0,0,89.56,128c-9.27-4.12-15.76-8.54-21.43-14.83a103.82,103.82,0,0,1-8.55,10.4c-.82-1.13-1-1.44-1.75-2.37a73.65,73.65,0,0,0-.31,7.42v.72H83.68a129.87,129.87,0,0,0,14.63-.61V145a117.12,117.12,0,0,0-14.63-.72H57.52v8.34a82.65,82.65,0,0,0,.73,12.87Zm.92-44.8h16a43.49,43.49,0,0,0-9.06-7.73,50.25,50.25,0,0,0-6.91,7.73ZM39.09,94.3a59.92,59.92,0,0,1-2.89,6.38A48.75,48.75,0,0,0,49,111.6a44.48,44.48,0,0,0,13.6-20.18H26.11Zm387.69,54.39c3-1,6.38-3,13-7.83V121.39h-4.34a37,37,0,0,0-6.48.51V106.35a52,52,0,0,0,8.54.52h10a60.11,60.11,0,0,0,7.93-.41,105,105,0,0,0-.41,11.63V141c2.68,3.91,4.63,5.46,8.55,6.69,3.6,1.14,10.3,1.65,20.08,1.65,18.34,0,32.55-.72,43.57-2.37a77.37,77.37,0,0,0-3.81,16.79c-8.24.31-25.86.52-38.63.52-22.86,0-29.46-1.75-36.87-10a105.11,105.11,0,0,1-12.77,9.88c-.62.42-.93.72-1.65,1.24Zm351.33,15.86c-.52-6.49-1.34-9.79-3.91-15,5.66.51,10,.82,12.77.82,4.12,0,4.74-.41,4.74-3.09V82.35a104,104,0,0,0-.52-13.08h16.38c-.52,2.89-.62,5.77-.62,12.46V150c0,6.49-1,9.58-3.91,11.64-2.68,2.06-8.25,3.09-16,3.09-1.85,0-2,0-9-.2ZM570,154.76c2.26-7.31,3.29-15.24,3.6-27.5l10.3,1.34c-.21,13-1.34,22.25-3.5,31.52Zm-57-10.2H471.27a92.57,92.57,0,0,0-10.4.31,90.26,90.26,0,0,0,.31-10.4V109.85c0-.72,0-2.37.11-4.33a23.13,23.13,0,0,1-3.2,3.92c-2.57-5.56-4.32-8.65-7.1-12.15l-3.5,3.5c-5.67-8-10.3-12.88-19.16-20.41L440,69.26c8.45,6.8,14.21,12.46,18.44,18.13,6-7.31,9.68-13.7,11.43-19.67l16.68,2.78c-2.36,4.32-4,7-5.87,9.78H489A65.78,65.78,0,0,0,495.38,68l16.17,2.17c-.51.82-.51.82-1.23,2.06-1.65,3-3.71,6.38-4.85,8h7.11a75.19,75.19,0,0,0,10.61-.51V93.88a55.37,55.37,0,0,0-8.14-.42H503.31V98h6.08A85.42,85.42,0,0,0,520,97.69v12.46a85.42,85.42,0,0,0-10.61-.31h-6.08v4.54h6.08a89.47,89.47,0,0,0,10.61-.31v12.46a85.42,85.42,0,0,0-10.61-.31h-6.08v4.94h9.48a89.11,89.11,0,0,0,10.71-.41V145a92.15,92.15,0,0,0-10.51-.4Zm-36.67-13.39h11.95v-4.94H476.32Zm0-16.79h11.95v-4.53H476.32Zm0-16.38h11.95V93.47H476.32Zm296.33,42.23c.41-2.68.52-4.22.52-10.4V87.61A69.71,69.71,0,0,0,772.65,77h15a88.69,88.69,0,0,0-.41,10.3v42.54a78.51,78.51,0,0,0,.41,10.4ZM318.72,116.86a15.71,15.71,0,0,1,15.63-15.76h.13a15.65,15.65,0,0,1,15.66,15.65h0a15.66,15.66,0,0,1-15.59,15.75h-.06a15.68,15.68,0,0,1-15.77-15.58ZM354,34.24c4.51-1.52,6.68-2.71,9.51-5.29a31.85,31.85,0,0,1-3.4-6.19c-.62.66-.86.94-1.68,1.72a18.34,18.34,0,0,0-2.3-3.36,28.14,28.14,0,0,0-1.6,4.51,15.67,15.67,0,0,1-2-3.57c.08,2.3.12,3.49.12,4.3V34.6a38.89,38.89,0,0,0,.24,5.29h-6.51a42.42,42.42,0,0,0,.29-5.29V29.23c0-1.47,0-2.83.09-4a20.83,20.83,0,0,1-3.2,6.6,36.15,36.15,0,0,0-2.54-6.9,26.12,26.12,0,0,0,5.16-11.14h-.82A21.17,21.17,0,0,0,342,14V7.91a20,20,0,0,0,3.28.21h1.27V5.45a28.91,28.91,0,0,0-.25-4.26h6.48a31.9,31.9,0,0,0-.2,4.26V8.12h1A13.16,13.16,0,0,0,355.88,8v6a11.76,11.76,0,0,0-2.13-.16h-1.11a14.4,14.4,0,0,0,2.95,4.87,19.4,19.4,0,0,0,5.21-7.46,35,35,0,0,0-4.22.25V5.12a37.13,37.13,0,0,0,4.83.25h2.95V4.18a14.54,14.54,0,0,0-.2-2.87h6.68a18,18,0,0,0-.16,2.75V5.37h4.1a37.9,37.9,0,0,0,4.88-.25v6.32a42.55,42.55,0,0,0-4.92-.25h-.94a17.62,17.62,0,0,0,1.68,2.67,24.8,24.8,0,0,0,5,5,23.89,23.89,0,0,0-3.36,5.45c-1-.86-1.48-1.27-2.09-1.8a33.66,33.66,0,0,1-3.57,6.36,24.21,24.21,0,0,0,9.18,4.59,26.71,26.71,0,0,0-3,6.44A29.86,29.86,0,0,1,367.4,33.5a29.07,29.07,0,0,1-9.88,6.44,21.39,21.39,0,0,0-3.53-5.7Zm13.4-9.88a19.83,19.83,0,0,0,2.34-5.13l4,2a29.56,29.56,0,0,1-5.21-8l3.44-2h-9.43l4,2a38.87,38.87,0,0,1-5,7.88l3.36-1.73a20.73,20.73,0,0,0,2.51,5Zm376.9,15.5a34.13,34.13,0,0,0,.25-5.25v-3.9l-7.46,1.52c-2.26.49-3.12.7-4,1l-.49-6.44a24.29,24.29,0,0,0,4-.54l8-1.64V10.13l-3.24,4a46.2,46.2,0,0,0-7.58-6.52l3.81-4.47a46,46,0,0,1,7,5.42V6.44a30.88,30.88,0,0,0-.25-5.17h6.77a33.16,33.16,0,0,0-.25,5.17V23.29a24.61,24.61,0,0,0,3.49-.94l.2,6.44a35.48,35.48,0,0,0-3.69.61v5.25a33.62,33.62,0,0,0,.25,5.21ZM722,39.73a49.92,49.92,0,0,0,.25-5.33V29.69c0-.7,0-1.52.12-3.36a21.17,21.17,0,0,1-4.18,7,37.53,37.53,0,0,0-2.63-6.36,22.63,22.63,0,0,0,6-9.35h-1.6a24.21,24.21,0,0,0-3.61.21v-6A25.29,25.29,0,0,0,720,12h2.21V9.11c-.9.16-1.76.28-4.06.57a25.73,25.73,0,0,0-2-5.45C723,3.61,728.06,2.43,730.56,1L734.08,6a40.09,40.09,0,0,1-5.78,1.85V12h1.52a17,17,0,0,0,3.2-.21v5l3-3.44a49.49,49.49,0,0,1,7.58,6.19l-3.73,4.84a47.42,47.42,0,0,0-7.58-6.64c-.9-.05-1.56-.09-2.5-.09h-1.24A23.32,23.32,0,0,0,734,22.76,32.19,32.19,0,0,0,731.26,29a26,26,0,0,1-3.07-4.22c0,.65.08,1.8.12,3.4V34.4a36.52,36.52,0,0,0,.25,5.33Zm-417.78-.12a24,24,0,0,0-1.8-6c2.25.21,3.81.33,5,.33,1.64,0,1.93-.12,1.93-.86V29.16h-10a50.92,50.92,0,0,0-5.66.24V23.17a47.19,47.19,0,0,0,5.58.29H309.3a12.43,12.43,0,0,0-.12-1.93h2.25a14.62,14.62,0,0,0,2.79-2.09h-8.49a41.87,41.87,0,0,0-4.34.16V14.07c1.35.12,2.42.16,4.38.16H318a20.57,20.57,0,0,0,3.24-.16l3,3.4c-.45.37-.62.53-1.24,1.11a65,65,0,0,1-5.74,4.87h7.59a53.13,53.13,0,0,0,5.78-.28V29.4a52.11,52.11,0,0,0-5.86-.24h-9.1v5.7c0,4-1.4,4.87-7.75,4.87-.7,0-1.81,0-3.73-.12Zm-88.81,0A18.83,18.83,0,0,0,213.68,34a37.9,37.9,0,0,0,4.64.29c1.35,0,1.6-.12,1.6-.86V31.21h-12a35.37,35.37,0,0,1,5,4.63l-5.08,3.85a37.48,37.48,0,0,0-6.07-5.94l3.65-2.54h-5.53c-1.52,0-3,.08-4.51.2v-5.7A29.13,29.13,0,0,0,200,26h19.89V24.6H202.74c-2.26,0-3.16,0-4.3.13a34.28,34.28,0,0,0,.16-3.65v-7.5a34.17,34.17,0,0,0-.16-3.65c1.14.08,1.92.12,4.3.12h7.95V8.82H199.87a33.89,33.89,0,0,0-4.51.21V3.37a28,28,0,0,0,4.67.24h10.66a15.53,15.53,0,0,0-.25-2.45H217a14.42,14.42,0,0,0-.24,2.45h11.11a28.54,28.54,0,0,0,4.71-.24V9a34.57,34.57,0,0,0-4.55-.21H216.8v1.23h8.4c2.38,0,3.2,0,4.34-.12a34.17,34.17,0,0,0-.16,3.65v7.5a34.28,34.28,0,0,0,.16,3.65A32.49,32.49,0,0,0,226,24.6V26h2a29.75,29.75,0,0,0,4.72-.25v5.7c-1.48-.12-3-.2-4.55-.2H226v4.06c0,3.44-1.73,4.46-7.43,4.46-.68,0-1.75,0-3.14-.08Zm1.4-19h6.52V19.11H216.8Zm-12.18,0h6.07V19.11h-6.07ZM216.8,15.5h6.52V14.07H216.8Zm-12.18,0h6.07V14.07h-6.07ZM63.54,39.69a53.18,53.18,0,0,0,.29-5.5V32H61.16a39.09,39.09,0,0,0-4,.21V28.45a35.74,35.74,0,0,1-6.24,5.21,23.43,23.43,0,0,0-3.24-6.11A33.91,33.91,0,0,0,56.41,20a29.8,29.8,0,0,0,4.38-6.56H54.15a39.92,39.92,0,0,0-5.24.29V7.26a41.73,41.73,0,0,0,5.24.29h9.68V5.05a18.45,18.45,0,0,0-.29-3.86h7a19.17,19.17,0,0,0-.24,3.86v2.5H80.39a41.3,41.3,0,0,0,5.33-.29v6.48a41.3,41.3,0,0,0-5.33-.29H73.14a27.31,27.31,0,0,0,4.71,6.72,33.07,33.07,0,0,0,9.23,7.09,27.09,27.09,0,0,0-3.33,6.32,38.91,38.91,0,0,1-6.4-5v3.69a39.34,39.34,0,0,0-4.1-.21h-3v2.17a43.87,43.87,0,0,0,.29,5.5Zm6.77-17.18v3.9h5A41.68,41.68,0,0,1,70.1,19c.17,2.33.21,2.78.21,3.48ZM59,26.41h4.84V22.6A34.61,34.61,0,0,1,64,19.07a36.6,36.6,0,0,1-5,7.34ZM113,36V33.42h-6.24v1.8h-6.23a39.91,39.91,0,0,0,.25-4.63V23.66a32.06,32.06,0,0,0-.21-4.27,37.4,37.4,0,0,0,4.23.17h22.71a36.29,36.29,0,0,0,4.3-.17,36.36,36.36,0,0,0-.16,4.3v7a22.54,22.54,0,0,0,4.06,1.1c-.29,3.82-.66,5.21-1.73,6.19-1.31,1.23-3.61,1.56-11.27,1.56-8.36,0-9.71-.48-9.71-3.6Zm6-1.88c0,.4.17.57.66.73a30.89,30.89,0,0,0,4.51.21,15.83,15.83,0,0,0,4.55-.41c.41-.16.57-.49.7-1.19H119Zm0-4.64h6.56V28.09H119Zm-12.17,0H113V28.09H106.8ZM119,24.64h6.56V23.33H119Zm-12.17,0H113V23.33H106.8ZM244.93,39.49a51.22,51.22,0,0,0,.24-5.54V6.85A46.33,46.33,0,0,0,245,2.14a35.73,35.73,0,0,0,4.14.16h8.57a32.55,32.55,0,0,0,4.19-.16c-.08,1.23-.13,2.13-.13,3.73v9.64a32.19,32.19,0,0,0,.09,3.56c-1.24,0-2.22-.08-3.37-.08h-7.13V34a45.91,45.91,0,0,0,.24,5.5Zm6.43-25.17h4.76V12.67h-4.76Zm0-5.46h4.76V7.22h-4.76ZM26.89,39.41v-2H9.83v2H3.06c.17-1.69.25-3.57.25-5.62V7.22c0-1.52-.08-3-.2-4.67,1.35.12,2.83.2,4.71.2H29.18a36.38,36.38,0,0,0,4.55-.2c-.12,1.76-.2,3.28-.2,4.63V33.79a55.6,55.6,0,0,0,.24,5.62ZM9.83,31.21H26.89V22.64H9.83Zm0-14.44H26.89V8.82H9.83ZM524.94,32.89c7.39-2.14,10.7-5.87,11.07-12.43h-8.4a49.26,49.26,0,0,0-6.19.21V13.78a37.15,37.15,0,0,0,6.32.33h22.83a40.57,40.57,0,0,0,6.52-.29v6.85a54.61,54.61,0,0,0-6.4-.21h-7c-.28,4.68-1.1,7.55-2.95,10.58-2.13,3.57-5.49,6.15-11,8.32A20,20,0,0,0,525,32.89Zm54.74.12c6.11-1.68,9.35-3.94,11.07-7.63.94-2.21,1.23-4.3,1.27-8.85h-8.69v4.63a31.28,31.28,0,0,0,.16,4.22H576a29.38,29.38,0,0,0,.25-4.3V16.53h-1.56a46.61,46.61,0,0,0-5.78.21v-7a34.26,34.26,0,0,0,5.9.28h1.44V7a24.71,24.71,0,0,0-.25-4.3h7.47a30.7,30.7,0,0,0-.17,4.18v3.16h8.78c0-.9,0-1.72,0-2V7.19A26.49,26.49,0,0,0,591.94,3h6.68c-.12-.25-.24-.45-.53-.95l3.12-.9A29.84,29.84,0,0,1,604,7.68l-3.24,1.11a41.6,41.6,0,0,0-1.6-4.72c0,.62,0,.74,0,1.32,0,.86,0,2.41,0,4.67h1.64a36.29,36.29,0,0,0,5.9-.29v7a53.08,53.08,0,0,0-5.78-.2H599c-.08,6.35-.62,9.67-2,12.5-2.38,4.88-6.28,8-12.79,10.25A20.93,20.93,0,0,0,579.68,33ZM156.24,39.24a22.89,22.89,0,0,0-1.76-6.8,39,39,0,0,0,6.11.41c1.64,0,1.88-.13,1.88-.9V23.29h-9.88a60.22,60.22,0,0,0-6.15.25V16.9a58,58,0,0,0,6.32.24h9.71V16a27.72,27.72,0,0,0-.16-3.53h3.32a21.82,21.82,0,0,0,4.51-3.9H156.37a52.27,52.27,0,0,0-5.74.25V2.34a42.06,42.06,0,0,0,5.61.25H174a18.92,18.92,0,0,0,4-.21l3.61,4c-.74.66-1.07,1-1.6,1.52a65.25,65.25,0,0,1-10.78,8.9v.33h8.61A58.88,58.88,0,0,0,184,16.9v6.64a58.12,58.12,0,0,0-6.19-.24h-8.65V34c0,4.26-1.76,5.32-8.86,5.32,0,0-1.35,0-4.05,0Zm112.88,0A19.46,19.46,0,0,0,267.64,33a51.87,51.87,0,0,0,5.58.28c1.06,0,1.31-.16,1.31-.9V19h-7.46c-1.24,0-2.46,0-3.37.08,0-.74.09-1.72.09-3.61V5.87c0-1.44-.05-2.59-.13-3.73a34.37,34.37,0,0,0,4.18.16h8.9a35.73,35.73,0,0,0,4.14-.16c-.12,1.39-.16,2.37-.16,4.63V33.5c0,4.8-1.36,5.74-8.2,5.74-.82,0-2,0-3.4,0Zm.45-24.85h5V12.67h-5Zm0-5.49h5V7.22h-5ZM635.28,38.63a56,56,0,0,0,.24-6.6V20.71a69.46,69.46,0,0,1-13.41,6.07,21.89,21.89,0,0,0-3.93-6.6A59.27,59.27,0,0,0,640,9.51c3.53-2.66,6.28-5.45,7.47-7.5l6.64,4.43A15.36,15.36,0,0,0,652.46,8,68.74,68.74,0,0,1,643,16.2V32a56.78,56.78,0,0,0,.24,6.65Zm34.48-8.9a41.08,41.08,0,0,0,12.34-3,24.63,24.63,0,0,0,12-10.12,38.25,38.25,0,0,0,4-8,26.43,26.43,0,0,0,6,5.49c-3.72,8.08-7.62,12.92-13.36,16.61-4.43,2.87-8.33,4.39-15.95,6.15-1.6.37-1.84.41-3,.74ZM930.1,35.34a6.51,6.51,0,0,1-3.19-3.72,24.51,24.51,0,0,1-.78-7.13V15a42,42,0,0,1,.24-5.26,7.4,7.4,0,0,1,1.43-3.37,8,8,0,0,1,3.3-2.55,13.48,13.48,0,0,1,11,.51,6.91,6.91,0,0,1,3.19,3.59,21.64,21.64,0,0,1,.76,6.7v3.08h-8.43V12.08A10,10,0,0,0,937.35,9a1.15,1.15,0,0,0-1.19-.6,1.24,1.24,0,0,0-1.32.74,11.07,11.07,0,0,0-.28,3.2V27.39a10.36,10.36,0,0,0,.28,3.09,1.46,1.46,0,0,0,2,.53,1.5,1.5,0,0,0,.53-.53,12.07,12.07,0,0,0,.29-3.39V23h8.42v1.26a24.81,24.81,0,0,1-.71,7.13,7.26,7.26,0,0,1-3.14,3.68,10.83,10.83,0,0,1-6,1.58,12.43,12.43,0,0,1-6.1-1.34Zm-114.39.49a7.78,7.78,0,0,1-4.83-6.26,68.32,68.32,0,0,1-.24-7V17c0-3.26.08-5.56.23-6.92a7.75,7.75,0,0,1,4.71-6.3,12,12,0,0,1,4.81-.9,12.43,12.43,0,0,1,4.67.85A7.8,7.8,0,0,1,829.9,10a68.32,68.32,0,0,1,.24,7v5.54q0,4.89-.23,6.92a7.76,7.76,0,0,1-4.72,6.3,13.25,13.25,0,0,1-9.47,0Zm3.7-26.93a7.54,7.54,0,0,0-.35,3V27.05a15.06,15.06,0,0,0,.23,3.48,1,1,0,0,0,1.07.66,1,1,0,0,0,1.1-.76,15.68,15.68,0,0,0,.24-3.62V11.92a9.74,9.74,0,0,0-.25-2.9,1,1,0,0,0-1-.63,1.15,1.15,0,0,0-1,.52ZM784,35.34a6.53,6.53,0,0,1-3.18-3.72,24.47,24.47,0,0,1-.78-7.13V15a42,42,0,0,1,.24-5.26,7.45,7.45,0,0,1,1.43-3.37A8,8,0,0,1,785,3.84a13.49,13.49,0,0,1,11,.51,6.9,6.9,0,0,1,3.18,3.59,21.35,21.35,0,0,1,.76,6.7v3.08h-8.42V12.08A10.66,10.66,0,0,0,791.24,9a1.16,1.16,0,0,0-1.19-.6,1.26,1.26,0,0,0-1.33.74,11.43,11.43,0,0,0-.28,3.2V27.39a10.7,10.7,0,0,0,.28,3.09,1.22,1.22,0,0,0,1.27.72,1.2,1.2,0,0,0,1.23-.72,12.07,12.07,0,0,0,.29-3.39V23h8.42v1.26a25.16,25.16,0,0,1-.7,7.13,7.28,7.28,0,0,1-3.15,3.68,10.83,10.83,0,0,1-6,1.58A12.37,12.37,0,0,1,784,35.34ZM1075.6,36a6.63,6.63,0,0,1-3.06-2.09,8.83,8.83,0,0,1-1.62-3,18.19,18.19,0,0,1-.48-5V14.56a21.58,21.58,0,0,1,.76-6.69,6.63,6.63,0,0,1,3.07-3.56A10.78,10.78,0,0,1,1079.82,3a11.66,11.66,0,0,1,4.77.93,7.89,7.89,0,0,1,3.14,2.27,7.42,7.42,0,0,1,1.41,3,27.57,27.57,0,0,1,.38,5.37V25.37a26,26,0,0,1-.4,5.36,7.56,7.56,0,0,1-1.67,3.15,7.25,7.25,0,0,1-3,2.1,12,12,0,0,1-4,.64,14.87,14.87,0,0,1-4.82-.67Zm3.21-27.31a10.73,10.73,0,0,0-.29,3.19V27.65a12.13,12.13,0,0,0,.27,3.4,1.42,1.42,0,0,0,2,.31,1.49,1.49,0,0,0,.38-.41,10.5,10.5,0,0,0,.28-3.06V11.83a12.52,12.52,0,0,0-.25-3.23A1.1,1.1,0,0,0,1080,8a1.16,1.16,0,0,0-1.19.7ZM1017.21,36a6.63,6.63,0,0,1-3.06-2.09,8.83,8.83,0,0,1-1.62-3,18.19,18.19,0,0,1-.48-5V14.56a21.89,21.89,0,0,1,.77-6.69,6.61,6.61,0,0,1,3.06-3.56A10.79,10.79,0,0,1,1021.44,3a11.62,11.62,0,0,1,4.76.93,8.09,8.09,0,0,1,3.15,2.27,7.4,7.4,0,0,1,1.4,3,27.57,27.57,0,0,1,.38,5.37V25.37a26,26,0,0,1-.4,5.36,7.56,7.56,0,0,1-1.67,3.15,7.25,7.25,0,0,1-3,2.1,12,12,0,0,1-4,.64,14.84,14.84,0,0,1-4.81-.67Zm3.22-27.31a10.41,10.41,0,0,0-.29,3.19V27.65a11.76,11.76,0,0,0,.26,3.4,1.16,1.16,0,0,0,1.18.58,1.14,1.14,0,0,0,1.18-.68,10.16,10.16,0,0,0,.28-3.06V11.83a12.52,12.52,0,0,0-.25-3.23,1.1,1.1,0,0,0-1.17-.65,1.16,1.16,0,0,0-1.19.7Zm-519,27.22A7.1,7.1,0,0,1,499.19,34l-.52,2H491.1V3.59h8.09v7.66a6.61,6.61,0,0,1,2.23-1.73A6.33,6.33,0,0,1,504.1,9a7.49,7.49,0,0,1,2.88.52,4.19,4.19,0,0,1,1.86,1.47,4.36,4.36,0,0,1,.77,1.84,35.11,35.11,0,0,1,.13,3.84v12a17.67,17.67,0,0,1-.39,4.35,4.54,4.54,0,0,1-1.83,2.49,5.67,5.67,0,0,1-3.42,1,5.8,5.8,0,0,1-2.65-.62Zm-2-21.65a9.92,9.92,0,0,0-.22,2.77V28.43a9,9,0,0,0,.25,2.74,1.11,1.11,0,0,0,2,0,11,11,0,0,0,.23-3V17a8.7,8.7,0,0,0-.26-2.69,1,1,0,0,0-1-.63.91.91,0,0,0-.95.55ZM467,35.74a7,7,0,0,1-4.56-4.88,18,18,0,0,1-.42-4.51V18.6a13.11,13.11,0,0,1,.94-5.5A6.49,6.49,0,0,1,466,10,10.78,10.78,0,0,1,470.94,9a11,11,0,0,1,5.61,1.29,7.06,7.06,0,0,1,3.1,3.42,15.91,15.91,0,0,1,.89,6v3.52H470.07v5.75a6.29,6.29,0,0,0,.26,2.32,1,1,0,0,0,1,.52,1.2,1.2,0,0,0,1.23-.69,7.53,7.53,0,0,0,.31-2.67v-3.5h7.67v2a17.85,17.85,0,0,1-.31,3.79,7.73,7.73,0,0,1-1.45,2.82,7.05,7.05,0,0,1-2.9,2.25,11.16,11.16,0,0,1-4.39.75,12.63,12.63,0,0,1-4.51-.74Zm3.3-21.57a11,11,0,0,0-.2,2.75v1.94h2.36V16.92a9.9,9.9,0,0,0-.21-2.66.86.86,0,0,0-.9-.6c-.56,0-.9.17-1,.51ZM1041.58,36V31.37q7.9-12.93,9.4-16a12.07,12.07,0,0,0,1.49-4.8,3.49,3.49,0,0,0-.45-2,1.56,1.56,0,0,0-1.37-.65,1.5,1.5,0,0,0-1.37.72,6,6,0,0,0-.45,2.87v3.08h-7.25V13.44a25.75,25.75,0,0,1,.28-4.3,7.61,7.61,0,0,1,1.38-3.1,7,7,0,0,1,2.86-2.3,10.38,10.38,0,0,1,4.23-.77c3.21,0,5.65.79,7.3,2.39a8,8,0,0,1,2.47,6.05,14.46,14.46,0,0,1-1.39,5.89q-1.39,3.11-8.2,13.17h8.87V36Zm-58.39,0V31.37q7.9-12.93,9.4-16a12,12,0,0,0,1.49-4.8,3.49,3.49,0,0,0-.45-2A1.56,1.56,0,0,0,992.26,8a1.51,1.51,0,0,0-1.37.72,6,6,0,0,0-.45,2.87v3.08h-7.25V13.44a25.75,25.75,0,0,1,.28-4.3A7.61,7.61,0,0,1,984.85,6a7,7,0,0,1,2.87-2.3A10.33,10.33,0,0,1,991.94,3c3.22,0,5.65.79,7.3,2.39a8.07,8.07,0,0,1,2.47,6.05,14.3,14.3,0,0,1-1.39,5.89q-1.4,3.11-8.2,13.17H1001V36Zm-22.67,0V10.07h-5V3.59H974v6.48h-5V36Zm-59.1,0V3.59h14.05v6.48h-5.63v6.15h5.28v6.17h-5.26v7.12H916V36Zm-18.69,0-4.38-14.74V36H871.3V3.59h7.05l4.72,14.59V3.59h7V36Zm-30.11,0-4.39-14.74V36h-7V3.59h7L853,18.18V3.59h7V36Zm-414,0q-1.43-7.47-2.54-17-.49,4.07-2.34,17H423.24L419.47,3.59h8.19l.86,11.31.89,10.91q.45-8.47,2.32-22.22h8.77c.12.94.42,4.51.92,10.69l.92,12.31q.69-11.76,2.34-23h8.19L449.12,36ZM112.65,18.74a34.15,34.15,0,0,0,.17-3.78V11.52h-9.27V17H97.69a20.3,20.3,0,0,0,.2-3.4V10.79a27.11,27.11,0,0,0-.16-3.61c1.35.08,2.42.12,5.65.12h9.44V6.23h-8.24c-1.93,0-3.08,0-4.56.13V1.52c1.72.17,3.44.25,5.17.25h22c1.71,0,3.42-.08,5.12-.25V6.36c-1.43-.08-2.54-.13-4.47-.13H119V7.3h10c3.24,0,4.26,0,5.66-.12a27.11,27.11,0,0,0-.17,3.61v2.78a19.3,19.3,0,0,0,.21,3.4H128.8V11.52H119V15a28.13,28.13,0,0,0,.17,3.78ZM669.34,10l4.71-5.77a59.25,59.25,0,0,1,11.28,8l-4.84,6.4a43.79,43.79,0,0,0-11.14-8.65ZM109.9,18.53h-3.44c-.57,0-1.19,0-1.76.09V15.91a9.4,9.4,0,0,0,1.76.08h3.44a9.54,9.54,0,0,0,1.77-.08v2.71a8.56,8.56,0,0,0-1.75-.08Zm16,0H122a11.66,11.66,0,0,0-1.77.08V15.91A9.54,9.54,0,0,0,122,16h3.94a9.4,9.4,0,0,0,1.76-.08v2.66A9.32,9.32,0,0,0,126,18.5Zm198.44-.16V12.55H299.86v5.78h-6.23a19.46,19.46,0,0,0,.2-3.41V10.41A26.33,26.33,0,0,0,293.67,7c1.47.12,2.54.16,5,.16h1a30.09,30.09,0,0,0-2.45-4.22l6-1.23a43.85,43.85,0,0,1,3.12,5.45h2.74A24.38,24.38,0,0,0,307,2.38l6.24-1.11a34.72,34.72,0,0,1,2.41,5.86h2.42a28.81,28.81,0,0,0,2.54-5.7l6.28,1.36a48.68,48.68,0,0,1-2.3,4.34h.82c2.54,0,3.73,0,5.12-.16a26.33,26.33,0,0,0-.16,3.44V15a29.17,29.17,0,0,0,.2,3.37Zm-197-3.28a12.91,12.91,0,0,0-1.39,0H122a11.66,11.66,0,0,0-1.77.08V12.38a8.75,8.75,0,0,0,1.77.08h3.94a6.91,6.91,0,0,0,1.76-.08v2.71a.89.89,0,0,0-.36,0ZM109.9,15h-3.44a11.47,11.47,0,0,0-1.76.08V12.38a9.4,9.4,0,0,0,1.76.08h3.44a15,15,0,0,0,1.77-.08v2.71a11.39,11.39,0,0,0-1.75-.08Zm433-5H532a62.2,62.2,0,0,0-6.4.21V3.24a33.87,33.87,0,0,0,6.52.33h10.66a53.48,53.48,0,0,0,6.07-.25c-.13-.25-.17-.29-.33-.57l3.32-1.07a26.85,26.85,0,0,1,3,6.56l-3.53,1.27a30.64,30.64,0,0,0-2.38-6.06v6.72c-1.22-.12-1.47-.12-6-.2Zm10.83-8.77,3.2-1.11a27.57,27.57,0,0,1,2.87,6.36l-3.2,1.27a28.9,28.9,0,0,0-2.86-6.52ZM603.09.94l3-.94a18.22,18.22,0,0,1,2.66,6.19l-3,1.11A30.86,30.86,0,0,0,603.1,1Z"/><g id="グループ_1847" data-name="グループ 1847"><g id="水" class="cls-2"><text class="cls-3" transform="translate(407.8 261)">水</text></g></g><g id="グループ_1849" data-name="グループ 1849"><g id="木" class="cls-2"><text class="cls-3" transform="translate(565.8 261)">木</text></g></g><g id="グループ_1850" data-name="グループ 1850"><g id="金" class="cls-2"><text class="cls-3" transform="translate(733.8 261)">金</text></g></g></g></g></g></svg>