<svg xmlns="http://www.w3.org/2000/svg" xmlns:xlink="http://www.w3.org/1999/xlink" width="830" height="500" viewBox="0 0 830 500"><defs><linearGradient id="a" x1="-0.047" y1="-0.038" x2="1.207" y2="1.369" gradientUnits="objectBoundingBox"><stop offset="0" stop-color="#00fccc"/><stop offset="0.34" stop-color="#00e1e4"/><stop offset="1" stop-color="#00a6c9"/></linearGradient><filter id="b" x="0" y="0" width="830" height="500" filterUnits="userSpaceOnUse"><feOffset dy="7" input="SourceAlpha"/><feGaussianBlur stdDeviation="3" result="c"/><feFlood flood-opacity="0.161"/><feComposite operator="in" in2="c"/><feComposite in="SourceGraphic"/></filter></defs><g transform="translate(-1049 -2988)"><g transform="matrix(1, 0, 0, 1, 1049, 2988)" filter="url(#b)"><rect width="812" height="482" rx="10" transform="translate(9 2)" fill="url(#a)"/></g><path d="M10,0H802a10,10,0,0,1,10,10V34a0,0,0,0,1,0,0H0a0,0,0,0,1,0,0V10A10,10,0,0,1,10,0Z" transform="translate(1058 2990)" fill="#fff"/><circle cx="4.5" cy="4.5" r="4.5" transform="translate(1065 3000)" fill="#eaeaea"/><circle cx="4.5" cy="4.5" r="4.5" transform="translate(1079 3000)" fill="#eaeaea"/><circle cx="4.5" cy="4.5" r="4.5" transform="translate(1093 3000)" fill="#eaeaea"/><line x2="35" transform="translate(1430 3050.5)" fill="none" stroke="#fff" stroke-linecap="round" stroke-width="4"/><line x2="35" transform="translate(1495 3050.5)" fill="none" stroke="#fff" stroke-linecap="round" stroke-width="4"/><line x2="35" transform="translate(1560 3050.5)" fill="none" stroke="#fff" stroke-linecap="round" stroke-width="4"/></g></svg>