<svg xmlns="http://www.w3.org/2000/svg" xmlns:xlink="http://www.w3.org/1999/xlink" width="347" height="214" viewBox="0 0 347 214"><defs><linearGradient id="a" x1="0.607" y1="1" x2="0.607" gradientUnits="objectBoundingBox"><stop offset="0" stop-color="#00fccc"/><stop offset="0.52" stop-color="#00caf9"/><stop offset="1" stop-color="#6945ff"/></linearGradient><filter id="b" x="0" y="0" width="347" height="214" filterUnits="userSpaceOnUse"><feOffset dy="7" input="SourceAlpha"/><feGaussianBlur stdDeviation="3" result="c"/><feFlood flood-opacity="0.161"/><feComposite operator="in" in2="c"/><feComposite in="SourceGraphic"/></filter></defs><g transform="translate(9 2.178)"><g transform="matrix(1, 0, 0, 1, -9, -2.18)" filter="url(#b)"><rect width="329" height="196" rx="10" transform="translate(9 2)" fill="url(#a)"/></g><path d="M10,0H319a10,10,0,0,1,10,10v4a0,0,0,0,1,0,0H0a0,0,0,0,1,0,0V10A10,10,0,0,1,10,0Z" transform="translate(0 -0.178)" fill="#fff"/><ellipse cx="1.5" cy="2" rx="1.5" ry="2" transform="translate(3 3.822)" fill="#eaeaea"/><circle cx="2" cy="2" r="2" transform="translate(8 3.822)" fill="#eaeaea"/><circle cx="2" cy="2" r="2" transform="translate(14 3.822)" fill="#eaeaea"/><circle cx="7" cy="7" r="7" transform="translate(34 26.822)" fill="#fff"/><rect width="46" height="3" transform="translate(54 31.822)" fill="#fff"/></g></svg>