<svg xmlns="http://www.w3.org/2000/svg" xmlns:xlink="http://www.w3.org/1999/xlink" width="361" height="222" viewBox="0 0 361 222"><defs><linearGradient id="a" x1="1.154" y1="-0.115" x2="0" y2="0.729" gradientUnits="objectBoundingBox"><stop offset="0" stop-color="#00fccc"/><stop offset="0.167" stop-color="#5959fe"/><stop offset="0.412" stop-color="#0be7d2"/><stop offset="0.671" stop-color="#00caf9"/><stop offset="1" stop-color="#6945ff"/></linearGradient><filter id="b" x="0" y="0" width="361" height="222" filterUnits="userSpaceOnUse"><feOffset dy="7" input="SourceAlpha"/><feGaussianBlur stdDeviation="3" result="c"/><feFlood flood-opacity="0.161"/><feComposite operator="in" in2="c"/><feComposite in="SourceGraphic"/></filter></defs><g transform="translate(9.229 2.298)"><g transform="matrix(1, 0, 0, 1, -9.23, -2.3)" filter="url(#b)"><rect width="343" height="204" rx="10" transform="translate(9 2)" fill="url(#a)"/></g><path d="M10,0H333a10,10,0,0,1,10,10v5a0,0,0,0,1,0,0H0a0,0,0,0,1,0,0V10A10,10,0,0,1,10,0Z" transform="translate(-0.229 -0.298)" fill="#fff"/><ellipse cx="2" cy="1.5" rx="2" ry="1.5" transform="translate(2.771 4.702)" fill="#eaeaea"/><ellipse cx="2" cy="1.5" rx="2" ry="1.5" transform="translate(8.771 4.702)" fill="#eaeaea"/><ellipse cx="2" cy="1.5" rx="2" ry="1.5" transform="translate(14.771 4.702)" fill="#eaeaea"/><line x2="14.768" transform="translate(156.966 25.528)" fill="none" stroke="#fff" stroke-linecap="round" stroke-width="4"/><line x2="14.768" transform="translate(184.393 25.528)" fill="none" stroke="#fff" stroke-linecap="round" stroke-width="4"/><line x2="14.768" transform="translate(211.82 25.528)" fill="none" stroke="#fff" stroke-linecap="round" stroke-width="4"/></g></svg>